<svg width="340" height="490" viewBox="0 0 340 490" fill="none" xmlns="http://www.w3.org/2000/svg">
<g clip-path="url(#clip0_19_1847)">
<mask id="mask0_19_1847" style="mask-type:luminance" maskUnits="userSpaceOnUse" x="0" y="22" width="341" height="622">
<path d="M0.282715 22.375H340.99V643.494H0.282715V22.375Z" fill="white"/>
</mask>
<g mask="url(#mask0_19_1847)">
<path d="M1.27428 413.996C7.98576 417.258 14.8493 419.743 22.1819 421.295C26.3932 422.229 30.6077 422.538 34.9743 421.762C36.847 421.453 38.4092 422.85 38.0955 424.869C37.6265 427.354 37.1607 429.994 36.847 432.477C35.9122 440.555 34.6637 448.629 31.3872 456.395C30.1387 459.344 29.5145 462.606 28.8902 465.713C26.0827 479.38 24.8342 493.356 24.5236 507.178C23.8994 536.064 22.6509 564.951 18.9054 593.682C18.7501 595.08 18.4364 595.856 16.8774 596.322C14.0698 597.098 12.3523 599.117 11.5728 601.757C11.2623 602.688 10.9486 603.776 10.7933 604.706C8.2963 614.958 9.23109 617.443 17.9706 623.187C31.2319 632.041 45.8971 637.942 61.1864 642.289C63.8387 643.068 66.491 643.532 69.2985 643.377C75.3857 643.222 78.5038 638.409 76.01 632.817C74.6031 629.555 72.2645 627.07 69.457 624.742C66.022 621.947 62.2797 619.616 58.5342 617.131C52.7606 613.406 47.6145 609.056 42.6205 604.552C41.6858 603.776 41.5273 602.842 41.841 601.603C45.7418 585.604 48.7046 569.455 51.6706 553.302C55.5714 531.251 60.0932 509.351 66.3357 487.922C69.1432 478.446 72.4198 469.129 72.7335 459.035C72.7335 457.48 73.1993 455.928 73.6683 454.531C75.6963 446.611 78.038 438.69 79.9076 430.77C80.5319 427.663 82.8736 426.266 84.2774 423.935C84.5911 423.314 85.0569 423.781 85.3706 424.093C88.0229 426.575 91.4546 427.354 94.8864 428.13C98.7872 429.061 102.688 429.373 106.589 429.682C107.837 429.682 108.462 429.994 108.617 431.392C109.396 439 109.241 446.456 106.275 453.597C104.247 458.414 103.467 463.382 103.312 468.507C101.595 509.042 102.064 549.419 104.247 589.954C104.405 592.594 104.561 595.08 102.064 597.098C100.66 598.183 100.191 600.202 99.722 602.066C99.1009 604.397 98.6319 606.725 98.3182 609.211C97.3834 617.598 98.6319 619.771 106.433 623.345C114.39 626.915 122.813 628.467 131.239 630.177C140.133 632.041 149.025 633.284 158.075 633.593C160.883 633.593 163.69 633.747 166.342 632.508C169.933 630.798 171.023 627.691 169.153 624.275C167.746 621.79 165.718 619.925 163.535 618.064C159.165 614.491 154.485 611.542 149.494 608.744C143.721 605.328 137.481 602.842 131.708 599.272C129.99 598.183 129.366 597.098 129.366 595.08C129.524 574.735 130.614 554.39 132.332 534.2C134.205 513.08 136.857 491.959 142.317 471.46C144.814 461.984 147.777 452.512 148.401 442.573C148.401 441.952 148.556 441.485 149.18 441.331C154.019 439.466 158.855 437.448 164.159 438.845C168.37 439.933 172.43 441.485 176.641 442.728C187.719 446.298 198.014 445.368 207.375 438.069C209.406 436.514 211.589 435.117 213.773 433.719C220.326 429.215 227.503 428.13 235.149 430.149C239.361 431.392 243.572 432.634 247.942 433.874C257.147 436.36 265.728 434.808 273.371 429.061C275.399 427.509 277.272 425.954 279.145 424.247C282.266 421.453 285.853 419.743 290.068 419.276C293.186 418.967 296.462 418.5 299.428 417.57C305.981 415.393 308.009 411.823 306.916 405.145C306.136 400.796 304.419 397.067 302.391 393.188C298.959 386.819 294.903 380.918 291.782 374.549C282.89 356.845 279.458 337.898 278.834 318.332C278.21 295.969 280.704 273.76 284.449 251.705C289.13 224.22 293.344 196.731 294.903 168.775C295.683 155.42 295.996 142.065 298.18 128.864C298.49 127 298.959 126.379 300.987 126.688C308.789 127.464 316.59 128.085 324.392 128.243C329.538 128.398 334.221 127.464 338.277 124.048C339.212 123.272 341.24 122.651 340.305 120.944C339.367 119.544 337.964 120.787 336.715 121.253C333.752 122.496 330.786 122.651 328.134 120.787C326.106 119.389 325.171 116.904 325.64 115.043C326.261 112.866 328.293 111.314 330.786 111.002C333.128 110.848 335.156 111.469 337.029 112.712C337.339 113.021 337.653 113.333 338.119 113.488C339.367 114.264 340.147 113.642 339.992 112.403C339.836 110.381 339.367 108.52 337.184 107.586C336.405 107.277 335.467 106.965 334.842 106.501C324.392 100.442 313.624 95.1617 302.86 89.727C301.925 89.2601 301.301 88.6388 300.677 87.8628C297.555 84.2923 293.499 81.9613 288.974 80.7185C287.881 80.4094 286.477 79.9426 285.543 80.4094C283.201 81.6522 281.486 80.564 279.614 79.788C276.961 78.6998 274.309 77.4571 271.657 76.5266C270.095 75.9052 269.939 75.1293 270.408 73.7319C271.812 69.3823 273.53 65.0326 275.713 60.8407C279.3 54.0086 281.328 46.8643 280.549 39.0987C280.083 34.9067 278.834 31.0239 275.244 28.5383C267.287 22.7914 258.237 20.9272 248.721 23.8796C241.075 26.2074 238.112 31.6452 239.047 39.5655C239.205 40.496 238.892 41.2719 238.581 42.051C237.019 45.7761 237.019 49.3499 238.581 53.075C238.892 53.8509 239.047 55.0937 240.295 54.63C241.544 54.1632 241.075 53.2327 240.764 52.4536C239.671 49.5044 239.205 46.5521 240.92 43.4483C243.261 46.243 245.914 47.7948 249.346 48.1071C251.529 48.4162 253.715 48.1071 255.743 47.4857C257.302 47.0189 257.771 47.4857 257.771 49.0376C257.927 52.1445 257.302 55.2514 256.209 58.2006C254.495 63.1716 252.777 68.2941 251.529 73.4197C251.218 74.5079 250.749 74.9747 249.656 75.2838C245.914 76.372 242.168 77.4571 238.267 78.5453C236.708 79.0121 235.149 79.788 233.587 78.0785C233.277 77.7693 232.339 77.6148 231.714 77.7693C226.568 78.3907 221.419 79.4758 216.739 81.4976C215.801 81.9613 214.552 82.5827 214.552 83.5163C214.552 85.8441 212.838 85.8441 211.434 86.4655C209.248 87.2414 207.064 88.0174 205.036 88.7965C200.201 90.5029 195.521 92.3671 190.996 94.8526C188.654 96.2499 186.626 97.9595 185.222 100.133C184.287 101.685 183.818 103.24 184.287 104.946C184.443 105.722 184.908 106.189 185.691 106.034C186.315 105.88 186.626 105.413 186.626 104.792C186.471 102.306 187.874 101.221 190.213 100.909C193.179 100.442 194.896 101.221 195.986 103.549C197.235 106.034 196.924 108.362 195.362 110.226C193.648 112.09 191.461 112.557 188.654 111.469C187.719 111.16 186.781 110.381 186.157 111.624C185.533 112.712 186.626 113.333 187.25 113.955C188.809 115.352 190.682 116.44 192.868 117.061C197.704 118.301 202.384 119.701 207.375 119.389C208.937 119.389 210.496 119.544 212.058 119.389C213.304 119.389 213.618 119.856 213.304 121.099C211.434 130.262 208.782 139.113 203.633 147.033C202.695 148.588 201.605 149.985 201.136 151.692C200.825 152.934 200.201 153.089 199.108 152.934C181.166 151.07 163.224 151.228 145.124 151.228C143.41 151.228 142.941 150.761 142.941 149.051C143.252 142.686 141.382 137.094 137.636 131.814C136.077 129.64 132.956 128.085 132.956 125.758C132.956 123.427 134.984 120.944 135.764 118.459C135.919 117.683 136.388 117.216 137.012 116.749C147.466 108.983 152.926 98.2686 154.643 85.6896C156.202 73.8865 149.963 63.3262 139.664 59.4433C138.105 58.822 137.167 58.046 136.543 56.491C131.083 43.2906 117.198 35.2158 103.623 37.8559C92.8584 39.8746 83.3426 44.8456 75.8516 52.9204C75.072 53.6964 74.2925 54.3177 73.1993 54.7846C67.8947 56.8033 63.5282 60.0647 60.0932 64.5689C54.3229 72.3346 50.4221 80.8762 49.6426 90.5029C48.8599 100.287 50.8911 109.296 58.3789 116.44C59.1584 117.216 59.0031 117.837 58.6894 118.613C57.4409 121.408 56.1956 124.36 54.9471 127.155C52.2948 133.056 50.5774 139.113 51.3569 145.635C51.5121 147.187 50.7326 147.966 49.4841 148.43C45.2728 149.985 42.4653 153.089 39.9683 156.508C35.4433 162.564 32.0115 169.087 28.4244 175.61C20.7781 189.895 14.0698 204.496 10.0138 220.337C8.2963 227.169 11.5728 232.14 18.4364 232.916C20.7781 233.225 22.6509 234.001 24.5236 235.244C31.3872 240.369 39.0335 243.476 47.1456 245.804C52.1364 247.204 51.9811 247.204 52.6054 252.327C53.5433 259.317 53.0744 266.149 52.9191 273.138C52.9191 274.381 52.4501 275.933 53.3849 276.709C54.7887 278.264 54.0091 279.507 53.5433 280.904C49.3289 291.152 43.4001 300.315 37.785 309.79C27.8002 326.407 18.2811 343.335 11.5728 361.661C5.64403 377.656 2.05697 394.118 0.650032 411.202C0.339491 412.29 0.0289507 413.22 1.27428 413.996ZM192.71 178.559C187.719 190.053 180.852 200.301 173.989 210.707C168.839 218.627 163.69 226.547 159.789 235.089C159.01 236.641 158.23 238.35 157.761 240.06C157.296 242.079 156.202 242.7 154.33 242.233C154.019 242.079 153.55 242.233 152.615 242.233C149.339 242.233 145.749 242.855 142.161 244.097C138.105 245.495 134.046 245.495 129.99 243.785C128.431 243.164 127.962 242.542 128.117 240.991C128.586 234.313 129.99 227.945 131.863 221.422C133.425 215.833 135.295 210.398 136.388 204.805C137.481 198.595 137.012 192.693 134.984 186.792C134.205 184.306 134.36 184.152 137.012 183.839C155.109 181.666 173.364 179.493 191.461 176.853C192.086 176.695 192.71 176.386 193.179 176.853C193.648 177.471 193.024 178.092 192.71 178.559ZM128.9 270.344C128.431 268.013 128.431 265.685 128.431 263.354C128.431 261.957 129.055 261.802 130.149 262.266C132.018 263.045 133.58 263.821 134.829 265.527C137.947 269.722 140.289 274.381 144.658 277.488C145.28 277.952 145.124 278.573 144.814 279.04C141.537 288.824 138.416 298.609 135.608 308.548C135.608 308.702 135.453 308.702 134.984 309.169C133.736 300.16 131.863 291.619 129.68 283.077C129.366 281.525 128.9 280.128 128.431 278.573C127.962 276.867 127.183 275.157 128.586 273.447C129.524 272.671 129.055 271.429 128.9 270.344ZM303.174 99.5114C303.484 97.9595 303.639 96.2499 303.484 94.698C303.174 92.6793 304.108 92.9884 305.202 93.6098C311.91 97.0258 318.463 100.442 325.171 103.861C326.886 104.792 328.603 105.722 330.631 106.81C325.951 108.52 322.05 110.693 322.364 115.973C322.674 121.099 326.575 123.272 331.1 124.669C329.072 125.603 327.199 125.603 325.327 125.603C317.059 125.291 308.944 124.824 300.677 124.203C298.804 124.048 298.49 123.272 298.804 121.72C300.518 114.421 301.925 106.965 303.174 99.5114ZM212.214 116.44C205.505 116.282 198.952 116.44 191.93 114.109C196.3 112.245 198.794 109.45 198.014 104.946C197.235 100.287 194.427 97.9595 188.968 98.114C190.837 96.4044 192.555 95.6285 194.272 94.8526C200.201 92.0579 206.285 90.0361 212.524 88.0174C214.086 87.5537 214.242 88.0174 214.397 89.2601C215.335 97.9595 214.711 106.501 213.462 115.043C213.304 115.819 213.304 116.44 212.214 116.44Z" fill="#555555"/>
</g>
<path d="M287.571 215.06C287.102 218.476 286.633 221.892 286.012 225.308C284.763 233.541 283.36 241.77 282.111 250.003C281.953 250.933 281.642 251.867 281.018 252.643C276.024 258.544 271.033 264.6 265.104 269.571C263.545 270.811 262.921 270.657 262.297 268.792C259.02 260.408 255.275 252.176 251.374 244.101C249.346 239.752 248.253 239.442 243.886 241.307C236.24 244.568 229.376 249.069 222.044 253.264C220.64 254.04 219.233 254.661 217.988 255.592C216.115 256.835 215.646 256.213 215.022 254.349C212.994 246.741 210.81 239.13 207.844 231.831C205.816 226.706 204.882 226.397 200.512 229.813C194.897 234.162 189.123 238.354 183.194 242.237C181.946 243.168 181.166 243.013 180.542 241.616C177.11 235.093 173.675 228.57 170.088 222.047C169.619 221.271 170.088 220.962 170.399 220.495C175.707 212.108 181.166 203.721 186.781 194.87C188.654 198.753 190.213 202.478 191.931 206.052C192.4 207.14 192.869 208.225 193.49 209.313C194.428 211.332 195.987 211.799 197.859 211.02C199.888 210.244 201.76 209.159 203.478 208.071C207.689 205.43 211.59 202.478 215.335 199.529C216.581 198.598 217.205 198.753 217.829 200.15C219.702 204.655 221.575 209.159 223.447 213.663C224.382 215.836 225.32 218.164 226.569 220.183C228.128 223.135 230.156 223.757 233.277 222.668C235.305 222.047 237.019 220.962 238.892 219.874C243.572 217.079 247.942 213.972 252.312 210.865C254.65 209.159 254.65 209.159 255.899 211.799C257.927 216.303 259.955 220.804 261.983 225.308C262.452 226.242 262.762 227.173 263.231 228.103C264.79 231.21 265.884 231.677 268.691 229.658C274.62 225.463 280.394 221.116 285.853 216.303C286.167 215.682 286.478 215.06 287.571 215.06ZM134.205 323.304C134.047 323.925 134.047 324.546 134.516 325.168C140.6 333.709 146.528 342.096 152.616 350.638C153.861 352.344 155.109 352.502 156.672 351.414C161.038 348.619 165.094 345.667 169.153 342.563C176.641 336.816 183.974 331.069 191.462 325.322C195.207 322.528 196.456 322.682 199.577 326.256C205.661 333.088 210.341 340.854 214.397 349.083C215.491 351.259 216.581 353.433 217.674 355.606C218.298 356.694 218.922 357.006 220.016 356.073C220.64 355.606 221.419 355.142 222.199 354.521C229.221 349.241 235.771 343.185 242.324 337.438C246.694 333.555 247.318 333.709 251.374 337.747C256.523 342.872 261.203 348.307 266.039 353.745C267.287 355.142 267.912 354.985 269.005 353.587C271.812 349.704 274.775 345.825 277.586 342.096C278.21 341.163 278.521 340.232 278.366 339.144C277.897 336.04 277.586 332.933 277.272 329.981C276.962 325.789 276.648 321.597 276.338 317.093C274.31 319.578 272.747 321.906 271.033 323.925C269.005 326.256 267.912 326.101 266.197 323.616C265.259 322.219 264.48 320.821 263.7 319.421C260.11 313.365 256.523 307.309 253.091 301.252C251.998 299.388 251.219 299.234 249.656 300.631C243.572 306.066 237.019 311.191 230.466 316.005C228.752 317.247 227.034 318.645 225.162 319.733C222.044 321.752 220.64 321.439 218.767 318.023C217.674 316.005 216.581 313.831 215.646 311.658C212.369 304.978 209.093 298.146 204.723 291.935C202.071 288.207 201.605 288.052 198.015 291.001C191.462 296.281 184.909 301.874 178.359 307.154C173.365 311.191 168.371 314.92 162.756 318.178C159.01 320.2 157.762 319.888 155.423 316.472C151.522 310.57 147.622 304.514 143.566 298.455C143.097 297.836 142.941 297.057 142.003 296.748C141.848 296.903 141.693 297.057 141.693 297.057C138.885 305.599 136.388 314.453 134.205 323.304ZM295.683 126.228C294.593 125.761 293.344 125.761 292.251 125.761C291.316 125.916 291.472 126.846 291.316 127.468C289.909 134.612 289.285 141.911 289.444 149.21C289.754 156.666 291.003 163.965 292.251 171.264C292.875 156.512 293.5 141.756 295.997 127.313C295.997 127.004 296.152 126.537 295.683 126.228ZM2.8368 408.72C5.48907 382.786 13.4459 358.713 25.614 335.728C32.3223 322.994 39.9686 310.725 47.3011 298.146C50.5777 292.556 53.5437 286.809 56.0375 280.753C56.5065 279.82 56.8202 279.044 58.0655 279.51C61.6557 280.908 65.4012 280.908 68.9883 280.753C84.5914 280.595 100.191 279.82 115.794 278.422C118.602 278.113 121.568 277.646 124.22 276.713C125.155 276.404 125.779 276.404 126.09 277.492C129.366 290.225 132.956 302.804 133.422 316.005C133.422 317.247 133.112 318.336 132.801 319.421C124.844 351.105 123.282 383.249 128.118 415.555C128.587 418.35 129.056 421.144 129.68 423.784C130.149 425.494 129.525 426.115 127.962 426.27C122.972 427.046 117.822 427.513 112.673 427.513C106.589 427.513 100.347 427.046 94.4178 425.648C92.5482 425.182 90.6754 424.718 88.958 423.784C85.9951 422.387 85.5262 420.99 85.6814 417.883C86.6194 405.304 86.7747 392.879 87.0852 380.3C87.7095 358.091 87.5542 335.883 88.8027 313.831C89.1132 309.636 89.4269 305.599 89.7375 301.562C89.7375 300.631 90.6754 299.076 88.958 298.767C87.2436 298.612 87.5542 300.319 87.3989 301.407C86.3057 311.191 85.8367 320.976 85.5262 330.76C84.7467 356.54 84.7467 382.164 83.6534 407.944C83.4981 411.827 83.4981 415.71 82.8739 419.592C82.0944 424.251 80.5322 425.958 75.8519 426.115C64.4633 426.27 53.2299 425.958 42.1519 422.542C37.6269 421.144 37.0058 420.056 37.7853 415.397C39.9686 402.042 43.0898 388.842 45.7421 375.487C48.3944 362.441 51.0466 349.395 53.6989 336.195C53.8542 335.573 53.8542 335.107 54.0095 334.485C54.0095 333.864 53.6989 333.243 53.0747 333.243C52.4504 333.088 51.9814 333.555 51.8262 334.176C51.6709 334.485 51.6709 334.952 51.5125 335.261C46.6769 359.025 41.8413 382.94 37.0058 406.701C36.2231 410.429 35.4436 414 35.2883 417.883C35.2883 419.28 34.5088 419.435 33.4155 419.592C30.7633 419.901 28.111 419.901 25.4587 419.435C18.4367 418.35 11.7284 416.019 5.17536 413.379C3.30261 412.448 2.68153 411.205 2.8368 408.72ZM115.325 306.22C115.481 306.842 115.639 307.309 115.794 307.93C117.353 313.365 118.757 318.645 119.695 324.237C121.099 331.845 121.878 339.611 122.813 347.377C122.972 348.307 122.813 349.395 124.062 349.241C125.155 349.241 125.155 348.307 125.155 347.686C123.751 333.4 121.878 319.578 117.822 306.22C117.822 306.066 117.667 305.757 117.667 305.599C117.353 304.978 117.043 304.514 116.263 304.823C115.481 304.978 115.325 305.599 115.325 306.22ZM54.789 319.112C54.789 319.733 55.258 320.2 55.8822 320.2C56.9754 320.042 56.9754 318.957 57.286 318.178C60.4072 307.463 63.839 296.903 68.9883 286.964C69.2988 286.188 69.9231 285.412 68.833 284.791C67.8951 284.169 67.4293 285.1 66.9603 285.721C66.6466 286.188 66.336 286.809 66.1808 287.273C61.5005 297.057 57.9102 307.309 55.1027 317.714C54.789 318.178 54.789 318.645 54.789 319.112ZM253.557 95.0109C264.166 94.8563 272.592 89.8853 280.083 82.5864C275.244 80.2586 270.409 78.549 265.573 76.5303C261.828 74.9784 258.082 73.8902 254.181 75.7544C254.026 75.7544 253.871 75.7544 253.716 75.9089C248.097 77.4608 242.638 79.0158 237.019 80.5677C236.24 80.7223 235.305 80.88 235.929 82.1196C238.892 88.6425 244.041 95.1654 253.557 95.0109ZM264.48 123.121C254.65 122.188 244.976 120.945 235.15 120.169C233.901 120.014 233.119 120.327 233.432 121.566C234.056 127.468 234.836 133.215 236.395 138.807C237.333 142.069 238.581 145.172 241.075 147.812C243.572 150.453 246.225 150.765 249.346 148.901C251.688 147.503 253.402 145.639 254.964 143.62C259.486 137.873 262.607 131.351 265.728 124.828C266.197 123.588 265.728 123.276 264.48 123.121ZM234.991 117.996C245.135 118.617 255.119 119.86 265.259 120.945C266.819 121.103 267.443 120.636 268.067 119.238C270.095 113.337 272.281 107.435 274.465 101.534C276.338 96.2536 278.521 90.9735 280.704 85.8479C280.394 85.8479 280.394 85.6933 280.394 85.8479C279.614 86.4692 278.835 87.0906 278.052 87.8666C272.437 92.683 266.197 95.7868 259.02 97.1841C248.877 99.0483 241.234 95.4777 235.929 86.6238C235.616 86.1601 235.305 85.6933 234.991 85.0719C233.277 95.6322 232.808 106.038 233.277 116.598C233.119 117.841 233.901 117.841 234.991 117.996ZM293.344 123.588C294.593 123.43 296.307 124.828 296.776 122.5C298.335 114.113 299.897 105.883 301.301 97.4964C301.612 95.6322 301.456 93.9226 300.208 92.0617C299.584 94.544 298.959 96.875 298.335 99.0482C296.152 106.505 293.655 113.958 292.406 121.724C292.251 122.5 291.937 123.588 293.344 123.588Z" fill="#555555"/>
<path d="M63.6838 161.944C65.0876 154.954 63.5285 151.383 57.1308 147.81C61.9663 145.791 66.0224 147.034 69.6126 150.295C70.3921 151.071 71.3269 151.693 72.1096 152.468C72.7338 152.935 73.3581 153.402 73.9823 152.626C74.6034 151.85 74.1376 151.229 73.6686 150.762C72.5754 149.674 71.4853 148.743 70.0816 147.501C74.2929 145.791 78.3489 145.636 82.405 147.034C83.3429 147.346 83.8087 148.122 84.433 148.743C86.3057 151.229 88.1785 153.711 89.5823 156.509C94.4178 165.36 99.4118 174.214 103.157 183.531C103.468 184.462 103.937 185.55 105.185 185.55C106.589 185.55 107.058 184.462 107.524 183.373C110.645 176.075 112.673 168.467 114.546 160.856C115.481 157.13 116.105 153.402 116.729 149.519C117.043 148.122 117.509 147.655 118.916 147.967H119.071C126.248 148.898 126.559 149.207 126.714 156.351C126.872 162.565 128.118 168.467 129.68 174.368C131.239 180.733 133.112 187.256 134.516 193.625C135.609 198.75 134.516 203.876 133.267 208.844C131.239 216.609 128.432 224.063 127.183 231.983C126.714 234.623 126.404 237.263 126.248 239.903C126.09 241.613 125.624 241.768 124.062 241.304C112.828 237.885 102.219 232.762 91.455 227.946C82.7187 224.063 74.1376 219.716 65.0876 216.143C58.224 213.503 51.202 211.638 43.8694 210.862C41.9967 210.708 41.9967 210.087 42.7762 208.689C48.3944 197.353 54.3232 186.171 59.3141 174.677C60.8763 170.794 62.7458 166.603 63.6838 161.944ZM277.741 345.355C275.089 348.771 272.592 352.187 269.94 355.603C268.226 357.78 266.977 357.78 264.949 355.915C264.325 355.294 263.545 354.518 262.921 353.742C258.706 348.926 254.65 344.112 250.125 339.608C246.069 335.571 247.004 335.88 243.107 339.299C236.395 345.201 229.842 351.257 222.668 356.537C218.298 359.644 217.205 359.486 214.711 354.673C212.369 350.014 210.028 345.355 207.375 340.696C204.413 335.725 200.981 330.912 197.08 326.562C195.987 325.32 194.897 325.165 193.648 326.099C192.244 327.184 190.682 328.272 189.123 329.36C180.228 336.347 171.492 343.491 162.287 350.014C160.572 351.257 158.7 352.342 156.827 353.43C154.799 354.673 152.926 354.206 151.522 352.499C150.743 351.566 149.963 350.635 149.181 349.547C144.345 342.715 139.51 335.88 134.671 329.202C134.36 328.739 134.047 327.805 133.112 327.805C132.957 328.581 132.643 329.36 132.643 329.978C127.497 355.294 126.248 380.764 129.056 406.389C129.835 413.997 131.084 421.608 133.267 428.907C134.047 431.393 134.829 433.875 136.857 435.739C140.758 439.467 145.28 440.243 150.119 437.916C156.203 434.963 162.287 434.963 168.685 437.294C172.585 438.692 176.486 439.934 180.542 441.019C189.123 443.196 197.08 441.953 204.413 436.827C207.22 434.809 210.186 432.945 212.994 431.08C219.547 426.734 226.569 425.646 234.212 427.355C237.957 428.131 241.7 429.374 245.29 430.614C249.346 431.856 253.557 432.635 257.927 432.323C264.791 431.856 270.409 428.753 275.244 424.094C280.083 419.432 285.698 416.792 292.406 416.328C295.372 416.174 298.335 415.394 301.143 413.997C303.485 412.754 304.578 410.89 304.578 408.25C304.578 404.68 303.64 401.418 302.236 398.157C300.519 394.428 298.649 390.858 296.463 387.442C288.506 375.017 282.735 361.662 279.614 347.219C279.459 346.131 279.459 345.043 278.835 344.112C278.21 344.421 278.052 344.888 277.741 345.355ZM276.182 261.958C272.906 265.686 269.471 269.256 265.415 272.209C263.232 273.761 261.983 273.448 260.89 271.121C260.424 270.032 259.955 268.947 259.486 267.859C256.368 259.939 252.622 252.328 249.035 244.72C248.253 243.01 247.163 242.389 245.445 243.323C243.262 244.408 240.92 245.341 238.892 246.426C232.184 250.155 225.631 254.037 218.922 257.92C215.491 259.784 214.397 259.318 213.304 255.747C213.149 254.968 212.838 254.347 212.683 253.571C210.652 246.272 208.469 239.127 205.661 232.141C204.882 230.277 204.413 229.81 202.695 231.207C197.391 235.557 191.62 239.594 185.847 243.477C181.322 246.584 180.542 246.272 177.89 241.458C174.924 235.711 171.806 229.964 168.685 223.908C168.216 224.684 167.905 224.997 167.591 225.46C162.601 233.226 159.635 241.925 156.672 250.467C156.203 251.706 156.827 252.173 157.762 252.64C160.572 254.192 163.38 255.589 166.032 257.299C168.84 259.005 171.337 261.182 172.741 264.289C173.989 267.083 173.834 269.723 171.961 272.209C166.812 279.041 157.296 282.148 149.181 279.508C147.777 279.041 147.466 279.508 146.997 280.593C146.063 283.545 145.28 286.494 144.19 289.134C142.941 291.932 143.41 293.951 145.125 296.433C149.494 302.492 153.55 309.015 157.607 315.226C158.544 316.778 159.635 317.245 161.197 316.157C162.756 315.226 164.315 314.296 165.719 313.362C174.458 307.46 182.415 300.628 190.527 293.951C193.179 291.774 195.676 289.601 198.484 287.582C201.291 285.564 203.009 285.873 205.192 288.513C207.22 290.999 208.938 293.639 210.497 296.433C214.087 302.647 217.205 309.324 220.326 315.693C221.885 318.797 222.044 318.954 225.007 316.778C232.808 311.189 240.141 305.287 247.473 299.073C251.688 295.503 252.622 295.657 255.585 300.474C259.644 307.306 263.701 314.138 267.601 321.128C268.381 322.525 269.005 322.525 269.94 321.282C271.502 319.109 273.061 316.778 274.779 314.759C276.024 313.207 276.493 311.498 276.493 309.479C276.493 295.812 277.586 282.148 279.614 268.481C280.083 264.598 280.707 260.869 281.173 256.987C278.99 258.542 277.586 260.248 276.182 261.958ZM188.968 194.092C190.527 197.195 191.931 200.457 193.335 203.564C196.301 210.087 196.301 210.087 202.229 206.204C206.441 203.564 210.497 200.457 214.397 197.353C216.739 195.643 218.143 195.956 219.547 198.438C220.171 199.681 220.795 200.924 221.419 202.166C223.447 206.825 225.162 211.638 227.348 216.3C229.687 221.423 230.466 221.581 235.305 219.095C240.454 216.455 245.135 213.039 249.815 209.62C255.119 205.737 255.744 205.895 258.551 211.951C260.893 216.919 263.076 221.89 265.26 226.861C265.884 228.1 266.353 228.413 267.601 227.482C274.465 222.202 281.642 217.385 287.571 211.017C288.04 210.399 288.35 209.932 288.506 209.156C290.068 197.974 290.847 186.947 289.91 175.611C289.285 168.776 288.35 161.944 287.571 155.266C286.012 141.287 288.506 127.623 291.782 114.11C293.344 107.433 295.528 100.91 297.4 94.3867C298.649 89.728 297.556 87.397 293.344 85.0692C292.562 84.6024 291.627 84.1387 290.847 83.8264C285.074 81.4955 285.388 82.1168 283.046 86.6211C279.769 93.2985 277.272 100.288 274.779 107.433C271.188 117.838 267.443 128.244 261.672 137.871C259.02 142.375 256.21 146.725 252.153 149.986C250.281 151.383 248.253 152.468 246.538 152.468C242.793 152.468 239.83 150.607 237.488 147.034C234.526 142.375 233.432 137.095 232.497 131.815C229.842 116.75 230.466 101.686 231.873 86.6211C232.029 84.9146 232.184 83.0505 232.339 81.3409C232.497 80.2559 232.184 79.6345 230.935 79.789C226.255 80.565 221.73 81.3409 217.363 83.205C216.581 83.5173 215.956 84.1387 216.27 85.0692C217.988 94.699 217.519 104.326 216.115 113.956C214.242 126.689 211.276 138.959 203.944 149.828C202.854 151.383 202.385 153.248 202.071 155.266C200.201 168.154 195.676 180.112 189.123 191.294C188.344 192.073 188.344 193.003 188.968 194.092ZM61.9663 278.11C62.28 278.11 62.5906 278.11 62.9043 278.11C71.4853 279.041 80.0664 278.11 86.3057 277.953C96.2906 277.489 103.937 277.022 111.58 276.555C115.95 276.246 120.475 275.625 124.686 274.07C126.404 273.448 127.183 272.363 126.714 270.499C126.09 268.014 126.09 265.528 126.248 263.046C126.404 261.491 125.935 261.027 124.375 260.869C114.701 260.093 104.872 259.163 95.3558 257.299C82.2497 254.813 69.2989 251.552 56.196 248.136C55.4133 247.981 54.0095 246.893 54.3232 249.066C55.5717 256.056 55.4133 263.2 55.1027 270.19C55.1027 276.401 56.0375 277.489 61.9663 278.11Z" fill="white"/>
<path d="M77.7247 430.46C75.3861 438.847 72.8891 447.234 71.0163 455.621C70.8611 456.552 70.3921 457.64 70.3921 458.725C70.0816 469.285 66.4913 479.224 63.5285 489.321C56.9755 511.684 52.6057 534.514 48.5497 557.342C45.7421 572.718 42.9314 587.937 39.0338 603.002C38.7201 604.245 39.3444 604.866 40.1239 605.642C44.1799 609.989 49.0187 613.408 53.6989 617.133C56.9755 619.773 60.4073 622.258 63.2148 625.52C63.6838 625.987 64.4633 626.45 63.9943 627.23C63.6838 627.539 62.9043 627.539 62.7458 627.539C59.4725 627.384 56.9755 626.608 54.4785 625.52C44.4936 620.707 34.6641 615.426 25.7725 608.904C25.3035 608.591 24.8345 608.128 24.3655 607.815C21.4027 605.642 20.1542 603.002 20.7785 599.119C24.8345 569.145 26.3936 539.173 27.0178 508.89C27.3315 493.98 28.7353 479.224 31.8565 464.472C32.4808 461.832 33.105 459.037 34.1951 456.552C37.9406 448.01 38.5648 438.847 39.9686 429.839C40.2792 428.132 39.8133 425.956 41.0618 425.025C42.1519 424.095 44.0247 425.492 45.5869 425.956C55.727 428.287 66.0223 428.754 76.4762 428.596C78.1936 428.287 78.1936 428.754 77.7247 430.46ZM143.876 441.642C142.317 441.799 140.913 441.178 139.351 440.399C134.829 438.38 132.488 434.497 131.084 429.996C130.615 428.441 129.991 428.287 128.587 428.596C123.437 429.684 118.133 429.996 112.987 429.996C110.8 429.996 110.49 430.618 110.645 432.636C111.58 440.09 111.114 447.389 108.303 454.379C106.744 458.104 105.965 462.141 105.651 466.182C104.872 474.565 104.872 483.107 104.716 491.649C103.937 527.834 104.406 564.019 107.058 600.204C107.213 601.759 107.682 602.69 109.086 603.466C118.291 608.591 127.963 612.32 137.792 615.736C141.382 616.978 145.125 618.067 149.025 618.53C149.963 618.688 150.898 618.842 151.522 618.067C152.147 617.133 151.367 616.202 150.743 615.426C149.805 614.026 148.401 612.941 147.153 611.853C141.382 607.349 135.14 603.778 128.742 600.204C127.183 599.428 126.714 598.498 126.714 596.788C126.872 581.881 127.338 566.971 128.276 552.216C130.304 522.399 133.267 492.891 141.538 464.005C143.41 457.482 144.969 450.959 145.904 443.351C146.218 442.418 145.904 441.487 143.876 441.642ZM268.381 37.2366C268.85 36.6152 269.471 36.1515 270.254 36.7698C271.033 37.3911 270.719 38.1702 270.095 38.6339C269.471 39.4098 268.85 40.0312 268.067 40.6526C267.443 41.274 266.508 41.7408 266.508 42.829C266.508 46.5541 265.104 49.9733 263.545 53.0771C261.203 57.7358 260.11 62.8614 259.955 67.987C259.8 71.8699 259.8 71.8699 263.545 73.2672C264.325 73.5763 265.104 73.734 265.884 74.1977C266.977 74.6645 267.443 74.51 267.757 73.2672C269.316 67.8325 271.657 62.7069 274.154 57.7358C276.648 52.9225 277.897 47.7969 278.052 42.3622C278.21 34.2874 275.4 29.9377 268.067 26.9885C261.203 24.1907 254.34 23.2603 247.473 26.5217C242.013 29.0072 239.516 34.7511 241.389 39.5675C243.262 44.2263 247.787 46.245 253.557 45.1568C259.02 44.0718 264.48 41.8954 268.381 37.2366ZM253.402 73.5763C254.34 74.1977 257.458 72.3367 257.458 71.0939C257.458 63.7951 259.02 56.8053 262.297 50.2824C263.231 48.4183 264.011 46.3996 263.856 44.0718C262.297 44.6931 261.048 45.3114 259.644 45.9328C259.02 46.245 258.862 46.7118 258.862 47.3332C259.486 52.3011 258.082 56.8053 256.523 61.3096C255.275 64.8801 254.181 68.4539 253.091 72.0244C253.247 72.3367 252.778 73.1126 253.402 73.5763ZM125.934 258.697C130.46 259.006 134.671 260.716 137.482 264.753C139.196 267.239 140.913 269.724 142.786 272.052C145.904 275.935 150.119 277.954 155.109 278.111C159.01 278.266 164.784 275.626 168.371 272.364C171.961 268.948 172.116 265.996 168.685 262.426C166.501 259.94 163.691 258.388 160.728 256.833C158.075 255.436 155.423 253.884 152.771 252.487C152.302 252.174 151.833 251.707 151.833 251.086C151.991 250.465 152.457 250.001 153.081 250.156C154.019 250.31 154.175 249.689 154.33 249.067C154.644 248.137 154.954 247.206 155.268 246.427C156.047 244.875 155.268 244.566 153.861 244.566C149.963 244.566 146.063 245.185 142.317 246.427C138.106 247.825 134.047 247.825 129.835 246.427C127.338 245.651 124.844 244.409 122.347 243.633C115.325 241.459 108.617 238.819 101.909 235.712C90.2065 230.432 78.6626 225.152 66.9603 219.872C59.1588 216.456 50.8914 214.125 42.4656 213.349C41.2171 213.195 40.1239 213.195 39.6581 214.746C39.3444 215.522 38.8754 216.456 37.9406 215.989C36.6921 215.522 37.3163 214.592 37.6269 213.661C39.9686 207.914 42.9314 202.48 45.7421 197.042C50.8914 186.794 56.1959 176.543 60.0936 165.673C60.8762 163.188 61.6558 160.702 61.6558 158.062C61.6558 153.249 58.8482 150.142 54.1679 149.987C51.2019 149.829 48.5497 150.609 46.2079 152.627C43.5557 154.801 41.5277 157.595 39.6581 160.39C32.0118 172.351 25.614 184.93 19.999 197.975C16.5672 205.896 13.6012 213.97 12.0421 222.512C11.5732 224.843 12.1974 226.704 13.7564 228.414C15.1602 229.965 17.033 230.432 18.9057 230.587C21.2474 230.741 23.2755 231.521 25.3035 232.918C31.077 237.11 37.4716 240.371 44.4936 242.544C61.0315 247.516 77.8799 251.553 94.8868 254.969C105.03 256.988 115.481 258.23 125.934 258.697ZM134.047 96.7188C122.347 98.892 112.673 95.7851 105.81 85.6917C104.872 84.2943 104.092 82.897 103.157 81.6543C102.844 81.1874 102.844 80.5661 101.909 80.4115C100.505 83.673 98.6323 86.9344 96.449 89.729C92.3898 94.7001 90.0512 100.289 90.3618 106.812C90.3618 107.588 90.2065 108.364 89.427 108.522C88.6474 108.831 88.0232 108.364 87.3989 107.743C85.6815 106.191 84.433 104.327 83.3429 102.154C82.2497 100.135 80.6906 98.4252 78.8179 97.0279C75.2277 94.2333 71.7959 95.1638 70.2368 99.3589C67.4293 106.967 72.4201 116.442 81.3149 115.508C82.5602 115.354 83.3429 115.821 83.4982 117.063C83.8087 118.924 84.2777 120.789 84.5914 122.653C85.2157 129.33 84.7467 136.008 84.1224 142.688C83.9672 144.086 84.1224 145.016 85.0572 146.104C88.6474 150.451 91.455 155.267 94.1073 160.235C97.8528 167.534 101.909 174.678 105.185 182.756C109.241 171.884 112.204 161.323 114.077 150.451C114.232 149.829 113.922 149.366 113.766 148.744C112.987 147.189 112.363 145.483 111.738 143.773C111.269 142.531 110.8 142.067 109.397 141.909C106.434 141.755 103.782 140.357 101.129 138.805C100.505 138.493 100.036 137.872 100.347 137.25C100.816 136.32 101.595 136.475 102.219 136.941C102.844 137.25 103.313 137.563 103.937 137.872C106.589 139.115 109.241 140.357 112.204 139.269C116.574 137.717 120.161 135.077 123.437 131.97C133.581 122.653 134.985 110.228 135.295 97.4947C135.454 96.5611 134.985 96.5611 134.047 96.7188ZM128.9 156.819C129.211 163.497 130.77 170.02 132.488 176.543C132.957 178.252 132.957 180.58 134.047 181.514C135.295 182.599 137.637 181.514 139.351 181.201C157.137 179.183 174.924 177.009 192.555 174.369C194.114 174.215 194.897 173.593 195.363 172.038C196.925 167.225 198.173 162.412 199.108 157.595C199.577 155.422 198.953 154.801 196.766 154.646C185.222 153.558 173.52 153.249 161.976 153.249C151.833 153.091 141.538 153.091 131.394 153.712C129.211 153.87 128.742 154.646 128.9 156.819Z" fill="#FAF9DD"/>
</g>
<defs>
<clipPath id="clip0_19_1847">
<rect width="340" height="867" fill="white"/>
</clipPath>
</defs>
</svg>
