<svg width="165" height="110" viewBox="0 0 165 110" fill="none" xmlns="http://www.w3.org/2000/svg">
<mask id="mask0_30_3174" style="mask-type:luminance" maskUnits="userSpaceOnUse" x="76" y="25" width="52" height="79">
<path d="M76.2925 25H127.681V104H76.2925V25Z" fill="white"/>
</mask>
<g mask="url(#mask0_30_3174)">
<path d="M119.039 25H83.5959C79.6872 25 76.5073 27.9529 76.5073 31.5833V97.4167C76.5073 101.047 79.6872 104 83.5959 104H120.457C124.366 104 127.546 101.047 127.546 97.4167V31.5833C127.546 27.9529 124.366 25 120.457 25H119.039ZM114.129 27.6333C113.644 28.4084 113.369 29.3079 113.369 30.2667C113.369 30.9939 112.733 31.5833 111.95 31.5833H92.1029C91.3216 31.5833 90.6844 30.9939 90.6844 30.2667C90.6844 29.3079 90.4085 28.4084 89.9237 27.6333H114.129ZM124.71 31.5833V97.4167C124.71 99.5945 122.801 101.367 120.457 101.367H83.5959C81.2509 101.367 79.3434 99.5945 79.3434 97.4167V31.5833C79.3434 29.4055 81.2509 27.6333 83.5959 27.6333H85.0144C86.5781 27.6333 87.8494 28.8141 87.8494 30.2667C87.8494 32.4445 89.7579 34.2167 92.1029 34.2167H111.95C114.295 34.2167 116.204 32.4445 116.204 30.2667C116.204 28.8141 117.475 27.6333 119.039 27.6333H120.457C122.801 27.6333 124.71 29.4055 124.71 31.5833Z" fill="black"/>
</g>
<path d="M106.114 51.3256V49.7535C107.271 48.7143 108.004 47.2549 108.004 45.6279V42.6977C108.004 39.5564 105.306 37 101.99 37C98.6741 37 95.9762 39.5564 95.9762 42.6977V45.6279C95.9762 47.2549 96.7088 48.7143 97.8656 49.7535V51.3256C93.3172 51.3256 89.6182 54.8303 89.6182 59.1395V68.2558C89.6182 70.9201 91.7492 73.0988 94.476 73.4036L92.5327 85.3772C90.8518 85.8713 89.6182 87.3402 89.6182 89.093V90.3954C89.6182 91.8321 90.8518 93 92.368 93H96.4912C98.765 93 100.615 91.2472 100.615 89.093V87.7907C100.615 87.5181 100.559 87.2616 100.477 87.0146C100.51 86.9446 100.554 86.8802 100.574 86.8035L101.99 81.439L103.405 86.8035C103.426 86.8802 103.47 86.9446 103.503 87.0146C103.421 87.2616 103.364 87.5181 103.364 87.7907V89.093C103.364 91.2472 105.215 93 107.489 93H111.612C113.128 93 114.362 91.8321 114.362 90.3954V89.093C114.362 87.3402 113.128 85.8713 111.447 85.3772L109.504 73.4036C112.231 73.0988 114.362 70.922 114.362 68.2558V59.1395C114.362 54.8303 110.663 51.3256 106.114 51.3256ZM98.725 42.6977C98.725 40.9912 100.189 39.6047 101.99 39.6047C103.79 39.6047 105.255 40.9912 105.255 42.6977V45.6279C105.255 47.3344 103.79 48.7209 101.99 48.7209C100.189 48.7209 98.725 47.3344 98.725 45.6279V42.6977ZM101.99 51.3256C102.464 51.3256 102.92 51.2603 103.364 51.1618V52.6279C103.364 53.3472 102.747 53.9302 101.99 53.9302C101.232 53.9302 100.615 53.3472 100.615 52.6279V51.1618C101.06 51.2603 101.516 51.3256 101.99 51.3256ZM92.368 59.1395C92.368 56.267 94.8334 53.9302 97.8656 53.9302H98.1012C98.6691 55.4465 100.197 56.5349 101.99 56.5349C103.783 56.5349 105.311 55.4465 105.879 53.9302H106.114C109.146 53.9302 111.612 56.267 111.612 59.1395V60.4419H108.863V59.1395C108.863 58.4193 108.248 57.8372 107.489 57.8372C106.728 57.8372 106.114 58.4193 106.114 59.1395V68.2558H97.8656V59.1395C97.8656 58.4193 97.2498 57.8372 96.4912 57.8372C95.7327 57.8372 95.1168 58.4193 95.1168 59.1395V60.4419H92.368V59.1395ZM92.368 68.2558V63.0465H95.1168V69.4578L94.8922 70.8396C93.4819 70.7289 92.368 69.6197 92.368 68.2558ZM97.8656 89.093C97.8656 89.8123 97.2488 90.3954 96.4912 90.3954H92.368V89.093C92.368 88.3737 92.9848 87.7907 93.7424 87.7907H97.8656V89.093ZM103.323 75.7546C103.171 75.1754 102.621 74.7674 101.99 74.7674C101.359 74.7674 100.809 75.1735 100.656 75.7546L98.1671 85.186H95.3434L97.668 70.8605H106.309L108.634 85.186H105.812L103.321 75.7546H103.323ZM111.612 90.3954H107.489C106.73 90.3954 106.114 89.8123 106.114 89.093V87.7907H110.237C110.996 87.7907 111.612 88.3737 111.612 89.093V90.3954ZM109.087 70.8396L108.863 69.4578V63.0465H111.612V68.2558C111.612 69.6197 110.496 70.7289 109.087 70.8396Z" fill="black"/>
<path d="M66.8172 70.6095C67.0864 70.8692 67.4409 71 67.7944 71C68.1489 71 68.5024 70.8692 68.7726 70.6095C69.3129 70.0882 69.3129 69.2452 68.7726 68.7239L62.8352 63.0002L68.7726 57.2766C69.3129 56.7553 69.3129 55.9123 68.7726 55.391C68.2313 54.8697 67.3575 54.8697 66.8172 55.391L59.9016 62.0574C59.3603 62.5787 59.3603 63.4217 59.9016 63.943L66.8172 70.6095Z" fill="black"/>
<mask id="mask1_30_3174" style="mask-type:luminance" maskUnits="userSpaceOnUse" x="134" y="55" width="11" height="17">
<path d="M134.533 55.1309H144.719V71.2983H134.533V55.1309Z" fill="white"/>
</mask>
<g mask="url(#mask1_30_3174)">
<path d="M135.05 70.6981C135.327 70.9545 135.689 71.0837 136.052 71.0837C136.415 71.0837 136.778 70.9545 137.054 70.6981L144.142 64.1147C144.697 63.5999 144.697 62.7674 144.142 62.2526L137.054 55.6693C136.5 55.1545 135.604 55.1545 135.05 55.6693C134.496 56.1841 134.496 57.0166 135.05 57.5314L141.136 63.1837L135.05 68.836C134.496 69.3508 134.496 70.1833 135.05 70.6981Z" fill="black"/>
</g>
<path d="M116.13 150.648C121.945 150.984 127.675 151.968 133.492 152.363C136.343 152.556 139.187 152.745 142.023 153C142.049 150.627 142.17 138.34 141.805 135.761C141.399 132.905 142.976 128.854 142.019 124.453C141.062 120.052 142.019 107.792 142.019 107.792L136.725 68L102.639 68.0039L98.2246 148.324C103.693 150.467 111.132 150.362 116.13 150.648Z" fill="#42425C"/>
<mask id="mask2_30_3174" style="mask-type:luminance" maskUnits="userSpaceOnUse" x="11" y="0" width="135" height="210">
<path d="M11.2729 0H145.776V210H11.2729V0Z" fill="white"/>
</mask>
<g mask="url(#mask2_30_3174)">
<path d="M12.4002 209.777C11.8939 209.777 11.4834 209.395 11.4834 208.924V43.5372C11.4834 36.769 16.3886 30.7938 23.4145 29.0024L134.421 0.719755C137.046 0.0494661 139.79 0.545756 141.953 2.07813C144.116 3.6105 145.357 5.9397 145.357 8.46663V175.469C145.357 175.938 144.946 176.322 144.44 176.322C143.931 176.322 143.521 175.938 143.521 175.469V8.46663C143.521 6.47554 142.544 4.64065 140.839 3.43452C139.137 2.22642 136.974 1.83492 134.906 2.36285L23.8995 30.6474C17.6691 32.2352 13.3191 37.5342 13.3191 43.5372V208.924C13.3191 209.395 12.9064 209.777 12.4002 209.777Z" fill="#555663"/>
</g>
<path d="M126.569 14C126.559 14 126.55 14 126.54 14C126.351 13.9883 126.21 13.8534 126.224 13.699C126.231 13.6266 126.923 6.55015 126.375 4.92764C126.171 4.32947 125.817 3.92482 125.314 3.72151C124.467 3.37746 123.452 3.70001 123.44 3.70392C123.265 3.76257 123.064 3.69024 122.993 3.54753C122.923 3.40483 123.007 3.24063 123.184 3.18198C123.237 3.16634 124.491 2.75974 125.616 3.21521C126.303 3.4928 126.782 4.01865 127.038 4.77712C127.617 6.49541 126.94 13.4487 126.911 13.7439C126.897 13.8905 126.746 14 126.569 14Z" fill="#9B9DB5"/>
<path d="M142.483 22C142.318 22 142.149 21.9568 141.997 21.8722C141.89 21.8093 131.225 15.7378 127.674 14.7668C125.222 14.0926 116.377 17.3102 111.379 19.4959C110.918 19.6964 110.368 19.5175 110.149 19.0949C109.929 18.6723 110.124 18.1672 110.584 17.9647C111.974 17.3593 124.262 12.0701 128.203 13.1432C131.987 14.1791 142.526 20.1779 142.973 20.4315C143.406 20.6792 143.539 21.202 143.269 21.601C143.095 21.8585 142.793 22 142.483 22Z" fill="#423125"/>
<path d="M155.242 78.7098C155.242 78.7098 155.242 78.7098 154.467 74.3543C153.691 69.9989 150.968 32.5531 149.344 25.475C147.719 18.3949 135.872 14.229 135.872 14.229C135.872 14.229 127.163 27.8067 125.407 27.5777C123.649 27.3487 119.44 14 119.44 14C119.44 14 110.709 16.8964 107.611 17.6901C104.514 18.4838 104.757 20.5963 104.682 20.8392C104.604 21.084 106.287 29.3842 106.287 29.3842L114.681 71.5369C115.749 70.6386 116.795 69.7205 117.779 68.7669C119.923 66.6918 121.476 64.0916 124.218 62.6068C124.574 62.4134 127.629 63.4104 127.629 63.4104C127.629 63.4104 130.737 88.9508 131.21 93.4128C131.553 96.6409 132.711 110.961 132.711 110.961C132.711 110.961 147.892 111.143 148.121 110.722C148.526 109.978 144.734 99.1839 146.798 92.6468C147.73 89.6971 146.82 84.4887 145.541 79.6535H149.344L155.242 78.7098Z" fill="#BA8D5F"/>
<path d="M25.0703 40C25.0703 40 29.3521 42.1772 33.3072 41.7609C37.2645 41.3447 40.1315 40.7136 40.1315 40.7136L34.3909 65L26.9596 52.499L25.0703 40Z" fill="#F5D4C4"/>
<path d="M130.694 125.693C129.951 114.651 129.4 94.6755 128.319 86.5343C126.719 74.4569 126.115 64.5539 125.915 64C125.915 64 90.8923 64.2219 89.4495 65.6459C88.0045 67.0679 88.6866 141.062 88.8183 142.227C88.9416 143.336 91.1005 142.439 96.5361 142.203C98.0639 138.401 99.8489 131.373 101.602 127.545C104.689 120.802 105.794 113.494 107.463 106.386C107.562 105.965 108.132 105.895 108.442 106.148C110.603 107.918 110.807 110.748 111.389 113.201C112.263 116.89 113.132 120.733 114.392 124.328C115.775 128.276 116.37 137.686 117.322 141.785C117.573 142.861 117.819 143.935 118.117 145C119.596 144.992 121.054 144.976 122.458 144.949C131.78 144.764 131.574 143.839 131.574 143.839C131.574 143.839 131.17 132.754 130.694 125.693Z" fill="#F5D4C4"/>
<path d="M110.631 18C110.624 18 110.619 18 110.612 18C110.429 17.9941 110.288 17.8606 110.3 17.7035C110.302 17.6308 110.751 10.5121 110.172 8.89396C109.957 8.29894 109.6 7.89833 109.109 7.70391C108.279 7.37792 107.304 7.72551 107.295 7.72748C107.128 7.78835 106.931 7.72355 106.859 7.58216C106.785 7.4388 106.862 7.27188 107.031 7.20904C107.082 7.19137 108.282 6.75934 109.384 7.19137C110.059 7.45451 110.536 7.97295 110.809 8.72704C111.423 10.4434 110.983 17.4384 110.962 17.7349C110.955 17.8861 110.807 18 110.631 18Z" fill="#9B9DB5"/>
<path d="M125.302 26C125.149 26 124.993 25.961 124.851 25.879C124.747 25.8175 114.281 19.7525 110.826 18.8278C108.438 18.186 99.9871 21.7619 95.2183 24.1649C94.7797 24.3864 94.2418 24.2121 94.0184 23.7774C93.795 23.3427 93.9708 22.8096 94.4094 22.5882C95.7335 21.9218 107.456 16.0987 111.291 17.1198C114.976 18.1081 125.316 24.0993 125.755 24.3535C126.179 24.5996 126.322 25.1429 126.073 25.5633C125.908 25.8442 125.608 26 125.302 26Z" fill="#423125"/>
<path d="M137.831 43.0416C136.421 38.5542 134.641 34.1669 132.513 29.9396C131.613 28.1451 130.623 26.3485 129.138 24.9481C127.797 23.6857 126.114 22.8055 124.432 21.9912C122.419 21.0169 120.369 20.1086 118.29 19.2664C117.753 19.0503 116.408 18.4221 116.408 18.4221C116.408 18.4221 115.621 19.3024 115.165 19.5745C111.221 21.9332 105.556 21.237 102.374 18C99.0558 19.3304 95.7372 20.6568 92.4186 21.9872C91.3243 22.4253 90.209 22.8755 89.3041 23.6097C87.7427 24.8781 87.0125 26.8167 86.3454 28.6632C85.2848 31.6021 84.2242 34.543 83.1636 37.4799C83.837 37.2778 84.3378 36.6397 84.3504 35.9714C85.3669 40.1487 84.2663 44.506 84.3357 48.7953C84.4073 53.3467 85.8235 57.7641 87.8984 61.8393C89.3273 64.6421 92.4018 71.4202 95.4952 72.6006C98.2814 73.6629 129.052 75.2714 128.976 72.2985C128.761 63.9799 129.382 55.6434 128.109 47.4309C130.994 46.7067 133.877 45.9845 136.76 45.2603C137.132 45.1662 137.53 45.0602 137.778 44.7801C138.174 44.332 138.027 43.6618 137.848 43.1016C137.844 43.0816 137.837 43.0616 137.831 43.0416Z" fill="#FAC184"/>
<path d="M91.8671 84.1665C91.8273 83.8509 91.7918 83.5294 91.7499 83.208C92.2876 83.1413 92.8212 83.0806 93.3589 83.0198C92.9321 83.5451 92.4237 83.9117 91.8671 84.1665ZM113.762 103.319C113.299 96.8115 112.672 90.3194 111.849 83.845C112.002 83.8568 112.151 83.8725 112.305 83.8842C112.684 83.9175 112.678 83.3628 112.305 83.3295C112.128 83.3177 111.956 83.3021 111.778 83.2844C111.72 82.8081 111.665 82.3377 111.6 81.8672C111.552 81.5164 110.962 81.5105 111.008 81.8672C111.073 82.32 111.121 82.7748 111.18 83.2295C110.688 83.1864 110.196 83.1413 109.705 83.0904C109.504 83.0747 109.309 83.059 109.108 83.0355C107.526 82.8924 105.94 82.7415 104.359 82.6042C104.158 82.5866 103.957 82.5709 103.762 82.5533C102.833 82.4749 101.908 82.3984 100.986 82.3318C101.009 82.2004 101.044 82.0652 101.092 81.9319C101.31 81.3341 101.258 80.3755 100.82 79.8698C100.795 79.8365 100.743 79.8326 100.701 79.8424C100.251 79.9423 100.368 80.5245 100.352 80.8342C100.322 81.3399 100.061 81.7712 99.973 82.2593L99.724 82.2436C98.7238 82.1769 97.7111 82.1769 96.7047 82.22C96.5038 82.2259 96.3071 82.2377 96.1125 82.2475C95.5727 82.2769 95.0349 82.3141 94.4972 82.3592C94.3298 81.3458 94.2189 80.3148 94.2524 79.2661C94.2649 78.9113 93.6728 78.9113 93.6623 79.2661C93.6268 80.3305 93.7272 81.3791 93.8988 82.4161C93.1581 82.4866 92.4195 82.5709 91.685 82.6572C91.6244 82.2102 91.5658 81.7555 91.5176 81.3007C91.4779 80.9518 90.8857 80.9459 90.9255 81.3007C90.9799 81.7829 91.0385 82.2534 91.0929 82.7317C90.3103 82.8297 89.5362 82.9296 88.7599 83.0257C88.559 83.0531 88.3623 83.0806 88.1615 83.0962C87.8602 83.1354 87.5568 83.1746 87.2555 83.208C86.883 83.2511 86.8767 83.8058 87.2555 83.7607C87.54 83.7294 87.8183 83.696 88.1029 83.6627C88.3037 83.6392 88.5046 83.6176 88.7055 83.5902C89.5173 83.4902 90.3396 83.3844 91.1578 83.2805C91.2059 83.651 91.2456 84.0214 91.2875 84.3939C90.4526 84.6604 89.5362 84.7428 88.5988 84.7663C88.4042 84.7702 88.2033 84.7761 88.0066 84.7761C86.8182 84.7879 85.615 84.7487 84.5563 84.9251C82.1647 85.3249 77.6284 88.8905 75.9126 85.668C75.7641 85.3975 75.3916 85.568 75.3623 85.813C74.5924 91.7778 74.3601 97.7974 74.7284 103.801C75.0841 109.739 76.0549 115.637 76.8898 121.529C78.1745 130.614 76.2139 139.839 77.1325 148.981C78.706 149.034 83.7926 148.958 85.3681 148.973C86.1904 148.985 87.0002 148.963 87.8058 148.918C88.0024 148.907 88.197 148.897 88.3916 148.879C89.7663 148.785 91.1285 148.63 92.4885 148.475C92.4718 148.366 92.4655 148.254 92.4529 148.144C92.1286 145.574 91.7143 143.032 91.6306 140.437C91.5532 137.871 91.6139 135.293 91.6244 132.727C91.6495 127.288 91.4235 121.784 91.8085 116.356C92.0031 113.647 92.6789 111.013 93.0702 108.331C93.4301 105.875 93.2941 103.48 92.9865 101.03C92.6559 98.407 92.4948 95.8177 92.5429 93.242C93.2292 97.5544 94.0118 101.851 94.8989 106.124C94.9826 108.902 95.2065 111.673 95.5329 114.488C95.8468 117.15 95.2002 129.129 95.9995 131.828C96.8762 134.772 96.8114 137.838 97.0248 140.858C97.2131 143.565 97.799 146.074 98.8766 148.591C98.9184 148.685 100.565 148.709 102.837 148.669C103.034 148.669 103.229 148.664 103.43 148.664C104.206 148.648 105.041 148.63 105.899 148.603C106.095 148.597 106.296 148.591 106.491 148.587C107.918 148.542 109.393 148.487 110.753 148.426C110.956 148.415 111.15 148.409 111.345 148.393C112.885 148.32 114.247 148.23 115.189 148.136C115.289 145.831 115.473 143.524 115.432 141.215C115.199 128.586 114.662 115.919 113.762 103.319Z" fill="#423125"/>
<path d="M111.134 148.966C110.968 148.982 110.802 148.988 110.629 149C110.408 145.581 110.24 142.157 110.13 138.732C109.975 133.847 109.939 128.957 110.014 124.064C110.05 121.591 110.135 119.112 110.019 116.637C109.909 114.271 109.473 111.955 109.308 109.594C109.136 107.192 109.404 104.802 109.55 102.409C109.702 99.9179 109.782 97.421 109.787 94.932C109.802 90.8387 109.611 86.7513 109.227 82.6798C109.156 81.8767 109.076 81.0715 108.985 80.2684C108.944 79.9086 109.449 79.9125 109.49 80.2684C109.545 80.7853 109.605 81.2982 109.661 81.8151C109.666 81.8429 109.655 81.8588 109.655 81.8807C109.686 82.1689 109.711 82.4492 109.736 82.7355C110.182 87.5266 110.362 92.3336 110.267 97.1466C110.166 102.099 109.445 107.013 110.06 111.949C110.645 116.649 110.538 121.271 110.494 126.005C110.422 133.662 110.64 141.324 111.134 148.966Z" fill="white"/>
<path d="M106.648 148.984C106.454 148.988 106.254 148.994 106.058 149C106.532 137.899 106.088 126.77 104.701 115.736C104.349 112.939 103.776 110.135 103.624 107.316C103.47 104.597 104.224 102.231 104.849 99.6116C105.529 96.7744 105.133 93.9551 104.837 91.1022C104.537 88.176 104.237 85.2538 103.93 82.3336C103.93 82.3119 103.924 82.2901 103.924 82.2664C103.889 81.9083 104.478 81.9142 104.514 82.2664C104.52 82.3059 104.52 82.3455 104.524 82.3851C104.827 85.2875 105.133 88.1919 105.427 91.1022C105.7 93.7316 106.1 96.3946 105.581 99.024C105.027 101.843 104.047 104.39 104.214 107.316C104.366 110.135 104.939 112.939 105.291 115.736C106.677 126.764 107.121 137.889 106.648 148.984Z" fill="white"/>
<path d="M103.604 148.994C103.397 148.994 103.198 149 102.995 149C102.929 146.873 102.948 144.734 102.886 142.614C102.815 139.965 102.559 137.338 101.908 134.758C101.336 132.49 100.568 130.261 100.216 127.95C99.8203 125.34 100.029 122.709 99.93 120.087C99.8203 117.331 99.3947 114.599 98.9089 111.882C98.021 106.915 97.1934 101.972 96.7849 96.9436C96.3722 91.8933 96.226 86.8252 96.0863 81.757C96.0798 81.5963 96.0798 81.4336 96.0734 81.2709C96.0626 80.9097 96.671 80.9097 96.6818 81.2709C96.6882 81.4217 96.6882 81.5784 96.6947 81.7293C96.8473 87.4483 97.0171 93.1673 97.5588 98.8625C98.0705 104.179 99.1948 109.386 99.9859 114.66C100.338 117.006 100.558 119.351 100.568 121.715C100.581 124.413 100.564 127.047 101.177 129.7C101.744 132.119 102.57 134.476 102.991 136.923C103.387 139.231 103.488 141.568 103.526 143.898C103.55 145.599 103.55 147.299 103.604 148.994Z" fill="white"/>
<path d="M88.5421 139.105C88.5623 142.402 87.98 145.685 88.0373 148.96C87.8808 148.978 87.7243 148.988 87.5661 149C87.5005 145.366 88.1803 141.715 88.0373 138.058C87.9514 135.769 87.6721 133.494 87.5711 131.199C87.4752 128.931 87.4668 126.662 87.4668 124.389C87.4718 119.684 87.4752 114.981 87.4803 110.276C87.4853 105.574 87.4954 100.863 87.5005 96.154C87.5055 92.172 87.4752 88.18 87.7276 84.2039C87.7529 83.8297 87.7764 83.4534 87.805 83.0792C87.8185 82.8891 87.8336 82.697 87.8522 82.5069C87.8572 82.4297 87.8656 82.3446 87.8707 82.2673C87.8993 81.9149 88.3755 81.9069 88.3469 82.2673C88.3418 82.3228 88.3385 82.3782 88.3334 82.4356C88.3183 82.6257 88.2998 82.8158 88.2897 83.0059C88.2577 83.4039 88.2274 83.796 88.2038 84.194C87.9144 88.7226 87.975 93.2749 87.9716 97.8174C87.9615 107.13 87.9195 116.443 87.943 125.749C87.9514 128.022 87.98 130.298 88.118 132.559C88.2526 134.743 88.5286 136.915 88.5421 139.105Z" fill="white"/>
<path d="M86.0421 24C85.8677 24 85.7175 23.8983 85.6957 23.7628C85.686 23.6931 84.5936 16.9179 83.6828 15.4552C82.7478 13.9492 80.529 14.7455 80.4345 14.7813C80.2601 14.8434 80.0518 14.7888 79.9695 14.6514C79.8871 14.5177 79.9622 14.3558 80.1366 14.2918C81.1491 13.9191 83.3243 13.6329 84.3102 15.218C85.2694 16.7617 86.3425 23.4127 86.3885 23.695C86.4103 23.8438 86.2771 23.9793 86.0857 23.9962C86.0712 23.9981 86.0567 24 86.0421 24Z" fill="#9B9DB5"/>
<path d="M71.1809 33C70.8995 33 70.6224 32.8775 70.4398 32.643C70.1326 32.2486 70.2143 31.6882 70.6246 31.3893C71.8576 30.4948 82.7982 22.649 86.8991 23.0122C90.8453 23.3568 102.506 27.5412 103.002 27.7197C103.481 27.894 103.724 28.4088 103.545 28.8696C103.367 29.3345 102.834 29.569 102.355 29.3968C102.235 29.3553 90.4328 25.119 86.7315 24.7952C86.6778 24.791 86.6198 24.7869 86.5597 24.7869C83.8315 24.7869 76.0831 29.6687 71.7373 32.8215C71.5698 32.9419 71.3764 33 71.1809 33Z" fill="#423125"/>
<path d="M119.738 49.365C119.77 49.0545 119.485 48.7382 119.335 48.4926C118.919 47.8109 115.298 39.7299 113.999 37.1109C113.319 35.7415 112.64 34.372 111.96 33.0026C111.401 31.8749 111.096 31.3188 109.915 30.7137C104.661 28.024 100.437 26.1398 94.5503 24.9374C94.368 24.7193 91.2616 22.0217 90.7728 22.0001C90.2819 21.9785 87.4156 26.2282 85.7155 27.8236C84.7165 27.2675 79.6099 23.5306 79.0075 23.6662C78.4051 23.7998 76.7736 26.5406 76.7415 26.8117C73.47 28.6664 70.6358 30.0201 67.6195 32.2069C67.5251 32.1892 67.4222 32.2187 67.3601 32.3248C66.3953 33.9653 65.4285 35.6059 64.4637 37.2484C64.3051 36.9675 63.827 37.2013 63.975 37.496C64.0285 37.6021 64.0736 37.7121 64.1272 37.8182C63.6705 38.5923 63.216 39.3664 62.7594 40.1425C62.59 40.4313 63.0595 40.7123 63.231 40.4215C63.6234 39.7535 64.0157 39.0855 64.408 38.4194C65.5399 40.8125 66.4832 43.2762 67.18 45.8068C67.9368 48.5535 68.3141 51.3552 68.8543 54.1393C69.1244 55.5205 69.4524 56.884 69.8941 58.2279C70.3443 59.6071 70.8266 60.9333 70.8181 62.3951C70.8031 65.0279 70.0506 67.4681 70.5051 70.1205C70.9596 72.7513 71.9886 75.2602 72.5803 77.8635C72.9126 79.3331 73.0691 80.8126 73.0305 82.3136C72.9983 83.5868 72.5824 84.9876 72.7089 86.249C72.8654 87.8345 74.7177 88.035 76.124 87.9957C79.3355 87.9072 82.5491 87.6833 85.7584 87.5281C87.5378 87.4396 89.3193 87.3669 91.0966 87.2392C92.0891 87.1685 93.995 87.3473 94.7432 86.6636C95.5128 85.9582 95.2835 83.9935 95.3778 83.0995C95.4035 82.85 95.4292 82.5985 95.455 82.347C95.7658 83.5141 96.5762 85.7225 96.887 86.8895C96.9492 87.1273 116.908 84.7381 117.142 84.1742C117.794 82.5926 116.546 79.1661 116.411 77.5924C116.156 74.6138 115.909 71.6333 115.646 68.6567C115.399 65.8452 114.649 63.2301 114.076 60.4775C113.538 57.8919 112.618 52.4496 112.618 52.4496C112.618 52.4496 116.818 51.7187 118.347 50.6735C118.818 50.3532 119.676 49.9681 119.738 49.365Z" fill="#D97157"/>
<path d="M69.9178 28C69.9178 28 69.9155 28 69.9133 28C69.7349 27.9979 69.5944 27.8577 69.5989 27.6877C69.5989 27.6219 69.726 20.8032 69.1663 19.0465C68.9612 18.405 68.6178 17.9717 68.145 17.7614C67.3445 17.4088 66.408 17.7848 66.399 17.7869C66.234 17.8528 66.0467 17.7827 65.9776 17.6276C65.9062 17.4725 65.9821 17.2941 66.1426 17.2261C66.1917 17.207 67.3467 16.7397 68.4104 17.207C69.057 17.4916 69.5186 18.0503 69.7795 18.8702C70.3682 20.7162 70.2456 27.4158 70.2389 27.7005C70.2367 27.8662 70.0939 28 69.9178 28Z" fill="#9B9DB5"/>
<path d="M86.3455 116.853C85.9897 114.253 85.8948 111.64 85.8927 109.022C85.8884 103.535 86.16 97.9977 84.6572 92.6444C84.9009 92.6503 85.069 92.2908 84.8125 92.113C84.6594 92.0083 84.5063 91.9135 84.3489 91.8246C84.3295 91.8127 84.3101 91.8009 84.2907 91.793C83.1673 91.1766 81.9254 90.9435 80.6188 90.7065C78.6503 90.3509 77.1647 89.8215 75.6188 88.6185C73.5252 86.9868 71.5912 85.4104 68.6588 86.2184C65.9788 86.9572 63.0335 88.9997 61.8153 91.3386C61.1426 92.6305 61.0564 94.0667 61.0111 95.4712C60.9464 97.4861 60.9076 99.501 60.8666 101.516C60.5346 117.183 60.3578 132.885 61.0305 148.546C61.4057 157.296 62.1086 166.035 63.3462 174.723C63.372 174.9 63.5208 175.041 63.7321 174.989C68.109 173.98 68.909 174.618 73.357 174.531C75.2501 174.493 77.2272 174.004 79.1009 174.166C81.1233 174.339 83.0487 174.32 85.0475 173.96C85.1747 173.936 85.276 173.806 85.2717 173.691C84.8879 162.775 86.6969 119.419 86.3455 116.853Z" fill="#BA8D5F"/>
<path d="M63.7988 91C63.7988 91 71.67 99.3437 72.2642 103.616C72.8583 107.891 74.3427 112.598 75.531 113.844C76.7194 115.089 78.2037 108.576 81.4706 105.257C84.7375 101.938 85.3149 93.2401 85.3149 93.2401L63.7988 91Z" fill="#F5F5F5"/>
<path d="M85.4681 36C85.3078 36 85.1474 35.961 85.0021 35.879C84.893 35.8175 74.0776 29.7507 70.5074 28.826C68.0425 28.1864 59.3072 31.76 54.3816 34.1629C53.9262 34.3864 53.3725 34.2122 53.1416 33.7775C52.9108 33.3428 53.0903 32.8098 53.5457 32.5883C54.9139 31.922 67.0313 26.0971 70.9884 27.1202C74.796 28.1064 85.4809 34.0994 85.9342 34.3536C86.3746 34.6017 86.5221 35.1409 86.2634 35.5633C86.0924 35.8442 85.7845 36 85.4681 36Z" fill="#423125"/>
<path d="M98.7262 86.9981C98.3571 85.6668 98.8238 84.558 98.8047 83.2503C98.7814 81.7615 97.9456 80.4774 97.3474 79.1284C97.2817 77.9113 97.2817 76.6883 97.2732 75.4634C97.2562 73.0075 97.0441 70.6502 96.4735 68.2515C95.8435 65.6086 95.0586 63.0149 94.961 60.2912C94.8741 57.8767 94.9865 55.5174 94.4456 53.1364C93.8665 50.5998 92.9756 48.1204 92.1907 45.6311C91.3634 43.0078 91.2255 41.1113 90.3516 38.4999C89.6961 36.5403 88.7734 35.1066 86.79 34.0885C84.2806 32.7985 81.8561 31.4514 79.2575 30.3289C78.9882 30.2127 73.5281 34.0432 70.5329 33.9644C66.9862 33.8699 60.0519 29.9961 60.0371 30C54.9758 32.1092 51.9022 32.2057 48.3003 36.4517C46.6436 38.4034 46.0497 40.7233 45.6424 43.1319C45.2521 45.4479 44.8321 47.7541 44.3463 50.0523C44.1024 49.8121 43.8775 49.558 43.6697 49.2941C44.0409 48.7348 44.5097 48.2602 44.4333 47.5138C44.3972 47.1613 43.7969 47.1573 43.833 47.5138C43.8839 47.9963 43.6378 48.4374 43.36 48.8766C43.1669 48.597 42.9866 48.3055 42.8318 47.9983C42.6684 47.6753 42.1509 47.9569 42.3142 48.2799C42.5157 48.6797 42.7618 49.0558 43.0269 49.4162C42.8466 49.7234 42.696 50.0405 42.6621 50.3793C42.5496 51.5589 42.9739 52.8607 43.1733 54.0147C43.6739 56.9038 44.1745 59.7949 44.673 62.686C45.6382 68.2515 46.5715 73.8248 47.5854 79.3864C48.4912 84.3493 49.5009 89.3043 50.8479 94.1844C52.4706 94.2002 54.0976 94.1686 55.7267 94.1509C60.2789 94.1037 64.918 93.7748 69.4532 94.1903C71.409 94.3715 83.8118 96.0022 86.4316 94.0485C86.5885 92.282 86.9703 90.5509 87.1825 88.7883C87.2291 88.4023 87.2525 88.0222 87.2588 87.648C87.56 88.4318 88.0819 89.1211 88.4191 89.901C88.8688 90.9389 88.9558 92.0594 89.2655 93.1308C89.4649 93.4006 89.5625 93.6802 89.6049 93.9914C89.607 93.9914 89.6113 93.9914 89.6134 93.9914C89.7428 94.0899 94.2144 93.6881 96.2741 93.3297C96.9804 93.2076 98.1662 93.1997 98.6859 92.6483C99.2332 92.0693 99.2353 90.8286 99.2883 90.092C99.3689 88.9596 99.0232 88.0714 98.7262 86.9981Z" fill="#4C586B"/>
<path d="M60.5718 30C60.5718 30 61.6196 36.5388 62.6867 36.9678C63.7561 37.3989 68.1024 33.3574 68.1024 33.3574L60.5718 30Z" fill="#F5F5F5"/>
<path d="M69.1777 33.4191C69.1777 33.4191 72.5191 36.6348 73.5182 36.9877C74.5195 37.3405 78.86 30 78.86 30L69.1777 33.4191Z" fill="#F5F5F5"/>
<path d="M74.2171 155.135C73.9262 150.02 73.4836 144.919 73.1316 139.867C73.0958 139.345 73.0557 138.826 73.0009 138.316C72.9124 137.423 72.7796 136.545 72.5963 135.673C72.3033 134.273 71.8733 132.909 71.2241 131.569C71.1356 131.387 71.045 131.204 70.9564 131.02C70.4316 129.987 69.9005 128.96 69.578 127.86C69.4937 127.617 69.4283 127.366 69.3819 127.11C69.0173 125.251 69.2745 123.346 69.4473 121.487C69.9531 116.029 69.9468 110.552 69.6075 105.088C69.5358 103.851 69.441 102.606 69.3271 101.369C69.304 101.057 69.2745 100.741 69.2428 100.431C69.2197 100.152 69.1901 99.8752 69.1606 99.5964C69.1543 99.4923 69.1417 99.3804 69.1311 99.2744C68.385 91.8799 67.1562 84.5327 65.9274 77.203C65.8683 76.8477 65.2971 76.9988 65.3562 77.3483C65.647 79.0958 65.9337 80.8413 66.2203 82.5888C66.1655 82.5672 66.1065 82.5554 66.0285 82.5731C60.0236 84.0673 53.8205 84.2264 47.6427 84.4502C44.8752 84.5503 41.8569 84.4325 39.1443 85.0216C37.0998 85.4653 36.1028 86.8927 35.4578 88.6481C31.5775 99.1251 29.8281 110.397 28.5234 121.375C27.1639 132.781 26.4114 144.251 25.5051 155.697C25.0351 161.589 24.5566 167.479 24.0971 173.37C23.9664 175.037 23.7514 177.096 24.9739 178.49C26.3693 180.073 28.8037 179.663 30.7302 179.584C36.7478 179.341 42.7591 179.451 48.764 179.839C49.6767 179.896 50.5893 179.963 51.502 180.034C51.5483 180.04 51.5905 180.04 51.639 180.043C52.0985 180.079 52.5516 180.118 53.0111 180.155C53.8163 180.222 54.6214 180.283 55.4266 180.35C56.4341 180.434 57.4479 180.517 58.4617 180.589C58.6767 180.605 58.8917 180.623 59.1046 180.633C59.8571 180.689 60.6137 180.739 61.3725 180.784L61.6044 180.801C65.4384 181.021 69.285 181.1 73.1316 180.821C73.2518 180.817 73.4014 180.744 73.4246 180.623C73.9621 177.391 74.2782 174.131 74.4321 170.86C74.6829 165.641 74.5269 160.383 74.2171 155.135Z" fill="#628568"/>
<path d="M69.953 101C69.1482 101.396 68.1491 101.608 67.4212 102.034C66.6526 102.471 65.9948 103.044 65.3799 103.638C63.8586 105.115 62.5904 106.763 60.5243 107.665C58.804 108.407 56.2722 108.866 55.3952 110.607C54.9408 111.51 55.2234 112.849 56.5141 112.987C58.0377 113.154 59.8484 111.682 60.8769 110.821C61.632 110.183 62.2333 109.728 63.1985 109.331C63.6144 109.159 63.9852 108.998 64.3559 108.752C65.1697 108.212 65.7439 107.458 66.4808 106.844C67.5432 105.958 69.0962 105.613 70.2536 104.849C70.1768 103.568 70.075 102.28 69.953 101Z" fill="#47634C"/>
<path d="M36.6033 98.7714C36.2396 97.8077 35.3641 97.9128 34.4759 98.2023C32.4499 98.8586 30.4768 99.4911 28.3578 99.8619C24.9784 100.451 21.5398 100.605 18.1054 100.661C18.1836 100.467 18.2534 100.268 18.3359 100.074C18.4797 99.739 17.9002 99.5942 17.7606 99.9254C17.6549 100.173 17.5555 100.421 17.4604 100.671C16.6652 100.681 15.8722 100.689 15.0791 100.695C14.6942 100.699 14.6921 101.258 15.0791 101.256C15.8024 101.25 16.5256 101.244 17.2489 101.234C15.629 105.685 15.2546 110.397 15.2039 115.09C15.1447 120.672 15.2927 126.206 14.6562 131.77C14.0048 137.464 13.7954 163.11 13.6432 166.041C13.4719 169.314 13.0383 172.453 13.3408 175.739C13.6432 178.987 14.138 182.213 13.7151 185.475C13.696 185.627 13.8673 185.752 14.0154 185.756C19.6343 185.835 25.2554 185.919 30.8765 186C31.0372 186.002 31.1768 185.867 31.1768 185.718C31.1409 181.86 31.2466 178.003 31.5088 174.153C31.7647 170.413 32.378 166.663 32.0291 162.914C31.6907 159.275 31.1134 144.87 31.5342 141.307C32.4013 133.953 34.017 126.7 35.2287 119.393C35.8124 115.883 36.3073 112.358 36.5801 108.814C36.7112 107.105 36.7915 105.392 36.8064 103.679C36.8169 102.255 37.1193 100.132 36.6033 98.7714Z" fill="#A2B1BD"/>
<path d="M53.2906 170.741C53.1621 169.847 53.0465 168.953 52.9758 168.053C52.6631 164.146 53.9673 160.956 54.4342 157.146C55.1559 151.27 52.5068 145.536 53.4448 139.65C54.462 133.264 54.5048 127.329 53.629 120.866C52.7895 114.665 51.723 108.461 52.1085 102.199C52.9993 103.043 53.8581 103.918 54.674 104.827C54.9224 105.105 55.3679 104.725 55.1194 104.449C54.1793 103.404 53.1878 102.4 52.1513 101.439C52.147 101.281 52.0164 101.194 51.8751 101.188C50.3674 99.814 48.7634 98.5301 47.0588 97.3565C45.5769 96.3346 44.0264 95.3953 42.4224 94.5485C41.508 94.0661 39.7541 92.7428 38.6362 93.0441C37.6854 93.3001 37.452 94.8419 37.2999 95.7221C35.8651 95.4957 34.456 95.2417 33.2289 94.7376C33.0469 94.6627 32.8413 94.8282 32.8348 94.9916C32.4215 105.272 32.5522 115.567 33.2503 125.834C33.4238 128.388 33.7386 130.952 33.7386 133.512C33.7386 138.421 32.5629 143.234 32.7342 148.198C32.8927 152.762 33.6486 157.238 34.124 161.773C34.5309 165.639 33.0897 169.356 33.745 173.259C34.4388 177.392 36.2827 181.705 34.3061 185.771C34.2226 185.946 34.4067 186.12 34.5845 186.135C40.8334 186.647 47.0716 187.268 53.2949 187.998C53.4576 188.018 53.6033 187.872 53.6118 187.73C53.7553 184.716 53.8966 181.699 54.0401 178.682C54.1665 176.006 53.6696 173.379 53.2906 170.741Z" fill="#A2B1BD"/>
<mask id="mask3_30_3174" style="mask-type:luminance" maskUnits="userSpaceOnUse" x="11" y="0" width="135" height="210">
<path d="M11.2729 0H145.776V210H11.2729V0Z" fill="white"/>
</mask>
<g mask="url(#mask3_30_3174)">
<path d="M12.4002 209.777C11.8939 209.777 11.4834 209.395 11.4834 208.924V43.5372C11.4834 36.769 16.3886 30.7938 23.4145 29.0024L134.421 0.719755C137.046 0.0494661 139.79 0.545756 141.953 2.07813C144.116 3.6105 145.357 5.9397 145.357 8.46663C145.357 8.93722 144.946 9.3208 144.44 9.3208C143.931 9.3208 143.521 8.93722 143.521 8.46663C143.521 6.47554 142.544 4.64065 140.839 3.43452C139.137 2.22642 136.974 1.83492 134.906 2.36285L23.8995 30.6474C17.6691 32.2352 13.3191 37.5342 13.3191 43.5372V208.924C13.3191 209.395 12.9064 209.777 12.4002 209.777Z" fill="#555663"/>
</g>
<path d="M34.2489 37C34.2443 37 34.2373 37 34.2304 37C34.0474 36.9902 33.9062 36.8567 33.9154 36.7016C33.9224 36.6309 34.3694 29.5121 33.788 27.8943C33.575 27.2995 33.2183 26.899 32.7273 26.7066C31.9005 26.3787 30.9255 26.7262 30.9139 26.7282C30.7448 26.789 30.5503 26.7242 30.4761 26.5809C30.4044 26.4396 30.4808 26.2727 30.6499 26.2099C30.7008 26.1922 31.9005 25.7583 33.0029 26.1922C33.6769 26.4553 34.154 26.9716 34.4273 27.7294C35.041 29.4414 34.601 36.4365 34.5824 36.733C34.5709 36.8842 34.4249 37 34.2489 37Z" fill="#9B9DB5"/>
<path d="M49.9659 45C49.8077 45 49.6474 44.9631 49.502 44.879C49.393 44.8175 38.5756 38.7511 35.0075 37.8262C32.5426 37.1863 23.8053 40.7609 18.8797 43.1645C18.4286 43.386 17.8728 43.2137 17.6398 42.7769C17.4089 42.3442 17.5906 41.8109 18.0438 41.5874C19.412 40.9209 31.5314 35.0985 35.4885 36.1199C39.2939 37.1043 49.9809 43.0989 50.4341 43.3532C50.8724 43.6013 51.0199 44.1427 50.7634 44.5632C50.5902 44.8441 50.2823 45 49.9659 45Z" fill="#423125"/>
<path d="M55.7671 32C55.7601 32 55.7532 32 55.7485 32C55.5655 31.9921 55.4241 31.8586 55.4334 31.7035C55.438 31.6328 55.8876 24.5106 55.306 22.8925C55.0928 22.2975 54.7359 21.8989 54.2446 21.7045C53.4151 21.3765 52.4395 21.7241 52.4302 21.728C52.2611 21.7889 52.0664 21.7241 51.9923 21.5808C51.9204 21.4374 51.9969 21.2725 52.1661 21.2096C52.2171 21.1919 53.4174 20.7599 54.5204 21.19C55.1924 21.4551 55.6721 21.9715 55.9432 22.7295C56.5573 24.4418 56.117 31.4364 56.0985 31.7349C56.0892 31.8841 55.9432 32 55.7671 32Z" fill="#9B9DB5"/>
<path d="M71.4827 40C71.3245 40 71.1641 39.961 71.0166 39.879C70.9076 39.8175 60.0921 33.7525 56.524 32.8257C54.059 32.184 45.3215 35.7598 40.3959 38.1629C39.9405 38.3843 39.3868 38.2121 39.1559 37.7753C38.925 37.3427 39.1067 36.8096 39.56 36.5882C40.9282 35.9198 53.0457 30.0987 57.005 31.1198C60.8104 32.1061 71.4976 38.0973 71.9509 38.3536C72.3891 38.6016 72.5366 39.1409 72.278 39.5633C72.1069 39.8442 71.7991 40 71.4827 40Z" fill="#423125"/>
<path d="M43.7459 34.0001C43.3223 34.0837 43.043 34.2033 42.6841 34.4692C42.5288 34.585 42.5454 40.6027 42.3919 43.4492C42.2661 43.5347 42.2365 43.7683 42.3697 43.8974C42.3623 44.0246 42.3567 44.1499 42.3493 44.2772C42.329 44.6209 42.8525 44.6209 42.8728 44.2772C42.8747 44.2354 42.8765 44.1955 42.8784 44.1556C43.2779 44.3607 43.6071 44.5962 43.9826 44.9285C44.1509 45.0785 44.4228 44.9817 44.4284 44.7386C44.4987 41.2389 43.9234 33.9641 43.7459 34.0001Z" fill="#628568"/>
<path d="M68.2906 58.8893C68.2843 58.8436 68.2779 58.7979 68.2674 58.7542C68.2674 58.7422 68.2611 58.7363 68.2611 58.7263C68.0035 57.4842 67.7164 56.24 67.442 55.0038C67.4061 54.8468 67.3765 54.6957 67.3407 54.5387C66.9712 52.8931 66.6293 51.2395 66.4097 49.57C66.6356 47.4275 67.0536 38.9528 66.8805 36.8739C66.7791 35.6695 67.0662 34.32 65.5738 34C65.5674 34 65.1368 34.0119 65.1431 34.2464C65.2445 37.2555 64.5689 47.0359 64.265 48.8505C62.9203 50.8897 60.7354 52.43 59.1163 54.2744C58.1431 55.3754 57.2649 56.5401 56.4459 57.7465C56.5007 57.2019 56.6084 56.6633 56.7984 56.1287C56.9187 55.7868 56.3445 55.6398 56.22 55.9836C55.897 56.8819 55.8062 57.8081 55.783 58.7363C55.4495 59.2649 55.1265 59.8055 54.8162 60.3501C54.6367 60.6641 55.1497 60.9523 55.3291 60.6303C55.4727 60.3839 55.6226 60.1474 55.7725 59.9049C55.7725 60.3223 55.7661 60.7377 55.7471 61.1531C55.6648 63.1704 55.3481 65.1678 54.9703 67.1513C54.2483 70.9335 53.2625 74.6998 53.0831 78.5555C52.9395 81.5964 52.9944 84.828 56.0997 86.4975C59.0318 88.0716 62.8801 89.3078 66.2894 88.9322C66.4562 89.1269 66.9712 85.0804 67.3343 83.2321C67.6763 81.5248 67.993 79.8136 68.2611 78.1004C68.4827 76.6893 68.6727 75.2781 68.8226 73.8611C69.002 72.2035 69.1266 70.5459 69.1561 68.8824C69.1688 68.6697 69.1751 68.4491 69.1751 68.2305C69.211 65.0883 68.9176 61.9679 68.2906 58.8893Z" fill="#628568"/>
<path d="M69.1714 58.9518C68.9098 57.6331 68.6181 56.3123 68.3394 55C67.7518 56.4453 67.4108 57.5192 65.839 58.1817C65.3007 58.4074 64.7968 58.6058 64.3229 58.9687C63.0856 59.9244 62.2492 61.3866 61.1556 62.5006C60.2528 63.4205 59.4272 64.3319 59.5001 65.6823C59.5065 65.8004 59.5837 65.9502 59.7188 65.9671C61.3807 66.1992 62.5344 65.1675 63.5702 64.0112C65.1678 62.22 66.7203 60.4603 68.8004 59.1965C68.9291 59.1185 69.0492 59.0467 69.1778 58.9813C69.1778 58.9687 69.1714 58.9623 69.1714 58.9518Z" fill="#47634C"/>
<path d="M67.6875 64.1381C67.607 64.0131 67.4025 63.9564 67.2611 64.0385C65.5949 65.0229 64.5486 66.4411 63.0586 67.5916C62.4234 68.076 61.7469 68.498 61.1313 68.9668C60.9834 68.6406 60.8377 68.3085 60.6832 67.9823C60.5353 67.658 59.9371 67.8006 60.0916 68.1268C60.283 68.5351 60.4613 68.9511 60.6462 69.3594C60.2155 69.7344 59.8262 70.1544 59.5325 70.6681C59.352 70.9826 59.8827 71.26 60.0676 70.9436C60.2873 70.5529 60.5788 70.2208 60.8986 69.9161C61.1683 70.5353 61.4337 71.1584 61.6925 71.7894C61.7534 71.9437 61.9688 72.0706 62.1406 71.9554C62.8497 71.4905 63.3587 70.9221 63.883 70.297C64.8314 69.1601 65.8037 68.4257 66.9675 67.4803C68.1116 66.5524 68.4618 65.3863 67.6875 64.1381Z" fill="#47634C"/>
<path d="M26.0833 37.3317C26.0833 37.3317 31.319 60.101 31.884 59.9738C32.449 59.8467 38.8944 37 38.8944 37L45.5101 39.5244C45.5101 39.5244 44.9754 97.7167 44.0438 98.8528C43.1101 99.9889 40.5785 98.3483 35.9121 98.8528C31.2479 99.3573 23.1183 100.368 20.3193 99.8618C17.5204 99.3573 15.3877 99.2302 15.3877 99.2302L18.4821 40.158L26.0833 37.3317Z" fill="white"/>
<path d="M67.8082 104.844C65.3556 105.417 62.8835 105.552 60.4287 105.26C60.2108 106.721 59.9951 109.842 60.0382 112.366C60.0447 112.557 60.0447 112.742 60.0512 112.923C60.0878 113.873 60.1612 114.704 60.2949 115.288C60.5516 116.423 60.7652 117.431 60.6055 118.514H60.228C58.5433 118.532 56.8586 118.628 55.1803 118.735C54.9733 118.747 54.7662 118.757 54.5569 118.775C52.6112 118.892 50.6633 119.009 48.7111 118.999C47.5505 118.993 46.3965 118.926 45.2446 118.836C45.0547 118.824 44.8714 118.807 44.6815 118.791C43.5706 118.701 42.4597 118.582 41.3488 118.471C40.995 116.986 40.9346 114.901 40.995 112.911C41.0015 112.73 41.0079 112.551 41.0144 112.376C41.0878 110.662 41.2517 109.07 41.3811 108.058C41.8018 104.832 40.7577 101.96 40.514 98.7773C40.4341 97.7039 40.4212 96.6305 40.4471 95.563C40.4536 95.3702 40.4643 95.1853 40.4708 94.9945C40.5549 92.8755 40.7879 90.7625 40.9346 88.6474C41.0381 87.1128 41.0079 85.5901 40.9475 84.0715C40.9411 83.8687 40.9281 83.6679 40.9173 83.4691C40.8418 81.7676 40.7383 80.07 40.734 78.3545C40.7275 74.8301 41.4717 71.3554 41.5149 67.831C41.5149 67.5904 41.5213 67.3479 41.5213 67.0995C41.5213 66.9086 41.5213 66.7118 41.5149 66.521C41.489 63.5035 41.2517 60.4721 41.0942 57.4546C40.9885 55.4628 40.8375 52.9064 40.6844 50.2746C40.6714 50.0837 40.6606 49.8869 40.6477 49.6901C40.281 43.3768 39.9337 36.8727 40.2637 37.0019C42.7466 37.9918 45.0612 38.4351 47.4297 39.2123C47.6368 39.274 47.8374 39.3455 48.0381 39.4151C48.6485 39.6278 49.259 39.8683 49.8824 40.1506C52.6177 41.393 55.7843 42.5221 58.0234 44.5079C58.1658 44.6311 58.2996 44.7604 58.4225 44.8896C58.6404 45.1201 58.8367 45.3567 59.0136 45.6032C59.3436 46.0584 59.6111 46.5474 59.8311 47.0523C59.9109 47.2272 59.9778 47.4022 60.0447 47.5771C60.6185 49.0878 60.8622 50.7516 61.2225 52.3101C62.0163 55.7947 62.7972 59.2814 63.4875 62.7879C63.7204 63.9686 63.9211 65.1494 64.1044 66.3361C64.1281 66.5031 64.1583 66.6661 64.1778 66.8311C65.0126 72.3294 65.5022 77.8774 66.7706 83.2743C66.8138 83.4592 66.8569 83.6401 66.9044 83.825V83.8309C67.681 86.9836 67.1244 90.0071 66.8267 93.1737C66.8203 93.1836 66.8203 93.1955 66.8203 93.2075C66.8008 93.3864 66.7901 93.5673 66.7771 93.7462C66.5204 97.356 67.1568 100.869 68.0887 104.377C68.1447 104.568 68.0218 104.792 67.8082 104.844Z" fill="#F5D4C4"/>
<path d="M55.9285 94.2486C52.6458 94.5263 49.3566 94.7579 46.0564 94.8818C46.2055 91.3068 46.3283 87.7258 46.4599 84.1448C47.8611 84.1568 49.2645 84.1668 50.6591 84.1847C52.4967 84.2007 54.3277 84.2067 56.1631 84.1907C56.1697 84.2467 56.1763 84.3026 56.1872 84.3585C56.4613 85.9802 57.0381 87.584 57.0139 89.2337C56.9898 90.9453 56.3298 92.601 55.9285 94.2486ZM55.1391 98.5526C54.7553 101.512 54.661 104.494 54.6369 107.472C54.6238 109.172 54.6303 110.883 54.6303 112.589C51.5165 112.629 48.4005 112.639 45.2933 112.605C45.5542 106.885 45.802 101.163 46.0301 95.441C49.3018 95.2992 52.5515 95.0915 55.8035 94.8318C55.525 96.0621 55.3079 97.3044 55.1391 98.5526ZM47.03 67.8776C50.2929 68.263 53.4528 68.2391 56.5973 67.9395C56.5293 68.8043 56.4548 69.6631 56.3868 70.5279C56.1258 73.8312 55.821 77.1586 55.8649 80.4739C55.8781 81.5404 55.946 82.6089 56.0886 83.6655C52.887 83.7034 49.6789 83.6695 46.4774 83.6075C46.6769 78.3669 46.8568 73.1202 47.03 67.8776ZM47.4335 55.0116C47.4905 53.0184 47.5453 51.0252 47.5957 49.03C51.1503 48.4528 54.7049 47.8736 58.2792 47.544C57.9196 54.1807 57.2244 60.8115 56.6477 67.4382C54.501 67.6519 52.3476 67.7358 50.1635 67.602C49.1198 67.54 48.0782 67.4322 47.0497 67.3064C47.1791 63.2121 47.3151 59.1118 47.4335 55.0116ZM57.1937 91.9339C57.5271 90.6237 57.72 89.3475 57.5468 88.0034C57.3801 86.7152 57.0315 85.461 56.8034 84.1847C60.2155 84.1448 63.6275 84.0429 67.0264 83.8232C66.9782 83.6375 66.9343 83.4558 66.8904 83.27C63.5091 83.4957 60.1168 83.6075 56.7157 83.6595C56.6916 83.5077 56.6587 83.3539 56.6477 83.2021C56.2815 80.0166 56.56 76.7731 56.7771 73.5816C56.9065 71.6782 57.0622 69.7809 57.231 67.8836C59.5576 67.6359 61.8908 67.2504 64.2547 66.7491C64.2349 66.5834 64.2042 66.4196 64.1801 66.2518C61.8842 66.6972 59.5883 67.1106 57.2749 67.3683C57.6718 62.8626 58.1235 58.3549 58.4831 53.8432C58.6564 51.7242 58.7989 49.6071 58.9107 47.4881C59.2901 47.4542 59.676 47.4262 60.0532 47.4042C59.9852 47.2285 59.9172 47.0527 59.8361 46.877C59.5313 46.8949 59.2353 46.9169 58.937 46.9409C58.9612 46.4316 58.9853 45.9283 59.005 45.421C58.8252 45.1734 58.6257 44.9357 58.4042 44.704C58.3779 45.4649 58.3406 46.2359 58.3033 46.9968C54.7246 47.3184 51.1679 47.8596 47.6133 48.4308C47.6944 45.3531 47.7755 42.2794 47.8479 39.2037C47.644 39.1338 47.44 39.0619 47.2295 39C47.155 42.1736 47.0738 45.3531 46.9861 48.5327C44.778 48.8842 42.5632 49.2397 40.3353 49.5273C40.3484 49.725 40.3594 49.9227 40.3726 50.1144C42.5742 49.8328 44.7714 49.4813 46.9686 49.1278C46.8063 55.1634 46.6265 61.2029 46.4292 67.2345C44.6859 67.0148 42.9469 66.7312 41.2168 66.4376C41.2234 66.6293 41.2234 66.827 41.2234 67.0188C42.9469 67.3064 44.6793 67.574 46.416 67.7937C46.2428 73.0623 46.0564 78.3329 45.8568 83.6036C44.1069 83.5676 42.3593 83.5237 40.6094 83.4657C40.6203 83.6655 40.6335 83.8672 40.6401 84.0709C42.3768 84.1049 44.1069 84.1228 45.8393 84.1388C45.7077 87.7318 45.5718 91.3227 45.4292 94.9097C45.3854 94.9097 45.3371 94.9157 45.2933 94.9157C43.5807 94.9716 41.8681 95.0176 40.1555 95.0455C40.1489 95.2373 40.1379 95.423 40.1313 95.6167C40.8309 95.6048 41.5326 95.5868 42.2343 95.5708C43.289 95.5428 44.3504 95.5089 45.4051 95.4689C45.1924 100.706 44.9775 105.94 44.7407 111.177C44.7209 111.65 44.6968 112.126 44.6793 112.605H44.6595C43.3373 112.589 42.0238 112.555 40.7081 112.509C40.7015 112.685 40.6949 112.865 40.6883 113.046C42.0106 113.092 43.3373 113.12 44.6595 113.142C44.585 115.073 44.5236 117.017 44.4359 118.954C44.6288 118.97 44.8152 118.988 45.0082 119C45.0762 117.61 45.131 116.214 45.1924 114.826C45.2187 114.267 45.2428 113.707 45.2691 113.148C48.383 113.188 51.5034 113.176 54.6238 113.142C54.6194 115.073 54.5865 117.005 54.4746 118.938C54.6873 118.92 54.8979 118.91 55.1084 118.898C55.2136 116.983 55.2443 115.064 55.2509 113.136C56.8582 113.114 58.459 113.086 60.0598 113.058C60.0532 112.877 60.0532 112.691 60.0466 112.499C58.4524 112.527 56.8517 112.555 55.2509 112.577V110.899C55.2443 107.828 55.2399 104.754 55.457 101.682C55.6171 99.3275 56.0008 97.0507 56.5052 94.7679C59.8186 94.4983 63.1297 94.1807 66.4431 93.8372C66.5922 93.8192 66.7479 93.8093 66.897 93.7913C66.9102 93.6115 66.9211 93.4298 66.9409 93.25C66.9409 93.2381 66.9409 93.2261 66.9475 93.2161C63.5025 93.5496 60.0729 93.8931 56.6346 94.1927C56.8078 93.4418 56.9942 92.6848 57.1937 91.9339Z" fill="#F5F5F5"/>
<path d="M24.9911 83.2948C24.9911 83.0894 24.9911 82.8879 24.9783 82.6865C24.9548 80.66 24.9121 78.6375 24.8524 76.617C24.7371 72.6944 24.1394 68.8508 23.7957 64.9856C23.7764 64.8019 23.7594 64.6182 23.7402 64.4325C23.5544 62.1809 23.4626 59.9154 23.6078 57.6184C23.77 55.0666 23.8746 52.5977 23.928 50.1505C23.9408 49.9451 23.9408 49.7377 23.9472 49.5244C24.0305 45.7322 24.007 41.9795 23.9515 38.0075C23.9515 37.895 21.234 39.0642 18.5762 40.1802C18.3777 40.269 18.1834 40.354 17.9849 40.4369C16.9282 40.8833 15.9184 41.304 15.1328 41.6161C13.3461 42.331 10.8142 43.9289 9.5825 45.4359C9.48003 45.5584 9.37756 45.7203 9.26869 45.9178C8.99758 46.4077 8.71366 47.1069 8.42973 47.9226C7.4691 50.664 6.50846 54.7091 6.0132 56.6071C5.29379 59.3506 4.57011 62.0644 3.92968 64.8019C3.88699 64.9915 3.83789 65.1831 3.79519 65.3707C3.29566 67.6124 2.84736 69.8621 2.52075 72.1513C2.32862 73.52 2.14076 75.4872 1.95931 77.7665C1.94223 77.962 1.92942 78.1576 1.91234 78.359C1.54303 83.0558 1.19934 88.9259 0.866317 93.674C0.853509 93.8636 0.842835 94.0493 0.830027 94.233C0.654977 96.6505 0.492736 98.7402 0.328361 100.182C0.304878 100.393 0.529027 100.54 0.727559 100.555C1.42349 100.607 2.11728 100.656 2.81107 100.707C2.96905 100.717 3.11848 100.729 3.27645 100.741C4.49112 100.83 5.71006 100.913 6.92474 101.004C6.76676 104.812 6.61093 106.248 6.45936 107.555C6.42947 107.745 6.4124 107.928 6.38678 108.112C6.23094 109.398 6.07937 110.855 5.92781 114.559C5.88511 114.665 5.89152 114.788 5.95342 114.883C6.0196 115.061 6.23735 115.124 6.42307 115.078C10.7481 115.91 15.1094 116.927 19.5005 117.525C19.6948 117.553 19.8933 117.581 20.0919 117.602C21.5905 117.792 23.1019 117.932 24.6111 117.999C24.8225 118.011 25.0103 117.822 25.0103 117.626C25.0039 115.542 25.0039 113.459 25.0103 111.369C25.0103 111.185 25.0103 110.996 25.0146 110.806C25.0274 105.716 25.0637 100.628 25.0701 95.5346V94.9638C25.0701 91.0708 25.0573 87.1838 24.9911 83.2948Z" fill="#F5D4C4"/>
<path d="M18.2997 77.5743C18.2627 79.0647 18.2191 80.5511 18.1755 82.0415C14.1573 81.4505 10.1914 80.6307 6.30169 79.4766C6.84429 74.7049 7.27574 69.9193 7.63965 65.1377C11.2286 64.9626 14.811 64.8552 18.3978 64.8731C18.4239 69.1035 18.4043 73.3419 18.2997 77.5743ZM18.023 95.1148C13.3619 95.0133 8.74226 94.7586 4.12479 94.3089C4.53228 92.1718 4.90926 90.0327 5.21651 87.8936C5.59349 85.3008 5.92471 82.7001 6.22761 80.1014C9.63786 81.1301 13.1266 81.9022 16.685 82.4534C17.1709 82.531 17.6721 82.5887 18.1646 82.6603C18.0469 86.8131 17.9423 90.962 18.023 95.1148ZM8.23672 56.3804C8.44155 53.0275 8.62023 49.6746 8.79238 46.3198C9.62479 46.3974 10.4572 46.5068 11.2896 46.6501C13.6147 47.056 15.8526 47.7206 18.0905 48.4011C18.2387 53.7021 18.3564 59.005 18.3934 64.31C16.9378 64.304 15.4822 64.3159 14.0331 64.3438C11.9128 64.3876 9.79694 64.4672 7.68977 64.5686C7.89242 61.8406 8.07111 59.1105 8.23672 56.3804ZM25.0701 95.7674V95.1924C23.7823 95.1884 22.4857 95.1765 21.1979 95.1645C20.3415 95.1585 19.4895 95.1426 18.6396 95.1247C18.5459 90.9958 18.583 86.8649 18.6636 82.728C20.7599 83.0145 22.8692 83.2513 24.9895 83.4364C24.9895 83.2294 24.9895 83.0265 24.9764 82.8235C22.8692 82.6384 20.7664 82.4016 18.6767 82.1091C18.7878 76.3644 18.973 70.6178 18.9905 64.8791C20.5877 64.889 22.1785 64.9288 23.7692 64.9905C23.7496 64.8054 23.7321 64.6204 23.7125 64.4333C22.1414 64.3677 20.5681 64.3259 18.9905 64.3159C18.997 62.9648 18.9905 61.6197 18.973 60.2706C18.9164 56.3764 18.8249 52.4823 18.7137 48.5882C20.433 49.1115 22.148 49.6328 23.9043 50.0447C23.9174 49.8378 23.9174 49.6289 23.9239 49.414C22.1589 48.9881 20.4265 48.4688 18.6941 47.9514C18.6135 45.301 18.5285 42.6505 18.4413 40C18.2387 40.0895 18.0404 40.1751 17.8377 40.2587C17.9184 42.7639 17.9968 45.2671 18.0709 47.7704C16.0858 47.1794 14.0832 46.6123 12.0174 46.2123C10.9998 46.0113 9.96473 45.876 8.94056 45.7805C8.66382 46.274 8.374 46.9784 8.08418 47.8002C7.78783 53.4096 7.43699 59.009 6.999 64.6025C5.82666 64.6641 4.66085 64.7258 3.49068 64.8054C3.4471 64.9965 3.39698 65.1895 3.3534 65.3785C4.55625 65.3009 5.75257 65.2332 6.95542 65.1716C6.58497 69.8756 6.14044 74.5756 5.61093 79.2676C4.22285 78.8398 2.8435 78.3782 1.47939 77.8668C1.46196 78.0638 1.44889 78.2608 1.43145 78.4637C2.7803 78.9811 4.15094 79.4527 5.53684 79.8865C4.98117 84.682 4.32963 89.4696 3.54516 94.2472C2.48613 94.1417 1.42492 94.0223 0.363704 93.893C0.35063 94.084 0.339735 94.2711 0.32666 94.4561C1.36826 94.5855 2.40986 94.6989 3.4471 94.8044C3.10717 96.8638 2.74326 98.9233 2.34885 100.979C2.5101 100.989 2.66263 101.001 2.82388 101.013C3.2183 98.9631 3.63232 96.9156 4.0202 94.866C8.67035 95.3277 13.3249 95.5923 18.0339 95.6819C18.0469 96.251 18.06 96.8141 18.0774 97.3812C18.2387 101.641 18.5525 105.896 18.8684 110.15C14.5996 109.402 10.3526 108.568 6.07289 107.878C6.04238 108.069 6.02495 108.254 5.9988 108.439C10.3156 109.149 14.5996 109.977 18.9033 110.731C19.058 112.84 19.2127 114.952 19.3369 117.067C19.3544 117.353 19.3675 117.634 19.3849 117.922C19.5832 117.95 19.7858 117.978 19.9885 118C19.8665 115.608 19.6987 113.222 19.5265 110.837C20.7839 111.055 22.0477 111.27 23.3181 111.467C23.8803 111.557 24.4403 111.636 25.0091 111.72C25.0091 111.535 25.0091 111.344 25.0134 111.153C24.996 111.153 24.972 111.153 24.9524 111.147C23.1285 110.882 21.3025 110.578 19.4851 110.257C19.2367 106.875 18.9905 103.494 18.8183 100.111C18.7442 98.6428 18.6876 97.1683 18.6505 95.6938C18.899 95.6998 19.1452 95.7058 19.3914 95.7097C21.285 95.7336 23.1765 95.7495 25.0701 95.7674Z" fill="#F5F5F5"/>
<path d="M12.0639 210C11.5231 210 11.0845 209.618 11.0845 209.147V43.5816C11.0845 36.8062 16.3247 30.8245 23.8305 29.0312C24.3486 28.9045 24.8894 29.1757 25.0349 29.629C25.178 30.0842 24.869 30.5533 24.3486 30.678C17.6927 32.2675 13.0456 37.5722 13.0456 43.5816V209.147C13.0456 209.618 12.6047 210 12.0639 210Z" fill="#555663"/>
<path d="M69.8938 19C69.7415 19 69.5967 18.9249 69.5517 18.8085C69.322 18.2416 68.9374 17.8587 68.408 17.6729C67.5116 17.3613 66.4628 17.6935 66.4528 17.6954C66.268 17.7536 66.0582 17.6916 65.9808 17.5546C65.9009 17.4176 65.9858 17.2599 66.1656 17.1998C66.2205 17.1829 67.5166 16.77 68.7052 17.1829C69.4293 17.4345 69.9462 17.9281 70.2384 18.6527C70.2958 18.7954 70.1885 18.9456 69.9987 18.9887C69.9637 18.9962 69.9288 19 69.8938 19Z" fill="#9B9DB5"/>
<path d="M83.8997 15C83.7721 15 83.6515 14.9649 83.5924 14.9052C82.68 13.9684 80.5147 14.4637 80.4225 14.486C80.2523 14.5246 80.049 14.4906 79.9687 14.4052C79.8883 14.322 79.9616 14.2213 80.1318 14.1815C81.1199 13.9497 83.2426 13.7717 84.2047 14.7576C84.2874 14.8419 84.2165 14.9426 84.0463 14.9824C83.999 14.9953 83.9494 15 83.8997 15Z" fill="#9B9DB5"/>
<path d="M109.788 9C109.672 9 109.566 8.92498 109.532 8.80871C109.358 8.24047 109.069 7.85789 108.672 7.67223C108.002 7.36091 107.213 7.69286 107.206 7.69473C107.071 7.75287 106.912 7.69098 106.854 7.55595C106.794 7.41905 106.856 7.25964 106.993 7.19963C107.034 7.18275 108.004 6.77017 108.895 7.18275C109.44 7.43405 109.826 7.92916 110.047 8.6493C110.09 8.79371 110.009 8.94374 109.867 8.98687C109.841 8.99625 109.815 9 109.788 9Z" fill="#9B9DB5"/>
<path d="M85.7194 75.0361C85.5407 73.0733 85.7218 71.1924 85.15 69.2623C84.4758 66.9762 83.349 64.7473 84.0708 62.3588C84.1804 61.9986 83.53 61.8451 83.4228 62.2053C82.8987 63.9327 83.2442 65.5844 83.7945 67.275C84.128 68.3045 84.5235 69.3237 84.7593 70.3737C85.0285 71.5813 84.9594 72.7765 84.9904 73.9964C85.1 78.2474 87.6586 82.3735 86.5198 86.6388C86.4222 87.0011 87.0725 87.1566 87.1702 86.7923C88.2446 82.7624 86.0815 79.0108 85.7194 75.0361Z" fill="#333E4F"/>
<path d="M93.4073 26.0822C92.0767 27.3123 90.7481 28.5405 89.4175 29.7707C89.0249 30.1362 88.1611 31.2705 87.5966 31.1327C87.0618 30.9989 86.1874 29.599 85.816 29.1936C85.5634 28.918 85.1411 29.3194 85.3915 29.593C86.1046 30.3678 86.8156 31.1447 87.5287 31.9175C87.6348 32.0353 87.8449 32.0194 87.9531 31.9175C89.912 30.1062 91.8729 28.2949 93.8318 26.4816C94.1077 26.226 93.6832 25.8265 93.4073 26.0822Z" fill="#C95A3E"/>
<path d="M84.7481 28.1447C84.2938 28.9878 83.7829 29.8011 83.2156 30.5865C82.9961 30.8895 83.5286 31.1726 83.7482 30.8716C84.3133 30.0862 84.8242 29.2709 85.2806 28.4277C85.4545 28.1028 84.9241 27.8177 84.7481 28.1447Z" fill="#C95A3E"/>
<path d="M81.9114 29.5259C80.1841 28.9149 78.6401 28.0972 77.2915 27.0764C76.9803 26.8405 76.4978 27.2045 76.809 27.4423C78.1962 28.4942 79.7884 29.343 81.5665 29.9723C81.9621 30.115 82.3095 29.6668 81.9114 29.5259Z" fill="#C95A3E"/>
<path d="M108.964 32.3263C109.082 32.0021 108.604 31.8601 108.486 32.1805C107.156 35.8678 107.873 39.9464 107.07 43.7584C106.695 45.5368 106.714 46.6303 107.469 48.2342C108.313 50.0298 107.304 51.9502 107.859 53.8111C107.957 54.143 108.435 54.0011 108.337 53.6672C107.858 52.0577 108.646 50.4308 108.246 48.8212C108.028 47.931 107.418 47.298 107.292 46.3598C107.14 45.2203 107.537 44.0865 107.735 42.9795C108.369 39.4419 107.73 35.7431 108.964 32.3263Z" fill="#C95A3E"/>
<path d="M128.74 26.1949C127.87 29.3778 128.184 32.6548 127.419 35.8473C127.1 37.1746 126.626 38.477 126.399 39.8177C126.122 41.4505 126.186 43.0967 126.253 44.7371C126.268 45.0867 126.967 45.0886 126.954 44.7371C126.89 43.2619 126.821 41.777 127.023 40.3056C127.246 38.6806 127.861 37.1131 128.206 35.5035C128.858 32.4666 128.589 29.3605 129.414 26.339C129.508 25.999 128.833 25.853 128.74 26.1949Z" fill="#EBAB67"/>
<path d="M126.908 5C126.749 5 126.602 4.92308 126.559 4.80588C126.345 4.24549 125.972 3.8664 125.442 3.67594C124.551 3.35362 123.478 3.65579 123.466 3.65946C123.282 3.7144 123.07 3.64664 122.994 3.51295C122.921 3.37926 123.009 3.22543 123.196 3.17049C123.251 3.15584 124.574 2.77491 125.76 3.20162C126.484 3.46167 126.988 3.9543 127.258 4.66486C127.311 4.80588 127.198 4.95055 127.004 4.98901C126.973 4.99451 126.941 5 126.908 5Z" fill="#9B9DB5"/>
<path d="M144.136 67.2624C144.096 66.9135 143.365 66.9116 143.41 67.2624C143.882 71.0872 144.355 74.912 144.827 78.7369C144.87 79.0858 145.601 79.0896 145.558 78.7369C145.083 74.912 144.611 71.0872 144.136 67.2624Z" fill="#A87A4A"/>
</svg>
