<svg width="158" height="116" viewBox="0 0 158 116" fill="none" xmlns="http://www.w3.org/2000/svg">
<g clip-path="url(#clip0_108_39039)">
<path d="M152.461 125.506C151.697 126.377 150.331 126.434 147.827 126.223C141.713 125.71 135.81 126.312 129.696 126.312C124.322 126.312 118.948 126.312 113.573 126.312C97.7847 126.312 81.4755 127.508 65.7268 126.312C58.4175 125.759 59.401 116.639 59.3119 110.537C59.2061 103.15 60.0522 95.7954 60.0522 88.4166C60.0522 73.9514 60.0522 59.4778 60.0522 45.0126C60.0522 37.2107 60.1897 29.417 60.2796 21.615C60.3362 17.0668 57.8162 7.01908 64.9465 7.81628C76.3289 7.81628 87.7763 8.32105 99.2396 8.32105C113.688 8.32105 128.143 8.32105 142.591 8.32105C146.997 8.32105 152.234 6.51507 153.396 10.9975C154.038 13.479 153.396 17.0177 153.396 19.5808C153.396 33.4763 153.396 47.3801 153.396 61.2755C153.396 61.4387 153.396 61.5929 153.396 61.7561C153.396 76.9369 153.396 92.126 153.396 107.308C153.396 112.14 153.738 117.119 153.396 121.944C153.274 123.741 153.038 124.856 152.461 125.506Z" fill="#DDCBBC"/>
<path d="M63.2402 123.977C63.1419 123.977 63.0611 123.896 63.0611 123.798V51.2855C63.0611 47.0064 62.9063 42.6622 62.7605 38.4555C62.6547 35.5191 62.549 32.4762 62.4915 29.4823C62.4349 26.521 62.6056 23.5271 62.7763 20.6391C62.9387 17.7344 63.1178 14.7239 63.0528 11.7792C63.0528 11.6817 63.1261 11.6001 63.2318 11.5918C63.3293 11.5918 63.4109 11.6734 63.4109 11.7709C63.4675 14.7322 63.2968 17.7427 63.1344 20.6632C62.9712 23.5513 62.8005 26.5368 62.8496 29.4823C62.9063 32.4678 63.012 35.5108 63.1178 38.448C63.2643 42.6539 63.4184 47.0064 63.4184 51.2855V123.798C63.4184 123.896 63.3376 123.977 63.2402 123.977Z" fill="#C9B5A7"/>
<path d="M70.8828 18.2461H153.527V119.926H70.8828V18.2461Z" fill="#EBE0D7"/>
<path d="M86.475 35.8683C89.0525 35.8683 91.6375 35.8683 94.2149 35.8683C104.191 35.8683 114.175 35.8683 124.151 35.8683C129.46 35.8683 134.769 35.8683 140.078 35.8683C142.322 35.8683 144.566 35.8683 146.81 35.8683C148.712 35.8683 150.965 36.5756 152.802 35.6484C152.899 35.5993 152.997 35.5426 153.062 35.3801C153.143 35.1761 153.135 34.8671 153.119 34.5988C152.761 30.0106 146.713 31.9223 145.086 31.9223C141.834 31.9223 138.582 31.9223 135.33 31.9223C124.541 31.9223 113.752 31.9223 102.972 31.9223C97.3778 31.9223 91.7757 31.9223 86.1819 31.9223C85.4749 31.9223 84.6862 31.5967 84.0358 32.2556C83.5478 32.752 83.1172 34.1107 83.4096 35.1278C83.5886 35.7625 83.9542 35.925 84.2881 36.0141C85.1659 36.2582 85.5965 35.9733 86.475 35.8683Z" fill="#FAFAFA"/>
<path d="M100.077 50.5613C99.9878 50.5613 99.9145 50.5205 99.8737 50.4388C99.638 49.9915 101.362 47.0951 101.378 47.071C101.939 46.3304 102.646 45.8347 103.329 45.3541C103.776 45.0368 104.24 44.7119 104.646 44.3212C105.109 43.8822 105.492 43.394 105.874 42.9217C106.54 42.0837 107.231 41.2216 108.329 40.6359C108.663 40.4568 109.004 40.3103 109.329 40.1803L109.59 40.0745C110.044 39.8954 110.508 39.708 110.939 39.4639C111.866 38.9433 112.435 38.1703 112.468 37.4056C112.484 36.9665 112.337 36.5517 112.191 36.1044C112.151 35.982 112.11 35.8686 112.069 35.7462C111.809 34.9324 111.598 33.6961 112.021 32.4758C112.419 31.337 113.313 30.4741 114.37 30.2225C115.15 30.0351 116.012 30.23 116.63 30.7265C116.638 30.7348 117.598 31.6212 117.37 32.0118C117.232 32.2559 116.866 32.1093 116.728 32.0526C116.313 31.8902 115.85 31.8652 115.419 31.996C114.85 32.1667 114.362 32.6058 114.11 33.1755C113.24 35.1606 115.5 37.1615 117.151 38.6259C117.557 38.9841 117.939 39.3257 118.232 39.6272C118.402 39.8062 118.59 39.9929 118.801 40.0987C119.029 40.2128 119.297 40.237 119.573 40.2695L119.671 40.2778C120.394 40.3594 121.118 40.5218 121.801 40.7576C122.118 40.8717 122.451 41.0017 122.744 41.2299C123.468 41.7913 123.745 42.6044 123.501 43.459C123.224 44.427 122.33 45.1834 121.33 45.2808C120.736 45.3383 120.15 45.395 119.557 45.4524C115.159 45.8672 110.614 46.3063 106.581 48.1289C106.085 48.348 105.589 48.6004 105.101 48.8444C103.516 49.6341 101.882 50.4555 100.085 50.5446C100.085 50.5613 100.085 50.5613 100.077 50.5613ZM109.459 40.5218C109.143 40.6435 108.809 40.7901 108.492 40.9609C107.459 41.5064 106.825 42.3119 106.15 43.1575C105.768 43.6381 105.37 44.1338 104.89 44.5894C104.459 44.9967 103.988 45.33 103.532 45.6556C102.841 46.1438 102.191 46.5994 101.662 47.2992C101.475 47.5508 100.353 49.6341 100.215 50.2031C101.882 50.0814 103.435 49.3001 104.939 48.552C105.427 48.3079 105.931 48.0556 106.427 47.8274C110.517 45.9806 115.094 45.5415 119.517 45.1184C120.11 45.0617 120.703 45.0043 121.289 44.9476C122.142 44.8584 122.907 44.2154 123.151 43.3857C123.354 42.6777 123.127 42.0021 122.525 41.5389C122.273 41.3432 121.972 41.2299 121.688 41.1241C121.021 40.8959 120.329 40.7334 119.631 40.6601L119.533 40.6518C119.232 40.6193 118.923 40.5868 118.639 40.4402C118.37 40.3103 118.159 40.0904 117.972 39.9037C117.679 39.6105 117.305 39.2773 116.907 38.9191C115.175 37.3814 112.801 35.2747 113.776 33.0531C114.069 32.3942 114.638 31.8735 115.305 31.6703C115.809 31.5154 116.362 31.5403 116.85 31.7353C116.915 31.7594 116.972 31.7761 117.004 31.7919C116.907 31.5811 116.573 31.1738 116.386 31.0272C115.858 30.6048 115.11 30.4333 114.435 30.5965C113.516 30.8156 112.695 31.6053 112.345 32.6141C111.956 33.7445 112.159 34.8923 112.395 35.6646C112.435 35.7787 112.468 35.9011 112.508 36.0144C112.663 36.4701 112.825 36.9424 112.809 37.4464C112.777 38.3418 112.134 39.2199 111.101 39.8062C110.655 40.0579 110.174 40.2453 109.711 40.4327L109.459 40.5218Z" fill="#DDCBBC"/>
<path d="M124.225 77.0181C123.99 74.1867 123.753 71.3553 123.526 68.5239C123.42 67.2794 123.135 65.9049 123.314 64.6679C123.461 63.6833 123.681 62.8053 123.697 61.7799C123.762 56.4836 122.656 51.2765 122.136 46.0293C122.046 45.118 121.998 44.1175 122.534 43.3687C123.746 41.6768 126.404 43.9468 126.868 45.2563C130.291 54.9625 129.941 66.124 129.087 76.2451C129.071 76.4241 129.055 76.6191 128.949 76.774C128.819 76.9606 128.591 77.0506 128.372 77.1239C127.331 77.4571 126.25 77.677 125.152 77.7578C124.883 77.7828 124.567 77.7745 124.388 77.5712C124.266 77.4087 124.241 77.2047 124.225 77.0181Z" fill="#EBE0D7"/>
<path d="M124.502 66.7669C124.494 66.7669 124.477 66.7669 124.47 66.7669C124.372 66.7502 124.307 66.6528 124.323 66.5553C124.559 65.3107 124.486 63.2766 124.421 61.4864C124.397 60.6809 124.364 59.9245 124.372 59.3306L124.437 52.489C124.453 50.8697 123.811 49.0312 123.242 47.4036C123.177 47.217 123.112 47.0379 123.055 46.8671C123.023 46.7696 123.071 46.6714 123.168 46.6389C123.266 46.6064 123.364 46.6555 123.396 46.753C123.453 46.9321 123.518 47.1112 123.583 47.2902C124.161 48.9413 124.811 50.8206 124.795 52.4966L124.73 59.3389C124.721 59.9245 124.754 60.6809 124.779 61.4789C124.844 63.2849 124.917 65.3349 124.673 66.6203C124.656 66.7102 124.583 66.7669 124.502 66.7669Z" fill="#EBE0D7"/>
<path d="M118.573 98.7475C118.289 98.6908 117.989 98.6334 117.687 98.5767C113.915 97.8445 110.777 99.7646 106.728 98.2435C101.939 96.4451 98.9962 99.5938 94.2643 98.8533C91.8168 98.4709 91.1989 97.8687 91.3288 95.6237C91.6219 90.474 95.1504 83.7866 97.443 79.255C99.2235 75.7322 102.37 68.9874 107.069 69.069C107.979 69.0849 108.874 69.3373 109.768 69.508C114.029 70.346 118.59 69.4997 122.265 67.1814C122.655 66.9373 123.054 66.6691 123.517 66.62C124.744 66.5059 125.053 67.5396 125.647 68.6134C128.549 73.9013 131.476 79.1893 134.143 84.608C135.363 87.0812 143.607 99.0974 137.558 99.9762C135.021 100.35 132.492 99.3331 129.851 99.5855C125.533 100 122.598 99.5288 118.573 98.7475Z" fill="#F9F5F2"/>
<path d="M99.1828 96.1457C99.1586 96.1457 99.142 96.1457 99.1178 96.1291C99.0287 96.089 98.9796 95.9908 99.0204 95.8933C100.297 92.7045 101.305 89.385 102.028 86.0247C102.175 85.3658 102.305 84.7068 102.443 84.0479C103.443 79.264 104.378 74.749 107.053 70.5431C107.11 70.4615 107.216 70.4373 107.297 70.4857C107.378 70.5431 107.402 70.6489 107.354 70.7298C104.72 74.8707 103.785 79.3615 102.793 84.1129C102.655 84.7718 102.516 85.4307 102.378 86.0897C101.646 89.4666 100.63 92.8103 99.3535 96.0157C99.321 96.1049 99.2561 96.1457 99.1828 96.1457Z" fill="#EBE0D7"/>
<path d="M113.549 88.5138C113.444 88.5055 113.362 88.4239 113.37 88.3265C113.484 85.7724 113.395 83.0876 113.094 80.3295C113.005 79.4915 112.866 78.6452 112.736 77.8238C112.428 75.9113 112.11 73.9262 112.354 71.9495C112.363 71.852 112.452 71.7787 112.557 71.7953C112.655 71.8029 112.728 71.8928 112.712 71.9986C112.484 73.9262 112.793 75.8871 113.094 77.7747C113.224 78.6044 113.363 79.459 113.452 80.3046C113.744 83.0793 113.842 85.7799 113.728 88.3514C113.728 88.4406 113.647 88.5138 113.549 88.5138Z" fill="#EBE0D7"/>
<path d="M99.4194 75.5212C99.3869 75.5212 99.3545 75.5129 99.322 75.4887C99.2404 75.4313 99.2162 75.3255 99.2736 75.2363C100.411 73.5278 101.705 71.9168 103.135 70.4524C103.721 69.8501 104.412 69.1912 105.281 68.8739C106.501 68.4348 107.835 68.7439 109.021 69.0121C111.387 69.5577 113.891 70.0458 116.257 69.5328C117.843 69.1912 119.176 68.4839 120.583 67.7351C121.331 67.3369 122.095 66.9296 122.908 66.588C123.429 66.3606 124.038 66.1649 124.574 66.4173C124.917 66.5714 125.144 66.8729 125.356 67.1654C126.737 69.1179 127.802 71.2662 128.502 73.5603C128.534 73.6578 128.478 73.7553 128.379 73.7878C128.282 73.8203 128.185 73.7636 128.152 73.6661C127.461 71.4128 126.421 69.297 125.054 67.3769C124.868 67.117 124.68 66.8646 124.42 66.7505C124.006 66.5555 123.493 66.7346 123.046 66.9213C122.249 67.2636 121.486 67.6701 120.754 68.0608C119.38 68.7847 117.965 69.5411 116.331 69.8909C113.891 70.4199 111.347 69.9234 108.941 69.3703C107.81 69.1104 106.526 68.8089 105.404 69.2162C104.607 69.5003 103.948 70.135 103.387 70.7048C101.973 72.1526 100.688 73.7477 99.566 75.4396C99.5335 75.4963 99.4768 75.5212 99.4194 75.5212Z" fill="#EBE0D7"/>
<path d="M107.388 103.15C107.364 103.15 107.347 103.15 107.323 103.141C107.233 103.109 107.185 103.003 107.217 102.914C108.144 100.424 108.68 97.8124 108.819 95.1518C108.827 95.0543 108.908 94.9727 109.006 94.9811C109.103 94.9894 109.184 95.071 109.177 95.1685C109.038 97.8615 108.494 100.506 107.559 103.035C107.526 103.1 107.461 103.15 107.388 103.15Z" fill="#EBE0D7"/>
<path d="M124.6 104.411C124.559 104.411 124.526 104.403 124.494 104.379C123.615 103.72 123.112 102.678 122.705 101.645C121.754 99.2285 121.087 96.682 120.445 94.2255C120.421 94.128 120.477 94.0305 120.575 94.0056C120.672 93.9814 120.77 94.0381 120.795 94.1363C121.437 96.5846 122.096 99.1228 123.038 101.515C123.396 102.426 123.852 103.459 124.706 104.094C124.786 104.151 124.803 104.265 124.746 104.346C124.713 104.387 124.656 104.411 124.6 104.411Z" fill="#EBE0D7"/>
<path d="M132.956 100.156C132.9 100.156 132.85 100.131 132.81 100.082C129.696 95.9416 127.216 91.3692 125.444 86.4961C125.411 86.4062 125.46 86.3004 125.549 86.2679C125.639 86.2354 125.744 86.2845 125.777 86.3737C127.541 91.2143 129.996 95.7542 133.094 99.8709C133.151 99.9525 133.135 100.066 133.062 100.123C133.029 100.139 132.997 100.156 132.956 100.156Z" fill="#EBE0D7"/>
<path d="M138.51 99.5856C138.469 99.5856 138.428 99.5698 138.396 99.5448C136.624 98.1212 135.128 96.4127 133.957 94.4684C133.908 94.3868 133.932 94.2735 134.014 94.2244C134.095 94.1752 134.208 94.2002 134.258 94.281C135.412 96.1928 136.883 97.8688 138.616 99.2683C138.689 99.3332 138.705 99.4473 138.64 99.5206C138.616 99.5614 138.559 99.5856 138.51 99.5856Z" fill="#EBE0D7"/>
<path d="M101.776 80.2889C107.02 80.2564 108.663 76.1155 111.557 72.8693C114.183 69.9321 118.679 70.1679 121.842 68.142C125.395 65.8562 125.972 61.8944 126.395 57.7452C126.883 52.9778 127.647 43.0117 121.85 41.01C119.419 40.1637 119.362 41.3274 116.972 42.1163C113.126 43.3774 107.508 40.7493 104.353 43.6948C102.931 45.0293 99.9229 48.5845 99.4915 50.3497C98.8328 53.0262 99.3941 55.9959 99.0036 58.7456C98.7029 60.8531 97.7111 63.0248 97.8659 65.1648C98.1824 69.5256 98.7596 73.8781 99.5323 78.1814C99.5731 78.4096 99.6215 78.6454 99.6864 78.8728C99.833 79.3693 100.06 79.8333 100.5 80.0773C100.874 80.2889 101.337 80.2972 101.776 80.2889Z" fill="#F9F5F2"/>
<path d="M101.037 80.5743C100.842 80.5743 100.639 80.5577 100.443 80.4768C99.7684 80.2078 99.6468 79.5005 99.5244 78.8167C99.4512 78.4102 99.3779 77.9787 99.183 77.6613C99.1347 77.5805 99.1588 77.4664 99.2397 77.4172C99.3212 77.3689 99.4353 77.3931 99.4837 77.4747C99.7118 77.8487 99.7926 78.3127 99.8742 78.7517C99.9883 79.3948 100.086 79.9396 100.574 80.1345C100.769 80.2078 100.988 80.2078 101.216 80.1995C102.224 80.1595 103.224 80.0046 104.2 79.7522C104.793 79.598 105.451 79.3615 105.777 78.8333C106.053 78.3852 106.045 77.8245 106.004 77.1898C105.769 73.537 105.443 69.8435 105.012 66.2066C104.842 64.7505 104.809 63.5951 105.159 62.0007C105.371 61.0244 105.687 60.0557 105.988 59.1202C106.208 58.4371 106.436 57.7374 106.622 57.0293C107.143 55.0692 107.395 53.0433 107.363 51.0092C107.363 50.9117 107.443 50.8301 107.541 50.8301C107.638 50.8301 107.72 50.9117 107.72 51.0092C107.752 53.0758 107.5 55.1342 106.964 57.1276C106.777 57.8349 106.549 58.5429 106.322 59.2343C106.021 60.1615 105.712 61.1219 105.5 62.0815C105.159 63.6193 105.191 64.7505 105.362 66.1658C105.785 69.8027 106.118 73.5045 106.354 77.1656C106.395 77.8321 106.411 78.4835 106.078 79.02C105.679 79.6547 104.915 79.9313 104.289 80.0937C103.289 80.3544 102.256 80.5169 101.224 80.5577C101.167 80.5743 101.102 80.5743 101.037 80.5743Z" fill="#EBE0D7"/>
<path d="M114.794 68.4177C111.338 68.4177 107.679 67.7755 105.362 66.9699C105.265 66.9374 105.216 66.8317 105.248 66.7425C105.281 66.6526 105.386 66.5959 105.476 66.6284C109.492 68.0354 117.419 68.8167 121.216 66.905C121.306 66.8558 121.412 66.8966 121.46 66.9866C121.501 67.0757 121.468 67.1815 121.379 67.2306C119.688 68.0845 117.289 68.4177 114.794 68.4177Z" fill="#EBE0D7"/>
<path d="M123.72 64.8227C123.655 64.8227 123.582 64.7819 123.558 64.7169C122.525 62.3978 122.842 54.8482 123.826 52.1959C123.858 52.1068 123.964 52.0576 124.054 52.0901C124.143 52.1226 124.192 52.2284 124.16 52.3176C123.192 54.9215 122.883 62.3086 123.883 64.5703C123.923 64.6594 123.883 64.7652 123.793 64.806C123.769 64.8143 123.745 64.8227 123.72 64.8227Z" fill="#EBE0D7"/>
<path d="M114.388 44.3547C114.355 44.3547 114.33 44.3547 114.298 44.3547C113.258 44.3381 112.192 44.2814 111.16 44.2247C109.9 44.1597 108.598 44.0864 107.297 44.0864C107.2 44.0864 107.119 44.0048 107.119 43.9074C107.119 43.8099 107.2 43.7283 107.297 43.7283C108.607 43.7283 109.907 43.8016 111.176 43.8665C112.2 43.9232 113.265 43.9806 114.298 43.9965C115.355 44.0215 116.404 43.7041 117.42 43.4109C118.331 43.1426 119.192 42.8903 119.948 42.9228C120.046 42.9228 120.127 43.0127 120.119 43.1102C120.119 43.2076 120.021 43.2892 119.932 43.2809C119.233 43.2567 118.396 43.5008 117.517 43.7524C116.566 44.0373 115.477 44.3547 114.388 44.3547Z" fill="#EBE0D7"/>
<path d="M121.274 52.0417C121.2 52.0417 121.127 52.0092 121.086 51.936C120.81 51.5135 122.233 48.4623 122.249 48.4381C122.737 47.6409 123.387 47.0795 124.022 46.5339C124.437 46.1765 124.867 45.8017 125.233 45.3793C125.648 44.8987 125.989 44.3705 126.315 43.8657C126.892 42.971 127.493 42.0356 128.526 41.3517C128.843 41.1401 129.168 40.961 129.477 40.8069L129.729 40.6769C130.16 40.457 130.608 40.2213 131.014 39.9364C131.883 39.3258 132.38 38.5045 132.331 37.7314C132.306 37.2924 132.119 36.8934 131.924 36.462C131.876 36.3486 131.818 36.2345 131.77 36.1129C131.436 35.3232 131.095 34.1195 131.395 32.8583C131.68 31.6871 132.485 30.735 133.51 30.3851C134.266 30.1244 135.144 30.2302 135.811 30.6617C135.818 30.67 136.859 31.4589 136.673 31.8654C136.559 32.1178 136.176 32.012 136.038 31.9712C135.608 31.8495 135.144 31.8737 134.729 32.0445C134.176 32.2727 133.737 32.7608 133.542 33.3465C132.868 35.4048 135.314 37.1783 137.103 38.472C137.542 38.7893 137.957 39.0901 138.282 39.3583C138.477 39.5216 138.672 39.684 138.892 39.7656C139.128 39.8548 139.396 39.8548 139.681 39.8631H139.778C140.51 39.8714 141.241 39.9606 141.949 40.1314C142.274 40.213 142.624 40.3104 142.933 40.5054C143.713 40.9935 144.063 41.7749 143.9 42.6537C143.721 43.6458 142.909 44.4838 141.924 44.6795C141.339 44.7929 140.762 44.9153 140.176 45.0294C135.843 45.8833 131.363 46.7621 127.525 48.9746C127.054 49.2436 126.583 49.5444 126.127 49.8292C124.632 50.773 123.078 51.7493 121.306 52.0176C121.298 52.0417 121.282 52.0417 121.274 52.0417ZM134.363 30.6126C134.111 30.6126 133.86 30.6534 133.624 30.735C132.729 31.044 131.989 31.9145 131.738 32.9475C131.461 34.1112 131.778 35.2341 132.087 35.9738C132.136 36.0879 132.184 36.202 132.241 36.3161C132.445 36.7552 132.648 37.2108 132.68 37.7156C132.737 38.6103 132.185 39.5457 131.209 40.2288C130.786 40.522 130.331 40.7578 129.884 40.9935L129.632 41.1243C129.331 41.2784 129.014 41.4492 128.713 41.6532C127.737 42.3038 127.184 43.1577 126.599 44.069C126.265 44.5813 125.924 45.1186 125.493 45.6233C125.111 46.0707 124.672 46.453 124.249 46.8188C123.607 47.3719 123.005 47.8925 122.55 48.6414C122.387 48.9096 121.477 51.0904 121.395 51.676C123.038 51.3911 124.509 50.464 125.941 49.5685C126.404 49.2761 126.875 48.9746 127.355 48.7063C131.241 46.4613 135.753 45.5742 140.111 44.7204C140.697 44.6062 141.282 44.4921 141.859 44.3705C142.705 44.199 143.396 43.4834 143.559 42.6295C143.689 41.9048 143.396 41.2542 142.754 40.8477C142.486 40.6769 142.177 40.587 141.876 40.522C141.193 40.3596 140.485 40.2696 139.786 40.2613H139.689C139.388 40.2613 139.079 40.2538 138.778 40.1397C138.493 40.0339 138.266 39.8389 138.063 39.6674C137.745 39.3991 137.339 39.1067 136.9 38.7893C135.022 37.4307 132.453 35.5673 133.209 33.2565C133.437 32.5734 133.949 32.0037 134.599 31.7354C135.087 31.5322 135.632 31.4997 136.144 31.6463C136.217 31.6705 136.266 31.6788 136.306 31.6871C136.185 31.4914 135.818 31.1173 135.615 30.9874C135.241 30.735 134.802 30.6126 134.363 30.6126Z" fill="#DDCBBC"/>
<path d="M140.917 65.8656C149.949 64.4011 149.527 77.2311 151.185 83.0722C152.047 86.1152 152.526 88.6942 152.518 91.9805C152.511 94.4945 153.332 97.5374 152.535 99.9373C150.746 105.331 145.876 101.825 142.038 101.54C138.819 101.304 136.51 102.955 133.526 103.403C130.299 103.892 129.681 102.256 127.225 101.402C125.371 100.751 122.087 101.638 119.956 101.54C117.964 101.443 112.517 99.9048 111.737 97.879C110.907 95.7315 113.167 92.461 113.956 90.5485C114.915 88.2468 116.037 86.286 116.663 83.8211C117.566 80.2816 118.802 76.8888 120.745 73.7816C122.095 71.625 123.266 68.4446 125.615 67.1426C127.599 66.0446 130.509 66.4187 132.705 66.3537C135.437 66.2804 138.193 66.3046 140.917 65.8656Z" fill="#DDCBBC"/>
<path d="M149.039 54.3366C149.022 54.3933 148.998 54.45 148.974 54.5074C148.633 55.3529 148.039 56.1177 147.218 56.5249C146.689 56.7849 145.982 57.0539 145.413 57.1922C144.803 57.338 144.567 57.1347 143.949 56.9156C142.949 56.5657 142.185 55.7111 141.771 54.7348C141.412 53.8885 141.47 53.0671 141.299 52.1966C141.153 51.4402 140.827 50.7647 140.705 49.9834C140.388 47.8925 140.551 45.7533 141.063 43.7108C141.25 42.9544 141.494 42.1897 141.95 41.555C142.404 40.921 143.112 40.4245 143.892 40.3837C145.144 40.3187 146.153 41.3683 146.876 42.393C148.096 44.1098 149.364 45.8999 149.974 47.9333C150.258 48.8854 150.413 49.9433 150.088 50.9113C149.933 51.3828 149.575 51.7327 149.421 52.1883C149.201 52.8797 149.266 53.6369 149.039 54.3366Z" fill="#DDCBBC"/>
<path d="M144.868 66.5562C144.868 66.8894 144.705 67.1826 144.16 67.5242C142.948 68.2972 141.217 69.111 139.834 69.4851C138.924 69.7375 137.867 69.745 136.924 69.7858C135.046 69.8591 133.151 69.6966 131.306 69.306C129.631 68.9478 127.704 68.4113 127.306 66.5887C127.045 65.4175 127.436 64.4162 127.444 63.2941C127.453 62.1795 127.045 61.0159 126.907 59.9096C126.688 58.2253 125.997 56.9483 126.021 55.2556C126.046 53.2381 125.664 51.0905 125.062 49.1705C124.679 47.9335 123.956 45.6718 124.411 44.4356C124.672 43.711 125.322 43.1986 125.964 42.7755C126.452 42.4506 127.468 41.6284 128.07 41.6284C128.786 41.6284 129.013 42.3523 129.493 42.8163C130.574 43.8492 132.086 44.3049 133.518 44.5815C134.168 44.7039 134.859 44.793 135.534 44.793C136.859 44.793 138.151 44.4764 139.022 43.5243C139.29 43.2228 139.501 42.8896 139.656 42.5314C139.94 41.8808 139.981 41.2544 140.143 40.5788C140.168 40.4897 140.193 40.3922 140.257 40.3189C140.372 40.1889 140.558 40.1806 140.729 40.1723C141.193 40.164 141.672 40.1557 142.12 40.2698C143.469 40.6113 144.071 42.1007 143.989 43.3777C143.948 43.9883 143.941 44.5981 143.948 45.2003C143.973 46.8272 144.152 48.4382 144.363 50.0493C144.575 51.6437 145.322 53.0431 145.616 54.5317C145.925 56.1511 144.762 57.8187 144.355 59.3157C143.875 61.0725 144.282 63.2692 144.542 65.0593C144.648 65.7099 144.868 66.1655 144.868 66.5562Z" fill="#DDCBBC"/>
<path d="M138.412 69.6385C137.574 69.6385 137.03 69.4519 136.2 69.1753C135.696 69.0045 135.063 68.793 134.184 68.5647C133.485 68.3857 132.639 68.3698 131.745 68.3615C129.997 68.3373 128.192 68.3131 127.412 66.962C127.363 66.8729 127.395 66.7671 127.477 66.718C127.566 66.6696 127.672 66.7021 127.721 66.783C128.395 67.9549 130.103 67.9791 131.745 68.0033C132.623 68.0116 133.534 68.0282 134.274 68.2232C135.16 68.459 135.802 68.6705 136.314 68.8413C137.607 69.2811 138.144 69.4602 140.241 69.0854C141.729 68.8171 143.185 68.2232 144.436 67.3693C144.656 67.2144 144.908 67.0353 145.054 66.7913C145.103 66.7104 145.217 66.6772 145.298 66.7346C145.38 66.783 145.412 66.8971 145.355 66.9787C145.168 67.2794 144.884 67.491 144.631 67.6618C143.339 68.5406 141.843 69.1587 140.298 69.4352C139.501 69.5735 138.908 69.6385 138.412 69.6385Z" fill="#C9B5A7"/>
<path d="M145.477 56.8837C145.379 56.8837 145.298 56.8021 145.298 56.7046C145.298 56.6064 145.306 56.4764 145.322 56.3464C145.347 56.1182 145.379 55.7684 145.322 55.6467C145.265 55.5243 145.2 55.5001 145.078 55.4593C144.956 55.411 144.777 55.3535 144.656 55.1419C144.224 54.4264 144.282 53.8082 144.338 53.1569C144.363 52.8645 144.395 52.5554 144.371 52.2297C144.338 51.5708 144.217 50.8877 144.103 50.2363C144.005 49.6998 143.908 49.1384 143.859 48.5928C143.802 47.9664 143.68 47.405 143.55 46.8118C143.493 46.5511 143.436 46.2987 143.387 46.0304C143.371 45.933 143.347 45.8189 143.314 45.6806C142.867 43.5006 142.582 41.4339 143.501 41.0999C143.591 41.0674 143.696 41.1165 143.729 41.2057C143.761 41.2956 143.712 41.4014 143.623 41.4339C142.867 41.7105 143.468 44.6393 143.664 45.6073C143.696 45.7456 143.72 45.868 143.737 45.9655C143.785 46.2254 143.842 46.4861 143.899 46.7385C144.021 47.3158 144.151 47.9097 144.216 48.5603C144.265 49.0976 144.363 49.6424 144.46 50.1797C144.574 50.8469 144.696 51.5383 144.736 52.2138C144.753 52.563 144.729 52.8803 144.696 53.1894C144.639 53.8082 144.591 54.3447 144.965 54.9553C145.03 55.0528 145.095 55.0853 145.2 55.1178C145.339 55.1669 145.525 55.2319 145.648 55.4918C145.745 55.7034 145.712 56.0616 145.68 56.3789C145.672 56.5006 145.655 56.623 145.655 56.7046C145.663 56.8021 145.583 56.8837 145.477 56.8837Z" fill="#C9B5A7"/>
<path d="M128.046 56.7924C127.94 57.4188 127.786 58.0452 127.46 58.5984C126.355 60.4618 124.265 60.2585 122.468 59.6155C121.851 59.3956 121.208 59.1598 120.736 58.7042C120.485 58.4601 120.289 58.1677 120.038 57.9311C119.744 57.6546 119.379 57.4596 119.094 57.1664C118.549 56.6133 118.923 56.2959 118.883 55.7103C118.85 55.1897 118.493 54.7099 118.436 54.1726C118.33 53.2371 118.541 52.2608 118.802 51.3662C119.468 49.072 121.403 41.7499 124.85 42.6529C125.908 42.9294 126.428 44.0924 126.737 45.142C127.794 48.738 128.696 53.058 128.046 56.7924Z" fill="#DDCBBC"/>
<path d="M126.193 59.5262C126.144 59.5262 126.103 59.5096 126.087 59.4937C125.965 59.4121 125.981 59.2821 126.014 59.0864C126.03 58.9731 126.054 58.8099 126.063 58.6308C126.063 58.5824 126.087 58.5416 126.119 58.5091C126.152 58.4766 126.201 58.46 126.25 58.46C126.835 58.4925 127.331 58.2484 127.477 57.8502C128.006 56.4507 127.925 55.5228 127.746 54.01C127.632 53.0254 127.664 52.0008 127.697 51.0079C127.721 50.284 127.746 49.5351 127.713 48.8112C127.689 48.3722 127.689 47.9732 127.689 47.5826C127.689 46.029 127.689 44.9061 126.339 43.7998C126.266 43.7348 126.25 43.6207 126.315 43.5474C126.38 43.4741 126.493 43.4583 126.566 43.5233C128.046 44.7436 128.046 45.9965 128.046 47.5826C128.046 47.9649 128.046 48.3639 128.07 48.7954C128.104 49.5276 128.079 50.284 128.055 51.0162C128.022 51.9925 127.981 53.0013 128.104 53.9609C128.282 55.4828 128.372 56.4991 127.811 57.9718C127.624 58.4683 127.071 58.794 126.404 58.8182C126.396 58.9481 126.38 59.0539 126.363 59.1438C126.363 59.168 126.356 59.1922 126.356 59.2171C126.363 59.2247 126.363 59.233 126.372 59.2413C126.428 59.3222 126.404 59.4363 126.322 59.4937C126.274 59.5179 126.225 59.5262 126.193 59.5262Z" fill="#C9B5A7"/>
<path d="M124.535 100.376C124.445 100.376 124.372 100.311 124.356 100.23C124.177 99.1638 124.518 98.4566 124.884 97.6918C125.063 97.3171 125.25 96.9264 125.38 96.4715C126.193 93.656 126.616 90.0198 126.502 86.7328C126.502 86.6353 126.575 86.5537 126.673 86.5454C126.77 86.5379 126.852 86.6187 126.86 86.7162C126.974 90.0357 126.543 93.7134 125.722 96.569C125.583 97.0488 125.388 97.4553 125.201 97.846C124.844 98.5782 124.542 99.213 124.705 100.165C124.721 100.263 124.656 100.352 124.559 100.368C124.551 100.376 124.542 100.376 124.535 100.376Z" fill="#C9B5A7"/>
<path d="M139.331 100.375C139.234 100.375 139.152 100.294 139.152 100.197C139.161 98.106 139.169 95.9494 139.697 93.6961C139.722 93.5986 139.819 93.5419 139.909 93.5661C140.006 93.5903 140.063 93.6878 140.038 93.7777C139.526 95.9902 139.519 98.1302 139.502 100.204C139.51 100.294 139.429 100.375 139.331 100.375Z" fill="#C9B5A7"/>
<path d="M70.549 17.5881C70.5007 17.5881 70.4516 17.5722 70.4191 17.5314C68.5736 15.5297 67.2645 13.5613 66.2893 11.3321C66.2485 11.2422 66.2893 11.1364 66.3784 11.0956C66.4676 11.0556 66.5733 11.0956 66.6141 11.1855C67.5652 13.3739 68.8584 15.3098 70.6797 17.279C70.7447 17.3523 70.7447 17.4664 70.6714 17.5314C70.6389 17.5722 70.5898 17.5881 70.549 17.5881Z" fill="#C9B5A7"/>
<path d="M88.2971 11.3383C86.321 11.3383 84.3456 11.2733 82.3861 11.0784C79.2723 10.7769 76.0286 10.8177 72.8898 10.8585C71.7681 10.8751 70.6055 10.8827 69.483 10.8827C69.3855 10.8827 69.3047 10.8018 69.3047 10.7043C69.3047 10.6061 69.3855 10.5253 69.483 10.5253C70.6055 10.5253 71.7681 10.5086 72.8898 10.5003C76.0361 10.4603 79.2964 10.4195 82.4269 10.7202C86.9797 11.1592 91.6549 10.9401 96.1752 10.7368C98.7852 10.6144 101.476 10.4928 104.135 10.4928H152.965C153.063 10.4928 153.144 10.5736 153.144 10.6719C153.144 10.7693 153.063 10.8502 152.965 10.8502H104.135C101.484 10.8502 98.7927 10.9726 96.1911 11.0943C93.5895 11.2167 90.9471 11.3383 88.2971 11.3383Z" fill="#C9B5A7"/>
<path d="M50.4252 119.674H50.3519C44.7747 119.674 39.1976 119.674 33.6121 119.674C24.823 119.674 15.709 120.316 6.9848 119.275C6.60332 119.226 6.20446 119.169 5.87964 118.957C4.57883 118.087 5.43244 112.823 5.43244 111.384C5.43244 108.422 5.43244 105.453 5.43244 102.491C5.43244 96.5602 5.43244 90.6291 5.43244 84.6981C5.43244 82.5997 4.5539 77.4818 5.88719 75.8791C7.15552 74.358 9.47311 74.4804 11.4402 74.6836C22.4245 75.7982 33.5064 75.2043 44.5474 74.9927C45.7424 74.9685 46.97 74.9602 48.1084 75.3259C51.4903 76.4329 50.4252 80.9645 50.4252 83.8526C50.4252 87.4562 50.4252 91.0689 50.4252 94.6726C50.4252 101.572 50.4252 108.479 50.4252 115.378C50.4252 116.81 50.4252 118.242 50.4252 119.674Z" fill="#DDCBBC"/>
<path d="M11.62 94.1034C10.9937 94.1034 10.4332 94.0309 10.0676 93.8027C9.25403 93.2986 9.1241 92.0125 9.03496 91.0771C9.01834 90.8904 8.99417 90.7113 8.97755 90.5481C8.55528 87.5301 8.62855 84.4871 9.18907 81.5099C9.319 80.8102 9.51465 80.013 10.0676 79.4599C10.7014 78.8334 11.5958 78.6868 12.5468 78.5894C23.3605 77.434 34.3282 77.3766 45.1494 78.4186C45.6865 78.467 46.1579 78.5403 46.5477 78.8334C47.1256 79.2725 47.2555 80.0289 47.3446 80.7611L48.1824 88.0349C48.4506 90.3615 48.0192 91.7685 46.865 92.3465C46.377 92.5906 45.8165 92.6314 45.3285 92.6556C41.6375 92.8914 37.9058 93.0946 34.2142 93.2578C27.726 93.5586 21.1487 93.7619 14.6529 93.8593C14.3681 93.8676 13.9859 93.9001 13.5387 93.9493C12.9132 94.0384 12.2379 94.1034 11.62 94.1034ZM29.6855 78.0438C23.9701 78.0438 18.2547 78.3453 12.5793 78.9468C11.7015 79.045 10.8721 79.1667 10.3192 79.7115C9.83947 80.1921 9.66044 80.9243 9.53882 81.5749C8.97755 84.5121 8.91259 87.5142 9.3273 90.4998C9.35148 90.6622 9.3681 90.8413 9.39227 91.0446C9.48216 91.9068 9.60378 93.0946 10.2625 93.5019C10.8804 93.8843 12.3927 93.7294 13.4903 93.6153C13.9451 93.5669 14.3356 93.5261 14.6363 93.5261C21.1245 93.4203 27.7018 93.217 34.19 92.9238C37.8726 92.7531 41.6126 92.5498 45.296 92.3224C45.7515 92.2899 46.2712 92.2566 46.6942 92.0458C47.6944 91.541 48.0683 90.2474 47.816 88.0915L46.979 80.8185C46.9058 80.1596 46.7917 79.484 46.3286 79.1342C46.0113 78.8901 45.5883 78.8334 45.1086 78.7926C39.987 78.2879 34.8321 78.0438 29.6855 78.0438Z" fill="#C9B5A7"/>
<path d="M11.4983 116.265C10.2217 116.265 8.79922 116.118 8.20547 115.296C7.44931 114.255 7.70162 112.652 7.92068 111.245C8.01058 110.675 8.09141 110.131 8.09972 109.675C8.15637 106.664 8.21378 103.548 8.04306 100.489C7.98565 99.4155 8.04306 98.2519 8.92084 97.7312C9.35142 97.4796 9.8719 97.463 10.2866 97.4547L44.2633 96.7308C44.9462 96.7149 45.6291 96.7716 46.0113 97.2839C46.247 97.5929 46.2878 98.0002 46.3203 98.2927C46.8732 103.426 46.9299 108.641 46.4827 113.783C46.4343 114.312 46.361 114.865 45.9788 115.239C45.6615 115.548 45.231 115.646 44.8162 115.719C42.4994 116.134 40.1169 116.134 37.8076 116.142L13.2221 116.216C13.0348 116.216 12.815 116.224 12.571 116.232C12.2378 116.256 11.8805 116.265 11.4983 116.265ZM8.45702 109.691C8.44947 110.171 8.35958 110.724 8.27044 111.31C8.06723 112.652 7.83155 114.166 8.49782 115.093C9.15653 116.004 11.2868 115.931 12.5634 115.882C12.815 115.874 13.0348 115.866 13.2221 115.866L37.8076 115.793C40.1002 115.784 42.4662 115.777 44.7513 115.369C45.1086 115.304 45.4825 115.223 45.7265 114.987C46.0196 114.702 46.0846 114.222 46.1254 113.758C46.5642 108.641 46.5151 103.451 45.9629 98.3418C45.9297 98.0078 45.8814 97.7237 45.7265 97.5038C45.4425 97.1214 44.857 97.0806 44.2716 97.0972L10.2949 97.8211C9.89683 97.8295 9.44963 97.837 9.10818 98.0486C8.39206 98.4718 8.35202 99.513 8.40037 100.481C8.57109 103.548 8.50612 106.673 8.45702 109.691Z" fill="#C9B5A7"/>
<path d="M16.5396 70.6722C15.661 71.4044 15.0681 72.389 15.0106 73.6744C14.8324 77.4412 16.3439 82.1352 16.7511 85.983C17.1167 89.4574 17.1492 94.6479 18.5966 97.7717C20.0356 100.896 22.3366 99.5452 25.3121 99.1145C28.3201 98.6747 30.5803 100.855 33.0686 100.692C35.9792 92.7437 32.9221 81.8995 30.6861 74.2275C29.3611 69.6717 27.1576 68.7196 22.3932 68.8171C20.507 68.8579 18.0844 69.3785 16.5396 70.6722Z" fill="#FBE1D2"/>
<path d="M26.922 97.1366C26.8328 97.1366 26.7596 97.0716 26.743 96.9824C26.5964 96.0386 26.4181 95.1032 26.2391 94.1919C25.9709 92.7841 25.6861 91.3363 25.5313 89.8311C25.4097 88.6432 25.044 87.3579 24.6943 86.1133C24.1904 84.3315 23.67 82.4847 23.7833 80.7762C23.7916 80.6788 23.8732 80.6055 23.9706 80.6055C24.0681 80.6138 24.1413 80.6946 24.1413 80.7921C24.0356 82.4356 24.5477 84.2499 25.044 86.0075C25.4014 87.2687 25.7677 88.5699 25.8977 89.782C26.0518 91.2713 26.3365 92.7108 26.6047 94.1103C26.7837 95.0216 26.9628 95.9654 27.1086 96.9091C27.1252 97.0066 27.0602 97.0965 26.9628 97.1124C26.9378 97.1366 26.9303 97.1366 26.922 97.1366Z" fill="#EAB7A0"/>
<path d="M15.8894 73.4384C15.8403 73.4384 15.7919 73.4142 15.7594 73.3817C15.6937 73.3084 15.702 73.1943 15.7753 73.1293C17.2385 71.8281 20.8486 70.9977 23.8083 71.2826C25.0766 71.405 26.7672 71.779 27.6133 72.8853C27.6699 72.9669 27.6616 73.081 27.5808 73.1377C27.4992 73.1943 27.3851 73.1868 27.3285 73.1052C26.7347 72.3238 25.4664 71.8032 23.7758 71.6407C20.8977 71.3642 17.4175 72.1531 16.011 73.3983C15.9702 73.4225 15.9302 73.4384 15.8894 73.4384Z" fill="#EAB7A0"/>
<path d="M24.499 80.4431C24.4741 80.4431 24.4499 80.4355 24.4257 80.4272C24.3358 80.3864 24.2958 80.2806 24.3358 80.1914C24.4665 79.9065 24.5965 79.6383 24.7098 79.3859C25.6366 77.4092 26.1979 76.2213 26.1979 73.5365C26.1979 73.4383 26.2795 73.3574 26.3769 73.3574C26.4744 73.3574 26.556 73.4383 26.556 73.5365C26.556 76.3021 25.9781 77.5142 25.027 79.5401C24.9054 79.7924 24.783 80.0607 24.6531 80.3456C24.6289 80.403 24.564 80.4431 24.499 80.4431Z" fill="#EAB7A0"/>
<path d="M27.2458 73.7802C27.2458 73.8286 27.2383 73.8777 27.2383 73.9343C27.2383 75.7894 29.8482 77.2864 30.6935 79.1656C32.8721 84.0146 32.6281 89.6282 33.1078 94.8104C33.4742 98.748 33.7665 102.637 34.1729 106.526C34.6126 110.74 34.0347 111.554 38.5067 111.773C40.4579 111.871 41.5555 112.359 43.3277 112.848C46.0351 113.596 44.9949 113.083 46.5555 111.196C49.0355 113.433 48.6367 117.395 49.0355 120.617C50.4663 120.682 51.9378 120.763 53.2635 120.291C54.2796 113.376 54.312 106.021 54.8975 99.0329C55.5071 91.7108 57.2143 82.501 53.6699 75.7003C50.4829 69.5902 40.547 70.0133 34.3927 70.0292C32.2867 70.0375 27.4249 71.0705 27.2458 73.7802Z" fill="#BAC5BF"/>
<path d="M46.0283 110.341C45.9301 110.341 45.8493 110.26 45.8493 110.162C45.8493 106.623 45.4263 103.052 45.0115 99.6021C44.6943 96.9823 44.3694 94.2734 44.2395 91.5886C44.1096 89.0254 43.963 86.1208 43.9713 83.2327C43.9713 81.63 43.6782 79.8973 43.1253 78.3437C43.0928 78.2538 43.1419 78.148 43.231 78.1155C43.3285 78.083 43.4259 78.1322 43.4592 78.2213C44.0197 79.8082 44.3287 81.59 44.3203 83.2327C44.3128 86.1132 44.4586 89.0096 44.5893 91.572C44.7275 94.2484 45.044 96.9498 45.3613 99.5613C45.776 103.019 46.2066 106.599 46.2066 110.162C46.2066 110.26 46.1341 110.341 46.0283 110.341Z" fill="#98A89F"/>
<path d="M42.247 105.763C39.6938 105.763 37.1088 105.665 35.1492 104.103C35.0677 104.037 35.0601 103.932 35.1168 103.851C35.1817 103.769 35.2875 103.761 35.3691 103.818C37.3686 105.413 40.1251 105.404 42.7917 105.396H43.328C43.4255 105.396 43.5071 105.478 43.5071 105.575C43.5071 105.673 43.4255 105.754 43.328 105.754H42.7917C42.6127 105.763 42.4336 105.763 42.247 105.763Z" fill="#98A89F"/>
<path d="M52.735 98.1218C52.6942 98.1218 52.6534 98.1059 52.6292 98.081C52.2311 97.7719 51.7915 97.447 51.3367 97.0971C49.4338 95.6569 47.2711 94.0217 46.166 92.7688C46.1335 92.7363 46.1169 92.6872 46.1252 92.6389C46.166 91.7676 46.4749 91.6701 47.1578 91.4752L47.3202 91.4261C47.3935 91.4019 47.4743 91.4344 47.5151 91.491C48.1655 92.3948 49.2065 92.8988 50.2958 93.4361C50.9953 93.7776 51.7106 94.1275 52.3203 94.5907C52.426 94.6723 52.5235 94.7456 52.6134 94.8106C53.4587 95.4453 53.8892 95.771 54.0683 96.7148C54.1174 96.9505 54.0683 97.1538 53.9383 97.3004C53.7026 97.577 53.2313 97.6178 52.8241 97.6178C52.8732 97.6827 52.8974 97.7885 52.9057 97.9268C52.9057 98.0001 52.8732 98.0651 52.8082 98.0976C52.7916 98.1135 52.7591 98.1218 52.735 98.1218ZM46.4825 92.5897C47.5725 93.8101 49.6862 95.4045 51.5482 96.8123C51.7514 96.9664 51.9546 97.1213 52.1495 97.2679C52.2387 97.2354 52.3694 97.243 52.5476 97.2513C52.8732 97.2679 53.4745 97.2838 53.6619 97.0722C53.686 97.048 53.7434 96.9747 53.7102 96.7873C53.5561 95.9742 53.2388 95.7385 52.3935 95.1038C52.3044 95.0305 52.2062 94.9572 52.1004 94.8839C51.5157 94.4448 50.8162 94.1025 50.1334 93.7693C49.0841 93.257 48.0031 92.728 47.296 91.8167L47.2553 91.8333C46.6207 92.0117 46.515 92.0449 46.4825 92.5897Z" fill="#98A89F"/>
<path d="M54.1016 83.3161C54.045 83.3161 53.98 83.2836 53.9475 83.2344C53.5736 82.633 52.3536 82.6813 51.2802 82.7304C50.8579 82.7463 50.4591 82.7629 50.1017 82.7463C50.0368 82.7463 49.9794 82.7063 49.9469 82.6488C49.5571 81.8683 49.2557 80.7696 48.9392 79.5983C48.2072 76.9294 47.3778 73.9031 45.2883 73.9031C45.2724 73.9031 45.2558 73.9031 45.2316 73.9031C44.4755 73.9197 43.9792 74.1388 43.4995 74.3587C42.8249 74.6595 42.1911 74.936 41.0686 74.497C40.2475 74.1713 39.6054 73.4965 38.9791 72.8376C38.1905 71.9996 37.4343 71.21 36.3941 71.21C36.3775 71.21 36.3617 71.21 36.345 71.21C36.2476 71.21 36.166 71.1291 36.166 71.0316C36.166 70.9334 36.2393 70.8525 36.345 70.8442C37.5726 70.82 38.4262 71.7147 39.2473 72.5852C39.8411 73.2116 40.459 73.8623 41.2068 74.1638C42.1911 74.5461 42.7109 74.3179 43.3613 74.0255C43.8493 73.8056 44.4022 73.5615 45.2316 73.5449C45.2558 73.5449 45.2724 73.5449 45.2966 73.5449C47.6625 73.5449 48.5245 76.7103 49.2965 79.5008C49.5971 80.6071 49.8819 81.6484 50.24 82.3889C50.5573 82.3964 50.9063 82.3889 51.2802 82.3723C52.5085 82.3239 53.7844 82.2748 54.264 83.0478C54.3131 83.1287 54.289 83.2428 54.2074 83.2919C54.1749 83.3077 54.1341 83.3161 54.1016 83.3161Z" fill="#98A89F"/>
<path d="M80.4032 51.9684C80.021 51.2929 79.5413 50.634 79.3139 50.0642C78.6635 48.429 79.3056 46.7122 79.7687 45.1095C80.1509 43.7833 80.5414 42.5229 80.5006 41.1152C80.4598 39.6099 79.956 38.1697 79.2164 36.8685C77.8016 34.3953 76.2651 31.8163 73.98 30.0503C72.834 29.1723 71.5007 28.5459 70.0534 28.3993C69.273 28.3177 68.5244 28.4726 67.7766 28.3177C66.7364 28.0978 65.8012 27.8786 64.7278 27.8869C63.3786 27.8869 62.0045 28.0577 60.7928 28.6517C57.6466 30.1969 56.3699 34.1512 53.4186 36.0463C52.077 36.9093 50.4914 37.275 49.004 37.8531C47.8656 38.2921 46.768 38.8694 45.9061 39.7324C45.0441 40.5945 44.4511 41.7658 44.4753 42.9861C44.4995 43.8891 44.8492 44.7596 44.8251 45.6626C44.8085 46.2324 44.5403 47.0212 44.0039 47.3144C43.4102 47.6318 42.719 47.0545 42.7681 48.1116C42.8814 50.6098 44.6219 52.9523 46.9795 53.7903C48.3128 54.2625 49.7926 54.23 51.1259 53.782C52.7115 53.2455 53.3861 52.1226 54.6219 51.1546C56.0852 50.0075 57.0037 50.8047 58.0689 51.9684C59.2722 53.2696 60.6788 54.2459 62.2077 55.1164C64.9068 56.6541 68.3378 58.3793 71.5408 57.6712C72.0129 57.5654 72.4676 57.403 72.899 57.1831C73.1105 57.069 73.3379 56.9473 73.5328 56.8007C73.6959 56.6708 73.7443 56.5484 73.8667 56.3776C73.9316 56.2884 74.0125 56.2068 74.0208 56.101C74.0374 55.9386 73.8742 55.8161 73.7201 55.7753C73.5653 55.7428 73.3945 55.7678 73.2404 55.7345C72.6633 55.6287 72.2486 54.8157 72.1587 54.295C72.0371 53.5953 72.2894 52.8389 72.6958 52.2692C73.2563 51.4878 74.0774 50.9513 74.8502 50.3899C76.4683 49.2103 78.0206 47.7459 78.5819 45.8175C78.2238 47.0462 78.1347 48.3723 78.3296 49.6335C78.5086 50.8206 79.0782 51.8702 79.5821 52.9523C79.9318 53.7011 79.9968 54.4492 79.9394 55.263C80.3949 55.2955 80.6631 54.4658 80.728 54.0993C80.8829 53.3021 80.7937 52.6598 80.4032 51.9684Z" fill="#894A3F"/>
<path d="M70.0677 52.4483C70.0601 52.4483 70.0518 52.4483 70.0435 52.4483C69.946 52.4316 69.8811 52.3425 69.8894 52.245C70.0193 51.3413 70.8238 50.7481 71.5641 50.2599L73.5236 48.9738C75.1818 47.8842 76.6049 46.8588 77.2304 45.2969C77.8083 43.8566 77.7426 41.8557 77.068 40.6512C77.0197 40.5621 77.0521 40.4563 77.1413 40.4072C77.2304 40.3588 77.3362 40.3913 77.3853 40.4805C78.1007 41.7658 78.1739 43.8975 77.5643 45.4352C76.9056 47.0946 75.4341 48.1525 73.7185 49.2753L71.759 50.5607C71.052 51.0246 70.3525 51.5453 70.2384 52.2934C70.2308 52.3833 70.1576 52.4483 70.0677 52.4483Z" fill="#7F3D36"/>
<path d="M78.5321 45.2415H78.5245C78.427 45.2332 78.3538 45.1516 78.3538 45.0541C78.4429 43.6789 78.557 41.9704 77.8416 40.6042C77.1663 39.3188 75.7522 38.3584 73.9634 37.9677C73.8659 37.9436 73.8085 37.8544 73.8251 37.7562C73.8493 37.6587 73.9384 37.602 74.0366 37.6179C75.9304 38.0327 77.4344 39.0581 78.1581 40.4334C78.9226 41.8895 78.801 43.6547 78.7111 45.07C78.7028 45.1682 78.6219 45.2415 78.5321 45.2415Z" fill="#7F3D36"/>
<path d="M68.2967 34.6962H68.2884C68.191 34.6879 68.1101 34.607 68.1177 34.5088C68.1826 33.191 68.4025 31.8897 68.7681 30.6203C68.793 30.5228 68.898 30.4737 68.9879 30.4986C69.0854 30.5228 69.1345 30.6286 69.1095 30.7177C68.7522 31.9547 68.5324 33.2318 68.4757 34.5254C68.4674 34.6229 68.3858 34.6962 68.2967 34.6962Z" fill="#7F3D36"/>
<path d="M65.3777 37.781C65.3618 37.781 65.3452 37.781 65.3369 37.7727C64.6623 37.6019 64.0768 37.0971 63.8087 36.4624C63.7679 36.3732 63.8087 36.2675 63.9061 36.2267C63.9953 36.1858 64.101 36.2267 64.1418 36.3241C64.3699 36.8614 64.8655 37.2845 65.4351 37.4311C65.5325 37.4553 65.5892 37.5528 65.565 37.6503C65.5325 37.7319 65.4592 37.781 65.3777 37.781Z" fill="#7F3D36"/>
<path d="M60.8253 36.8535C60.7845 36.8535 60.7437 36.8376 60.7037 36.8051C60.1832 36.3494 59.6061 35.9588 58.9798 35.6497C58.8899 35.6089 58.8575 35.4948 58.8982 35.4056C58.939 35.3157 59.0531 35.2832 59.1422 35.324C59.7927 35.6497 60.3947 36.0563 60.9394 36.5361C61.0126 36.6018 61.0202 36.7152 60.9552 36.7885C60.9227 36.8293 60.8744 36.8535 60.8253 36.8535Z" fill="#7F3D36"/>
<path d="M54.1093 47.1762H54.101C54.0036 47.1679 53.922 47.087 53.9303 46.9888C53.9711 46.1833 53.2799 45.5085 52.6703 44.9145L52.6053 44.8496C51.6618 43.9299 51.0605 43.0919 50.7108 42.2214C50.2553 41.091 50.2553 39.9107 50.7108 38.9752C50.7516 38.8861 50.8656 38.8536 50.9548 38.8944C51.0439 38.9352 51.0764 39.0485 51.0364 39.1384C50.6216 39.984 50.6292 41.0585 51.0439 42.0915C51.3778 42.9212 51.9549 43.7184 52.8569 44.5972L52.9226 44.6622C53.5889 45.3128 54.3367 46.045 54.2884 47.0137C54.2801 47.1029 54.1985 47.1762 54.1093 47.1762Z" fill="#7F3D36"/>
<path d="M46.7354 49.7808C46.0684 49.7808 45.4263 49.5292 45.0932 48.9512C45.0441 48.862 45.069 48.7562 45.1581 48.7071C45.2397 48.6587 45.353 48.6829 45.4021 48.7721C45.8168 49.4884 46.8978 49.5693 47.6623 49.236C48.3535 48.927 48.9306 48.3572 49.2313 47.6575C49.7351 46.5021 49.4836 45.1601 49.2479 43.8665L49.2313 43.7607C48.7516 41.1817 49.3129 39.3432 50.9793 37.9679C52.061 37.0816 53.5242 36.6826 54.8983 36.9108C54.9958 36.9267 55.0607 37.0166 55.0449 37.1141C55.0283 37.2115 54.9391 37.2765 54.8417 37.2607C53.565 37.0491 52.2068 37.4148 51.2074 38.2369C49.646 39.5223 49.1338 41.255 49.5893 43.6874L49.6052 43.7932C49.8575 45.1359 50.1174 46.5271 49.5644 47.7882C49.223 48.5688 48.5892 49.2119 47.8088 49.5534C47.475 49.7 47.101 49.7808 46.7354 49.7808Z" fill="#7F3D36"/>
<path d="M79.6214 40.7085C79.5398 40.7085 79.4582 40.6511 79.4423 40.5619C79.2633 39.634 78.8002 38.6985 78.109 37.853C76.6859 36.112 75.0277 35.3714 72.8159 34.745C71.6292 34.4035 70.1659 33.8662 69.4173 32.6542C69.369 32.5725 69.3932 32.4584 69.4748 32.4101C69.5556 32.361 69.6696 32.3851 69.7187 32.4668C70.4016 33.573 71.7833 34.0861 72.9058 34.4035C75.1252 35.0299 76.8974 35.8188 78.3772 37.6248C79.1092 38.5194 79.5964 39.5123 79.7838 40.4969C79.7996 40.5944 79.743 40.6919 79.6455 40.7085C79.6455 40.7085 79.6289 40.7085 79.6214 40.7085Z" fill="#7F3D36"/>
<path d="M52.8174 42.4997C52.8008 42.4997 52.7849 42.4997 52.7683 42.4914C52.6709 42.4672 52.6142 42.3697 52.6384 42.2722C53.0123 40.8811 53.8417 39.6282 54.9801 38.7494C55.3133 38.4887 55.663 38.2696 56.0203 38.0988C56.6624 37.789 57.3536 37.6107 58.0206 37.4316C58.1181 37.4067 58.2155 37.4641 58.2397 37.5616C58.2646 37.659 58.2072 37.7565 58.1098 37.7815C57.4594 37.9522 56.7848 38.123 56.1752 38.4238C55.8413 38.587 55.5082 38.7902 55.1909 39.0419C54.1182 39.8799 53.3296 41.0602 52.9715 42.378C52.9715 42.4513 52.8982 42.4997 52.8174 42.4997Z" fill="#7F3D36"/>
<path d="M57.1901 120.365C57.2634 121.398 57.5157 122.415 58.3202 123.44C59.1496 124.49 60.4338 125.165 61.7671 125.254C62.2309 125.287 62.7189 125.246 63.1412 125.059C63.8732 124.741 64.3695 124.017 64.6052 123.244C65.2964 120.95 64.6377 118.339 64.4911 116.012C64.3446 113.686 65.0033 111.586 64.5561 109.284C63.9873 106.347 63.2878 103.402 63.4502 100.375C63.5317 98.9272 63.6942 98.0892 63.7191 96.6331C63.735 95.7218 63.7191 94.778 63.3776 93.9317C62.8489 92.6463 61.6372 91.7758 60.4013 91.1252C58.6616 90.2139 56.6938 89.5875 54.7426 89.7991C52.7838 90.0106 50.8568 91.1819 50.1331 93.0128C49.9458 93.4926 49.84 94.0133 49.8649 94.5339C49.8974 95.1686 50.1331 95.7709 50.3854 96.3482C52.1002 100.375 54.6618 104.15 55.2064 108.495C55.4338 110.325 55.3039 112.245 56.0359 113.937C56.3199 114.596 56.7187 115.198 56.9136 115.882C57.3442 117.436 57.0844 118.916 57.1901 120.365Z" fill="#F6A383"/>
<path d="M60.5475 114.606C60.2227 114.606 59.9054 114.549 59.5965 114.426C59.5066 114.386 59.4582 114.288 59.499 114.191C59.539 114.102 59.6372 114.052 59.7347 114.093C60.5233 114.402 61.4986 114.215 62.1165 113.638C62.1898 113.573 62.3038 113.573 62.3688 113.646C62.4338 113.719 62.4338 113.833 62.3605 113.898C61.8725 114.361 61.2145 114.606 60.5475 114.606Z" fill="#D67E63"/>
<path d="M75.0204 91.0938C75.5975 92.8832 75.411 95.4221 75.6059 97.049C76.2887 100.132 76.4595 103.395 76.9958 106.519C77.508 109.488 78.2158 112.385 78.5323 115.37C78.5655 115.679 78.598 115.988 78.7279 116.273C79.5166 118.031 79.0286 120.553 78.9228 122.424C78.8745 123.181 78.8171 123.994 78.3699 124.604C77.7844 125.394 76.6627 125.645 75.7116 125.401C74.7606 125.15 73.9719 124.491 73.3291 123.742C71.6951 121.839 71.4511 119.788 70.8657 117.461C70.2719 115.085 69.2642 112.84 68.3207 110.587C67.5245 108.659 66.9791 106.633 66.4511 104.607C65.8573 102.369 64.8171 100.434 64.1667 98.2286C63.8004 97.0082 63.8004 95.7062 63.8087 94.4292C63.8087 94.0468 63.8087 93.6486 63.9227 93.2821C64.0285 92.9323 64.2317 92.6232 64.4349 92.3142C64.8572 91.6636 65.2885 91.0122 65.7108 90.3616C66.337 89.4012 67.4837 88.4574 68.573 88.0592C70.3618 87.4086 73.4023 88.4574 74.5166 90.0442C74.7356 90.3533 74.898 90.7031 75.0204 91.0938Z" fill="#F6A383"/>
<path d="M77.3688 115.971C77.353 115.971 77.3363 115.971 77.3205 115.963C76.1738 115.638 75.117 114.173 74.9379 113.083C74.9221 112.985 74.987 112.895 75.0845 112.88C75.1819 112.863 75.2718 112.928 75.2877 113.025C75.4425 113.994 76.4095 115.336 77.4179 115.621C77.5154 115.645 77.572 115.751 77.5395 115.841C77.5237 115.922 77.4504 115.971 77.3688 115.971Z" fill="#D67E63"/>
<path d="M76.6382 85.3825C76.9306 86.1631 77.1988 86.9527 77.4103 87.7582C78.1989 90.7271 78.248 93.5827 80.2725 96.2108C80.5973 96.634 80.9713 97.0488 81.077 97.5453C81.1828 98.041 80.9063 98.6599 80.3458 98.7573C80.1018 98.7981 79.8578 98.7407 79.6138 98.7573C78.6869 98.8306 78.4512 99.7495 77.9141 100.254C77.3695 100.759 76.4267 101.328 75.7355 101.637C73.2555 102.76 70.0934 101.092 67.4918 102.093C66.2718 102.565 65.2309 103.549 63.8976 103.549C62.6217 103.549 61.5724 102.613 60.3124 102.418C59.0275 102.223 57.7841 102.809 56.5399 103.142C55.1092 103.516 53.5236 103.557 52.1578 103.021C51.0602 102.589 50.3365 101.645 49.2714 101.255C48.735 101.06 48.1247 101.133 47.5392 101.141C46.9546 101.149 46.3042 101.043 45.9703 100.612C45.7021 100.263 45.7187 99.7903 45.8728 99.3921C46.0194 98.9931 46.2875 98.6274 46.4749 98.245C47.0354 97.0896 47.1736 95.3811 47.3934 94.1283C47.6941 92.4606 47.8482 90.768 47.9215 89.0844C48.0189 86.8303 48.0114 84.4629 49.2714 82.5103C49.572 82.0464 49.9301 81.6156 50.1658 81.1192C50.4256 80.5661 50.5155 79.9555 50.792 79.4024C51.9871 77.0433 55.1983 77.6455 57.4668 78.0112C62.2311 78.776 66.5566 77.7997 71.1011 76.6609C71.2477 76.6201 71.4101 76.5876 71.5566 76.6118C71.849 76.6692 72.0121 76.9458 72.0522 77.2057C72.093 77.4664 72.0522 77.7347 72.1338 77.9871C72.272 78.4427 72.7358 78.7518 73.1256 79.0691C74.0442 79.8255 74.4347 80.7535 74.9635 81.7214C75.6056 82.9252 76.1661 84.1372 76.6382 85.3825Z" fill="#DD816C"/>
<path d="M60.9141 80.8178C58.394 80.8178 55.8816 80.5412 53.4673 79.9798C53.3691 79.9548 53.3124 79.8573 53.329 79.7682C53.3532 79.6707 53.4507 79.6133 53.5398 79.6299C58.8088 80.8502 64.565 80.7203 69.7599 79.2634C69.8581 79.2392 69.9555 79.2959 69.9797 79.3858C70.0039 79.4833 69.9472 79.5808 69.8581 79.605C66.9959 80.4105 63.9553 80.8178 60.9141 80.8178Z" fill="#C1635F"/>
<path d="M77.7039 97.2106C77.6307 97.2106 77.5657 97.1622 77.5332 97.0972C76.3623 93.9243 75.5495 90.6372 74.7609 87.456C74.297 85.5684 73.8091 83.6158 73.2561 81.7041C73.2319 81.6066 73.281 81.5091 73.3785 81.4849C73.4759 81.46 73.5734 81.5091 73.5975 81.6066C74.1505 83.5267 74.6385 85.4793 75.1023 87.3752C75.8826 90.5398 76.6955 93.8185 77.858 96.9748C77.8905 97.0647 77.8422 97.1698 77.7523 97.203C77.744 97.203 77.7281 97.2106 77.7039 97.2106Z" fill="#C1635F"/>
<path d="M55.2804 100.335C55.2638 100.335 55.2396 100.335 55.223 100.326C55.1255 100.294 55.0772 100.188 55.1097 100.098C56.1257 97.1694 56.8003 94.1355 57.1092 91.0683C57.2641 89.579 57.3291 88.0662 57.3049 86.5768C57.2966 85.9179 57.3782 85.2998 57.459 84.69C57.5323 84.161 57.5972 83.6646 57.6055 83.1439C57.6055 83.0465 57.6871 82.9648 57.7846 82.9648C57.882 82.9648 57.9628 83.0465 57.9628 83.1522C57.9553 83.6887 57.882 84.226 57.8087 84.7383C57.7272 85.3323 57.6463 85.9428 57.6539 86.5692C57.6788 88.0737 57.6055 89.5956 57.459 91.1008C57.1417 94.2004 56.4671 97.2676 55.4345 100.212C55.4262 100.286 55.3537 100.335 55.2804 100.335Z" fill="#C1635F"/>
<path d="M50.0201 99.4243C49.9959 99.4243 49.9717 99.416 49.9468 99.4077C49.8577 99.3669 49.8169 99.2611 49.8577 99.172C51.2725 96.0315 52.2395 93.3309 52.386 90.3287C52.4102 89.7756 52.4185 89.2141 52.4268 88.6686C52.4427 87.2616 52.451 85.813 52.8332 84.4219C52.8574 84.3244 52.9556 84.2677 53.053 84.3002C53.1505 84.3244 53.2071 84.4219 53.1746 84.5193C52.809 85.8704 52.7924 87.2941 52.7849 88.6769C52.7765 89.23 52.7765 89.7914 52.7441 90.3529C52.5809 93.754 51.3375 96.772 50.1825 99.3269C50.15 99.3835 50.085 99.4243 50.0201 99.4243Z" fill="#C1635F"/>
<path d="M67.9055 97.5288C67.833 97.5288 67.7597 97.4804 67.7347 97.4071C66.1824 92.7123 64.4178 87.3919 64.3203 82.0956C64.3203 81.9981 64.3936 81.9165 64.4993 81.9082C64.5968 81.9082 64.6784 81.9898 64.6784 82.0873C64.7758 87.3352 66.5321 92.6232 68.0762 97.293C68.1094 97.3905 68.0603 97.488 67.9629 97.5205C67.938 97.5205 67.9221 97.5288 67.9055 97.5288Z" fill="#C1635F"/>
<path d="M62.9147 101.018C62.8331 101.018 62.7606 100.962 62.7357 100.88C62.2076 98.496 62.1585 96.0394 62.1019 93.6554C62.0769 92.5249 62.0611 91.3695 62.0528 90.2633C62.0286 88.384 62.0044 86.4473 61.9395 84.5355C61.9395 84.4381 62.012 84.3565 62.1102 84.3481C62.1993 84.3406 62.2885 84.4214 62.2968 84.5189C62.37 86.4314 62.3942 88.3757 62.4108 90.255C62.4267 91.3695 62.435 92.5166 62.4592 93.6478C62.5083 96.0069 62.5566 98.4476 63.0854 100.798C63.1096 100.897 63.0446 100.994 62.9472 101.01C62.9389 101.018 62.9313 101.018 62.9147 101.018Z" fill="#C1635F"/>
<path d="M74.8091 96.0552C74.7441 96.0552 74.6792 96.0151 74.6467 95.9494C73.5249 93.4762 72.5897 90.9055 71.8494 88.3106C71.6221 87.4968 71.443 86.6505 71.2806 85.8291C70.98 84.3405 70.6627 82.7945 69.9881 81.4192C69.9473 81.33 69.9798 81.2243 70.0689 81.1751C70.1588 81.1351 70.2646 81.1676 70.3129 81.2567C71.0041 82.6721 71.3297 84.2347 71.6304 85.7475C71.7928 86.5613 71.9635 87.3993 72.1909 88.2048C72.9229 90.7838 73.8581 93.3379 74.9715 95.7952C75.0123 95.8844 74.9715 95.9902 74.8824 96.031C74.8582 96.0476 74.8333 96.0552 74.8091 96.0552Z" fill="#C1635F"/>
<path d="M90.9233 24.3723C90.6959 23.2826 89.9231 22.2814 90.0614 21.1752C90.2895 19.3775 92.1025 22.0457 92.4439 22.4197C92.7604 22.762 93.0777 23.1036 93.4682 23.3635C94.9964 24.4131 97.1916 23.9982 98.7123 25.0478C98.9804 25.2352 99.2327 25.471 99.371 25.7717C99.5417 26.1299 99.5493 26.5447 99.4926 26.9354C99.306 28.115 98.4766 29.1321 97.4439 29.7343C96.4113 30.3358 95.1996 30.564 94.0046 30.5882C93.6714 30.5965 93.3134 30.5882 93.021 30.4257C92.777 30.295 92.5897 30.0675 92.4273 29.8318C91.9317 29.1154 91.5654 28.2208 91.2322 27.4236C90.8341 26.4714 91.1348 25.3811 90.9233 24.3723Z" fill="#F6A383"/>
<path d="M91.7349 23.2248C92.0605 22.7691 92.272 22.2568 92.2554 21.6221C92.2312 21.0364 92.0688 20.4667 91.9631 19.8894C91.7599 18.799 91.6949 17.9126 92.3204 16.9847C92.7351 16.3666 93.3372 15.8785 94.0359 15.5936C95.475 15.008 97.1172 15.4228 97.9874 16.7406C98.2473 17.1313 98.4996 17.7577 98.3455 18.23C98.2473 18.5307 97.8734 18.9214 97.5319 18.7914C97.337 18.7181 97.2071 18.5307 97.1338 18.3433C97.0522 18.1567 97.0115 17.9451 96.914 17.766C96.7191 17.3837 96.3369 17.1313 95.9388 16.9688C95.7597 16.8955 95.5724 16.8389 95.3775 16.8222C94.0276 16.6923 92.9141 18.2217 93.2314 19.4504C93.5404 20.6216 94.4748 21.647 95.3616 22.4276C96.0196 23.0056 96.8083 23.4122 97.4186 24.0628C97.8658 24.5426 98.199 25.129 98.7028 25.5521C99.2233 25.9912 99.882 26.2186 100.524 26.4226C102.564 27.0566 108.573 26.9433 107.069 30.5635C106.744 31.3441 105.687 30.8235 104.996 30.8235C103.809 30.8318 102.614 30.8318 101.427 30.8235C99.1009 30.8076 96.7841 30.7426 94.4672 30.661C92.4836 30.5877 90.4749 30.791 88.4829 30.7426C87.1088 30.7101 83.4338 31.1325 83.467 28.8709C83.4912 27.0324 85.5157 26.9183 86.8573 26.6335C87.5236 26.4952 88.1989 26.3493 88.7919 26.0237C89.4506 25.6738 89.9711 25.129 90.4915 24.5917C90.9063 24.1527 91.3859 23.7212 91.7349 23.2248Z" fill="#FAFAFA"/>
<path d="M95.3858 25.1205C95.475 25.1447 95.5566 25.1855 95.6381 25.2505C95.9713 25.5112 95.9713 26.1943 96.426 26.3325C96.7682 26.4383 97.1822 26.3001 97.3862 25.9993C97.3204 26.3001 97.3612 26.6174 97.4995 26.8857C97.5403 26.9673 97.5894 27.0406 97.6619 27.0814C97.7435 27.1297 97.8492 27.1297 97.9384 27.1297C98.3123 27.1056 98.6703 26.9348 98.9226 26.6582C98.9468 26.9023 99.0118 27.1872 99.2392 27.268C99.4673 27.3496 99.6947 27.1706 99.8412 26.9832C100.264 26.43 100.662 25.7877 100.711 25.0555C100.736 24.6407 100.557 24.185 100.183 24.0142C100.085 23.9734 99.9795 23.941 99.9062 23.8677C99.8171 23.7777 99.7921 23.6478 99.7679 23.5261C99.703 23.217 99.5731 22.9072 99.3291 22.7123C99.0851 22.5173 98.7028 22.4599 98.4588 22.6556C98.4105 21.8985 97.5727 21.3045 96.8407 21.5002C96.8982 21.1912 96.6625 20.9063 96.4343 20.6781C96.1095 20.3532 95.6865 20.0033 95.2559 20.1333C94.8412 20.2557 94.6705 20.7355 94.573 21.1504C94.4023 21.8985 94.2799 22.6556 94.215 23.412C94.1825 23.8268 94.1659 24.2742 94.3691 24.6324C94.6214 25.1122 95.0278 25.0147 95.3858 25.1205Z" fill="#F6A383"/>
<path d="M98.4438 26.3498C98.4114 26.3498 98.3706 26.3415 98.3381 26.3173C98.2565 26.2599 98.2406 26.1458 98.2973 26.0649C98.6878 25.5194 99.0127 24.9262 99.265 24.3073C99.3058 24.2182 99.4032 24.169 99.5006 24.2098C99.5898 24.2506 99.6389 24.3481 99.5981 24.4456C99.3382 25.097 98.9968 25.7151 98.5896 26.2848C98.5571 26.3249 98.5005 26.3498 98.4438 26.3498Z" fill="#D67E63"/>
<path d="M97.6712 25.1298C97.6304 25.1298 97.5904 25.1131 97.5579 25.089C97.4763 25.024 97.468 24.9182 97.5247 24.8366C97.7445 24.56 97.8827 24.121 98.0044 23.6978C98.0701 23.4946 98.1267 23.2988 98.1917 23.1198C98.2242 23.0306 98.3299 22.9815 98.4274 23.014C98.5173 23.0465 98.5656 23.1522 98.5331 23.2505C98.4682 23.4129 98.4115 23.6003 98.3541 23.7953C98.2159 24.2509 98.0701 24.7225 97.8095 25.0565C97.777 25.1048 97.7286 25.1298 97.6712 25.1298Z" fill="#D67E63"/>
<path d="M95.7696 24.5672C95.7205 24.5672 95.6639 24.5423 95.6314 24.5022C95.5664 24.4289 95.574 24.3148 95.6556 24.2498C96.0295 23.9325 96.1919 23.2494 96.3302 22.6471C96.3876 22.403 96.4359 22.1673 96.5092 21.9633C96.5417 21.8658 96.6391 21.8174 96.7366 21.8499C96.8348 21.8824 96.8831 21.9799 96.8506 22.0774C96.794 22.2648 96.7366 22.4846 96.6799 22.7287C96.5258 23.3876 96.3551 24.1357 95.883 24.5264C95.8505 24.5506 95.8104 24.5672 95.7696 24.5672Z" fill="#D67E63"/>
<path d="M84.3041 52.2139C84.7596 51.7008 85.2151 51.1968 85.7598 50.7162C87.1014 49.5533 88.548 48.4871 89.5889 47.0227C91.3044 44.5986 91.5726 41.4906 92.7926 38.855C93.9627 36.3243 93.9627 33.4038 95.3617 30.9306C94.6456 29.9868 93.8328 28.9296 92.711 28.4657C91.4752 27.9534 91.3528 28.0667 90.7024 29.2795C89.3041 31.8744 88.0033 34.6325 86.7108 37.2356C85.5724 39.5298 84.9711 42.1904 83.418 44.2729C82.2962 45.7781 79.9137 47.2509 78.174 47.9506C76.4176 48.6586 74.7263 49.1951 72.865 49.4717C71.7424 49.6349 69.4498 49.1626 69.588 50.7245C69.6454 51.3351 69.9786 52.0998 70.0435 52.8154C70.1168 53.6126 70.1327 54.4098 70.1327 55.2236C70.1327 56.379 70.0027 57.6318 70.2226 58.7464C70.3933 59.6411 70.6614 60.6174 70.9621 61.472C71.1653 62.041 70.9138 62.0743 71.5234 62.2125C71.889 62.2934 72.1738 62.1309 72.4586 61.911C75.7839 59.3079 79.1008 56.7047 82.4261 54.0932C83.1657 53.5068 83.727 52.8562 84.3041 52.2139Z" fill="#F9B7B7"/>
<path d="M102.518 55.6294C102.103 55.6626 101.745 55.6868 101.493 55.7276C99.1598 56.0608 96.7364 55.8901 94.4846 55.451C92.3385 55.0362 90.2732 54.3198 88.1271 53.8158C86.7938 53.506 82.6715 54.0433 81.8504 52.872C81.0043 51.6759 82.704 49.0477 82.8256 47.8357C83.257 43.4749 82.1344 38.5859 82.0211 34.1843C81.972 32.3458 81.1917 29.8152 81.9962 28.0659C83.1346 25.5927 85.8178 26.4632 87.6474 27.5778C89.0539 28.4407 90.8669 28.9288 92.5009 29.1805C96.0619 29.726 99.0374 29.4087 102.42 28.1316C103.916 27.5619 106.713 26.6914 107.916 28.4649C108.883 29.8968 107.485 33.8428 107.363 35.5588C107.176 38.3086 106.68 41.6856 107.656 44.3371C108.583 46.8677 108.989 48.3155 108.371 51.1794C108.217 51.9033 107.932 54.0675 107.461 54.5964C106.786 55.3611 104.176 55.5077 102.518 55.6294Z" fill="#D56037"/>
<path d="M82.9551 26.8058C79.5082 26.7076 76.6384 32.9235 75.5491 35.535C75.0611 36.6904 73.7437 39.1469 74.589 40.0507C75.2401 40.7421 78.1182 41.1403 79.1343 41.6285C80.8823 42.4665 82.5245 44.0609 84.37 44.4273C85.4192 41.4743 84.4025 37.1944 84.4025 34.0706C84.4025 31.5815 83.8253 29.4007 83.6387 27.025C83.3698 26.6676 83.598 27.0741 82.9551 26.8058Z" fill="#D56037"/>
<path d="M107.467 28.2531C110.915 28.1556 113.785 34.3707 114.874 36.983C115.362 38.1376 116.679 40.5949 115.833 41.4979C115.183 42.1893 112.305 42.5883 111.289 43.0765C109.541 43.9145 107.898 45.5089 106.053 45.8746C105.004 42.9216 106.021 38.6424 106.021 35.5186C106.021 33.0287 106.598 30.8487 106.784 28.473C107.053 28.1231 106.817 28.5297 107.467 28.2531Z" fill="#D56037"/>
<path d="M107.305 45.1672C107.248 45.1672 107.191 45.1347 107.158 45.0856C102.638 38.17 97.7518 33.3868 91.7675 30.0507C91.6784 30.0023 91.6542 29.8965 91.695 29.8066C91.7433 29.7174 91.8491 29.6933 91.9382 29.7341C97.9709 33.1019 102.898 37.9184 107.451 44.8907C107.508 44.9715 107.484 45.0856 107.402 45.1423C107.378 45.1589 107.337 45.1672 107.305 45.1672Z" fill="#C1512F"/>
<path d="M97.3138 31.7105C97.2156 31.7105 97.1348 31.6372 97.1348 31.5397C97.1348 31.4422 97.208 31.3606 97.3055 31.3523C99.574 31.2707 101.623 30.4984 103.606 29.7496C104.671 29.3513 105.769 28.9357 106.899 28.6267C106.997 28.6025 107.094 28.6592 107.119 28.7491C107.143 28.8466 107.086 28.9441 106.997 28.9682C105.883 29.278 104.793 29.6846 103.736 30.0836C101.72 30.84 99.6389 31.6205 97.3138 31.7105Z" fill="#C1512F"/>
<path d="M107.492 47.3474C107.451 47.3474 107.411 47.3315 107.378 47.3066C105.565 45.8346 104.224 43.882 102.931 42.002C102.411 41.2373 101.866 40.4567 101.313 39.7162C99.6383 37.5113 97.4673 35.6078 94.2644 33.5411C92.4997 32.4024 90.6868 31.5077 88.2068 30.5556C87.4098 30.2548 86.6136 29.7826 85.8408 29.3352C84.8248 28.7413 83.7763 28.1315 82.7354 27.8791C82.6379 27.8542 82.5805 27.7567 82.6054 27.6592C82.6296 27.5617 82.727 27.5043 82.8245 27.5293C83.9138 27.7975 84.9872 28.4156 86.0199 29.0262C86.7843 29.4735 87.573 29.9292 88.3367 30.2224C90.8409 31.182 92.6705 32.085 94.4593 33.2404C97.703 35.3312 99.8982 37.2596 101.598 39.4963C102.167 40.2368 102.703 41.034 103.232 41.7988C104.508 43.6622 105.833 45.5906 107.614 47.03C107.687 47.095 107.704 47.2091 107.638 47.2824C107.59 47.3315 107.541 47.3474 107.492 47.3474Z" fill="#C1512F"/>
<path d="M83.3365 43.3541C83.239 43.3541 83.1582 43.2725 83.1582 43.175V33.8353C83.1582 33.7379 83.239 33.6562 83.3365 33.6562C83.4339 33.6562 83.5155 33.7379 83.5155 33.8353V43.175C83.5155 43.2725 83.4339 43.3541 83.3365 43.3541Z" fill="#C1512F"/>
<path d="M86.5883 52.9935C86.5399 52.9935 86.4908 52.9777 86.4584 52.9369C85.9704 52.4238 85.5315 52.1722 85.1817 51.9689C84.3689 51.4966 83.9791 51.1876 84.0441 49.3491C84.0441 49.2509 84.1249 49.17 84.2307 49.1783C84.3281 49.1783 84.4097 49.2675 84.4014 49.365C84.3447 51.0652 84.662 51.2526 85.3608 51.6591C85.7271 51.8707 86.1902 52.1397 86.719 52.6928C86.7839 52.7661 86.7839 52.8794 86.7107 52.9444C86.6782 52.9694 86.6291 52.9935 86.5883 52.9935Z" fill="#C1512F"/>
<path d="M90.9477 54.0836C90.8503 54.0836 90.7694 54.0103 90.7694 53.9128C90.7528 53.4323 90.7936 52.9774 90.8344 52.5376C90.8994 51.8054 90.956 51.1056 90.777 50.3084C90.7528 50.211 90.8178 50.1135 90.9152 50.0969C91.0127 50.0727 91.1109 50.1377 91.1267 50.2351C91.3141 51.0898 91.2567 51.8462 91.1917 52.5784C91.1592 53.0099 91.1184 53.4489 91.1267 53.9128C91.135 53.9937 91.0535 54.0753 90.9477 54.0836Z" fill="#C1512F"/>
<path d="M99.3137 54.2641C99.3061 54.2641 99.2895 54.2641 99.2812 54.2641C99.1838 54.2475 99.1188 54.15 99.1354 54.0525L99.1679 53.8893C99.2812 53.2878 99.3953 52.6689 99.501 52.0591C99.5169 51.9617 99.6068 51.8967 99.7042 51.9125C99.8017 51.9292 99.8666 52.0183 99.8508 52.1158C99.745 52.7264 99.631 53.3528 99.5169 53.955L99.4844 54.1175C99.4685 54.2067 99.3953 54.2641 99.3137 54.2641Z" fill="#C1512F"/>
<path d="M103.493 54.4418C103.395 54.4418 103.314 54.3602 103.314 54.2627C103.322 53.6605 103.615 53.2048 103.916 52.725C104.03 52.5542 104.143 52.3668 104.241 52.1794C104.29 52.0903 104.395 52.0578 104.485 52.1069C104.574 52.1552 104.607 52.261 104.558 52.351C104.452 52.5542 104.33 52.7409 104.216 52.92C103.924 53.3756 103.672 53.7746 103.672 54.2703C103.672 54.3685 103.591 54.4418 103.493 54.4418Z" fill="#C1512F"/>
<path d="M106.395 42.6206C106.305 42.6206 106.232 42.5556 106.216 42.4657C106.11 41.7334 105.915 40.9771 105.72 40.2531C105.443 39.1869 105.151 38.0807 105.135 36.9986C105.127 36.2014 105.362 35.4526 105.598 34.7287C105.825 34.0131 106.045 33.3375 106.029 32.6295C106.029 32.532 106.11 32.4512 106.208 32.4512C106.305 32.4512 106.387 32.532 106.387 32.6295C106.395 33.3942 106.159 34.1347 105.931 34.8428C105.712 35.5425 105.476 36.2664 105.484 36.9986C105.501 38.0399 105.785 39.122 106.061 40.1632C106.257 40.9038 106.46 41.6685 106.566 42.4249C106.582 42.5231 106.508 42.6123 106.411 42.6289C106.411 42.6206 106.403 42.6206 106.395 42.6206Z" fill="#C1512F"/>
<path d="M107.801 55.2391C107.581 54.3195 107.386 53.7097 107.264 53.7422C103.76 54.6286 101.296 55.3608 97.4911 55.1741C95.6623 55.0842 93.9951 55.0925 92.2229 54.8077C91.1578 54.6369 85.9787 52.5135 85.1659 53.5714C84.971 53.8231 85.0685 53.7422 84.8003 53.9288C84.5155 56.1013 83.4421 58.5095 82.9873 60.7712C82.3611 63.8708 81.8081 66.9946 81.1336 70.0942C80.0926 74.9024 80.1251 79.8896 78.9134 84.7468C77.7509 89.3925 77.5968 94.2006 77.1496 98.968C76.7265 103.377 75.9379 107.681 75.5149 112.058C75.32 114.027 75.3283 116.012 75.3283 118.013C75.3283 119.258 75.0027 120.47 74.9627 121.707C74.9052 123.408 74.8403 123.196 76.0678 123.724C77.9465 124.538 80.9296 124.326 82.9624 124.506C85.7997 124.758 93.4097 127.28 94.264 123.684C95.3209 119.218 94.613 114.002 95.2801 109.414C95.9796 104.638 95.9954 99.7894 96.0445 94.9729C96.0687 92.7438 96.077 90.4746 95.9546 88.2696C95.833 86.0813 96.1903 83.9821 96.3127 81.8346C96.4102 80.0203 96.5242 78.401 97.1097 76.6434C97.7276 77.4247 97.1822 78.9707 97.0847 79.9062C96.9714 81.0208 97.2396 82.1187 97.1988 83.2333C97.158 84.202 96.8407 85.1451 96.8083 86.1213C96.735 88.7336 96.9631 91.3451 96.9631 93.9566C96.9548 95.6976 96.7924 97.5519 96.9631 99.2853C97.5236 104.947 97.6052 110.634 97.8983 116.313C97.9874 118.046 97.4836 122.496 98.4671 123.92C99.5081 125.409 102.134 124.806 103.687 125.018C105.613 125.287 107.573 125.726 109.597 125.563C111.118 125.441 112.882 125.14 114.329 124.668C115.736 124.205 117.126 124.359 118.533 123.961C120.094 123.513 119.297 122.577 118.907 121.324C118.581 120.291 118.297 119.209 118.167 118.111C117.793 114.734 117.671 111.595 117.004 108.226C116.224 104.297 115.418 100.375 114.549 96.4623C113.419 91.3851 113.232 86.1463 112.557 81.0125C111.76 74.9923 110.15 69.1671 109.313 63.0895C109.223 62.5855 108.411 57.7531 107.801 55.2391Z" fill="#747D91"/>
<path d="M95.9877 60.3724C95.1915 60.3724 94.3862 60.3399 93.5651 60.2591C92.4267 60.145 91.1992 59.9009 90.0124 59.6651C88.2319 59.3153 86.394 58.9488 84.7759 58.9896C84.6785 58.9896 84.5977 58.908 84.5977 58.8105C84.5977 58.713 84.6702 58.6314 84.7759 58.6239C86.4348 58.5906 88.2969 58.9488 90.0932 59.307C91.2724 59.5427 92.5 59.7785 93.6142 59.8926C96.3374 60.1691 98.8741 59.9009 101.566 59.6243C101.842 59.5918 102.118 59.5669 102.394 59.5427C103.728 59.4044 104.704 59.112 105.834 58.7697C106.086 58.6964 106.346 58.6155 106.614 58.5339C106.639 58.4931 106.679 58.4606 106.736 58.4523C106.769 58.4448 106.801 58.4123 106.834 58.3873C106.89 58.339 106.98 58.2574 107.102 58.2982C107.232 58.339 107.273 58.4773 107.289 58.5422C107.313 58.6397 107.257 58.7372 107.167 58.7621C106.728 58.8838 106.322 59.0062 105.939 59.1196C104.793 59.4694 103.801 59.7626 102.427 59.9009C102.151 59.9251 101.875 59.9576 101.598 59.9825C99.6869 60.1858 97.8581 60.3724 95.9877 60.3724Z" fill="#57657C"/>
<path d="M83.0854 64.8151C83.0363 64.8151 82.988 64.8151 82.9389 64.8151C82.8414 64.8151 82.7599 64.7252 82.7682 64.6277C82.7682 64.5302 82.8497 64.4569 82.9472 64.4569C82.9472 64.4569 82.9472 64.4569 82.9547 64.4569C82.9955 64.4569 83.0363 64.4569 83.0771 64.4569C85.7603 64.4569 88.1912 61.6913 88.581 59.1523C88.5976 59.0549 88.6868 58.9899 88.7842 59.0065C88.8824 59.0224 88.9474 59.1123 88.9308 59.2098C88.5244 61.8946 86.0285 64.8151 83.0854 64.8151Z" fill="#57657C"/>
<path d="M108.014 64.9616C107.672 64.9616 107.282 64.8558 106.851 64.6443C104.989 63.7247 102.997 61.1781 103.509 59.8444C103.542 59.7545 103.648 59.7062 103.737 59.7387C103.827 59.7711 103.875 59.8769 103.843 59.9661C103.412 61.0973 105.331 63.4889 107.014 64.3186C107.607 64.6118 108.395 64.8234 108.794 64.172C108.843 64.0911 108.957 64.0586 109.038 64.1153C109.119 64.1644 109.151 64.2778 109.095 64.3594C108.851 64.7584 108.477 64.9616 108.014 64.9616Z" fill="#57657C"/>
<path d="M103.045 59.7062C102.835 59.7062 102.672 59.6654 102.55 59.5755C102.176 59.3231 102.224 58.7949 102.282 58.1927C102.306 57.8919 102.338 57.5821 102.323 57.2731C102.314 57.0698 102.282 56.8424 102.241 56.5983C102.152 56.0119 102.062 55.4104 102.257 54.9381C102.282 54.8898 102.323 54.849 102.371 54.8324C102.566 54.7757 102.932 54.7266 103.119 54.7266C103.339 54.7266 103.347 54.7266 103.566 57.0864C103.648 57.9811 103.762 59.2015 103.827 59.3564C103.842 59.4047 103.842 59.4622 103.818 59.5022C103.794 59.5513 103.753 59.5838 103.704 59.6004C103.444 59.673 103.233 59.7062 103.045 59.7062ZM102.753 59.2831C102.875 59.3639 103.111 59.3722 103.444 59.2989C103.379 58.9408 103.306 58.1927 103.209 57.1265C103.135 56.3542 103.045 55.4104 102.989 55.1014C102.859 55.1089 102.68 55.1339 102.558 55.1663C102.444 55.5404 102.517 56.0527 102.598 56.5492C102.639 56.8015 102.672 57.0373 102.68 57.2572C102.696 57.5904 102.664 57.932 102.639 58.2252C102.591 58.7216 102.55 59.1448 102.753 59.2831Z" fill="#57657C"/>
<path d="M90.0847 59.7304C89.8815 59.7304 89.6625 59.5921 89.1254 59.2422C89.0604 59.2014 89.0362 59.1281 89.0445 59.0548C89.1986 58.3226 89.3044 57.5337 89.4102 56.7773C89.5159 55.996 89.6217 55.1905 89.7924 54.4258C89.8007 54.3766 89.8332 54.3366 89.874 54.3117C89.914 54.2875 89.9714 54.2792 90.0198 54.2958C90.1338 54.3366 90.2313 54.3608 90.3129 54.385C90.7684 54.5074 90.8575 54.5807 90.9633 55.1497C91.0282 55.4995 90.9716 55.8985 90.9225 56.2809C90.89 56.4924 90.8658 56.6874 90.8575 56.8665C90.8333 57.5904 90.6951 58.1684 90.5569 58.7782C90.4995 59.0306 90.4345 59.2906 90.3861 59.5596C90.3695 59.6246 90.3287 59.6729 90.2638 59.6979C90.1988 59.7137 90.1422 59.7304 90.0847 59.7304ZM89.4268 58.9981C89.8166 59.2505 89.9631 59.3397 90.0606 59.3563C90.1097 59.1281 90.158 58.9007 90.2071 58.6891C90.3454 58.0951 90.4753 57.5337 90.4995 56.8499C90.5078 56.6549 90.5403 56.435 90.5644 56.2234C90.6135 55.866 90.6702 55.4995 90.6135 55.2071C90.5403 54.8081 90.5403 54.8081 90.223 54.719C90.1829 54.7106 90.1505 54.694 90.1014 54.6865C89.9631 55.3779 89.8657 56.1101 89.7682 56.8174C89.6708 57.542 89.5726 58.2901 89.4268 58.9981Z" fill="#57657C"/>
<path d="M96.8251 69.7863C96.8168 69.7863 96.8085 69.7863 96.8009 69.7863C95.0688 69.5672 95.1179 68.7125 95.1912 67.2972L95.2153 66.8657C95.272 65.8245 95.3294 64.7424 95.4344 63.7094C95.6459 61.7161 95.6134 59.666 95.5809 57.6885C95.5651 56.9487 95.5568 56.184 95.5568 55.4193C95.5568 55.3211 95.6376 55.2402 95.7358 55.2402C95.8333 55.2402 95.9141 55.3211 95.9141 55.4193C95.9141 56.1757 95.9307 56.9404 95.939 57.6809C95.9715 59.6736 96.004 61.7244 95.7925 63.7419C95.6867 64.759 95.6301 65.8328 95.5726 66.8741L95.5485 67.3048C95.4669 68.81 95.5077 69.2498 96.8493 69.4206C96.9467 69.4364 97.02 69.5264 97.0041 69.6238C96.9875 69.7213 96.9142 69.7863 96.8251 69.7863Z" fill="#57657C"/>
<path d="M97.2402 59.7634C97.1427 59.7634 97.0612 59.7467 97.0045 59.7226C96.8338 59.6576 96.7031 59.511 96.6306 59.316C96.4923 58.917 96.484 58.5997 96.614 58.3805C96.7031 58.2256 96.858 58.1198 97.0528 58.0873C97.5242 58.0057 98.1097 58.3148 98.2479 58.7304C98.3053 58.9012 98.3537 59.3236 97.6549 59.6659C97.5 59.7309 97.3535 59.7634 97.2402 59.7634ZM97.1178 58.4289C97.0287 58.4455 96.9637 58.4863 96.9229 58.5513C96.8496 58.673 96.8663 58.9012 96.972 59.1853C96.9962 59.2586 97.0445 59.3485 97.1427 59.381C97.2319 59.4218 97.3618 59.3969 97.5 59.3236C97.6874 59.2344 97.9797 59.047 97.9065 58.8196C97.8332 58.5914 97.4109 58.3722 97.1178 58.4289Z" fill="#57657C"/>
<path d="M97.2402 57.2165C97.1427 57.2165 97.0612 57.1999 97.0045 57.1757C96.8338 57.1107 96.7031 56.9641 96.6306 56.7692C96.4923 56.3702 96.484 56.0528 96.614 55.8337C96.7031 55.6788 96.858 55.573 97.0528 55.5405C97.5242 55.4514 98.1097 55.768 98.2479 56.1836C98.3053 56.3543 98.3537 56.7775 97.6549 57.1191C97.5 57.184 97.3535 57.2165 97.2402 57.2165ZM97.1178 55.8821C97.0287 55.8987 96.9637 55.9395 96.9229 56.0045C96.8496 56.1261 96.8663 56.3543 96.972 56.6392C96.9962 56.7118 97.0445 56.8017 97.1427 56.8342C97.2319 56.875 97.3618 56.85 97.5 56.7775C97.6874 56.6876 97.9797 56.5002 97.9065 56.2727C97.8332 56.0453 97.4109 55.8337 97.1178 55.8821Z" fill="#57657C"/>
<path d="M97.0051 75.9694C96.9801 75.9694 96.9643 75.9694 96.9401 75.9611C96.8502 75.9286 96.8019 75.8228 96.8344 75.7337C97.2408 74.635 97.135 73.3005 97.0292 72.0235C96.9726 71.3154 96.9069 70.5832 96.9401 69.9084C96.9801 69.013 97.0617 68.07 97.135 67.1587C97.3057 65.1079 97.4764 62.9928 97.3057 61.0244C97.2974 60.9261 97.3707 60.837 97.4681 60.8287C97.5656 60.8211 97.6555 60.8937 97.663 60.9919C97.8421 62.9928 97.663 65.1245 97.4923 67.1911C97.4115 68.1425 97.3382 69.0455 97.2974 69.9326C97.2649 70.5832 97.3216 71.2754 97.379 71.9993C97.4848 73.3171 97.5981 74.6841 97.1592 75.8636C97.1509 75.9203 97.0783 75.9694 97.0051 75.9694Z" fill="#57657C"/>
<path d="M112.581 99.1884C112.508 99.1884 112.443 99.1476 112.419 99.0826C111.858 97.7889 112.224 95.7306 112.574 93.7372C112.752 92.7284 112.923 91.768 112.948 91.0033C112.948 90.9058 113.037 90.825 113.134 90.8325C113.232 90.8325 113.313 90.9224 113.305 91.0199C113.281 91.8088 113.11 92.7775 112.923 93.8022C112.598 95.649 112.224 97.7481 112.744 98.9443C112.784 99.0335 112.744 99.1393 112.646 99.1801C112.622 99.1801 112.598 99.1884 112.581 99.1884Z" fill="#57657C"/>
<path d="M78.5889 113.735C78.4915 113.735 78.4099 113.653 78.4099 113.556C78.4099 110.058 78.2716 106.592 78.1334 103.248C78.0035 99.9209 77.8652 96.4714 77.8652 93.0053C77.8652 92.9078 77.9468 92.8262 78.0443 92.8262C78.1417 92.8262 78.2225 92.9078 78.2225 93.0053C78.2225 96.4714 78.3608 99.9126 78.4915 103.232C78.6297 106.583 78.7679 110.041 78.7679 113.556C78.7679 113.653 78.6864 113.735 78.5889 113.735Z" fill="#57657C"/>
<path d="M89.9059 80.3306C89.8085 80.2573 89.7027 80.1999 89.597 80.1757C88.7592 79.9483 86.3691 80.5173 85.727 81.2495C85.8486 81.3228 85.9378 81.4369 86.0843 81.5102C85.9703 82.2749 85.0275 82.4623 84.751 83.0638C84.3446 83.9668 84.5153 83.292 85.0033 83.8776C85.4989 84.4874 85.9053 83.9993 85.8728 84.9431C85.8728 85.0247 85.2473 86.1884 85.2715 86.1884C86.7189 86.3017 87.1003 87.0264 86.8488 88.3767C88.3037 88.3767 87.4342 89.8245 88.5069 89.9953C88.5402 90.0852 88.4827 90.2477 88.5477 90.3126C88.6051 90.3618 88.6701 90.3942 88.7509 90.4101C88.8 89.6537 88.8816 88.7349 88.7592 87.9694C88.5726 86.7898 88.2712 87.0339 89.0765 86.2692C89.572 85.7977 90.4015 85.3987 90.4747 84.6257C90.548 83.8859 89.8243 83.6094 89.881 82.828C90.8978 82.4291 90.6213 80.8671 89.9059 80.3306Z" fill="#57657C"/>
<path d="M84.9718 83.9499L84.8086 83.6326C85.882 83.0953 86.9879 82.8679 88.0531 82.648C89.2239 82.4122 90.3291 82.184 91.3376 81.5742L91.5249 81.8833C90.4598 82.5263 89.3297 82.7538 88.1263 82.9978C87.0854 83.2094 86.0044 83.4376 84.9718 83.9499Z" fill="#747D91"/>
<path d="M85.0777 85.4148L84.9395 85.0808C86.0204 84.6335 87.2397 84.2103 88.4755 83.8529C88.9801 83.7063 89.4349 83.4539 89.8662 83.2099C90.2318 83.0066 90.6058 82.795 91.0046 82.6484L91.1262 82.9824C90.7523 83.1207 90.4026 83.3157 90.0369 83.5189C89.5814 83.7713 89.1101 84.0313 88.5654 84.1945C87.362 84.5526 86.1504 84.9675 85.0777 85.4148Z" fill="#747D91"/>
<path d="M84.8245 86.3898L84.7188 86.0483C85.1743 85.91 85.6539 85.7792 86.117 85.6576C86.9789 85.4294 87.865 85.2019 88.6537 84.8521C89.0525 84.6813 89.4506 84.4131 89.8653 84.1357C90.5565 83.6808 91.2719 83.2003 92.0198 83.127L92.0605 83.4851C91.3935 83.5501 90.7189 84.0058 90.0602 84.4372C89.6455 84.7138 89.2149 84.9987 88.7919 85.1853C87.9791 85.5435 87.0764 85.7792 86.2069 86.0075C85.7431 86.1208 85.2717 86.2432 84.8245 86.3898Z" fill="#747D91"/>
<path d="M104.386 66.1648C103.833 66.6121 103.476 67.6534 103.671 68.2148C103.899 68.8662 104.963 68.7929 105.346 69.3944C105.728 69.9966 105.257 70.5497 105.378 71.1845C105.509 71.9008 106.037 72.299 106.248 72.9905C107.232 72.633 107.11 70.957 107.525 70.2082C108.005 69.346 108.98 68.9637 107.956 67.8816C107.493 67.3934 106.883 67.4093 106.346 67.0761C105.842 66.7587 105.695 65.8557 104.826 65.9781C104.663 65.9857 104.517 66.059 104.386 66.1648Z" fill="#57657C"/>
<path d="M103.728 68.9227C103.573 68.866 103.54 68.7436 103.54 68.6953C103.516 68.4512 103.833 68.2472 104.597 67.7998C104.784 67.694 104.963 67.5883 105.069 67.515C105.321 67.3366 105.541 67.1167 105.776 66.881C106.069 66.5878 106.369 66.2946 106.727 66.0671L106.768 66.043H106.817C106.874 66.043 107.004 66.043 107.077 66.1404C107.142 66.2296 107.11 66.3271 107.093 66.3679C107.093 66.3762 107.085 66.3762 107.085 66.3845C107.085 66.3679 107.085 66.3437 107.069 66.3354L106.792 66.5636C106.768 66.5387 106.752 66.5145 106.744 66.482C106.483 66.6694 106.256 66.9052 106.028 67.125C105.792 67.3608 105.541 67.6049 105.272 67.7998C105.158 67.8814 104.979 67.9872 104.776 68.1013C104.491 68.2638 103.955 68.5812 103.89 68.6953C103.89 68.687 103.898 68.662 103.89 68.622C103.882 68.5895 103.858 68.5728 103.849 68.5645L103.728 68.9227Z" fill="#747D91"/>
<path d="M104.695 69.9811L104.338 69.9561C104.411 69.029 107.232 67.0522 107.696 66.7832L107.875 67.093C107.029 67.5812 104.744 69.3705 104.695 69.9811Z" fill="#747D91"/>
<path d="M105.135 70.9966L105.119 70.6392C105.729 70.6067 106.444 70.0453 107.144 69.4921C107.623 69.1098 108.079 68.7516 108.509 68.5566L108.656 68.8816C108.265 69.0607 107.827 69.4022 107.363 69.7687C106.623 70.3543 105.859 70.9566 105.135 70.9966Z" fill="#747D91"/>
<path d="M106.939 104.435C106.41 105.094 106.053 105.941 105.833 106.673C105.508 107.747 106.101 107.942 106.622 108.87C106.971 109.488 108.061 113.482 108.784 112.929C109.077 112.71 109.305 111.44 109.419 111.082C109.638 110.431 109.728 109.959 110.215 109.463C110.638 109.032 111.719 108.706 111.963 108.121C112.345 107.234 111.427 107.209 111.029 106.64C110.621 106.062 110.817 105.249 110.646 104.565C110.353 103.378 108.752 103.126 107.833 103.638C107.492 103.833 107.191 104.11 106.939 104.435Z" fill="#57657C"/>
<path d="M105.737 107.73L105.42 107.568C105.444 107.519 105.469 107.47 105.502 107.429C105.884 106.868 106.502 106.746 106.997 106.648L107.055 106.64C107.745 106.502 107.851 106.486 108.453 106.136C108.786 105.941 109.112 105.851 109.421 105.762C109.607 105.705 109.802 105.656 110.005 105.574C110.209 105.501 110.42 105.347 110.631 105.209C110.875 105.045 111.103 104.891 111.314 104.834C111.331 104.826 111.355 104.826 111.372 104.826L111.42 105.184C111.428 105.184 111.437 105.176 111.437 105.176C111.379 105.217 111.258 105.444 111.176 105.599C110.981 105.965 110.778 106.339 110.502 106.453C110.258 106.551 109.998 106.649 109.745 106.746C109.453 106.86 109.16 106.974 108.868 107.088C108.518 107.226 108.014 107.25 107.477 107.275C106.794 107.308 106.03 107.34 105.786 107.658C105.77 107.673 105.753 107.706 105.737 107.73ZM110.811 105.533C110.591 105.68 110.372 105.827 110.143 105.916C109.924 105.997 109.721 106.055 109.526 106.112C109.225 106.193 108.933 106.274 108.639 106.445C108.136 106.738 107.932 106.82 107.534 106.909C107.997 106.892 108.461 106.868 108.745 106.754C109.03 106.64 109.331 106.526 109.624 106.412C109.884 106.315 110.136 106.217 110.38 106.12C110.51 106.062 110.681 105.77 110.811 105.533Z" fill="#747D91"/>
<path d="M105.533 109.073L105.744 108.479C105.598 108.503 105.468 108.544 105.321 108.577C105.021 108.658 104.703 108.739 104.297 108.732L104.305 108.373C104.662 108.39 104.939 108.308 105.224 108.227C105.451 108.17 105.679 108.105 105.939 108.088C106.475 107.438 107.76 107.454 108.728 107.47C109.037 107.479 109.314 107.479 109.5 107.462C110.021 107.414 110.451 107.039 110.866 106.681C111.297 106.307 111.744 105.924 112.289 105.916L112.297 106.274C111.883 106.283 111.5 106.608 111.102 106.95C110.663 107.324 110.175 107.755 109.533 107.812C109.321 107.829 109.037 107.829 108.72 107.82C107.939 107.804 106.939 107.788 106.411 108.129L106.354 108.447C106.354 108.447 106.354 108.447 106.362 108.447C106.305 108.447 106.118 108.52 106.045 108.585L105.533 109.073Z" fill="#747D91"/>
<path d="M106.045 110.797L105.85 110.496C106.687 109.951 107.646 109.975 108.573 110.008C108.735 110.016 108.898 110.016 109.069 110.016C109.077 110.016 109.077 110.016 109.085 110.016C109.703 110.016 110.321 109.682 110.923 109.349C110.378 109.422 109.833 109.495 109.247 109.552C108.947 109.585 108.663 109.658 108.354 109.731C107.719 109.886 107.069 110.048 106.362 109.82L106.475 109.479C107.085 109.682 107.663 109.536 108.272 109.381C108.581 109.308 108.898 109.226 109.223 109.194C110.134 109.105 110.955 108.983 111.825 108.861L112.028 108.828L112.11 109.178C111.792 109.284 111.459 109.47 111.11 109.658C110.467 110.008 109.8 110.374 109.093 110.374C109.085 110.374 109.085 110.374 109.077 110.374C108.914 110.374 108.744 110.366 108.581 110.366C107.646 110.342 106.784 110.317 106.045 110.797Z" fill="#747D91"/>
<path d="M75.9785 54.7596C75.9377 57.7866 73.1329 61.4477 72.7182 64.0101C72.3118 66.4999 72.3277 68.4359 72.8073 70.9499C73.1329 72.6584 73.4336 75.5298 71.9462 76.8484C71.2958 77.4174 70.4414 77.694 69.6127 77.9139C66.2791 78.8085 62.8073 79.1833 59.3603 79.045C56.6688 78.9393 52.1402 78.9876 50.3272 76.7018C49.2137 75.2857 49.0997 73.3173 49.3845 71.5355C49.6685 69.7537 50.2947 68.0369 50.4896 66.2392C50.8643 62.7731 49.6284 59.4218 49.5144 55.9799C49.4736 54.7112 49.3678 53.2876 49.88 52.108C50.4088 50.9035 51.4815 49.9514 51.8312 48.6744C53.4576 48.5852 54.8725 48.1213 56.4573 47.8205C58.1321 47.5107 60.2948 47.6739 62.0028 47.853C63.6201 48.0238 65.0516 48.6419 66.5964 48.9676C68.4743 49.3658 70.214 49.5366 72.0028 50.2204C73.0838 50.627 74.1656 51.2209 74.9625 52.0672C75.7104 52.8561 75.9868 53.7757 75.9785 54.7596Z" fill="#F9B7B7"/>
<path d="M58.1006 76.1227C58.044 76.1227 57.9873 76.0902 57.9465 76.0419C57.8899 75.9603 57.914 75.8462 58.0032 75.7895C59.7187 74.6832 60.6864 72.8931 61.7107 70.9897C62.6051 69.3295 63.532 67.6135 64.9952 66.4256C65.0685 66.3606 65.1826 66.3765 65.2475 66.4498C65.3125 66.5231 65.2966 66.6372 65.2233 66.7022C63.8085 67.8492 62.9058 69.5336 62.028 71.1604C61.0278 73.0155 59.9869 74.9349 58.1988 76.0902C58.1663 76.1152 58.1331 76.1227 58.1006 76.1227Z" fill="#E58F8F"/>
<path d="M67.4918 78.0109C67.4752 78.0109 67.451 78.0109 67.4344 78.0109C67.3369 78.0026 67.2637 77.9218 67.2637 77.8243C67.272 77.726 67.3536 77.6535 67.451 77.6535C67.7026 77.6694 67.9715 77.5228 68.288 77.1979C69.5646 75.8793 70.1335 73.8617 69.7437 72.0724C69.7195 71.9741 69.7845 71.8766 69.8819 71.8608C69.9794 71.8358 70.0768 71.9016 70.0934 71.9991C70.5157 73.935 69.9227 76.0259 68.5403 77.4495C68.3129 77.686 67.9466 78.0109 67.4918 78.0109Z" fill="#E58F8F"/>
<path d="M62.8245 78.2796C62.7429 78.2796 62.6696 78.2221 62.6454 78.133C62.6288 78.0355 62.6862 77.9373 62.7837 77.9214C64.296 77.6123 64.8731 76.701 65.5477 75.6515C65.9299 75.0575 66.328 74.4394 66.9218 73.8863C66.9951 73.8205 67.1091 73.8205 67.1741 73.8938C67.2391 73.9671 67.2391 74.0812 67.1658 74.1462C66.6045 74.6669 66.223 75.2608 65.8483 75.8464C65.1579 76.9209 64.5075 77.9373 62.8569 78.2796C62.8486 78.2796 62.832 78.2796 62.8245 78.2796Z" fill="#E58F8F"/>
<path d="M73.9307 59.3478C73.9141 59.3478 73.8982 59.3478 73.8816 59.3395C73.7841 59.3153 73.7275 59.2178 73.7517 59.1196C74.044 58.005 74.6377 56.9879 75.4672 56.1832C75.5405 56.1174 75.6538 56.1174 75.7195 56.1907C75.7845 56.264 75.7845 56.3781 75.7112 56.4431C74.9308 57.1995 74.3696 58.1599 74.0931 59.2095C74.0848 59.2904 74.0115 59.3478 73.9307 59.3478Z" fill="#E58F8F"/>
<path d="M72.2726 65.629C72.2484 65.629 72.2318 65.629 72.2076 65.6206C72.1185 65.5882 72.0694 65.4824 72.1019 65.3924C72.3458 64.7252 72.2892 63.8064 72.2318 62.9192C72.1993 62.3827 72.1668 61.8697 72.1993 61.414C72.2643 60.5435 72.4433 59.6896 72.6223 58.8683C72.8497 57.7937 73.0854 56.6875 73.0529 55.5487C73.0529 55.4512 73.1262 55.3696 73.2236 55.3613C73.2236 55.3613 73.2236 55.3613 73.2319 55.3613C73.3294 55.3613 73.411 55.4346 73.411 55.5321C73.4518 56.7117 73.2078 57.8428 72.9721 58.9332C72.8014 59.7463 72.6223 60.5843 72.5574 61.4306C72.5249 61.8621 72.5574 62.3661 72.5898 62.8867C72.6465 63.8064 72.7115 64.766 72.435 65.5065C72.4191 65.5882 72.3458 65.629 72.2726 65.629Z" fill="#E58F8F"/>
<path d="M59.2634 64.48C58.9786 64.5374 58.6855 64.6024 58.4015 64.684C57.8485 64.8465 57.2955 65.0739 56.9299 65.5137C56.4178 66.1401 56.4178 67.0431 56.596 67.832C57.1082 70.1103 58.7505 71.184 60.7266 72.152C62.8893 73.2182 65.1578 74.0562 67.4913 74.6501C68.7921 74.9834 70.1171 75.2358 71.4096 75.634C72.239 75.8947 73.1092 76.0821 73.8896 76.472C74.6941 76.8793 74.8648 77.3999 75.4502 77.9855C76.467 78.9943 78.1334 79.1734 79.3934 79.6615C80.5885 80.1255 82.0442 80.5079 83.3042 79.9948C83.4832 79.6449 83.345 79.3275 82.9877 79.1893C83.5074 79.3359 84.296 79.6774 84.8407 79.6041C85.0114 79.5799 85.3453 79.6615 85.4669 79.4825C85.5243 79.3933 85.6135 78.8394 85.4261 78.8477C86.0199 78.8069 87.0442 79.0835 86.7519 78.1155C86.6869 77.8956 85.8167 77.7248 85.5968 77.6274C84.3285 77.0909 82.8978 76.3911 81.8085 75.5365C81.9709 75.504 82.1416 75.4881 82.3123 75.4957C82.8494 75.5123 83.3616 75.6997 83.8813 75.8539C84.4751 76.033 87.9711 76.9276 88.0202 75.8864C88.036 75.6423 87.7112 75.4148 87.508 75.3332C86.4263 74.8776 85.2478 74.6252 84.1011 74.357C83.1743 74.1454 81.9142 74.0887 81.2555 73.3157C81.2313 73.2832 81.2064 73.2507 81.1989 73.2099C81.1906 73.1283 81.2721 73.0716 81.3447 73.0308C82.2066 72.5668 84.2152 72.1769 84.012 70.7609C84.0037 70.7042 83.9871 70.6392 83.947 70.5984C83.8571 70.4926 83.6947 70.5168 83.5648 70.5493C82.5238 70.8258 81.5403 71.379 80.4669 71.4039C79.9056 71.4122 79.3534 71.2739 78.8004 71.2898C77.9869 71.3064 77.4097 71.9329 76.6619 72.1278C75.8491 72.3394 74.9788 71.6639 74.2552 71.2739C71.5886 69.8579 69.2793 67.9952 66.8001 66.3268C64.5965 64.8298 61.9217 63.9843 59.2634 64.48Z" fill="#F6A383"/>
<path d="M81.2392 73.4386C81.2143 73.4386 81.1984 73.4386 81.1735 73.431C80.6538 73.2353 80.1816 72.9429 79.7669 72.5681C79.6944 72.5031 79.6861 72.3897 79.7511 72.3164C79.816 72.2432 79.9301 72.2348 80.0034 72.2998C80.3848 72.6414 80.8162 72.9104 81.2959 73.0887C81.385 73.122 81.4341 73.2277 81.4016 73.3169C81.3767 73.3985 81.3117 73.4386 81.2392 73.4386Z" fill="#D67E63"/>
<path d="M85.2231 78.9952C85.2155 78.9952 85.1989 78.9952 85.1906 78.9952C84.4835 78.8569 83.7682 78.6287 83.077 78.4096C82.3699 78.1814 81.6379 77.9456 80.9226 77.8156C80.8251 77.799 80.7594 77.7015 80.776 77.6041C80.7926 77.5066 80.8901 77.4416 80.9875 77.4575C81.7271 77.5874 82.4749 77.8315 83.191 78.0597C83.8656 78.2796 84.5727 78.507 85.2556 78.637C85.353 78.6536 85.4187 78.7511 85.4021 78.8486C85.3863 78.9385 85.3047 78.9952 85.2231 78.9952Z" fill="#D67E63"/>
<path d="M82.5885 79.6391C82.5727 79.6391 82.5561 79.6391 82.5402 79.6308C81.9464 79.4676 81.3119 79.3701 80.694 79.2809C80.166 79.1993 79.6213 79.1177 79.0925 78.9961C78.9951 78.9719 78.9384 78.8736 78.9626 78.7762C78.9868 78.6787 79.0842 78.622 79.1824 78.6462C79.6946 78.7686 80.2309 78.8495 80.7514 78.9228C81.3769 79.0202 82.028 79.1185 82.6376 79.2809C82.7351 79.3051 82.7917 79.4026 82.7593 79.5008C82.7351 79.5817 82.6701 79.6391 82.5885 79.6391Z" fill="#D67E63"/>
<path d="M60.873 60.2176C61.5559 61.4055 62.4012 62.4709 63.5313 63.1464C64.2791 63.5938 64.8404 63.9436 65.5392 64.5376C66.2795 65.1723 67.1489 65.3756 67.93 65.8146C68.0758 65.8962 70.0195 67.6697 69.1734 67.8813C67.0356 68.4019 66.0355 69.8097 65.1652 71.7864C64.7347 72.771 64.962 73.9015 63.7345 73.8531C60.4258 73.7141 57.6369 70.6227 56.2137 67.9055C54.4581 64.5701 52.3762 61.4055 50.0103 58.4683C48.0432 56.0359 48.9535 52.0658 51.2711 50.0807C53.4338 48.2256 56.2469 48.4697 57.6777 51.2277C58.637 53.0828 58.6695 54.9946 59.3766 56.8822C59.783 57.956 60.2551 59.1355 60.873 60.2176Z" fill="#F9B7B7"/>
<path d="M69.3214 67.963C69.2972 67.963 69.273 67.9546 69.2481 67.9463C69.159 67.9055 69.1182 67.7997 69.159 67.7106C69.2406 67.5474 69.1998 67.4416 69.1673 67.3766C68.9067 66.8884 67.4842 66.6769 67.0204 66.6119C66.923 66.596 66.8497 66.5061 66.858 66.4086C67.0046 65.3265 65.882 64.8958 64.801 64.4802C64.3214 64.2936 63.8658 64.1228 63.5493 63.8946C63.2728 63.6913 63.1021 63.4148 62.939 63.1465C62.8415 62.9833 62.7441 62.8208 62.6224 62.6825C62.3535 62.3652 62.037 62.0727 61.728 61.7962C61.3216 61.4214 60.8903 61.039 60.5572 60.5675C60.11 59.9328 60.0125 59.3063 59.9309 58.7124C59.8493 58.1752 59.7768 57.6628 59.4596 57.1422C59.3863 57.0281 59.3047 56.9148 59.2239 56.7923C59.069 56.5724 58.9066 56.345 58.8008 56.0843C58.541 55.4337 58.6868 54.6448 59.1748 54.14C59.2397 54.0667 59.3538 54.0667 59.4271 54.1317C59.5004 54.1975 59.5004 54.3108 59.4354 54.3841C59.0532 54.7914 58.9308 55.4337 59.134 55.9543C59.2239 56.1825 59.3697 56.3775 59.5162 56.5891C59.5978 56.7032 59.6869 56.8248 59.7685 56.9548C60.1258 57.5412 60.2074 58.1102 60.289 58.6557C60.3781 59.2414 60.4597 59.7945 60.8578 60.3559C61.1668 60.795 61.5573 61.1531 61.972 61.5272C62.2886 61.8121 62.6141 62.1128 62.8982 62.4468C63.0364 62.6093 63.1422 62.7883 63.2479 62.9591C63.3945 63.2115 63.541 63.4389 63.7601 63.6022C64.0366 63.8054 64.4679 63.9679 64.9227 64.147C65.9719 64.5535 67.2644 65.05 67.2236 66.2786C68.1996 66.4328 69.1915 66.6693 69.4762 67.2058C69.582 67.4091 69.582 67.629 69.4762 67.8572C69.4513 67.9222 69.3864 67.963 69.3214 67.963Z" fill="#E58F8F"/>
<path d="M56.7265 66.4331C56.6933 66.4331 56.6691 66.4255 56.6366 66.4089C56.5475 66.3605 56.5226 66.2548 56.5717 66.1648C57.3195 64.847 58.7102 63.879 60.2059 63.6508C60.3034 63.635 60.3933 63.6999 60.4091 63.7974C60.4258 63.8949 60.3608 63.9848 60.2626 64.0007C58.8726 64.2123 57.5801 65.1069 56.8889 66.3356C56.8481 66.4006 56.7915 66.4331 56.7265 66.4331Z" fill="#E58F8F"/>
<path d="M65.0762 68.4522C64.9946 68.4522 64.9213 68.3947 64.9055 68.3139C64.8813 68.2156 64.9463 68.1182 65.0354 68.1023C65.3685 68.0207 65.67 67.7849 65.9865 67.5242C66.2796 67.2885 66.5802 67.0444 66.9458 66.8978C67.0357 66.8653 67.1415 66.9061 67.1823 66.9953C67.2148 67.0852 67.174 67.191 67.0841 67.2318C66.7676 67.3535 66.4911 67.5817 66.2229 67.8008C65.889 68.0698 65.5393 68.3539 65.1253 68.4522C65.1087 68.4522 65.0921 68.4522 65.0762 68.4522Z" fill="#E58F8F"/>
<path d="M58.2958 56.3217C58.2875 56.3217 58.2792 56.3217 58.2709 56.3217C57.832 56.256 57.1899 56.0202 56.8401 55.6628C56.7668 55.5895 56.7668 55.4754 56.8401 55.4104C56.9134 55.3371 57.0275 55.3371 57.0924 55.4104C57.344 55.6628 57.8644 55.8986 58.3283 55.9636C58.4257 55.9794 58.4907 56.0694 58.4824 56.1668C58.4582 56.2643 58.3766 56.3217 58.2958 56.3217Z" fill="#E58F8F"/>
<path d="M60.3534 60.4461C60.3368 60.4461 60.3209 60.4461 60.3043 60.4378C60.0444 60.3728 59.7679 60.2837 59.4998 60.2021C59.3615 60.1613 59.2233 60.1129 59.0934 60.0804C58.9952 60.0555 58.9468 59.9497 58.971 59.8605C58.9952 59.763 59.1009 59.7139 59.1908 59.7388C59.3207 59.7789 59.459 59.8197 59.6055 59.8688C59.8737 59.9497 60.1502 60.0396 60.4017 60.1046C60.4992 60.1288 60.5566 60.227 60.5324 60.3245C60.5075 60.3978 60.4342 60.4461 60.3534 60.4461Z" fill="#E58F8F"/>
<path d="M64.5973 74.1473H64.5889C64.0526 74.1148 63.7678 73.7974 63.5238 73.5209C63.3614 73.3418 63.2073 73.171 62.9958 73.0494C62.6868 72.8861 62.3454 72.8295 61.979 72.7645C61.5968 72.6995 61.207 72.6345 60.8248 72.4388C60.0603 72.0481 59.5972 71.5033 59.1175 70.9177C58.8244 70.5595 58.5155 70.1938 58.1257 69.8515C57.93 69.6807 57.7027 69.5507 57.4587 69.4125C57.1739 69.25 56.8815 69.0868 56.6292 68.8427C56.2553 68.4687 56.1171 68.0538 55.9871 67.6548C55.9055 67.4108 55.8247 67.1591 55.6948 66.9151C55.41 66.402 55.0444 65.9388 54.6538 65.4423C54.2958 64.9867 53.9302 64.5227 53.6378 64.0104C53.3613 63.5389 53.0766 63.0832 52.8001 62.6351C52.4828 62.1311 52.1663 61.6022 51.849 61.0732C51.7999 60.9841 51.8248 60.8783 51.914 60.8292C52.0031 60.7808 52.1089 60.805 52.158 60.8941C52.4669 61.4231 52.7918 61.9437 53.1007 62.4485C53.3772 62.8958 53.662 63.3598 53.9468 63.8313C54.2308 64.3195 54.5972 64.7751 54.9386 65.2224C55.3209 65.7023 55.7107 66.207 56.0037 66.7443C56.1579 67.0209 56.2477 67.2891 56.3286 67.5491C56.4585 67.9397 56.5643 68.2813 56.8815 68.5911C57.093 68.8027 57.3529 68.9485 57.6294 69.1034C57.8817 69.2417 58.1332 69.3883 58.3614 69.5832C58.7761 69.9414 59.0851 70.3238 59.394 70.6895C59.8488 71.2434 60.2884 71.764 60.9872 72.1214C61.3127 72.2846 61.6701 72.3496 62.0364 72.4063C62.4179 72.4713 62.8084 72.5363 63.1665 72.7237C63.443 72.8703 63.6296 73.0818 63.8003 73.2685C64.0443 73.5451 64.2392 73.7566 64.6214 73.7816C64.7189 73.7891 64.8005 73.8707 64.7921 73.9682C64.768 74.074 64.6864 74.1473 64.5973 74.1473Z" fill="#E58F8F"/>
<path d="M58.3775 47.6564C58.1992 48.1037 58.0934 48.5593 58.2641 49.0067C58.6056 49.9021 60.0854 50.756 60.8491 51.1791C61.801 51.7081 63.3291 52.5219 64.4592 52.367C65.646 52.2045 65.3536 51.2932 65.9632 50.496C66.5321 49.7555 67.5488 49.5681 68.2725 49.0558C69.2561 48.3561 70.232 47.4123 71.1181 46.5909C71.8252 45.932 72.6954 45.1831 72.9961 44.2394C73.3375 43.1739 73.1993 41.9777 73.4191 40.8798C73.6057 39.9685 74.5001 37.7552 73.4516 37.1371C73.0369 36.893 72.5814 36.7464 72.1259 36.5923C71.1748 36.2832 70.1913 36.0308 69.3293 35.5102C69.0853 35.3636 68.9229 35.2661 68.7847 35.0054C68.6381 34.7372 68.7031 34.2324 68.2884 34.2324C68.1094 34.7614 68.1501 35.3394 67.9311 35.8684C67.7113 36.3966 67.3048 36.8688 66.7602 37.0313C66.3455 37.1537 65.8983 37.0804 65.4919 36.9497C65.093 37.9917 63.8738 38.3333 62.9469 37.9018C62.5972 37.7393 62.2474 37.5603 61.9875 37.2754C61.5079 36.7464 61.1173 35.7701 60.2478 36.3233C59.6299 36.7139 59.7765 37.5844 59.9714 38.1784C60.272 39.1305 60.4835 40.1393 60.695 41.1072C61.069 42.8565 59.4018 44.8416 58.8738 46.4685C58.7514 46.8592 58.5406 47.2581 58.3775 47.6564Z" fill="#F6A383"/>
<path d="M65.6773 42.8075C65.5964 42.8075 65.5149 42.775 65.4582 42.7184C65.4174 42.6776 65.3607 42.5959 65.3683 42.4501C65.3283 42.3194 65.3607 42.1652 65.4582 42.0511C65.564 41.9212 65.7347 41.8804 65.8729 41.937C65.8888 41.9453 65.9054 41.9537 65.9213 41.962C65.9787 41.9778 66.0353 42.002 66.0844 42.0353C66.1819 42.1078 66.2302 42.2136 66.2227 42.3277C66.2144 42.401 66.1894 42.4743 66.1411 42.5393C66.1245 42.5635 66.1003 42.5884 66.0761 42.6043C66.027 42.6617 65.9621 42.7017 65.8805 42.7425C65.8079 42.7917 65.743 42.8075 65.6773 42.8075Z" fill="#894A3F"/>
<path d="M71.7273 43.7098C71.6215 43.7098 71.524 43.6615 71.4591 43.5799C71.3941 43.5149 71.345 43.4257 71.3367 43.3199C71.3292 43.1816 71.3775 43.0592 71.4749 42.9776C71.6623 42.8318 71.9388 42.9376 72.1578 42.8801C72.1903 42.8726 72.2152 42.8643 72.2477 42.8801C72.321 42.9126 72.2961 43.0109 72.2636 43.0834C72.1661 43.295 72.0362 43.6615 71.7764 43.7023C71.7597 43.7098 71.7431 43.7098 71.7273 43.7098Z" fill="#894A3F"/>
<path d="M66.0936 50.4474C65.5656 50.4315 65.0534 50.2033 64.4355 49.7152C63.7685 49.1863 63.3054 48.4707 62.8582 47.7301C62.3702 46.9246 61.8988 46.0949 61.4516 45.2735C61.0286 44.4839 60.6056 43.6383 60.5572 42.727C60.5489 42.6296 60.6305 42.5396 60.7279 42.5396C60.8254 42.5313 60.9145 42.6129 60.9145 42.7104C60.9636 43.5484 61.3459 44.3214 61.7681 45.1103C62.2078 45.9325 62.6792 46.7538 63.1588 47.551C63.5894 48.2674 64.0291 48.9505 64.6545 49.4469C65.2075 49.886 65.6464 50.0892 66.0936 50.1059C66.191 50.1059 66.2726 50.195 66.2643 50.2933C66.2726 50.3741 66.191 50.4474 66.0936 50.4474Z" fill="#D67E63"/>
<path d="M60.8982 41.2306C60.8899 41.2306 60.8816 41.2306 60.8657 41.2306C60.7683 41.214 60.7033 41.1248 60.7192 41.0274C60.7841 40.6367 60.9141 40.2702 61.0448 39.9204C61.0931 39.7904 61.1422 39.6521 61.1906 39.5221C61.3938 38.9282 61.4345 38.4884 61.3371 38.0985C61.3129 38.0003 61.3696 37.9028 61.467 37.8786C61.5645 37.8544 61.6627 37.9111 61.6869 38.0086C61.8334 38.6025 61.6702 39.2206 61.532 39.6355C61.4837 39.7738 61.4345 39.9045 61.3862 40.0428C61.2555 40.4002 61.1339 40.7342 61.0772 41.084C61.0606 41.1656 60.9873 41.2306 60.8982 41.2306Z" fill="#D67E63"/>
<path d="M61.1906 39.5378C61.1098 39.5378 61.0448 39.4894 61.0199 39.4078C60.9874 39.2854 60.9715 39.1962 60.9632 39.1146C60.9549 39.0171 60.9466 38.9521 60.89 38.838C60.7842 38.6106 60.7109 38.3582 60.6784 38.1058C60.6701 38.0083 60.7359 37.9192 60.8333 37.9026C60.9307 37.8867 61.0199 37.96 61.0365 38.0575C61.0607 38.2766 61.1256 38.4806 61.2155 38.6756C61.2964 38.838 61.3047 38.9521 61.313 39.0662C61.3213 39.1395 61.3288 39.2045 61.3538 39.2937C61.3779 39.3912 61.3288 39.4894 61.2314 39.5136C61.2231 39.5378 61.2072 39.5378 61.1906 39.5378Z" fill="#D67E63"/>
<path d="M68.7195 45.5662C68.7029 45.5662 68.687 45.5662 68.6787 45.5579C68.5813 45.5337 68.5239 45.4362 68.5488 45.3388C68.5813 45.1922 68.5813 45.0373 68.573 44.8748C68.573 44.834 68.573 44.7856 68.5646 44.7448C68.5488 44.1184 68.6946 43.492 68.9711 42.9388C69.0118 42.8489 69.1259 42.8164 69.2151 42.8572C69.3049 42.898 69.3374 43.0121 69.2966 43.1013C69.0443 43.6061 68.9144 44.1751 68.931 44.7448C68.931 44.7856 68.931 44.8257 68.931 44.8665C68.9386 45.0539 68.9469 45.2413 68.8985 45.4279C68.8736 45.5095 68.8003 45.5662 68.7195 45.5662Z" fill="#D67E63"/>
<path d="M67.9139 45.7948C67.4834 45.7948 67.0603 45.51 66.9221 45.1034C66.8896 45.0052 66.9387 44.9077 67.0362 44.8752C67.1336 44.8427 67.231 44.8918 67.2635 44.9893C67.3693 45.3067 67.7432 45.5016 68.0605 45.42C68.1579 45.3959 68.2554 45.4533 68.2803 45.5508C68.3045 45.6482 68.2471 45.7457 68.1496 45.7699C68.0763 45.7782 67.9955 45.7948 67.9139 45.7948Z" fill="#D67E63"/>
<path d="M65.2151 39.9841C65.7598 40.2689 66.2636 40.6838 66.8083 40.8954C66.9548 40.9528 67.1497 40.9853 67.2313 40.8546C67.2638 40.7979 67.2638 40.7246 67.2555 40.6596C67.2071 40.3914 66.9873 40.1956 66.7841 40.0249C66.2478 39.5692 65.6215 39.0894 64.9145 39.1544C64.703 39.171 64.4914 39.2443 64.2882 39.3093C64.1009 39.3743 62.9708 39.545 63.4913 39.7483C63.7353 39.8458 64.1417 39.6591 64.4265 39.7075C64.703 39.7483 64.9628 39.8541 65.2151 39.9841Z" fill="#C4804D"/>
<path d="M72.6533 41.1719C72.9381 41.221 73.2954 41.4734 73.3362 41.7907C73.3362 41.8149 73.3362 41.8391 73.3279 41.8633C73.2954 41.9207 73.2063 41.8965 73.1489 41.8633C72.7425 41.66 72.2711 41.6117 71.8156 41.6441C71.3608 41.6766 70.9136 41.7658 70.4581 41.8308C70.3848 41.8391 70.3033 41.8474 70.2383 41.8066C70.0517 41.6766 70.3931 41.3751 70.5072 41.3351C70.962 41.1802 71.4666 41.2293 71.9463 41.1885C72.1819 41.1719 72.4176 41.1311 72.6533 41.1719Z" fill="#C4804D"/>
<path d="M68.5003 46.7059C68.517 46.7217 68.5245 46.7459 68.5328 46.7709C68.5411 46.8192 68.5087 46.8683 68.4762 46.9091C68.3296 47.0958 68.2156 47.2265 68.0207 47.3482C67.8341 47.4623 67.6467 47.5681 67.4352 47.6489C66.9397 47.8446 66.2968 47.7796 65.972 47.3565C65.8013 47.1449 65.6789 46.9008 65.5739 46.6568C65.5248 46.5343 65.484 46.4127 65.4432 46.2827C65.4274 46.2253 65.3949 46.1686 65.3866 46.1119C65.3782 46.087 65.4024 45.9737 65.3866 45.957C65.5082 46.0545 65.6222 46.1603 65.7688 46.2336C65.8579 46.2827 65.9554 46.3152 66.0536 46.3477C66.5899 46.5343 67.1429 46.7134 67.7117 46.7134C67.899 46.7134 68.0773 46.6892 68.2563 46.6651C68.3138 46.6568 68.3704 46.6484 68.4271 46.6651C68.452 46.6651 68.4845 46.6809 68.5003 46.7059Z" fill="#D67E63"/>
<path d="M68.6053 46.6396C68.7435 46.8353 67.2962 47.1935 67.1096 47.1686C66.9306 47.1444 66.7432 47.1119 66.5725 47.0552C66.2311 46.9328 65.9387 46.7054 65.7355 46.4122C65.6131 46.2331 65.4915 46.1114 65.3691 45.9648C65.6864 46.1031 65.9221 46.3064 66.2635 46.388C67.0121 46.5671 67.7275 46.6563 68.4912 46.6238C68.532 46.5996 68.5811 46.6071 68.6053 46.6396Z" fill="#FAFAFA"/>
<path d="M72.4913 42.5471C72.06 42.9053 71.5803 42.8728 71.1006 42.6363C70.9541 42.563 70.5885 42.4171 70.4419 42.5554C70.2312 42.7421 70.6051 42.9453 70.7433 43.0186C71.353 43.336 72.1499 43.1652 72.6296 42.7013C72.727 42.6038 72.5888 42.4572 72.4913 42.5471Z" fill="#894A3F"/>
<path d="M66.3776 41.929C65.9628 41.8633 65.6131 41.8799 65.2309 41.6766C64.9219 41.5142 64.6212 41.3185 64.3448 41.1152C64.2556 41.0502 64.1416 41.1802 64.2148 41.2701C64.2315 41.286 64.2473 41.3026 64.2639 41.3185C64.5888 41.725 65.1009 42.2056 65.6055 42.368C65.9387 42.4738 66.41 42.433 66.4833 42.0348C66.4833 41.9774 66.4267 41.9366 66.3776 41.929Z" fill="#894A3F"/>
<path d="M66.4182 48.5192C66.2067 48.5192 66.0035 48.3976 65.906 48.2102C65.8569 48.121 65.8977 48.0152 65.9793 47.9661C66.0684 47.9177 66.1742 47.9585 66.2233 48.0394C66.2633 48.121 66.3691 48.1701 66.4507 48.1535C66.5481 48.1293 66.6456 48.1943 66.6622 48.2918C66.6863 48.3893 66.6214 48.4867 66.5239 48.5034C66.4915 48.5192 66.459 48.5192 66.4182 48.5192Z" fill="#D67E63"/>
</g>
<defs>
<clipPath id="clip0_108_39039">
<rect width="156.641" height="149" fill="white" transform="translate(0.410156)"/>
</clipPath>
</defs>
</svg>
