<svg xmlns="http://www.w3.org/2000/svg" xmlns:xlink="http://www.w3.org/1999/xlink" width="1080" zoomAndPan="magnify" viewBox="0 0 810 1439.999935" height="1920" preserveAspectRatio="xMidYMid meet" version="1.0"><defs><clipPath id="d722932623"><path d="M 383.699219 631.199219 L 426.449219 631.199219 L 426.449219 673.949219 L 383.699219 673.949219 Z M 383.699219 631.199219 " clip-rule="nonzero"/></clipPath></defs><path fill="#d2d3db" d="M 465.460938 618.523438 L 465.347656 568.703125 L 448.855469 559.886719 L 358.863281 559.886719 L 339.082031 568.703125 L 339.082031 763.757812 C 339.082031 764.3125 339.105469 764.8125 339.171875 765.328125 C 339.105469 765.820312 339.082031 766.3125 339.082031 766.8125 L 339.082031 981.507812 C 339.082031 995.675781 351.785156 1007.21875 367.40625 1007.21875 C 383.011719 1007.21875 395.714844 995.675781 395.714844 981.507812 L 395.714844 758.671875 C 400.050781 758.886719 404.558594 758.878906 408.84375 758.671875 L 408.84375 981.507812 C 408.84375 995.675781 421.546875 1007.21875 437.160156 1007.21875 C 452.765625 1007.21875 465.460938 995.675781 465.460938 981.507812 L 465.460938 766.8125 C 465.460938 766.40625 465.4375 766.019531 465.339844 765.648438 C 465.429688 765.023438 465.460938 764.433594 465.460938 763.757812 L 465.460938 618.523438 " fill-opacity="1" fill-rule="nonzero"/><path fill="#d2d3db" d="M 500.25 795.707031 C 499.644531 795.707031 499.023438 795.675781 498.386719 795.625 C 488.152344 794.601562 480.679688 785.472656 481.6875 775.234375 C 497.300781 618.136719 445.40625 596.785156 444.875 596.671875 C 434.816406 594.464844 428.457031 584.535156 430.648438 574.484375 C 432.847656 564.433594 442.785156 558.074219 452.820312 560.257812 C 461.609375 562.183594 538.066406 584.632812 518.761719 778.925781 C 517.8125 788.535156 509.710938 795.707031 500.25 795.707031 " fill-opacity="1" fill-rule="nonzero"/><path fill="#d2d3db" d="M 309.527344 795.707031 C 310.144531 795.707031 310.757812 795.675781 311.386719 795.625 C 321.625 794.601562 329.105469 785.472656 328.089844 775.234375 C 312.484375 618.136719 364.375 596.785156 364.917969 596.671875 C 374.960938 594.464844 381.328125 584.535156 379.125 574.484375 C 376.933594 564.433594 366.988281 558.074219 356.945312 560.257812 C 348.167969 562.183594 271.714844 584.632812 291.003906 778.925781 C 291.960938 788.535156 300.070312 795.707031 309.527344 795.707031 " fill-opacity="1" fill-rule="nonzero"/><path fill="#d2d3db" d="M 402.277344 551.808594 C 435.152344 551.808594 461.898438 525.074219 461.898438 492.203125 C 461.898438 459.332031 435.152344 432.582031 402.277344 432.582031 C 369.414062 432.582031 342.667969 459.332031 342.667969 492.203125 C 342.667969 525.074219 369.414062 551.808594 402.277344 551.808594 " fill-opacity="1" fill-rule="nonzero"/><g clip-path="url(#d722932623)"><path fill="#d2d3db" d="M 405 631.199219 C 416.761719 631.199219 426.296875 640.734375 426.296875 652.5 C 426.296875 664.261719 416.761719 673.796875 405 673.796875 C 393.234375 673.796875 383.699219 664.261719 383.699219 652.5 C 383.699219 640.734375 393.234375 631.199219 405 631.199219 Z M 405 631.199219 " fill-opacity="1" fill-rule="evenodd"/></g></svg>