<svg width="298" height="783" viewBox="0 0 298 783" fill="none" xmlns="http://www.w3.org/2000/svg">
<path d="M268.519 236.609C268.607 236.65 268.694 236.691 268.747 236.994C268.712 238.273 268.71 239.291 268.559 240.491C268.389 242.647 268.368 244.622 268.191 246.775C268.18 255.189 268.311 263.426 268.51 271.661C268.52 272.082 269.113 272.488 269.453 273.122C269.474 273.936 269.476 274.53 269.323 275.3C269.119 277.843 268.984 280.212 269.086 282.572C269.112 283.175 269.89 283.745 270.323 284.331C270.437 285.092 270.551 285.854 270.583 287.054C270.503 289.644 270.505 291.796 270.353 294.112C270.169 295.689 270.14 297.1 269.956 298.678C270.016 300.66 270.23 302.475 270.481 304.529C270.54 305.725 270.565 306.684 270.439 307.823C270.251 309.78 270.01 311.584 270.229 313.33C270.472 315.265 271.137 317.146 271.654 319.293C271.729 320.516 271.769 321.496 271.654 322.642C271.572 324.441 270.196 326.401 272.558 327.519C272.743 327.6 272.861 327.738 272.845 328.217C272.773 329.161 272.768 329.821 272.613 330.612C272.433 331.41 272.403 332.078 272.217 332.908C272.435 336.785 272.789 340.502 273.229 344.208C273.256 344.433 273.971 344.575 274.361 344.944C274.382 345.383 274.408 345.633 274.298 346.025C274.142 346.827 274.123 347.486 273.959 348.281C274.025 349.313 274.236 350.208 274.482 351.303C274.545 351.902 274.573 352.303 274.459 352.857C274.761 354.456 275.205 355.903 275.678 357.529C275.728 357.947 275.748 358.186 275.633 358.547C275.703 359.348 275.906 360.029 276.154 360.933C276.245 361.764 276.292 362.371 276.194 363.129C276.647 365.275 277.245 367.271 277.891 369.49C277.997 370.323 278.055 370.931 277.971 371.661C278.037 372.496 278.245 373.209 278.489 374.092C278.545 374.493 278.565 374.724 278.445 375.107C278.755 376.703 279.206 378.146 279.687 379.768C279.732 380.188 279.745 380.429 279.626 380.786C279.757 381.408 280.021 381.912 280.379 382.582C280.546 383.386 280.617 384.024 280.559 384.791C280.407 385.404 280.384 385.889 280.208 386.533C280.65 389.82 281.246 392.948 281.884 396.311C281.974 397.339 282.021 398.132 281.926 399.066C282.052 400.07 282.321 400.933 282.651 401.961C282.776 402.35 282.839 402.575 282.784 403.006C282.638 403.686 282.61 404.159 282.436 404.788C282.722 406.771 283.155 408.597 283.619 410.598C283.668 411.007 283.686 411.242 283.566 411.634C283.719 412.833 284.009 413.874 284.358 415.125C284.493 415.908 284.57 416.481 284.526 417.261C284.381 417.944 284.356 418.419 284.18 419.059C284.403 422.584 284.761 425.945 285.189 429.298C285.218 429.525 285.778 429.685 286.182 430.057C286.328 430.639 286.384 431.04 286.302 431.563C286.132 432.175 286.101 432.666 285.926 433.296C286.041 434.305 286.3 435.174 286.644 436.164C286.782 436.576 286.834 436.867 286.756 437.318C286.62 438.319 286.615 439.16 286.457 440.158C286.757 442.325 287.211 444.334 287.688 446.521C287.725 446.94 287.739 447.18 287.611 447.553C287.756 448.596 288.043 449.506 288.416 450.616C288.572 451.394 288.64 451.973 288.567 452.692C288.393 453.5 288.362 454.169 288.177 455.001C288.627 458.86 289.231 462.556 289.88 466.486C289.964 467.514 290.003 468.307 289.894 469.248C290.02 470.447 290.292 471.498 290.652 472.67C290.789 473.084 290.838 473.377 290.756 473.831C290.61 474.832 290.594 475.675 290.429 476.679C290.562 479.25 290.768 481.672 291.166 484.062C291.331 485.053 291.907 485.976 292.39 487.127C292.55 487.905 292.618 488.485 292.545 489.208C292.376 490.017 292.347 490.684 292.17 491.504C292.268 492.911 292.515 494.166 292.787 495.596C292.818 496.01 292.823 496.248 292.681 496.653C292.961 498.991 293.387 501.162 293.853 503.575C293.944 504.795 293.996 505.774 293.903 506.891C294.021 507.898 294.284 508.768 294.637 509.755C294.778 510.167 294.829 510.461 294.746 510.913C294.595 511.915 294.578 512.758 294.411 513.769C294.64 517.29 295.003 520.646 295.435 523.993C295.465 524.225 296.017 524.389 296.412 524.738C296.543 525.122 296.588 525.352 296.496 525.739C296.339 526.742 296.319 527.588 296.15 528.597C296.257 530.196 296.513 531.634 296.789 533.247C296.816 533.659 296.825 533.895 296.682 534.301C296.979 537.43 297.429 540.388 297.904 543.598C297.952 545.56 297.974 547.27 297.841 549.148C297.789 551.294 297.893 553.271 298 555.471C297.962 556.285 297.921 556.875 297.691 557.533C296.705 559.834 295.907 562.068 294.923 564.359C293.282 566.259 291.927 568.196 290.343 569.922C288.302 572.144 286.533 574.887 282.241 575.078C283.09 571.661 284.139 568.648 284.544 565.551C285.344 559.416 288.013 552.63 280.063 548.789C279.903 548.712 279.709 548.703 278.846 548.506C278.234 550.09 277.482 551.734 276.96 553.448C275.834 557.144 276.567 561.481 272.859 564.271C270.966 565.695 270.013 565.719 269.545 563.318C269.009 560.564 269.174 557.679 268.92 554.862C268.827 553.835 268.403 552.839 268.107 551.655C268.133 551.257 268.183 551.032 268.428 550.754C268.849 550.541 269.268 550.385 269.271 550.22C269.355 545.91 269.395 541.6 269.443 537.289C268.992 537.286 268.542 537.283 267.962 537.161C267.772 536.818 267.711 536.592 267.791 536.221C267.99 535.25 268.048 534.425 268.305 533.511C268.812 528.769 269.131 524.118 269.393 519.463C269.407 519.224 268.925 518.957 268.614 518.583C268.499 518.263 268.368 518.163 268.174 517.943C268.081 517.307 267.975 516.892 267.99 516.286C268.019 515.059 267.927 514.022 267.836 512.984C267.919 509.559 268.002 506.134 268.106 502.314C268.062 501.086 267.997 500.251 268.099 499.208C268.334 497.579 268.403 496.16 268.683 494.706C269.093 494.275 269.49 493.861 269.457 493.484C269.12 489.668 268.749 485.853 268.267 482.054C268.219 481.669 267.38 481.385 266.908 481.054C266.702 479.314 266.495 477.574 266.305 475.469C266.256 474.66 266.192 474.216 266.286 473.583C266.482 472.736 266.519 472.079 266.747 471.284C266.19 466.344 266.026 461.356 264.574 456.778C261.608 447.433 257.984 438.297 254.534 429.111C254.082 427.908 253.062 426.918 252.137 425.695C249.959 419.385 248.049 413.173 245.912 407.04C243.436 399.939 240.97 392.853 240.435 385.052C240.504 384.2 240.517 383.576 240.666 382.782C240.462 378.99 240.151 375.363 239.728 371.749C239.69 371.421 238.931 371.177 238.507 370.894C238.417 370.827 238.327 370.759 238.28 370.396C238.345 369.458 238.367 368.817 238.595 368.108C239.271 366.098 240.328 364.079 238.049 362.519C238.02 362.545 237.943 362.533 238.036 362.287C237.579 358.741 237.03 355.442 236.428 351.912C236.308 350.738 236.24 349.796 236.27 348.614C235.805 345.451 235.242 342.528 234.644 339.408C234.561 338.815 234.512 338.419 234.563 337.816C234.529 336.937 234.395 336.265 234.197 335.383C234.08 334.59 234.028 334.007 234.064 333.183C233.606 330.404 233.06 327.865 232.462 325.103C232.341 324.121 232.273 323.361 232.302 322.368C231.816 319.401 231.235 316.669 230.626 313.766C230.563 313.365 230.528 313.136 230.593 312.692C230.732 312.006 230.771 311.535 230.956 310.909C230.158 305.407 229.358 300.027 228.162 294.737C227.88 293.492 226.261 292.55 225.257 291.468C224.806 291.618 224.356 291.768 223.905 291.917C223.888 293.929 223.871 295.941 223.845 298.196C223.8 299.57 223.763 300.701 223.542 301.93C223.336 303.704 223.315 305.381 223.279 307.318C223.273 309.153 223.282 310.726 223.292 312.416C223.292 312.532 223.346 312.757 223.309 312.883C223.273 313.008 223.215 313.263 223.016 313.355C222.601 316.839 222.384 320.232 222.152 323.862C222.11 325.048 222.081 325.998 221.867 327.035C221.648 328.612 221.616 330.101 221.568 331.84C221.566 333.094 221.581 334.097 221.598 335.227C221.601 335.354 221.66 335.6 221.631 335.802C221.725 336.631 221.847 337.26 221.944 338.061C221.841 338.449 221.763 338.665 221.505 338.917C221.219 340.111 221.112 341.269 220.991 342.658C220.943 343.655 220.91 344.421 220.693 345.286C220.48 346.873 220.451 348.363 220.413 350.072C220.376 350.874 220.348 351.457 220.138 352.131C219.931 353.524 219.905 354.828 219.866 356.386C219.862 357.831 219.87 359.022 219.878 360.332C219.877 360.451 219.929 360.684 219.903 360.91C219.998 362.133 220.119 363.13 220.227 364.364C220.123 365.527 220.031 366.454 219.749 367.436C219.485 370.553 219.412 373.615 219.315 376.939C219.308 379.307 219.324 381.414 219.201 383.708C219.006 385.644 218.818 387.403 218.943 389.138C219.019 390.194 219.577 391.214 219.994 392.479C220.118 394.022 220.165 395.336 220.066 396.834C220.278 401.804 220.396 406.622 221.045 411.368C222.455 421.686 223.905 432.009 225.776 442.25C227.432 451.308 230.062 460.195 231.566 469.273C233.375 480.187 234.448 491.222 235.709 502.361C235.799 503.588 236.02 504.659 236.277 505.973C236.343 507.539 236.373 508.862 236.262 510.35C236.375 511.929 236.63 513.342 236.885 515.005C236.911 516.421 236.936 517.587 236.817 518.934C236.622 520.873 236.446 522.641 236.576 524.386C236.639 525.232 237.275 526.035 237.74 527.099C237.77 534.317 237.712 541.294 237.457 548.315C237.165 552.367 237.071 556.375 236.985 560.563C236.978 560.984 236.963 561.225 236.741 561.543C236.492 564.059 236.451 566.498 236.413 569.167C236.366 570.16 236.316 570.923 236.084 571.781C235.896 573.37 235.891 574.864 235.888 576.6C236.003 578.204 236.117 579.567 236.216 581.169C236.086 582.342 235.972 583.275 235.682 584.25C235.434 585.449 235.364 586.608 235.296 587.974C235.267 588.59 235.236 589 235.003 589.488C234.574 592.013 234.347 594.46 234.122 597.153C234.226 598.03 234.328 598.661 234.382 599.525C234.272 600.704 234.21 601.652 233.976 602.745C233.665 603.955 233.526 605.021 233.275 606.204C233.295 606.789 233.427 607.256 233.608 607.936C233.662 608.587 233.667 609.024 233.509 609.41C233.232 609.378 233.119 609.397 232.849 609.439C232.755 609.866 232.819 610.27 232.894 610.87C232.747 611.794 232.588 612.519 232.336 613.147C232.028 613.158 231.814 613.266 231.599 613.374C231.829 613.617 232.059 613.86 232.303 614.336C232.293 616.143 232.268 617.716 232.195 619.484C232.057 620.068 231.968 620.458 231.676 620.882C231.435 622.04 231.398 623.163 231.359 624.509C231.319 625.324 231.28 625.917 231.038 626.586C230.614 629.674 230.392 632.685 230.176 635.935C230.117 637.123 230.051 638.072 229.8 639.122C229.632 641.091 229.65 642.961 229.67 645.093C229.778 647.841 229.883 650.325 229.975 653.05C229.863 654.229 229.765 655.167 229.472 656.153C229.029 657.141 228.626 658.072 228.559 659.026C228.143 664.924 227.695 670.824 227.482 676.731C227.379 679.587 227.762 682.462 227.931 685.595C228.041 689.299 228.144 692.737 228.234 696.44C228.104 699.525 227.986 702.345 227.681 705.221C227.273 707.65 226.874 710.024 226.878 712.397C226.884 715.736 227.188 719.075 227.372 722.682C227.371 733.61 227.362 744.271 227.189 755.104C226.966 758.339 226.862 761.403 226.895 764.465C226.9 764.947 227.531 765.422 227.962 766.136C228.117 768.455 228.182 770.537 228.099 772.802C227.943 776.666 227.937 780.347 227.766 784.2C227.529 784.739 227.392 785.107 227.392 785.475C227.38 798.934 227.372 812.394 227.403 825.853C227.405 826.556 227.752 827.257 227.945 828.227C227.919 835.211 227.861 841.928 227.873 848.645C227.876 850.12 228.13 851.595 228.257 853.336C228.233 856.903 228.249 860.204 228.199 863.505C228.096 870.28 227.958 877.054 227.621 883.893C227.392 886.4 227.377 888.843 227.365 891.528C227.319 892.728 227.27 893.687 227.02 894.724C226.61 897.054 226.401 899.307 226.185 901.763C226.126 902.37 226.072 902.774 225.845 903.255C225.666 904.262 225.661 905.191 225.652 906.359C225.57 907.389 225.49 908.18 225.226 909.037C224.66 911.344 224.278 913.584 223.907 916.048C224.02 916.545 224.123 916.818 224.156 917.205C224.086 917.32 223.908 917.521 223.704 917.551C222.878 920.416 222.257 923.252 221.629 926.281C221.574 926.726 221.525 926.979 221.289 927.288C220.715 929.208 220.329 931.071 219.933 933.116C219.877 933.534 219.831 933.772 219.621 934.062C219.448 934.676 219.438 935.238 219.412 935.98C219.353 936.396 219.312 936.633 219.089 936.926C218.681 938.105 218.457 939.228 218.217 940.529C218.151 940.939 218.101 941.17 217.89 941.46C217.708 942.079 217.687 942.642 217.662 943.435C217.573 944.273 217.488 944.881 217.224 945.547C216.68 947.658 216.315 949.71 215.942 952.008C216.014 952.89 216.095 953.526 216.103 954.156C216.031 954.148 215.941 954.034 215.749 954.054C215.503 954.825 215.448 955.576 215.385 956.535C215.321 957.155 215.267 957.566 215.021 958.053C214.451 961.141 214.074 964.154 213.693 967.383C213.806 968.408 213.922 969.217 214.017 970.246C213.892 971.037 213.789 971.608 213.498 972.222C213.238 973.798 213.165 975.331 213.095 977.048C213.076 977.476 213.053 977.72 212.822 978.034C212.221 980.727 211.643 983.34 211.491 985.977C211.371 988.056 211.775 990.166 211.955 992.53C211.954 996.614 211.942 1000.43 211.775 1004.41C211.505 1011.87 213.041 1018.74 217.746 1024.43C220.228 1027.44 223.179 1030.2 226.367 1032.44C229.788 1034.83 233.638 1036.69 237.478 1038.38C241.65 1040.22 246.063 1041.5 250.286 1043.23C251.171 1043.59 251.927 1044.76 252.254 1045.73C252.372 1046.08 251.154 1047.11 250.381 1047.5C242.245 1051.6 233.403 1050.47 224.772 1050.82C222.325 1050.92 219.861 1050.5 217.408 1050.55C211.823 1050.64 206.239 1051.05 200.658 1050.99C196.904 1050.96 192.978 1050.81 190.764 1046.78C190.52 1046.34 189.647 1046.25 188.92 1045.84C187.909 1043.68 187.042 1041.66 186.148 1039.47C186.082 1039.07 186.044 1038.85 186.104 1038.44C186.074 1037.76 185.945 1037.26 185.821 1036.5C185.735 1033.22 185.644 1030.2 185.685 1026.93C185.792 1020.73 185.766 1014.77 185.916 1008.66C186.16 1005.28 186.273 1002.07 186.249 998.854C186.245 998.357 185.614 997.864 185.251 997.118C184.776 993.919 184.324 990.971 183.871 988.023C183.878 987.298 183.884 986.572 184.188 985.597C185.305 984.232 185.784 983.185 183.935 982.607C183.832 982.196 183.729 981.785 183.709 980.997C183.762 978.418 183.731 976.215 183.849 973.836C184.014 971.876 184.033 970.092 184.209 968.136C184.111 965.772 183.856 963.579 183.578 961.207C183.547 960.787 183.537 960.546 183.679 960.143C183.551 958.363 183.272 956.747 182.973 954.95C182.951 954.527 182.947 954.285 183.094 953.89C183.194 952.387 184.499 950.606 182.034 949.851C181.919 949.612 181.828 949.543 181.82 949.247C181.828 948.229 181.753 947.438 181.807 946.432C181.939 945.217 181.943 944.218 182.09 943.044C182.259 941.461 182.283 940.054 182.464 938.476C182.367 936.315 182.113 934.324 181.799 932.136C181.65 931.128 181.562 930.317 181.617 929.345C181.782 928.152 181.801 927.119 181.973 925.917C181.674 922.796 181.224 919.844 180.745 916.672C180.688 915.861 180.659 915.269 180.782 914.518C180.679 912.932 180.424 911.504 180.109 909.836C179.942 907.675 179.835 905.755 179.867 903.671C180.021 902.476 180.035 901.446 180.202 900.256C180.113 898.654 179.872 897.211 179.607 895.594C179.576 895.188 179.569 894.955 179.707 894.55C179.687 892.074 179.567 889.765 179.303 887.473C179.268 887.17 178.5 886.952 178.076 886.458C178.042 885.433 178.004 884.644 178.113 883.698C178.284 882.51 178.308 881.48 178.485 880.285C178.381 878.507 178.124 876.894 177.806 875.074C177.679 874.295 177.614 873.724 177.671 872.917C177.794 871.468 177.794 870.254 177.95 868.877C177.705 865.172 177.316 861.627 176.862 858.091C176.84 857.915 176.252 857.813 175.927 857.676C175.812 857.378 175.698 857.08 175.65 856.447C175.719 855.094 175.722 854.078 175.868 852.899C176.044 851.704 176.077 850.671 176.262 849.457C176.466 846.369 176.572 843.459 176.526 840.553C176.516 839.939 175.947 839.333 175.61 838.505C175.587 837.695 175.589 837.105 175.742 836.334C175.947 825.963 176.004 815.774 176.033 805.586C176.034 805.255 175.742 804.923 175.572 804.334C175.59 802.367 175.624 800.659 175.853 798.855C176.222 798.241 176.543 797.723 176.544 797.205C176.576 786.088 176.589 774.971 176.536 763.854C176.532 763.13 175.968 762.408 175.637 761.483C175.597 760.873 175.584 760.466 175.716 759.904C175.457 758.141 175.053 756.533 174.596 754.701C174.493 753.865 174.442 753.253 174.526 752.51C174.393 751.702 174.125 751.025 173.785 750.186C173.646 749.799 173.579 749.574 173.639 749.165C173.798 748.687 173.828 748.391 173.996 747.944C173.469 745.944 172.804 744.096 172.044 742.094C171.889 741.705 171.828 741.471 171.892 741.139C172.043 740.727 172.068 740.413 172.233 739.962C171.781 738.204 171.19 736.582 170.545 734.774C170.453 734.331 170.417 734.075 170.498 733.723C170.375 733.3 170.134 732.974 169.816 732.49C169.664 732.111 169.588 731.89 169.633 731.479C169.77 730.994 169.788 730.696 169.94 730.275C169.5 728.709 168.926 727.269 168.298 725.604C168.192 724.772 168.139 724.162 168.21 723.454C168.069 723.035 167.805 722.716 167.497 722.447C167.453 722.497 167.321 722.522 167.432 722.335C167.561 721.859 167.579 721.57 167.727 721.155C167.445 720.157 167.033 719.286 166.563 718.23C166.474 717.789 166.444 717.532 166.545 717.157C166.393 716.544 166.11 716.051 165.744 715.454C165.661 715.35 165.523 715.122 165.644 714.934C165.786 714.45 165.808 714.154 165.972 713.72C165.513 711.77 164.911 709.957 164.26 707.932C164.106 707.299 164.003 706.879 164.067 706.365C163.966 705.781 163.698 705.289 163.403 704.826C163.376 704.855 163.298 704.844 163.379 704.616C163.094 702.982 162.728 701.574 162.355 699.938C162.311 699.1 162.274 698.491 162.388 697.786C162.323 697.173 162.106 696.657 161.831 695.961C161.705 695.538 161.638 695.295 161.799 694.942C162.137 694.1 162.38 693.36 162.336 692.637C161.964 686.616 161.555 680.597 161.096 674.582C161.061 674.122 160.552 673.698 160.201 673.107C159.963 672.893 159.787 672.83 159.611 672.767C159.56 665.922 159.51 659.076 159.537 651.757C159.478 647.2 159.342 643.117 159.206 639.034C159.26 638.812 159.314 638.589 159.451 638.004C159.611 636.056 159.687 634.472 159.97 632.811C160.279 632.578 160.474 632.419 160.471 632.265C160.253 621.833 160.033 611.401 159.773 600.97C159.725 599.078 159.541 597.186 159.355 595.3C158.454 586.171 157.852 576.996 156.507 567.932C155.541 561.425 153.678 555.037 151.942 548.671C151.662 547.641 149.984 546.406 148.899 546.352C147.849 546.301 146.306 547.413 145.732 548.437C144.586 550.481 143.517 552.751 143.185 555.039C141.502 566.644 139.987 578.276 138.606 589.921C138.313 592.389 138.822 594.952 138.968 597.677C138.952 598.293 138.929 598.703 138.702 599.198C138.335 599.608 138.043 599.927 138.026 600.26C137.581 609.079 137.152 617.899 136.769 626.721C136.739 627.421 137.064 628.136 137.237 629.109C137.216 631.833 137.183 634.293 136.95 636.849C136.593 638.039 136.322 639.13 136.292 640.228C135.815 657.732 137.363 675.291 135.036 692.739C134.163 699.279 133.026 705.799 131.658 712.253C130.213 719.07 128.331 725.793 126.7 732.572C126.568 733.123 126.901 733.786 127.003 734.572C126.945 734.977 126.903 735.208 126.68 735.515C125.352 740.407 124.044 745.191 123.127 750.049C122.692 752.358 123.002 754.808 122.98 757.375C122.966 757.796 122.947 758.036 122.727 758.366C122.348 759.452 122.023 760.446 122.014 761.442C121.947 768.818 121.92 776.195 121.923 783.571C121.926 792.401 121.963 801.232 122.001 810.062C122.073 826.65 122.188 843.235 120.383 859.769C120.072 862.617 120.59 865.556 120.729 868.685C120.695 869.686 120.656 870.455 120.424 871.319C119.921 873.223 119.429 875.025 119.34 876.846C119.134 881.081 119.124 885.326 119.034 889.829C119.124 891.666 119.214 893.24 119.243 894.93C119.182 895.046 119.049 895.271 118.829 895.316C118.431 895.679 118.122 895.986 118.094 896.316C117.484 903.544 116.81 910.77 116.371 918.01C116.209 920.686 116.614 923.397 116.766 926.347C116.724 928.116 116.677 929.631 116.432 931.24C115.679 937.334 115.057 943.33 114.613 949.339C114.484 951.078 114.869 952.854 115.026 954.873C114.973 957.014 114.914 958.897 114.669 960.891C114.354 961.251 114.124 961.494 114.109 961.75C113.505 971.871 112.756 981.987 112.385 992.116C112.093 1000.09 112.252 1008.08 112.259 1016.07C112.26 1017.07 112.559 1018.07 112.732 1019.27C112.732 1019.9 112.72 1020.32 112.503 1020.82C112.12 1021.8 111.852 1022.69 111.777 1023.59C111.34 1028.87 111.287 1034.21 110.448 1039.42C109.559 1044.95 106.086 1050.52 99.5231 1050.51C84.8474 1050.48 70.17 1050.62 55.4968 1050.43C52.0966 1050.38 48.4283 1050.15 45.8292 1047.15C44.6677 1045.81 44.4751 1044.47 45.9779 1043.52C48.5112 1041.93 51.0705 1040.15 53.8759 1039.27C59.8018 1037.4 65.5023 1035.23 70.9042 1032.07C80.7156 1026.33 85.3475 1017.61 85.849 1006.63C86.2214 998.475 85.9421 990.288 85.8801 982.115C85.8736 981.264 85.3715 980.416 85.0846 979.355C85.0624 978.578 85.055 978.012 85.1758 977.253C84.5414 970.121 83.9791 963.153 82.9495 956.255C82.199 951.227 80.8131 946.295 79.7445 941.313C78.1845 934.04 76.6168 926.769 75.1246 919.482C73.9503 913.748 72.3332 908.035 71.8909 902.237C71.0695 891.472 70.9174 880.653 70.5785 869.853C70.4386 865.393 70.5961 860.922 70.4659 856.461C70.4434 855.689 69.6577 854.939 69.1847 853.915C69.1627 848.712 69.1805 843.772 69.4059 838.761C69.7511 837.87 70.005 837.051 70.0097 836.231C70.162 809.006 69.6227 781.788 71.4753 754.568C72.394 741.07 71.4556 727.437 71.1748 713.87C70.8845 699.839 70.3882 685.813 69.9268 671.787C69.8927 670.75 69.414 669.727 69.1172 668.441C69.0653 666.102 69.0382 664.019 69.1611 661.753C69.0745 656.202 68.9207 650.828 68.5582 645.468C68.4248 643.496 67.7985 641.559 67.3694 639.363C67.3143 637.978 67.2869 636.835 67.4112 635.512C67.3827 630.326 67.3744 625.306 66.9535 620.321C66.7231 617.592 65.7955 614.923 65.149 611.987C65.0777 610.786 65.0395 609.823 65.1484 608.69C64.6571 604.994 64.0187 601.47 63.3532 597.769C63.3153 597.355 63.3047 597.118 63.4443 596.703C63.0242 588.521 62.4608 580.516 61.8563 572.515C61.8341 572.22 61.4096 571.956 61.1468 571.422C61.0853 568.713 61.0496 566.259 61.1651 563.625C61.22 557.678 61.0633 551.912 61.0446 546.146C61.0265 540.56 61.1999 534.975 61.1978 529.389C61.1958 523.937 61.0783 518.484 61.0031 512.774C60.8866 511.328 60.7783 510.139 60.7293 508.727C60.8587 507.74 60.929 506.975 61.214 506.153C61.9376 502.606 62.6231 499.13 62.9075 495.621C63.2216 491.745 63.1679 487.839 63.2758 483.74C63.3165 483.124 63.3558 482.714 63.5789 482.226C64.1767 479.32 64.5907 476.493 65.0053 473.433C64.9196 472.753 64.8332 472.306 64.8033 471.889C64.8598 471.921 64.9739 471.981 65.1499 471.967C65.3836 471.383 65.4413 470.812 65.524 470.007C65.8556 467.435 66.1623 465.097 66.5601 462.557C66.793 461.178 66.9347 460.001 67.2703 458.726C67.8635 456.558 68.2629 454.489 68.6987 452.406C68.735 452.393 68.7869 452.451 68.9783 452.446C69.2307 451.899 69.2916 451.357 69.4187 450.651C69.5397 450.259 69.5946 450.03 69.8187 449.735C70.1981 448.729 70.4084 447.789 70.6439 446.676C70.7142 446.273 70.7592 446.043 70.9642 445.753C71.1513 445.128 71.1784 444.563 71.2189 443.759C71.3269 442.733 71.4215 441.946 71.6834 441.093C72.2018 439.355 72.5528 437.682 72.9243 435.765C72.8659 434.882 72.7869 434.244 72.7751 433.607C72.8423 433.608 72.9059 433.726 73.0712 433.737C73.3027 433.358 73.3689 432.968 73.4533 432.358C73.5384 431.552 73.6053 430.966 73.849 430.312C74.2195 429.123 74.4132 428.002 74.629 426.707C74.6964 426.302 74.7416 426.072 74.9479 425.781C75.1282 425.157 75.1475 424.593 75.176 423.826C75.0667 422.997 74.9483 422.372 74.8481 421.526C74.9783 420.736 75.0903 420.167 75.3614 419.575C75.597 418.952 75.6736 418.352 75.7613 417.548C75.8177 416.939 75.863 416.534 76.0923 416.052C76.4889 414.286 76.7014 412.596 76.923 410.651C76.8493 409.383 76.7664 408.371 76.7205 407.121C76.8099 405.752 76.8621 404.621 77.0938 403.336C77.4221 401.004 77.5708 398.826 77.9106 396.569C78.0859 394.83 78.0703 393.172 78.0503 391.29C78.0737 390.471 78.1017 389.875 78.3399 389.203C78.7438 388.722 79.1037 388.317 79.106 387.911C79.1439 381.316 79.1623 374.719 79.0953 368.124C79.0893 367.531 78.4651 366.944 78.1086 366.131C78.0799 365.311 78.0706 364.714 78.2185 363.958C78.386 362.088 79.5395 360.146 77.2931 358.718C77.1755 358.322 77.1462 358.083 77.2739 357.672C77.252 355.334 77.0734 353.168 76.8976 350.746C76.8137 348.805 76.7268 347.121 76.7762 345.203C76.9107 343.557 76.9091 342.145 77.0624 340.576C76.7795 338.212 76.3417 336.006 75.8753 333.581C75.8106 332.778 75.7744 332.193 75.8691 331.508C75.7437 330.859 75.4875 330.311 75.1401 329.535C74.9753 327.98 74.9016 326.651 74.9803 325.156C75.1468 323.581 75.1609 322.173 75.3291 320.602C75.2456 318.805 75.0079 317.172 74.7458 315.32C74.6947 314.516 74.668 313.931 74.794 313.195C74.6726 311.796 74.3985 310.549 74.1069 309.12C74.0792 308.696 74.069 308.453 74.2108 308.068C74.1339 306.844 73.9049 305.762 73.6488 304.439C73.5799 303.064 73.5381 301.93 73.6539 300.626C73.6797 298.036 73.6774 295.6 73.3713 293.202C73.1604 291.55 71.4097 291.068 70.7618 292.205C69.7049 294.059 69.4737 296.385 68.8779 298.687C68.8263 299.093 68.7911 299.325 68.5854 299.623C68.3835 300.438 68.3519 301.187 68.3093 302.138C68.2593 302.743 68.2204 303.146 68.0048 303.629C67.6269 305.019 67.4256 306.331 67.2009 307.817C67.1327 308.221 67.0879 308.452 66.8807 308.739C66.6891 309.363 66.6599 309.929 66.6199 310.743C66.7037 311.634 66.7985 312.276 66.8551 313.112C66.7299 313.691 66.6429 314.076 66.371 314.481C66.0144 314.925 65.8425 315.348 65.63 316.012C65.0768 320.793 64.5642 325.334 63.9155 329.907C63.7914 330.306 63.8034 330.672 63.7951 331.215C63.7372 331.625 63.6996 331.859 63.4748 332.163C63.0715 333.735 62.8554 335.237 62.6269 336.992C62.7005 338.069 62.7864 338.894 62.8365 339.888C62.7326 340.276 62.6646 340.495 62.4337 340.711C62.2232 341.1 62.1756 341.491 62.1141 342.112C62.0336 343.101 61.9669 343.861 61.7209 344.704C61.3454 346.288 61.1494 347.789 60.9419 349.509C60.87 350.307 60.8097 350.887 60.5737 351.554C60.3892 352.759 60.3803 353.878 60.3638 355.249C60.2748 356.852 60.1933 358.202 59.9322 359.623C59.755 360.787 59.7574 361.88 59.753 363.152C59.7206 363.568 59.6949 363.805 59.473 364.121C59.0629 366.647 58.8491 369.093 58.6289 371.778C58.5471 372.962 58.4717 373.908 58.2308 374.95C58.079 376.161 58.0928 377.276 58.0968 378.629C58.0162 379.814 57.9453 380.761 57.7164 381.771C57.5491 382.398 57.5397 382.961 57.5153 383.701C57.467 384.114 57.4336 384.35 57.2125 384.654C56.8015 386.224 56.5781 387.725 56.3401 389.441C56.2562 390.082 56.1868 390.507 55.9434 390.998C55.4112 392.733 55.0529 394.403 54.664 396.245C54.5783 396.644 54.5232 396.87 54.3259 397.148C54.157 397.585 54.1303 397.97 54.0837 398.53C54.02 398.933 53.9762 399.163 53.7563 399.461C53.2001 400.85 52.8199 402.17 52.409 403.664C52.3279 404.069 52.2773 404.299 52.0472 404.602C50.5093 408.251 49.0942 411.806 47.82 415.41C47.2947 416.897 47.0721 418.491 46.6825 420.207C46.5988 420.606 46.5445 420.832 46.3162 421.136C45.9422 421.523 45.6797 421.808 45.5516 422.145C43.0032 428.836 40.4536 435.527 37.9688 442.242C37.7867 442.734 38.0958 443.408 38.147 444.171C38.0652 444.572 38.0129 444.8 37.7822 445.1C36.2949 448.8 34.986 452.429 33.6573 456.274C33.432 457.462 33.2267 458.434 32.8998 459.484C32.7058 459.736 32.6333 459.909 32.5231 460.29C32.4267 461.06 32.3681 461.621 32.1362 462.245C31.9285 463.05 31.8941 463.793 31.8352 464.741C31.7977 465.361 31.7848 465.775 31.5718 466.259C31.1461 468.583 30.9204 470.837 30.6978 473.296C30.6595 473.908 30.6183 474.316 30.3932 474.8C30.2058 475.994 30.2023 477.112 30.1955 478.483C30.2821 480.466 30.3721 482.196 30.456 484.105C30.354 484.737 30.2581 485.191 29.9507 485.675C29.6982 487.019 29.6572 488.332 29.6128 489.876C29.5578 490.878 29.5061 491.647 29.2566 492.501C28.8525 496.168 28.6463 499.749 28.4419 503.598C28.4381 506.921 28.4324 509.977 28.2642 513.204C28.0569 515.596 27.8047 517.839 28.0338 520.031C28.2126 521.742 28.9895 523.39 29.5244 525.298C29.5617 526.309 29.5753 527.087 29.43 528.02C29.3813 529.593 29.4914 531.011 29.6064 532.691C29.5842 534.856 29.5571 536.76 29.3218 538.733C28.3489 540.75 27.6411 542.695 29.5539 544.667C29.567 545.492 29.5659 546.092 29.4015 546.865C29.1848 550.797 29.0952 554.558 29.1193 558.317C29.1227 558.848 29.6804 559.375 30.001 560.094C30.0024 560.665 29.9843 561.046 29.7928 561.507C28.3814 564.13 27.4069 567.027 23.5258 565.835C23.27 565.757 22.7184 566.252 22.4713 566.599C20.812 568.933 19.2092 571.306 17.5662 573.651C15.7423 576.254 14.4282 576.578 12.0482 574.496C9.93754 572.65 7.99049 570.561 6.25363 568.356C4.2376 565.797 2.52958 562.994 0.651732 560.123C0.594267 559.713 0.572909 559.477 0.704536 559.088C0.737843 555.082 0.651228 551.228 0.482312 547.377C0.413768 545.814 0.165977 544.259 0 542.52C0.0235325 542.099 0.0468378 541.859 0.26414 541.548C0.473198 540.172 0.488225 538.867 0.506626 537.32C0.408324 535.719 0.306647 534.361 0.222102 532.796C0.34625 532.196 0.453266 531.803 0.71972 531.387C0.941335 530.766 1.0035 530.167 1.07336 529.362C1.12738 528.748 1.17373 528.34 1.40921 527.861C1.81108 526.103 2.02381 524.416 2.24626 522.473C2.17699 521.203 2.09799 520.19 2.09489 519.176C2.17081 519.175 2.24294 519.308 2.43732 519.295C2.67803 518.526 2.72435 517.771 2.77687 516.78C2.67253 515.374 2.56199 514.202 2.46288 512.824C2.57755 512.225 2.68074 511.832 2.94702 511.421C3.18803 510.802 3.26595 510.201 3.35651 509.418C3.40177 508.997 3.43436 508.758 3.66526 508.452C4.07945 506.321 4.29534 504.256 4.51635 501.931C4.43568 500.466 4.3499 499.262 4.29748 497.845C4.41977 497.068 4.50871 496.503 4.77651 495.921C4.98576 495.334 5.01616 494.763 5.0536 493.961C5.12956 492.961 5.19847 492.192 5.45248 491.343C5.83607 489.391 6.03456 487.518 6.24085 485.426C6.31218 484.626 6.37568 484.045 6.61065 483.382C6.77318 482.366 6.76423 481.433 6.76061 480.258C6.65912 478.665 6.55228 477.313 6.45965 475.753C6.5714 475.149 6.66897 474.752 6.93026 474.337C7.17678 473.719 7.2596 473.118 7.35274 472.312C7.40521 471.698 7.4474 471.289 7.66725 470.824C7.8839 470.022 7.92292 469.277 7.96313 468.35C7.99059 467.929 8.01687 467.689 8.2301 467.391C8.44125 466.4 8.46542 465.467 8.49614 464.301C8.4053 462.895 8.3079 461.723 8.21581 460.372C8.32821 459.745 8.43532 459.296 8.73419 458.826C8.96873 458.051 9.01151 457.297 9.05802 456.321C9.11987 455.513 9.17798 454.926 9.42977 454.259C9.81847 452.306 10.0134 450.434 10.2179 448.341C10.289 447.539 10.3507 446.957 10.5894 446.29C10.7639 445.086 10.7614 443.967 10.7626 442.607C10.6631 441.009 10.5598 439.652 10.4671 438.088C10.5768 437.488 10.676 437.095 10.9379 436.683C11.1749 436.063 11.249 435.462 11.3335 434.656C11.392 434.044 11.44 433.636 11.6805 433.156C12.0855 431.206 12.298 429.329 12.5143 427.196C12.4343 425.926 12.3504 424.912 12.2973 423.701C12.41 423.116 12.4922 422.728 12.7527 422.324C12.964 421.737 12.9969 421.167 13.0353 420.352C13.1306 419.132 13.2203 418.157 13.471 417.144C13.6242 416.559 13.6163 416.012 13.6235 415.285C13.6777 414.87 13.7168 414.634 13.9345 414.342C14.1517 413.541 14.1905 412.796 14.2367 411.846C14.2997 411.241 14.3553 410.838 14.5777 410.362C14.7332 409.542 14.722 408.797 14.7217 407.819C14.6377 406.407 14.5428 405.228 14.4601 403.828C14.5831 403.038 14.6939 402.468 14.9633 401.875C15.1919 401.255 15.2618 400.659 15.345 399.884C15.3919 399.466 15.4256 399.228 15.6521 398.921C16.0577 397.165 16.2704 395.478 16.4922 393.538C16.4132 392.459 16.3251 391.634 16.2774 390.639C16.3898 390.25 16.4616 390.03 16.7136 389.798C16.9368 389.218 16.9798 388.651 17.0286 387.845C17.1169 386.816 17.1994 386.026 17.4697 385.172C18.0218 382.677 18.3861 380.247 18.7605 377.562C18.6748 376.48 18.579 375.652 18.5305 374.656C18.6604 374.273 18.7431 374.058 18.9871 373.842C19.2143 373.456 19.28 373.07 19.3591 372.507C19.4183 372.098 19.4641 371.866 19.6861 371.567C20.0766 370.373 20.2911 369.247 20.515 367.881C20.4295 367.187 20.3345 366.731 20.3102 366.278C20.3808 366.28 20.4613 366.397 20.6465 366.394C20.8876 365.822 20.9435 365.253 21.0112 364.455C21.1026 363.623 21.1823 363.019 21.4439 362.357C21.825 361.007 22.0243 359.715 22.2323 358.245C22.2781 357.833 22.3151 357.6 22.5156 357.31C22.6925 356.691 22.7059 356.127 22.7274 355.308C22.6533 354.036 22.571 353.021 22.5187 351.834C22.6368 351.103 22.725 350.544 22.9555 349.97C23.157 349.539 23.2162 349.124 23.2858 348.488C23.3517 347.681 23.4074 347.095 23.6531 346.433C24.0601 344.484 24.2771 342.609 24.4961 340.478C24.4107 339.208 24.3233 338.195 24.308 337.184C24.38 337.187 24.461 337.307 24.6631 337.286C24.9015 336.328 24.9377 335.391 24.9805 334.205C24.891 332.411 24.7949 330.866 24.7101 329.115C24.8176 328.519 24.9139 328.127 25.1809 327.708C25.4327 326.896 25.5137 326.111 25.5999 325.142C25.6258 324.714 25.6463 324.47 25.8671 324.165C26.112 322.801 26.1567 321.499 26.2062 320.015C26.2343 319.593 26.2576 319.353 26.4804 319.037C26.698 317.279 26.7162 315.597 26.7343 313.662C26.6315 311.678 26.5288 309.946 26.4375 307.954C26.5715 306.009 26.6941 304.324 26.9907 302.592C27.2014 301.388 27.2381 300.231 27.2782 298.824C27.3368 297.246 27.3921 295.918 27.6441 294.506C27.8644 292.554 27.8879 290.688 27.91 288.638C27.9269 288.21 27.9452 287.965 28.1723 287.647C28.411 285.326 28.4411 283.077 28.4686 280.563C28.3991 277.776 28.3321 275.255 28.2973 272.48C28.3618 270.148 28.3941 268.07 28.6057 265.835C28.8703 262.387 29.0331 259.097 29.0174 255.807C29.0038 252.925 28.7896 250.045 28.6715 246.9C28.8015 244.565 28.9241 242.493 29.2253 240.384C29.4639 239.196 29.5238 238.045 29.5781 236.685C29.6232 236.062 29.6739 235.649 29.9195 235.168C30.3118 233.226 30.5092 231.351 30.7096 229.223C30.6333 228.145 30.5542 227.32 30.5308 226.379C30.5866 226.263 30.7474 226.062 30.9535 226.034C31.7681 223.551 32.3768 221.095 33.0046 218.46C33.0747 218.045 33.1256 217.811 33.3614 217.515C34.156 216.299 34.7976 215.159 35.3688 213.984C36.5252 211.606 37.5235 209.143 38.8011 206.834C41.9686 201.109 45.7392 195.846 50.5598 191.339C54.8917 187.289 59.2116 183.317 65.1353 181.716C66.1397 181.445 67.0975 180.999 68.1032 180.734C70.8132 180.019 73.5095 178.938 76.2612 178.755C84.1945 178.227 91.5462 175.519 98.9456 173.055C102.844 171.757 106.543 169.813 110.243 167.982C113.182 166.527 116.197 165.077 118.784 163.106C120.987 161.427 123.125 159.278 124.433 156.87C130.48 145.738 128.48 134.29 125.036 122.935C124.39 120.805 123.216 118.736 121.887 116.934C118.918 112.907 115.711 109.056 112.572 105.156C111.595 103.942 110.526 102.8 109.438 101.476C109.316 101.119 109.255 100.912 109.236 100.492C108.371 98.8393 107.464 97.4005 106.505 95.8092C106.385 95.4524 106.318 95.2481 106.313 94.823C105.53 92.7506 104.684 90.899 103.796 88.8464C103.701 88.2384 103.649 87.8313 103.729 87.3472C103.683 86.9054 103.505 86.5406 103.281 85.9777C103.18 85.3768 103.125 84.974 103.222 84.4542C102.962 83.2523 102.549 82.1676 102.09 80.8659C101.994 80.0594 101.945 79.4701 102.028 78.7917C101.932 78.3687 101.702 78.0346 101.392 77.5031C101.231 76.3021 101.151 75.2984 101.216 74.1097C101.373 71.3946 101.437 68.8634 101.383 66.3347C101.314 63.0915 101.151 59.8504 101.044 56.3775C101.188 54.9769 101.316 53.8073 101.625 52.6205C101.843 52.0331 101.879 51.4629 101.924 50.6735C102.003 49.8742 102.071 49.294 102.318 48.6478C102.696 47.4547 102.896 46.3278 103.113 44.9989C103.206 44.3991 103.281 44.0013 103.494 43.548C103.634 43.1108 103.635 42.729 103.654 42.167C103.712 41.7487 103.753 41.5108 103.982 41.2094C105.372 38.0839 106.59 35.0279 107.771 31.9572C108.435 30.2292 109.036 28.4768 109.715 26.5537C110.009 25.796 110.254 25.2199 110.702 24.6321C112.458 22.4702 114.069 20.3595 115.537 18.1528C116.22 17.1262 116.622 15.9131 117.184 14.6727C117.216 14.5607 117.309 14.3474 117.51 14.3449C118.385 13.719 119.037 13.0706 119.736 12.4767C123.515 9.26567 126.857 5.04101 131.21 3.13998C136.063 1.02082 141.813 0.807819 147.219 0.154542C152.539 -0.48834 157.655 1.01442 162.856 2.09151C167.49 3.05119 170.893 5.36811 174.096 8.49711C176.001 10.358 178.091 12.0284 180.147 13.888C180.197 13.9916 180.267 14.21 180.217 14.4207C181.274 15.8789 182.382 17.1266 183.533 18.4802C183.578 18.5861 183.641 18.8069 183.605 19.001C183.918 19.4953 184.267 19.7954 184.666 20.1977C184.715 20.2998 184.787 20.5144 184.748 20.7259C185.454 21.9744 186.199 23.0115 186.991 24.1561C187.038 24.2637 187.101 24.4897 187.053 24.6771C187.317 25.1967 187.63 25.5287 187.997 26.0104C188.118 26.3614 188.185 26.5628 188.201 26.967C188.651 27.8741 189.152 28.5784 189.703 29.4628C189.851 30.0024 189.951 30.3619 189.978 30.9378C191.11 33.9705 192.314 36.7868 193.561 39.7737C193.642 40.1758 193.679 40.4074 193.583 40.7676C194.02 42.3332 194.591 43.7703 195.219 45.4397C195.342 46.4655 195.408 47.2589 195.325 48.1854C195.412 49.2043 195.65 50.09 195.921 51.1901C196.109 52.5416 196.263 53.6788 196.276 54.8558C196.031 55.1903 195.927 55.4852 195.822 55.78C196.059 55.7344 196.296 55.6889 196.706 55.6366C196.978 55.5741 197.078 55.5185 197.186 55.6916C197.287 57.4827 197.381 59.0452 197.323 60.7469C197.105 61.7133 197.039 62.5405 196.831 63.4161C196.788 63.8717 196.887 64.2789 197.008 64.9175C197.015 66.0782 197 67.0073 196.843 67.9832C196.79 68.4386 196.88 68.8473 196.995 69.4138C197.182 69.8206 197.343 70.0697 197.495 70.5462C197.393 72.1405 197.301 73.5075 197.007 74.9761C196.597 77.1328 196.387 79.1879 196.131 81.4135C196.058 81.8179 196.032 82.0518 195.824 82.3915C195.488 83.1845 195.334 83.872 195 84.6216C193.307 89.2006 191.795 93.7176 190.297 98.2475C190.31 98.2606 190.281 98.2351 190.09 98.2707C186.921 102.433 183.984 106.59 180.951 110.675C178.823 113.542 176.34 116.167 174.433 119.166C172.775 121.774 171.059 124.538 171.39 128.095C171.342 128.502 171.314 128.735 171.124 129.041C170.922 129.854 170.882 130.594 170.824 131.512C170.78 131.931 170.755 132.171 170.54 132.505C170.018 133.935 169.434 135.265 169.399 136.609C169.31 140.073 168.526 143.668 170.732 147.031C170.785 147.442 170.812 147.678 170.711 148.071C170.661 152.619 172.63 156.256 175.395 159.435C182.127 167.173 191.628 170.074 200.755 173.517C204.264 174.841 207.99 175.603 211.642 176.525C214.095 177.144 216.569 177.874 219.07 178.068C227.67 178.734 235.574 181.414 242.334 186.686C251.05 193.483 257.723 201.999 261.907 212.355C262.491 213.801 263.428 215.104 264.243 216.643C264.327 217.041 264.368 217.27 264.269 217.623C264.821 219.222 265.512 220.699 266.296 222.329C266.393 222.718 266.396 222.954 266.21 223.243C266.542 225.74 267.065 228.184 267.637 230.862C267.733 231.888 267.779 232.681 267.674 233.629C267.473 234.704 267.415 235.623 267.423 236.542C267.423 236.568 268.138 236.587 268.519 236.609Z" fill="#5C6477"/>
</svg>
