<svg width="340" height="490" viewBox="0 0 340 490" fill="none" xmlns="http://www.w3.org/2000/svg">
<g clip-path="url(#clip0_101_1144)">
<mask id="mask0_101_1144" style="mask-type:luminance" maskUnits="userSpaceOnUse" x="0" y="22" width="341" height="622">
<path d="M0.283203 22.375H340.991V643.494H0.283203V22.375Z" fill="white"/>
</mask>
<g mask="url(#mask0_101_1144)">
<path d="M1.27477 413.996C7.98625 417.258 14.8498 419.743 22.1824 421.295C26.3937 422.229 30.6082 422.538 34.9748 421.762C36.8475 421.453 38.4097 422.85 38.096 424.869C37.627 427.354 37.1612 429.994 36.8475 432.477C35.9127 440.555 34.6642 448.629 31.3877 456.395C30.1392 459.344 29.515 462.606 28.8907 465.713C26.0832 479.38 24.8347 493.356 24.5241 507.178C23.8999 536.064 22.6514 564.951 18.9059 593.682C18.7506 595.08 18.4369 595.856 16.8779 596.322C14.0703 597.098 12.3528 599.117 11.5733 601.757C11.2628 602.688 10.9491 603.776 10.7938 604.706C8.29679 614.958 9.23158 617.443 17.9711 623.187C31.2324 632.041 45.8976 637.942 61.1869 642.289C63.8392 643.068 66.4915 643.532 69.299 643.377C75.3862 643.222 78.5043 638.409 76.0105 632.817C74.6035 629.555 72.265 627.07 69.4574 624.742C66.0225 621.947 62.2802 619.616 58.5347 617.131C52.7611 613.406 47.615 609.056 42.621 604.552C41.6862 603.776 41.5278 602.842 41.8415 601.603C45.7423 585.604 48.7051 569.455 51.6711 553.302C55.5718 531.251 60.0937 509.351 66.3362 487.922C69.1437 478.446 72.4203 469.129 72.734 459.035C72.734 457.48 73.1998 455.928 73.6688 454.531C75.6968 446.611 78.0385 438.69 79.9081 430.77C80.5323 427.663 82.8741 426.266 84.2778 423.935C84.5915 423.314 85.0574 423.781 85.3711 424.093C88.0233 426.575 91.4551 427.354 94.8869 428.13C98.7877 429.061 102.688 429.373 106.589 429.682C107.838 429.682 108.462 429.994 108.617 431.392C109.397 439 109.242 446.456 106.276 453.597C104.248 458.414 103.468 463.382 103.313 468.507C101.595 509.042 102.064 549.419 104.248 589.954C104.406 592.594 104.561 595.08 102.064 597.098C100.66 598.183 100.191 600.202 99.7225 602.066C99.1014 604.397 98.6324 606.725 98.3187 609.211C97.3839 617.598 98.6324 619.771 106.434 623.345C114.391 626.915 122.813 628.467 131.239 630.177C140.134 632.041 149.026 633.284 158.076 633.593C160.883 633.593 163.691 633.747 166.343 632.508C169.933 630.798 171.023 627.691 169.154 624.275C167.747 621.79 165.719 619.925 163.535 618.064C159.166 614.491 154.485 611.542 149.495 608.744C143.721 605.328 137.482 602.842 131.708 599.272C129.991 598.183 129.366 597.098 129.366 595.08C129.525 574.735 130.615 554.39 132.332 534.2C134.205 513.08 136.857 491.959 142.317 471.46C144.814 461.984 147.777 452.512 148.401 442.573C148.401 441.952 148.557 441.485 149.181 441.331C154.02 439.466 158.855 437.448 164.16 438.845C168.371 439.933 172.43 441.485 176.641 442.728C187.72 446.298 198.015 445.368 207.376 438.069C209.407 436.514 211.59 435.117 213.773 433.719C220.326 429.215 227.504 428.13 235.15 430.149C239.361 431.392 243.572 432.634 247.942 433.874C257.148 436.36 265.729 434.808 273.372 429.061C275.4 427.509 277.272 425.954 279.145 424.247C282.266 421.453 285.854 419.743 290.068 419.276C293.186 418.967 296.463 418.5 299.429 417.57C305.982 415.393 308.01 411.823 306.916 405.145C306.137 400.796 304.419 397.067 302.391 393.188C298.96 386.819 294.904 380.918 291.782 374.55C282.891 356.845 279.459 337.898 278.835 318.332C278.21 295.969 280.704 273.76 284.45 251.705C289.13 224.22 293.345 196.731 294.904 168.775C295.683 155.42 295.997 142.065 298.18 128.864C298.491 127 298.96 126.379 300.988 126.688C308.789 127.464 316.591 128.085 324.392 128.243C329.538 128.398 334.222 127.464 338.278 124.048C339.213 123.272 341.241 122.651 340.306 120.944C339.368 119.544 337.964 120.787 336.716 121.253C333.753 122.496 330.787 122.651 328.135 120.787C326.107 119.389 325.172 116.904 325.641 115.043C326.262 112.866 328.293 111.314 330.787 111.002C333.129 110.848 335.157 111.469 337.029 112.712C337.34 113.021 337.654 113.333 338.119 113.488C339.368 114.264 340.147 113.642 339.992 112.403C339.837 110.381 339.368 108.52 337.185 107.586C336.405 107.277 335.467 106.965 334.843 106.501C324.392 100.442 313.625 95.1617 302.86 89.727C301.926 89.2601 301.301 88.6388 300.677 87.8628C297.556 84.2923 293.5 81.9613 288.975 80.7185C287.882 80.4094 286.478 79.9426 285.543 80.4094C283.201 81.6522 281.487 80.564 279.614 79.788C276.962 78.6998 274.31 77.4571 271.657 76.5266C270.095 75.9052 269.94 75.1293 270.409 73.7319C271.813 69.3823 273.53 65.0326 275.713 60.8407C279.301 54.0086 281.329 46.8643 280.549 39.0987C280.083 34.9067 278.835 31.0239 275.244 28.5383C267.288 22.7914 258.238 20.9272 248.722 23.8796C241.075 26.2074 238.113 31.6452 239.047 39.5655C239.206 40.496 238.892 41.2719 238.582 42.051C237.019 45.7761 237.019 49.3499 238.582 53.075C238.892 53.8509 239.047 55.0937 240.296 54.63C241.544 54.1632 241.075 53.2327 240.765 52.4536C239.672 49.5044 239.206 46.5521 240.92 43.4483C243.262 46.243 245.914 47.7948 249.346 48.1071C251.529 48.4162 253.716 48.1071 255.744 47.4857C257.303 47.0189 257.772 47.4857 257.772 49.0376C257.927 52.1445 257.303 55.2514 256.21 58.2006C254.495 63.1716 252.778 68.2941 251.529 73.4197C251.219 74.5079 250.75 74.9747 249.657 75.2838C245.914 76.372 242.169 77.4571 238.268 78.5453C236.709 79.0121 235.15 79.788 233.588 78.0785C233.277 77.7693 232.339 77.6148 231.715 77.7693C226.569 78.3907 221.42 79.4758 216.739 81.4976C215.801 81.9613 214.553 82.5827 214.553 83.5163C214.553 85.8441 212.838 85.8441 211.435 86.4655C209.248 87.2415 207.065 88.0174 205.037 88.7965C200.201 90.5029 195.521 92.3671 190.996 94.8526C188.654 96.2499 186.626 97.9595 185.223 100.133C184.288 101.685 183.819 103.24 184.288 104.946C184.443 105.722 184.909 106.189 185.692 106.034C186.316 105.88 186.626 105.413 186.626 104.792C186.471 102.306 187.875 101.221 190.213 100.909C193.179 100.442 194.897 101.221 195.987 103.549C197.235 106.034 196.925 108.362 195.363 110.226C193.648 112.09 191.462 112.557 188.654 111.469C187.72 111.16 186.782 110.381 186.157 111.624C185.533 112.712 186.626 113.333 187.251 113.955C188.81 115.352 190.682 116.44 192.869 117.061C197.704 118.301 202.385 119.701 207.376 119.389C208.938 119.389 210.497 119.544 212.059 119.389C213.304 119.389 213.618 119.856 213.304 121.099C211.435 130.262 208.782 139.113 203.633 147.033C202.695 148.588 201.605 149.985 201.136 151.692C200.826 152.934 200.201 153.089 199.108 152.934C181.167 151.07 163.225 151.228 145.125 151.228C143.41 151.228 142.942 150.761 142.942 149.051C143.252 142.686 141.382 137.094 137.637 131.814C136.078 129.64 132.957 128.085 132.957 125.758C132.957 123.427 134.985 120.944 135.764 118.459C135.919 117.683 136.388 117.216 137.013 116.749C147.467 108.983 152.926 98.2686 154.644 85.6896C156.203 73.8865 149.964 63.3262 139.665 59.4433C138.106 58.822 137.168 58.046 136.544 56.491C131.084 43.2906 117.198 35.2158 103.623 37.8559C92.8589 39.8746 83.343 44.8456 75.852 52.9204C75.0725 53.6964 74.293 54.3177 73.1998 54.7846C67.8952 56.8033 63.5287 60.0647 60.0937 64.5689C54.3233 72.3346 50.4226 80.8762 49.6431 90.5029C48.8604 100.287 50.8916 109.296 58.3794 116.44C59.1589 117.216 59.0036 117.837 58.6899 118.613C57.4414 121.408 56.1961 124.36 54.9476 127.155C52.2953 133.056 50.5778 139.113 51.3574 145.635C51.5126 147.187 50.7331 147.966 49.4846 148.43C45.2733 149.985 42.4658 153.089 39.9688 156.508C35.4437 162.564 32.012 169.087 28.4249 175.61C20.7786 189.895 14.0703 204.496 10.0143 220.337C8.29679 227.169 11.5733 232.14 18.4369 232.916C20.7786 233.225 22.6514 234.001 24.5241 235.244C31.3877 240.369 39.034 243.476 47.1461 245.804C52.1369 247.204 51.9816 247.204 52.6059 252.327C53.5438 259.317 53.0748 266.149 52.9196 273.138C52.9196 274.381 52.4506 275.933 53.3854 276.709C54.7892 278.264 54.0096 279.507 53.5438 280.904C49.3293 291.152 43.4006 300.315 37.7855 309.79C27.8006 326.407 18.2816 343.335 11.5733 361.661C5.64452 377.656 2.05746 394.118 0.65052 411.201C0.339979 412.29 0.029439 413.22 1.27477 413.996ZM192.71 178.559C187.72 190.053 180.853 200.301 173.989 210.707C168.84 218.627 163.691 226.547 159.79 235.089C159.01 236.641 158.231 238.35 157.762 240.06C157.296 242.079 156.203 242.7 154.33 242.233C154.02 242.079 153.551 242.233 152.616 242.233C149.339 242.233 145.749 242.855 142.162 244.097C138.106 245.495 134.047 245.495 129.991 243.785C128.432 243.164 127.963 242.542 128.118 240.991C128.587 234.313 129.991 227.945 131.863 221.422C133.426 215.833 135.295 210.398 136.388 204.805C137.482 198.595 137.013 192.693 134.985 186.792C134.205 184.306 134.36 184.152 137.013 183.839C155.11 181.666 173.365 179.493 191.462 176.853C192.086 176.695 192.71 176.386 193.179 176.853C193.648 177.471 193.024 178.092 192.71 178.559ZM128.901 270.344C128.432 268.013 128.432 265.685 128.432 263.354C128.432 261.957 129.056 261.802 130.149 262.266C132.019 263.045 133.581 263.821 134.829 265.527C137.948 269.722 140.289 274.381 144.659 277.488C145.28 277.952 145.125 278.573 144.814 279.04C141.538 288.824 138.416 298.609 135.609 308.548C135.609 308.702 135.454 308.702 134.985 309.169C133.736 300.16 131.863 291.619 129.68 283.077C129.366 281.525 128.901 280.128 128.432 278.573C127.963 276.867 127.183 275.157 128.587 273.447C129.525 272.671 129.056 271.429 128.901 270.344ZM303.174 99.5114C303.485 97.9595 303.64 96.2499 303.485 94.698C303.174 92.6793 304.109 92.9884 305.202 93.6098C311.91 97.0258 318.463 100.442 325.172 103.861C326.886 104.792 328.604 105.722 330.632 106.81C325.951 108.52 322.051 110.693 322.364 115.973C322.675 121.099 326.576 123.272 331.101 124.669C329.073 125.603 327.2 125.603 325.327 125.603C317.06 125.291 308.944 124.824 300.677 124.203C298.804 124.048 298.491 123.272 298.804 121.72C300.519 114.421 301.926 106.965 303.174 99.5114ZM212.214 116.44C205.506 116.282 198.953 116.44 191.931 114.109C196.301 112.245 198.794 109.45 198.015 104.946C197.235 100.287 194.428 97.9595 188.968 98.114C190.838 96.4044 192.555 95.6285 194.273 94.8526C200.201 92.0579 206.285 90.0361 212.525 88.0174C214.087 87.5537 214.242 88.0174 214.398 89.2601C215.335 97.9595 214.711 106.501 213.463 115.043C213.304 115.819 213.304 116.44 212.214 116.44Z" fill="#373737"/>
</g>
<path d="M287.571 215.06C287.102 218.476 286.633 221.892 286.012 225.308C284.764 233.541 283.36 241.77 282.112 250.003C281.953 250.933 281.643 251.867 281.018 252.643C276.024 258.544 271.033 264.6 265.105 269.571C263.546 270.811 262.921 270.657 262.297 268.792C259.021 260.408 255.275 252.176 251.374 244.101C249.346 239.752 248.253 239.442 243.887 241.307C236.24 244.568 229.377 249.069 222.044 253.264C220.64 254.04 219.233 254.662 217.988 255.592C216.115 256.835 215.646 256.213 215.022 254.349C212.994 246.741 210.811 239.13 207.845 231.831C205.817 226.706 204.882 226.397 200.512 229.813C194.897 234.162 189.124 238.354 183.195 242.237C181.946 243.168 181.167 243.013 180.543 241.616C177.111 235.093 173.676 228.57 170.089 222.047C169.62 221.271 170.089 220.962 170.399 220.495C175.707 212.108 181.167 203.721 186.782 194.87C188.655 198.753 190.214 202.478 191.931 206.052C192.4 207.14 192.869 208.225 193.49 209.313C194.428 211.332 195.987 211.799 197.86 211.02C199.888 210.244 201.761 209.159 203.478 208.071C207.69 205.43 211.59 202.478 215.336 199.529C216.581 198.598 217.205 198.753 217.83 200.15C219.702 204.655 221.575 209.159 223.448 213.663C224.383 215.836 225.321 218.164 226.569 220.183C228.128 223.135 230.156 223.756 233.277 222.668C235.305 222.047 237.02 220.962 238.893 219.874C243.573 217.079 247.943 213.972 252.312 210.865C254.651 209.159 254.651 209.159 255.899 211.799C257.927 216.303 259.955 220.804 261.983 225.308C262.452 226.242 262.763 227.173 263.232 228.103C264.791 231.21 265.884 231.677 268.692 229.658C274.621 225.463 280.394 221.116 285.854 216.303C286.168 215.682 286.478 215.06 287.571 215.06ZM134.205 323.304C134.047 323.925 134.047 324.546 134.516 325.168C140.6 333.709 146.529 342.096 152.616 350.638C153.861 352.344 155.11 352.502 156.672 351.414C161.039 348.619 165.095 345.667 169.154 342.563C176.642 336.816 183.974 331.069 191.462 325.322C195.208 322.528 196.456 322.682 199.577 326.256C205.662 333.088 210.342 340.854 214.398 349.083C215.491 351.259 216.581 353.433 217.674 355.606C218.299 356.694 218.923 357.006 220.016 356.073C220.64 355.606 221.42 355.142 222.199 354.521C229.221 349.241 235.771 343.185 242.324 337.438C246.694 333.555 247.318 333.709 251.374 337.747C256.524 342.872 261.204 348.307 266.039 353.745C267.288 355.142 267.912 354.985 269.005 353.587C271.813 349.704 274.776 345.825 277.587 342.096C278.211 341.163 278.521 340.232 278.366 339.144C277.897 336.04 277.587 332.933 277.273 329.981C276.962 325.789 276.649 321.597 276.338 317.093C274.31 319.578 272.748 321.906 271.033 323.925C269.005 326.256 267.912 326.101 266.198 323.616C265.26 322.219 264.48 320.821 263.701 319.421C260.111 313.365 256.524 307.309 253.092 301.252C251.999 299.388 251.219 299.234 249.657 300.631C243.573 306.066 237.02 311.191 230.467 316.005C228.752 317.247 227.035 318.645 225.162 319.733C222.044 321.752 220.64 321.439 218.768 318.023C217.674 316.005 216.581 313.831 215.646 311.658C212.37 304.978 209.093 298.146 204.724 291.935C202.071 288.207 201.605 288.052 198.015 291.001C191.462 296.281 184.909 301.874 178.359 307.154C173.365 311.191 168.371 314.92 162.756 318.178C159.011 320.2 157.762 319.888 155.424 316.472C151.523 310.57 147.622 304.514 143.566 298.455C143.097 297.836 142.942 297.057 142.004 296.748C141.849 296.903 141.693 297.057 141.693 297.057C138.886 305.599 136.389 314.453 134.205 323.304ZM295.683 126.228C294.593 125.761 293.345 125.761 292.252 125.761C291.317 125.916 291.472 126.846 291.317 127.468C289.91 134.612 289.286 141.911 289.444 149.21C289.755 156.666 291.003 163.965 292.252 171.264C292.876 156.512 293.5 141.756 295.997 127.313C295.997 127.004 296.152 126.537 295.683 126.228ZM2.83729 408.72C5.48956 382.786 13.4464 358.713 25.6145 335.728C32.3228 322.994 39.9691 310.725 47.3016 298.146C50.5782 292.556 53.5441 286.809 56.038 280.753C56.507 279.82 56.8207 279.044 58.066 279.51C61.6562 280.908 65.4017 280.908 68.9888 280.753C84.5919 280.595 100.192 279.82 115.795 278.422C118.602 278.113 121.568 277.646 124.221 276.713C125.155 276.404 125.78 276.404 126.09 277.492C129.367 290.225 132.957 302.804 133.423 316.005C133.423 317.247 133.112 318.336 132.802 319.421C124.845 351.105 123.283 383.249 128.118 415.555C128.587 418.35 129.056 421.144 129.68 423.784C130.149 425.494 129.525 426.115 127.963 426.27C122.972 427.046 117.823 427.513 112.674 427.513C106.59 427.513 100.347 427.046 94.4183 425.648C92.5487 425.182 90.6759 424.718 88.9584 423.784C85.9956 422.387 85.5267 420.99 85.6819 417.883C86.6199 405.304 86.7752 392.879 87.0857 380.3C87.7099 358.091 87.5547 335.883 88.8032 313.831C89.1137 309.636 89.4274 305.599 89.738 301.562C89.738 300.631 90.6759 299.076 88.9584 298.767C87.2441 298.612 87.5547 300.319 87.3994 301.407C86.3062 311.191 85.8372 320.976 85.5267 330.76C84.7471 356.54 84.7471 382.164 83.6539 407.944C83.4986 411.827 83.4986 415.709 82.8744 419.592C82.0949 424.251 80.5327 425.958 75.8524 426.115C64.4638 426.27 53.2304 425.958 42.1524 422.542C37.6273 421.144 37.0063 420.056 37.7858 415.397C39.9691 402.042 43.0903 388.842 45.7426 375.487C48.3949 362.441 51.0471 349.395 53.6994 336.195C53.8547 335.573 53.8547 335.107 54.0099 334.485C54.0099 333.864 53.6994 333.243 53.0752 333.243C52.4509 333.088 51.9819 333.555 51.8267 334.176C51.6714 334.485 51.6714 334.952 51.5129 335.261C46.6774 359.025 41.8418 382.94 37.0063 406.701C36.2236 410.429 35.4441 414 35.2888 417.883C35.2888 419.28 34.5093 419.435 33.416 419.592C30.7638 419.901 28.1115 419.901 25.4592 419.435C18.4372 418.35 11.7289 416.019 5.17585 413.379C3.3031 412.448 2.68202 411.205 2.83729 408.72ZM115.326 306.22C115.481 306.842 115.64 307.309 115.795 307.93C117.354 313.365 118.758 318.645 119.696 324.237C121.099 331.845 121.879 339.611 122.814 347.377C122.972 348.307 122.814 349.395 124.062 349.241C125.155 349.241 125.155 348.307 125.155 347.686C123.752 333.4 121.879 319.578 117.823 306.22C117.823 306.066 117.668 305.757 117.668 305.599C117.354 304.978 117.043 304.514 116.264 304.823C115.481 304.978 115.326 305.599 115.326 306.22ZM54.7895 319.112C54.7895 319.733 55.2585 320.2 55.8827 320.2C56.9759 320.042 56.9759 318.957 57.2865 318.178C60.4077 307.463 63.8395 296.903 68.9888 286.964C69.2993 286.188 69.9236 285.412 68.8335 284.791C67.8956 284.169 67.4297 285.1 66.9608 285.721C66.6471 286.188 66.3365 286.809 66.1812 287.273C61.501 297.057 57.9107 307.309 55.1032 317.714C54.7895 318.178 54.7895 318.645 54.7895 319.112ZM253.558 95.0109C264.167 94.8563 272.593 89.8853 280.084 82.5864C275.245 80.2586 270.409 78.549 265.574 76.5303C261.828 74.9784 258.083 73.8902 254.182 75.7544C254.027 75.7544 253.871 75.7544 253.716 75.9089C248.098 77.4608 242.638 79.0158 237.02 80.5677C236.24 80.7223 235.305 80.88 235.93 82.1196C238.893 88.6425 244.042 95.1654 253.558 95.0109ZM264.48 123.121C254.651 122.188 244.977 120.945 235.15 120.169C233.902 120.014 233.119 120.327 233.433 121.566C234.057 127.468 234.836 133.215 236.396 138.807C237.333 142.069 238.582 145.172 241.076 147.812C243.573 150.453 246.225 150.765 249.346 148.901C251.688 147.503 253.402 145.639 254.965 143.62C259.486 137.873 262.608 131.351 265.729 124.828C266.198 123.588 265.729 123.276 264.48 123.121ZM234.992 117.996C245.135 118.617 255.12 119.86 265.26 120.945C266.819 121.103 267.443 120.636 268.067 119.238C270.096 113.337 272.282 107.435 274.465 101.534C276.338 96.2536 278.521 90.9735 280.705 85.8479C280.394 85.8479 280.394 85.6933 280.394 85.8479C279.615 86.4692 278.835 87.0906 278.052 87.8666C272.437 92.683 266.198 95.7868 259.021 97.1841C248.877 99.0482 241.234 95.4777 235.93 86.6238C235.616 86.1601 235.305 85.6933 234.992 85.0719C233.277 95.6322 232.808 106.038 233.277 116.598C233.119 117.841 233.902 117.841 234.992 117.996ZM293.345 123.588C294.593 123.43 296.308 124.828 296.777 122.5C298.336 114.113 299.898 105.883 301.302 97.4964C301.612 95.6322 301.457 93.9226 300.208 92.0617C299.584 94.544 298.96 96.875 298.336 99.0482C296.152 106.505 293.655 113.958 292.407 121.724C292.252 122.5 291.938 123.588 293.345 123.588Z" fill="#373737"/>
<path d="M63.6843 161.944C65.0881 154.954 63.529 151.383 57.1313 147.81C61.9668 145.791 66.0229 147.034 69.6131 150.295C70.3926 151.071 71.3274 151.693 72.1101 152.468C72.7343 152.935 73.3586 153.402 73.9828 152.626C74.6039 151.85 74.1381 151.229 73.6691 150.762C72.5759 149.674 71.4858 148.743 70.0821 147.501C74.2934 145.791 78.3494 145.636 82.4055 147.034C83.3434 147.346 83.8092 148.122 84.4335 148.743C86.3062 151.229 88.179 153.711 89.5827 156.509C94.4183 165.36 99.4123 174.214 103.158 183.531C103.468 184.462 103.937 185.55 105.186 185.55C106.59 185.55 107.059 184.462 107.524 183.373C110.646 176.075 112.674 168.467 114.546 160.856C115.481 157.13 116.105 153.402 116.73 149.519C117.043 148.122 117.509 147.655 118.916 147.967H119.071C126.249 148.898 126.559 149.207 126.715 156.351C126.873 162.565 128.118 168.467 129.681 174.368C131.24 180.733 133.112 187.256 134.516 193.625C135.609 198.75 134.516 203.876 133.268 208.844C131.24 216.609 128.432 224.063 127.184 231.983C126.715 234.623 126.404 237.263 126.249 239.903C126.09 241.613 125.624 241.767 124.062 241.304C112.829 237.885 102.22 232.762 91.4555 227.946C82.7192 224.063 74.1381 219.716 65.0881 216.143C58.2245 213.503 51.2025 211.638 43.8699 210.862C41.9971 210.708 41.9971 210.087 42.7767 208.689C48.3949 197.353 54.3237 186.171 59.3145 174.677C60.8768 170.794 62.7463 166.603 63.6843 161.944ZM277.742 345.355C275.09 348.771 272.593 352.187 269.94 355.603C268.226 357.78 266.978 357.78 264.949 355.915C264.325 355.294 263.546 354.518 262.921 353.742C258.707 348.926 254.651 344.112 250.126 339.608C246.07 335.571 247.005 335.88 243.107 339.299C236.396 345.201 229.843 351.257 222.668 356.537C218.299 359.644 217.205 359.486 214.712 354.673C212.37 350.014 210.028 345.355 207.376 340.696C204.413 335.725 200.981 330.912 197.081 326.562C195.987 325.32 194.897 325.165 193.649 326.099C192.245 327.184 190.683 328.272 189.124 329.36C180.229 336.347 171.493 343.491 162.287 350.014C160.573 351.257 158.7 352.342 156.827 353.43C154.799 354.673 152.927 354.206 151.523 352.499C150.743 351.566 149.964 350.635 149.181 349.547C144.346 342.715 139.51 335.88 134.671 329.202C134.361 328.739 134.047 327.805 133.112 327.805C132.957 328.581 132.643 329.36 132.643 329.978C127.497 355.294 126.249 380.764 129.056 406.389C129.836 413.997 131.084 421.608 133.268 428.907C134.047 431.393 134.83 433.875 136.858 435.739C140.759 439.467 145.28 440.243 150.119 437.916C156.203 434.963 162.287 434.963 168.685 437.294C172.586 438.692 176.487 439.934 180.543 441.019C189.124 443.196 197.081 441.953 204.413 436.827C207.221 434.809 210.187 432.945 212.994 431.08C219.547 426.734 226.569 425.646 234.212 427.355C237.958 428.131 241.7 429.374 245.29 430.614C249.346 431.856 253.558 432.635 257.927 432.323C264.791 431.856 270.409 428.753 275.245 424.094C280.084 419.432 285.699 416.792 292.407 416.328C295.373 416.174 298.336 415.394 301.143 413.997C303.485 412.754 304.578 410.89 304.578 408.25C304.578 404.68 303.64 401.418 302.237 398.157C300.519 394.428 298.649 390.858 296.463 387.442C288.506 375.017 282.736 361.662 279.615 347.219C279.459 346.131 279.459 345.043 278.835 344.112C278.211 344.421 278.052 344.888 277.742 345.355ZM276.183 261.958C272.906 265.686 269.471 269.256 265.415 272.209C263.232 273.761 261.984 273.448 260.89 271.121C260.424 270.032 259.955 268.947 259.487 267.859C256.368 259.939 252.623 252.328 249.036 244.72C248.253 243.01 247.163 242.389 245.446 243.323C243.262 244.408 240.921 245.341 238.893 246.426C232.184 250.155 225.631 254.037 218.923 257.92C215.491 259.784 214.398 259.318 213.305 255.747C213.149 254.968 212.839 254.347 212.684 253.571C210.652 246.272 208.469 239.127 205.662 232.141C204.882 230.277 204.413 229.81 202.696 231.207C197.391 235.557 191.621 239.594 185.847 243.477C181.322 246.584 180.543 246.272 177.89 241.458C174.924 235.711 171.806 229.964 168.685 223.908C168.216 224.684 167.906 224.997 167.592 225.46C162.601 233.226 159.635 241.925 156.672 250.467C156.203 251.706 156.827 252.173 157.762 252.64C160.573 254.192 163.381 255.589 166.033 257.299C168.84 259.005 171.337 261.182 172.741 264.289C173.99 267.083 173.834 269.723 171.962 272.209C166.812 279.041 157.296 282.148 149.181 279.508C147.777 279.041 147.467 279.508 146.998 280.593C146.063 283.545 145.28 286.494 144.19 289.134C142.942 291.932 143.411 293.951 145.125 296.433C149.495 302.492 153.551 309.015 157.607 315.226C158.545 316.778 159.635 317.245 161.197 316.157C162.756 315.226 164.315 314.296 165.719 313.362C174.459 307.46 182.415 300.628 190.527 293.951C193.18 291.774 195.677 289.601 198.484 287.582C201.292 285.564 203.009 285.873 205.193 288.513C207.221 290.998 208.938 293.639 210.497 296.433C214.087 302.647 217.205 309.324 220.327 315.693C221.886 318.797 222.044 318.954 225.007 316.778C232.809 311.189 240.141 305.287 247.474 299.073C251.688 295.503 252.623 295.657 255.586 300.474C259.645 307.306 263.701 314.138 267.602 321.128C268.381 322.525 269.006 322.525 269.94 321.282C271.503 319.109 273.062 316.778 274.779 314.759C276.024 313.207 276.493 311.498 276.493 309.479C276.493 295.812 277.587 282.148 279.615 268.481C280.084 264.598 280.708 260.869 281.174 256.987C278.99 258.542 277.587 260.248 276.183 261.958ZM188.968 194.092C190.527 197.195 191.931 200.457 193.335 203.564C196.301 210.087 196.301 210.087 202.23 206.204C206.441 203.564 210.497 200.457 214.398 197.353C216.74 195.643 218.143 195.956 219.547 198.438C220.171 199.681 220.796 200.924 221.42 202.166C223.448 206.825 225.162 211.638 227.349 216.3C229.687 221.423 230.467 221.581 235.306 219.095C240.455 216.455 245.135 213.039 249.815 209.62C255.12 205.737 255.744 205.895 258.552 211.951C260.893 216.919 263.077 221.89 265.26 226.861C265.884 228.1 266.353 228.413 267.602 227.482C274.465 222.202 281.643 217.385 287.571 211.017C288.04 210.399 288.351 209.932 288.506 209.156C290.068 197.974 290.848 186.947 289.91 175.611C289.286 168.776 288.351 161.944 287.571 155.266C286.012 141.287 288.506 127.623 291.783 114.11C293.345 107.433 295.528 100.91 297.401 94.3867C298.649 89.728 297.556 87.397 293.345 85.0692C292.562 84.6024 291.627 84.1387 290.848 83.8264C285.074 81.4955 285.388 82.1168 283.046 86.6211C279.77 93.2985 277.273 100.288 274.779 107.433C271.189 117.838 267.443 128.244 261.673 137.871C259.021 142.375 256.21 146.725 252.154 149.986C250.281 151.383 248.253 152.468 246.539 152.468C242.793 152.468 239.831 150.607 237.489 147.034C234.526 142.375 233.433 137.095 232.498 131.815C229.843 116.75 230.467 101.686 231.874 86.6211C232.029 84.9146 232.184 83.0505 232.34 81.3409C232.498 80.2559 232.184 79.6345 230.936 79.789C226.255 80.565 221.73 81.3409 217.364 83.205C216.581 83.5173 215.957 84.1387 216.271 85.0692C217.988 94.699 217.519 104.326 216.115 113.956C214.243 126.689 211.277 138.959 203.944 149.828C202.854 151.383 202.385 153.248 202.071 155.266C200.202 168.154 195.677 180.112 189.124 191.294C188.344 192.073 188.344 193.003 188.968 194.092ZM61.9668 278.11C62.2805 278.11 62.5911 278.11 62.9048 278.11C71.4858 279.041 80.0669 278.11 86.3062 277.953C96.2911 277.489 103.937 277.022 111.58 276.555C115.95 276.246 120.475 275.625 124.687 274.07C126.404 273.448 127.184 272.363 126.715 270.499C126.09 268.014 126.09 265.528 126.249 263.046C126.404 261.491 125.935 261.027 124.376 260.869C114.702 260.093 104.872 259.163 95.3563 257.299C82.2502 254.813 69.2994 251.552 56.1965 248.136C55.4138 247.981 54.01 246.893 54.3237 249.066C55.5722 256.056 55.4138 263.2 55.1032 270.19C55.1032 276.401 56.038 277.489 61.9668 278.11Z" fill="#9394A5"/>
<path d="M77.7256 430.46C75.3871 438.847 72.8901 447.234 71.0173 455.621C70.862 456.552 70.3931 457.64 70.3931 458.725C70.0825 469.285 66.4923 479.224 63.5295 489.321C56.9764 511.684 52.6067 534.515 48.5507 557.342C45.7431 572.718 42.9324 587.937 39.0348 603.002C38.7211 604.245 39.3453 604.866 40.1249 605.642C44.1809 609.989 49.0196 613.408 53.6999 617.133C56.9764 619.773 60.4082 622.258 63.2158 625.52C63.6848 625.987 64.4643 626.45 63.9953 627.23C63.6848 627.539 62.9052 627.539 62.7468 627.539C59.4734 627.384 56.9764 626.608 54.4794 625.52C44.4946 620.707 34.665 615.426 25.7734 608.904C25.3045 608.591 24.8355 608.128 24.3665 607.815C21.4037 605.642 20.1552 603.002 20.7794 599.119C24.8355 569.145 26.3945 539.173 27.0188 508.89C27.3325 493.98 28.7363 479.224 31.8575 464.472C32.4818 461.832 33.106 459.037 34.1961 456.552C37.9416 448.01 38.5658 438.847 39.9696 429.839C40.2801 428.132 39.8143 425.956 41.0628 425.025C42.1529 424.095 44.0256 425.492 45.5878 425.956C55.7279 428.287 66.0233 428.754 76.4771 428.596C78.1946 428.287 78.1946 428.754 77.7256 430.46ZM143.877 441.642C142.318 441.799 140.914 441.178 139.352 440.399C134.83 438.38 132.489 434.497 131.085 429.996C130.616 428.441 129.992 428.287 128.588 428.596C123.438 429.684 118.134 429.996 112.988 429.996C110.801 429.996 110.491 430.618 110.646 432.636C111.581 440.09 111.115 447.389 108.304 454.378C106.745 458.104 105.966 462.141 105.652 466.182C104.873 474.565 104.873 483.107 104.717 491.649C103.938 527.834 104.407 564.019 107.059 600.204C107.214 601.759 107.683 602.69 109.087 603.466C118.292 608.591 127.963 612.32 137.793 615.736C141.383 616.978 145.126 618.067 149.026 618.53C149.964 618.688 150.899 618.842 151.523 618.067C152.148 617.133 151.368 616.202 150.744 615.426C149.806 614.026 148.402 612.941 147.154 611.853C141.383 607.349 135.141 603.778 128.743 600.204C127.184 599.428 126.715 598.498 126.715 596.788C126.873 581.881 127.339 566.971 128.277 552.216C130.305 522.399 133.268 492.891 141.539 464.005C143.411 457.482 144.97 450.959 145.905 443.351C146.219 442.418 145.905 441.487 143.877 441.642ZM268.382 37.2366C268.851 36.6152 269.472 36.1515 270.254 36.7698C271.034 37.3911 270.72 38.1702 270.096 38.6339C269.472 39.4098 268.851 40.0312 268.068 40.6526C267.444 41.274 266.509 41.7408 266.509 42.829C266.509 46.5541 265.105 49.9733 263.546 53.0771C261.204 57.7358 260.111 62.8614 259.956 67.987C259.801 71.8699 259.801 71.8699 263.546 73.2672C264.326 73.5763 265.105 73.734 265.885 74.1977C266.978 74.6645 267.444 74.51 267.757 73.2672C269.317 67.8325 271.658 62.7069 274.155 57.7358C276.649 52.9225 277.898 47.7969 278.053 42.3622C278.211 34.2874 275.401 29.9377 268.068 26.9885C261.204 24.1907 254.341 23.2603 247.474 26.5217C242.014 29.0072 239.517 34.7511 241.39 39.5675C243.263 44.2263 247.788 46.245 253.558 45.1568C259.021 44.0718 264.481 41.8954 268.382 37.2366ZM253.403 73.5763C254.341 74.1977 257.459 72.3367 257.459 71.0939C257.459 63.7951 259.021 56.8053 262.298 50.2824C263.232 48.4183 264.012 46.3996 263.857 44.0718C262.298 44.6931 261.049 45.3114 259.645 45.9328C259.021 46.245 258.863 46.7118 258.863 47.3332C259.487 52.3011 258.083 56.8053 256.524 61.3096C255.276 64.8801 254.182 68.4539 253.092 72.0244C253.248 72.3367 252.779 73.1126 253.403 73.5763ZM125.935 258.697C130.46 259.006 134.672 260.716 137.483 264.753C139.197 267.239 140.914 269.724 142.787 272.052C145.905 275.935 150.12 277.954 155.11 278.111C159.011 278.266 164.785 275.626 168.372 272.364C171.962 268.948 172.117 265.996 168.686 262.426C166.502 259.94 163.692 258.388 160.729 256.833C158.076 255.436 155.424 253.884 152.772 252.487C152.303 252.174 151.834 251.707 151.834 251.086C151.992 250.465 152.458 250.001 153.082 250.156C154.02 250.31 154.176 249.689 154.331 249.067C154.645 248.137 154.955 247.206 155.269 246.427C156.048 244.875 155.269 244.566 153.862 244.566C149.964 244.566 146.064 245.185 142.318 246.427C138.107 247.825 134.048 247.825 129.836 246.427C127.339 245.651 124.845 244.409 122.348 243.633C115.326 241.459 108.618 238.819 101.91 235.712C90.2075 230.432 78.6636 225.152 66.9613 219.872C59.1597 216.456 50.8924 214.125 42.4666 213.349C41.2181 213.195 40.1249 213.195 39.6591 214.746C39.3453 215.522 38.8764 216.456 37.9416 215.989C36.6931 215.522 37.3173 214.592 37.6279 213.661C39.9696 207.914 42.9324 202.48 45.7431 197.042C50.8924 186.794 56.1969 176.543 60.0945 165.673C60.8772 163.188 61.6567 160.702 61.6567 158.062C61.6567 153.249 58.8492 150.142 54.1689 149.987C51.2029 149.829 48.5507 150.609 46.2089 152.627C43.5567 154.801 41.5286 157.595 39.6591 160.39C32.0128 172.351 25.615 184.93 19.9999 197.975C16.5681 205.896 13.6022 213.97 12.0431 222.512C11.5741 224.843 12.1984 226.704 13.7574 228.414C15.1612 229.965 17.0339 230.432 18.9067 230.587C21.2484 230.741 23.2764 231.521 25.3045 232.918C31.078 237.11 37.4726 240.371 44.4946 242.544C61.0325 247.516 77.8809 251.553 94.8878 254.969C105.031 256.988 115.482 258.23 125.935 258.697ZM134.048 96.7188C122.348 98.892 112.674 95.7851 105.811 85.6917C104.873 84.2943 104.093 82.897 103.158 81.6543C102.845 81.1874 102.845 80.5661 101.91 80.4115C100.506 83.673 98.6333 86.9344 96.45 89.729C92.3908 94.7001 90.0522 100.289 90.3627 106.812C90.3627 107.588 90.2075 108.364 89.4279 108.522C88.6484 108.831 88.0242 108.364 87.3999 107.743C85.6824 106.191 84.4339 104.327 83.3439 102.154C82.2507 100.135 80.6916 98.4252 78.8189 97.0279C75.2286 94.2333 71.7968 95.1638 70.2378 99.3589C67.4303 106.967 72.4211 116.442 81.3159 115.508C82.5612 115.354 83.3439 115.821 83.4992 117.063C83.8097 118.924 84.2787 120.789 84.5924 122.653C85.2166 129.33 84.7477 136.008 84.1234 142.688C83.9681 144.086 84.1234 145.016 85.0582 146.104C88.6484 150.451 91.456 155.267 94.1082 160.235C97.8537 167.534 101.91 174.678 105.186 182.756C109.242 171.884 112.205 161.323 114.078 150.451C114.233 149.829 113.923 149.366 113.767 148.744C112.988 147.189 112.364 145.483 111.739 143.773C111.27 142.531 110.801 142.067 109.398 141.909C106.435 141.755 103.783 140.357 101.13 138.805C100.506 138.493 100.037 137.872 100.348 137.25C100.817 136.32 101.596 136.475 102.22 136.941C102.845 137.25 103.314 137.563 103.938 137.872C106.59 139.115 109.242 140.357 112.205 139.269C116.575 137.717 120.162 135.077 123.438 131.97C133.582 122.653 134.986 110.228 135.296 97.4947C135.454 96.5611 134.986 96.5611 134.048 96.7188ZM128.901 156.819C129.212 163.497 130.771 170.02 132.489 176.543C132.957 178.252 132.957 180.58 134.048 181.514C135.296 182.599 137.638 181.514 139.352 181.201C157.138 179.183 174.925 177.009 192.556 174.369C194.115 174.215 194.898 173.593 195.363 172.038C196.926 167.225 198.174 162.412 199.109 157.595C199.578 155.422 198.954 154.801 196.767 154.646C185.223 153.558 173.521 153.249 161.977 153.249C151.834 153.091 141.539 153.091 131.395 153.712C129.212 153.87 128.743 154.646 128.901 156.819Z" fill="#FAFAFA"/>
</g>
<defs>
<clipPath id="clip0_101_1144">
<rect width="340" height="867" fill="white"/>
</clipPath>
</defs>
</svg>
