<svg width="388" height="433" viewBox="0 0 388 433" fill="none" xmlns="http://www.w3.org/2000/svg">
<path d="M37.2562 171.722L37.4997 171.285L37.4995 171.285L37.4987 171.285L37.4957 171.283L37.4837 171.276L37.4366 171.25L37.2557 171.149C37.0987 171.061 36.8721 170.934 36.5938 170.777C36.037 170.464 35.2734 170.034 34.4457 169.562C32.7879 168.617 30.8865 167.517 29.8701 166.871C28.6389 166.062 27.9953 164.408 28.1085 162.794C28.2209 161.191 29.0619 159.794 30.6122 159.376C32.1049 158.993 34.5799 159.014 37.6907 159.337C40.7825 159.658 44.4363 160.27 48.2455 161.027C55.8628 162.54 64.0668 164.624 69.5715 166.093L69.5736 166.094C69.9017 166.18 70.3586 166.522 70.9232 167.203C71.4708 167.863 72.0603 168.768 72.6707 169.848C73.8902 172.004 75.1591 174.796 76.3118 177.572C77.4633 180.344 78.4932 183.086 79.2356 185.136C79.6067 186.161 79.9057 187.012 80.1119 187.606C80.187 187.823 80.2497 188.006 80.2991 188.15L53.0587 203.798L50.6546 197.531L50.5138 197.164L50.1239 197.215C45.4528 197.817 27.1533 199.722 4.1994 190.666L4.19844 190.665C2.43488 189.974 1.44052 189.061 0.93892 188.063C0.435389 187.061 0.389526 185.894 0.676812 184.622C1.25723 182.051 3.15266 179.236 4.88144 176.971L4.88211 176.97C6.20805 175.225 8.82672 174.005 12.1461 173.192C15.4412 172.386 19.3207 172.006 23.043 171.86C26.7616 171.715 30.3044 171.805 32.9189 171.931C34.2257 171.994 35.2994 172.067 36.0459 172.123C36.4191 172.151 36.7104 172.175 36.908 172.193C37.0068 172.201 37.0822 172.208 37.1327 172.213L37.1896 172.218L37.2037 172.219L37.2071 172.22L37.2079 172.22C37.208 172.22 37.2081 172.22 37.2562 171.722ZM37.2562 171.722L37.4997 171.285L37.2081 172.22L37.2562 171.722Z" fill="#FAFAFA" stroke="black"/>
<path d="M8.84505 175.775L8.84505 175.775L8.84289 175.774C8.74761 175.742 8.68618 175.683 8.65571 175.628C8.62632 175.575 8.62571 175.529 8.64009 175.49L8.64304 175.482L8.64573 175.474C8.67698 175.381 8.73596 175.319 8.793 175.287C8.8483 175.257 8.89438 175.257 8.92958 175.27L8.94685 175.277L8.96454 175.282C12.4688 176.311 15.9328 177.292 19.4472 178.136L19.4471 178.136L19.4565 178.138L19.4638 178.139C21.7916 178.651 24.1368 179.167 26.5346 179.542C30.3442 180.154 34.3502 180.438 38.4575 180.155L38.4684 180.154L38.4793 180.153C38.6112 180.138 38.7167 180.242 38.7167 180.354V180.385L38.7206 180.417C38.7264 180.463 38.7119 180.512 38.6814 180.548C38.6544 180.581 38.6172 180.602 38.5633 180.602H38.5357L38.5083 180.605C34.3481 181.065 30.2826 180.974 26.4033 180.419L26.4033 180.419L26.3989 180.419C23.9953 180.097 21.5875 179.588 19.2694 178.984L19.2694 178.984L19.2644 178.983C15.7378 178.103 12.3024 176.944 8.84505 175.775Z" fill="black" stroke="black"/>
<path d="M4.3636 180.952L4.33765 180.944L4.31089 180.938C4.2527 180.925 4.22023 180.896 4.19745 180.852C4.17354 180.806 4.15726 180.732 4.171 180.64C4.23208 180.521 4.37418 180.456 4.51013 180.502L4.52121 180.505L4.53246 180.509C7.98569 181.489 11.4522 182.47 14.9631 183.313L14.9632 183.313C17.311 183.877 19.6568 184.344 22.0506 184.719C25.8588 185.331 29.8655 185.661 34.0208 185.377L34.0338 185.376L34.0467 185.375C34.14 185.364 34.2675 185.441 34.2831 185.587L34.2835 185.59C34.2898 185.646 34.274 185.691 34.237 185.731C34.1959 185.776 34.1228 185.819 34.0236 185.83C29.8722 186.29 25.8548 186.152 21.9186 185.644C19.5073 185.274 17.0987 184.809 14.7857 184.21C11.2583 183.282 7.82012 182.121 4.3636 180.952Z" fill="black" stroke="black"/>
<path d="M1.56282 186.271L1.56283 186.271L1.55811 186.269C1.45926 186.237 1.41506 186.188 1.39342 186.148C1.37211 186.108 1.3554 186.043 1.3718 185.948C1.42745 185.816 1.56249 185.753 1.69485 185.782C5.1925 186.81 8.6548 187.789 12.1623 188.632L12.1623 188.632L12.1719 188.634L12.2043 188.641C14.5263 189.151 16.8632 189.664 19.2498 190.038C23.0576 190.65 27.019 190.98 31.1803 190.65L31.1889 190.65L31.1974 190.649C31.308 190.636 31.4477 190.725 31.4782 190.878C31.4723 190.936 31.4477 190.994 31.4108 191.036C31.373 191.079 31.3309 191.098 31.2811 191.098H31.2535L31.2261 191.101C27.0662 191.562 23.0479 191.47 19.1177 190.915L19.1177 190.915L19.113 190.915C16.666 190.593 14.306 190.085 11.9372 189.48L11.9361 189.48C8.45624 188.6 5.0202 187.44 1.56282 186.271Z" fill="black" stroke="black"/>
<mask id="mask0_111_7024" style="mask-type:luminance" maskUnits="userSpaceOnUse" x="146" y="326" width="175" height="108">
<path d="M147.291 327.408H319.954V432.501H147.291V327.408Z" fill="white" stroke="white"/>
</mask>
<g mask="url(#mask0_111_7024)">
<path d="M243.21 432.176L242.995 432.192L235.117 401.617L234.145 401.63L227.049 432.486C226.984 432.484 226.913 432.481 226.835 432.478C226.423 432.462 225.817 432.438 225.036 432.407C223.475 432.343 221.217 432.247 218.43 432.117C212.857 431.857 205.168 431.464 196.711 430.927C179.99 429.867 160.293 428.25 147.969 426.013L157.08 330.195L307.067 327.691L319.322 423.971C308.509 426.101 289.527 428.15 273.13 429.675C264.82 430.447 257.182 431.084 251.621 431.528C248.841 431.75 246.58 431.923 245.015 432.042C244.232 432.101 243.623 432.146 243.21 432.176Z" fill="black" stroke="black"/>
</g>
<mask id="path-7-inside-1_111_7024" fill="white">
<path fill-rule="evenodd" clip-rule="evenodd" d="M160.873 340.294C172.683 342.161 184.681 343.559 196.727 344.54C208.629 345.518 220.675 346.031 232.813 346.031C242.383 346.078 252 345.753 261.71 345.145C275.901 344.26 290.234 342.626 304.798 340.247C304.986 340.247 305.079 340.059 305.079 339.874C305.031 339.686 304.846 339.546 304.658 339.546C290.139 341.833 275.808 343.372 261.663 344.26C251.953 344.82 242.335 345.098 232.813 345.098C220.675 345.053 208.677 344.585 196.819 343.652C184.729 342.719 172.823 341.32 160.966 339.546C160.78 339.499 160.548 339.639 160.5 339.874C160.5 340.059 160.64 340.294 160.873 340.294Z"/>
</mask>
<path fill-rule="evenodd" clip-rule="evenodd" d="M160.873 340.294C172.683 342.161 184.681 343.559 196.727 344.54C208.629 345.518 220.675 346.031 232.813 346.031C242.383 346.078 252 345.753 261.71 345.145C275.901 344.26 290.234 342.626 304.798 340.247C304.986 340.247 305.079 340.059 305.079 339.874C305.031 339.686 304.846 339.546 304.658 339.546C290.139 341.833 275.808 343.372 261.663 344.26C251.953 344.82 242.335 345.098 232.813 345.098C220.675 345.053 208.677 344.585 196.819 343.652C184.729 342.719 172.823 341.32 160.966 339.546C160.78 339.499 160.548 339.639 160.5 339.874C160.5 340.059 160.64 340.294 160.873 340.294Z" fill="black"/>
<path d="M160.873 340.294L161.029 339.307L160.952 339.294H160.873V340.294ZM196.727 344.54L196.809 343.543L196.808 343.543L196.727 344.54ZM232.813 346.031L232.818 345.031H232.813V346.031ZM261.71 345.145L261.648 344.147L261.648 344.147L261.71 345.145ZM304.798 340.247V339.247H304.717L304.637 339.26L304.798 340.247ZM305.079 339.874H306.079V339.749L306.048 339.628L305.079 339.874ZM304.658 339.546V338.546H304.58L304.502 338.559L304.658 339.546ZM261.663 344.26L261.72 345.258L261.725 345.258L261.663 344.26ZM232.813 345.098L232.809 346.098H232.813V345.098ZM196.819 343.652L196.898 342.655L196.896 342.655L196.819 343.652ZM160.966 339.546L160.717 340.515L160.767 340.528L160.818 340.535L160.966 339.546ZM160.5 339.874L159.52 339.676L159.5 339.774V339.874H160.5ZM160.717 341.282C172.554 343.153 184.577 344.554 196.645 345.537L196.808 343.543C184.785 342.564 172.812 341.169 161.029 339.307L160.717 341.282ZM196.645 345.537C208.574 346.517 220.647 347.031 232.813 347.031V345.031C220.703 345.031 208.685 344.519 196.809 343.543L196.645 345.537ZM232.808 347.031C242.404 347.079 252.044 346.752 261.773 346.143L261.648 344.147C251.957 344.754 242.362 345.078 232.818 345.031L232.808 347.031ZM261.773 346.143C275.998 345.256 290.364 343.618 304.959 341.234L304.637 339.26C290.104 341.634 275.804 343.264 261.648 344.147L261.773 346.143ZM304.798 341.247C305.28 341.247 305.641 340.985 305.841 340.684C306.021 340.413 306.079 340.115 306.079 339.874H304.079C304.079 339.819 304.089 339.706 304.176 339.576C304.224 339.505 304.301 339.419 304.417 339.351C304.538 339.28 304.671 339.247 304.798 339.247V341.247ZM306.048 339.628C305.886 338.991 305.297 338.546 304.658 338.546V340.546C304.507 340.546 304.389 340.492 304.31 340.431C304.229 340.369 304.147 340.267 304.109 340.12L306.048 339.628ZM304.502 338.559C290.016 340.84 275.716 342.375 261.6 343.262L261.725 345.258C275.901 344.368 290.263 342.826 304.814 340.534L304.502 338.559ZM261.605 343.261C251.914 343.821 242.316 344.098 232.813 344.098V346.098C242.355 346.098 251.991 345.82 261.72 345.258L261.605 343.261ZM232.817 344.098C220.702 344.053 208.729 343.586 196.898 342.655L196.741 344.649C208.625 345.584 220.648 346.053 232.809 346.098L232.817 344.098ZM196.896 342.655C184.832 341.724 172.95 340.328 161.114 338.557L160.818 340.535C172.696 342.312 184.625 343.714 196.742 344.649L196.896 342.655ZM161.214 338.578C160.419 338.374 159.669 338.938 159.52 339.676L161.48 340.072C161.448 340.233 161.352 340.359 161.238 340.435C161.134 340.505 160.949 340.574 160.717 340.515L161.214 338.578ZM159.5 339.874C159.5 340.195 159.613 340.516 159.812 340.77C160.023 341.04 160.386 341.294 160.873 341.294V339.294C161.127 339.294 161.304 339.432 161.387 339.537C161.457 339.627 161.5 339.738 161.5 339.874H159.5Z" fill="black" mask="url(#path-7-inside-1_111_7024)"/>
<path d="M237.293 367.633L237.783 367.735L237.785 367.723C237.927 366.947 238.618 366.453 239.351 366.587L239.362 366.589L239.374 366.59C240.126 366.693 240.624 367.367 240.491 368.105L240.487 368.129L240.485 368.153L240.983 368.194L240.485 368.153L240.485 368.153L240.485 368.153L240.485 368.154L240.484 368.159L240.483 368.179L240.476 368.256C240.47 368.324 240.462 368.425 240.451 368.555C240.428 368.816 240.394 369.196 240.35 369.67C240.263 370.619 240.134 371.945 239.97 373.458C239.935 373.773 239.899 374.097 239.862 374.426C239.709 375.809 239.545 377.296 239.32 378.754C239.162 379.738 238.982 380.719 238.809 381.662C238.729 382.095 238.651 382.52 238.577 382.934C238.205 384.7 237.845 386.267 237.578 387.394C237.444 387.958 237.333 388.412 237.257 388.724C237.218 388.88 237.188 389.001 237.168 389.082L237.144 389.175L237.139 389.198L237.137 389.204L237.137 389.205L237.137 389.206L237.137 389.206L237.621 389.329L237.137 389.206L237.131 389.228L237.127 389.251C237.027 389.887 236.431 390.313 235.856 390.193L235.83 390.187L235.803 390.185C235.182 390.123 234.747 389.522 234.846 388.894L234.851 388.864L234.852 388.833L234.852 388.833L234.852 388.833L234.852 388.831L234.852 388.826L234.853 388.802L234.857 388.709C234.86 388.626 234.865 388.504 234.872 388.346C234.887 388.029 234.91 387.57 234.945 386.998C235.015 385.854 235.132 384.263 235.318 382.476L235.318 382.475C235.336 382.301 235.354 382.125 235.372 381.947C235.495 380.737 235.626 379.456 235.827 378.21L235.827 378.21L235.828 378.207C236.107 376.396 236.431 374.585 236.757 373.006L236.757 373.006L236.759 372.996C237.039 371.482 237.295 370.167 237.481 369.229C237.574 368.761 237.65 368.387 237.702 368.131C237.728 368.002 237.748 367.903 237.762 367.836L237.778 367.761L237.782 367.742L237.783 367.737L237.783 367.736L237.783 367.735L237.783 367.735L237.293 367.633Z" fill="black" stroke="black"/>
<path d="M231.286 382.224C231.239 384.465 231.191 386.605 231.099 388.558L231.099 388.562C230.959 391.964 230.819 394.809 230.726 396.485L230.704 396.894L231.1 396.997L238.85 399.003L238.863 399.007L238.877 399.009C239.518 399.138 239.919 399.784 239.795 400.411C239.623 401.039 238.992 401.425 238.378 401.295L238.378 401.295L238.366 401.292L228.809 399.524C228.069 399.341 227.618 398.714 227.618 398.006L227.618 398L227.118 398.006L227.618 398L227.618 398L227.618 398L227.618 397.998L227.618 397.989L227.617 397.954L227.616 397.817C227.615 397.695 227.613 397.516 227.612 397.283C227.609 396.818 227.606 396.141 227.605 395.294C227.605 393.598 227.616 391.221 227.663 388.495L227.663 388.495V388.487C227.663 386.534 227.708 384.449 227.754 382.307L227.758 382.156C227.944 376.631 228.2 370.686 228.41 366.122C228.515 363.839 228.609 361.902 228.676 360.535C228.709 359.852 228.736 359.312 228.755 358.942L228.776 358.519L228.782 358.41L228.783 358.383L228.783 358.376L228.783 358.374L228.784 358.374C228.784 358.374 228.784 358.374 228.284 358.348L228.784 358.374L228.784 358.371C228.818 357.626 229.421 357.035 230.233 357.029M231.286 382.224L231.786 382.235M231.286 382.224L231.786 382.235M231.286 382.224C231.403 376.723 231.461 370.777 231.49 366.206C231.504 363.92 231.512 361.979 231.515 360.609C231.517 359.924 231.518 359.382 231.519 359.011L231.519 358.587L231.519 358.478L231.519 358.45L231.519 358.443V358.441V358.441C231.519 358.441 231.519 358.441 232.019 358.441H231.519V358.43L231.519 358.419C231.552 357.681 230.987 357.068 230.233 357.029M231.786 382.235C231.739 384.474 231.691 386.621 231.598 388.582L231.786 382.235ZM230.233 357.029C230.237 357.029 230.241 357.029 230.244 357.029V356.529L230.222 357.029C230.226 357.029 230.23 357.029 230.233 357.029Z" fill="black" stroke="black"/>
<path d="M284.678 56.0131L284.921 55.5765L284.921 55.5764L284.92 55.576L284.917 55.5743L284.905 55.5676L284.858 55.5413L284.677 55.44C284.521 55.3521 284.294 55.225 284.016 55.0684C283.46 54.7552 282.698 54.3241 281.874 53.8523C280.22 52.9057 278.33 51.8046 277.34 51.1608L277.339 51.1597C276.084 50.3502 275.429 48.684 275.537 47.0641C275.645 45.4546 276.487 44.0621 278.033 43.6658L278.037 43.6649C279.527 43.2706 282.002 43.2828 285.114 43.5999C288.205 43.9148 291.859 44.5224 295.668 45.2762C303.284 46.7834 311.488 48.8675 316.994 50.3363C317.324 50.4274 317.781 50.7757 318.345 51.4601C318.893 52.1252 319.482 53.0343 320.093 54.117C321.312 56.2804 322.581 59.0773 323.733 61.8559C324.885 64.6314 325.915 67.3751 326.657 69.426C327.028 70.4511 327.327 71.3025 327.533 71.8973C327.608 72.1139 327.671 72.2964 327.72 72.4409L300.438 88.0856L298.077 81.8251L297.937 81.4553L297.545 81.5056C292.877 82.1053 274.623 84.013 251.624 74.9572C249.86 74.2539 248.864 73.3355 248.361 72.3341C247.857 71.3293 247.811 70.1645 248.098 68.8956C248.678 66.3312 250.573 63.5282 252.303 61.2625L252.303 61.2616C253.629 59.5165 256.248 58.296 259.567 57.4835C262.863 56.6769 266.742 56.2968 270.464 56.1515C274.183 56.0064 277.726 56.0962 280.34 56.2225C281.647 56.2856 282.721 56.3578 283.467 56.4142C283.84 56.4424 284.132 56.4666 284.329 56.4837C284.428 56.4923 284.504 56.4991 284.554 56.5037L284.611 56.509L284.625 56.5104L284.628 56.5107L284.629 56.5108C284.629 56.5108 284.629 56.5108 284.678 56.0131ZM284.678 56.0131L284.921 55.5765L284.629 56.5108L284.678 56.0131Z" fill="#FAFAFA" stroke="black"/>
<path d="M266.689 63.2754L266.689 63.2753L266.685 63.2743C263.906 62.5784 261.187 61.6825 258.46 60.7839C257.729 60.5431 256.997 60.3021 256.264 60.0647C256.118 60.0153 256.05 59.8793 256.075 59.7467C256.14 59.5784 256.287 59.5248 256.414 59.5676L256.423 59.5704L256.431 59.5729C259.889 60.5996 263.355 61.5832 266.868 62.4243L266.868 62.4244L266.876 62.4263C269.21 62.9412 271.557 63.4574 273.955 63.8329C277.767 64.443 281.773 64.7266 285.88 64.4433L285.89 64.4427L285.9 64.4416C286.029 64.4277 286.155 64.5322 286.183 64.6328C286.176 64.7186 286.145 64.7874 286.109 64.8301C286.073 64.8729 286.035 64.8905 285.986 64.8905H285.958L285.931 64.8936C281.771 65.3566 277.753 65.2651 273.823 64.7103L273.82 64.7099C271.418 64.3854 269.01 63.877 266.689 63.2754Z" fill="black" stroke="black"/>
<path d="M251.786 65.2452L251.767 65.2385L251.746 65.2335C251.678 65.2168 251.577 65.1117 251.633 64.944L251.639 64.9254L251.644 64.9064C251.66 64.8419 251.765 64.7384 251.934 64.7949L251.945 64.7985L251.956 64.8016C252.008 64.8162 252.059 64.8309 252.111 64.8455C255.511 65.8085 258.925 66.7752 262.434 67.6036C264.732 68.1672 267.081 68.6376 269.474 69.0124C273.318 69.6204 277.274 69.9528 281.425 69.6243C281.556 69.6313 281.675 69.7304 281.702 69.8552C281.691 70.0268 281.583 70.108 281.494 70.1206C277.287 70.5362 273.267 70.4441 269.342 69.8897L269.339 69.8893C266.935 69.5648 264.526 69.0564 262.208 68.4548L262.208 68.4548L262.204 68.4537C258.679 67.5713 255.244 66.4121 251.786 65.2452Z" fill="black" stroke="black"/>
<path d="M259.407 73.7734L259.407 73.7734L259.403 73.7724C256.596 73.0696 253.851 72.1643 251.097 71.2563C250.393 71.0242 249.689 70.7919 248.983 70.5628C248.837 70.5136 248.767 70.3775 248.792 70.2432C248.856 70.0772 249.002 70.0222 249.134 70.066L249.141 70.0686L249.149 70.0709C252.607 71.0976 256.071 72.0812 259.586 72.9224L259.586 72.9225L259.595 72.9243C261.926 73.4393 264.276 73.9555 266.674 74.331C270.53 74.941 274.491 75.2246 278.643 74.9414L278.656 74.9405L278.669 74.9389C278.692 74.9362 278.744 74.943 278.806 74.9954C278.858 75.0388 278.889 75.0913 278.901 75.1347C278.894 75.2185 278.863 75.2866 278.827 75.3296C278.791 75.373 278.751 75.3911 278.702 75.3911H278.674L278.647 75.3941C274.489 75.8547 270.469 75.7631 266.541 75.2083L266.538 75.2079C264.134 74.8835 261.728 74.3751 259.407 73.7734Z" fill="black" stroke="black"/>
<mask id="mask1_111_7024" style="mask-type:luminance" maskUnits="userSpaceOnUse" x="44" y="45" width="344" height="297">
<path d="M45.3984 45.6055H387.44V341.136H45.3984V45.6055Z" fill="white" stroke="white"/>
</mask>
<g mask="url(#mask1_111_7024)">
<path d="M326.426 103.358C326.426 103.357 326.426 103.357 326.039 103.042L326.426 103.357L326.837 102.852L326.243 102.586L295.447 88.7651L306.985 45.8457C307.09 45.8623 307.213 45.8819 307.354 45.9046C307.884 45.9902 308.664 46.1196 309.659 46.2951C311.65 46.646 314.504 47.1809 317.955 47.9161C324.858 49.3868 334.143 51.658 343.678 54.8605C353.216 58.0643 362.983 62.1931 370.863 67.3713C378.752 72.5556 384.681 78.7468 386.665 86.0506L386.665 86.0511C387.905 90.6008 387.572 96.3314 385.992 102.917C384.413 109.495 381.601 116.881 377.93 124.717C370.589 140.389 359.843 157.808 348.767 174.076C337.694 190.341 326.301 205.443 317.676 216.479C313.364 221.997 309.744 226.497 307.203 229.618C305.932 231.179 304.931 232.394 304.247 233.22C303.906 233.632 303.644 233.947 303.467 234.159C303.379 234.265 303.312 234.345 303.267 234.398L303.216 234.459L303.204 234.474L303.2 234.478C303.2 234.478 303.2 234.478 303.216 234.492C303.247 234.518 303.334 234.592 303.582 234.8L303.199 234.479L303.065 234.639L303.084 234.848L312.704 335.808C257.677 344.037 203.558 340.825 149.631 335.687L152.129 284.002L152.212 282.279L151.22 283.69L151.22 283.691L151.218 283.694L151.21 283.705L151.176 283.753C151.145 283.795 151.1 283.858 151.039 283.941C150.917 284.107 150.736 284.352 150.497 284.663C150.018 285.287 149.312 286.179 148.4 287.25C146.575 289.392 143.933 292.244 140.663 295.084C134.106 300.778 125.098 306.36 115.13 306.199H115.129C111.188 306.142 107.142 304.538 103.06 301.717C98.9801 298.896 94.8941 294.88 90.8846 290.049C82.8654 280.388 75.2023 267.533 68.5448 254.668C61.8895 241.808 56.2497 228.96 52.2733 219.325C50.2853 214.507 48.7135 210.495 47.6389 207.687C47.1016 206.283 46.6886 205.18 46.4101 204.429C46.3013 204.135 46.213 203.895 46.1459 203.712L88.6159 184.436L117.835 227.57L118.363 228.35L118.713 227.476L118.249 227.29C118.713 227.476 118.713 227.476 118.713 227.475L118.714 227.474L118.717 227.467L118.728 227.438L118.774 227.325C118.814 227.225 118.874 227.075 118.953 226.88C119.112 226.49 119.346 225.915 119.648 225.179C120.253 223.706 121.133 221.586 122.231 218.998C124.426 213.821 127.493 206.772 130.98 199.285C134.467 191.796 138.371 183.874 142.24 176.947C146.116 170.009 149.936 164.109 153.25 160.635L153.251 160.634C155.821 157.93 159.94 155.474 164.723 153.313C169.496 151.156 174.885 149.312 179.955 147.811C185.024 146.31 189.766 145.155 193.241 144.375C194.978 143.985 196.398 143.689 197.383 143.491C197.875 143.391 198.259 143.316 198.519 143.267C198.649 143.242 198.749 143.223 198.815 143.21L198.871 143.2L252.361 143.247C252.363 143.247 252.364 143.247 252.366 143.247C253.575 143.271 259.619 142.761 266.965 141.367C274.327 139.97 283.072 137.672 289.631 134.087L289.632 134.087C300.281 128.251 309.478 120.568 316.008 114.351C319.274 111.242 321.877 108.496 323.663 106.527C324.557 105.542 325.246 104.751 325.713 104.206C325.947 103.933 326.124 103.722 326.244 103.578C326.304 103.506 326.349 103.452 326.38 103.414L326.414 103.372L326.423 103.361L326.426 103.358L326.426 103.358ZM152.888 160.29C163.439 149.187 198.825 142.7 198.825 142.7L152.888 160.29Z" fill="#494B6A" stroke="black"/>
</g>
<path d="M192.649 295.032L192.649 295.032C198.932 297.295 206.25 298.41 213.907 298.41C221.004 298.41 228.337 297.435 235.344 295.533L235.475 296.015L235.344 295.533C250.396 291.447 263.784 283.109 269.903 271.291L269.908 271.28L269.914 271.27C269.936 271.232 269.935 271.202 269.928 271.179C269.92 271.152 269.902 271.135 269.891 271.13C269.884 271.126 269.87 271.121 269.848 271.12C269.826 271.118 269.803 271.12 269.783 271.127C269.742 271.139 269.735 271.155 269.733 271.159L269.726 271.176L269.717 271.193C263.558 283.079 250.098 291.161 235.278 295.192L235.276 295.192C228.284 297.069 221.005 298.101 213.912 298.149C206.305 298.242 198.963 297.211 192.643 294.997M192.649 295.032L192.805 294.524M192.649 295.032L192.636 295.028C192.629 295.025 192.625 295.023 192.623 295.022M192.649 295.032L192.623 295.022M192.643 294.997C192.642 294.997 192.641 294.997 192.639 294.996L192.805 294.524M192.643 294.997C192.643 294.997 192.644 294.998 192.644 294.998L192.805 294.524M192.643 294.997C192.638 294.996 192.634 294.995 192.632 294.995M192.805 294.524C192.524 294.429 192.247 294.569 192.151 294.85M192.632 294.995C192.633 294.994 192.633 294.993 192.634 294.993C192.634 294.992 192.634 294.992 192.634 294.992C192.634 294.992 192.634 294.993 192.632 294.993C192.63 294.994 192.629 294.995 192.629 294.995C192.629 294.995 192.629 294.995 192.629 294.995C192.629 294.995 192.63 294.995 192.632 294.995ZM192.632 294.995C192.631 294.997 192.628 295.001 192.626 295.008M192.626 295.008C192.626 295.008 192.626 295.007 192.626 295.006L192.151 294.85M192.626 295.008C192.624 295.015 192.623 295.019 192.623 295.022M192.626 295.008C192.625 295.009 192.625 295.01 192.625 295.01L192.151 294.85M192.151 294.85C192.059 295.13 192.199 295.41 192.479 295.502L192.623 295.022" fill="black" stroke="black"/>
<path d="M117.97 228.269L118.177 227.814L118.153 227.803L118.127 227.794C117.835 227.697 117.695 227.424 117.789 227.127C117.89 226.863 118.17 226.741 118.407 226.827L118.451 226.843L118.497 226.851L118.497 226.851L118.497 226.851L118.497 226.851L118.497 226.851L118.498 226.851L118.503 226.852L118.521 226.855L118.594 226.867C118.658 226.878 118.75 226.894 118.866 226.914C119.096 226.954 119.418 227.011 119.785 227.08C119.844 227.093 119.903 227.106 119.962 227.119C120.334 227.2 120.714 227.282 121.096 227.397L121.096 227.397L121.097 227.397C121.707 227.578 122.322 227.805 122.788 227.989C123.02 228.081 123.213 228.161 123.348 228.218C123.416 228.247 123.468 228.269 123.504 228.285L123.544 228.302L123.554 228.307L123.556 228.308L123.557 228.308L123.557 228.308L123.557 228.308L123.557 228.308L123.585 228.32L123.614 228.329C123.944 228.43 124.123 228.782 123.994 229.118L123.986 229.138L123.98 229.159C123.872 229.536 123.506 229.717 123.16 229.612L123.148 229.608L123.135 229.605L123.135 229.605L123.135 229.605L123.135 229.605L123.135 229.605L123.132 229.604L123.122 229.601L123.079 229.591C123.042 229.581 122.987 229.567 122.916 229.549C122.776 229.512 122.575 229.458 122.336 229.392C121.855 229.259 121.222 229.074 120.604 228.868L120.597 228.865L120.589 228.863C120.387 228.802 120.189 228.72 119.983 228.629C119.942 228.61 119.9 228.591 119.857 228.572C119.701 228.502 119.535 228.428 119.378 228.368C119.035 228.208 118.737 228.071 118.524 227.973L118.27 227.856L118.201 227.825L118.184 227.817L118.179 227.814L118.178 227.814L118.178 227.814L118.177 227.814L118.177 227.814L117.97 228.269Z" fill="black" stroke="black"/>
<path d="M117.809 227.49L117.809 227.49L117.809 227.49L117.809 227.49L117.802 227.445L117.786 227.403C117.714 227.203 117.829 226.91 118.116 226.791C118.418 226.729 118.686 226.914 118.749 227.144L118.757 227.174L118.769 227.202L118.769 227.202L118.769 227.202L118.769 227.202L118.769 227.202L118.77 227.204L118.773 227.213L118.787 227.247C118.799 227.277 118.817 227.322 118.841 227.381C118.887 227.498 118.955 227.67 119.039 227.886C119.207 228.32 119.439 228.934 119.694 229.651L119.694 229.651L119.697 229.66C119.971 230.392 120.247 231.262 120.528 232.15C120.898 233.4 121.234 234.663 121.477 235.615C121.599 236.091 121.698 236.489 121.766 236.768C121.8 236.907 121.826 237.016 121.844 237.091L121.864 237.176L121.869 237.197L121.871 237.203L121.871 237.204L121.871 237.204L121.871 237.204L122.358 237.089L121.871 237.204L121.879 237.238L121.891 237.27C122.005 237.563 121.843 237.937 121.428 238.054L121.428 238.054L121.416 238.058C121.093 238.158 120.707 237.958 120.595 237.595L120.595 237.595L120.591 237.582L120.117 237.742L120.591 237.582L120.591 237.582L120.591 237.581L120.59 237.58L120.588 237.575L120.581 237.554L120.554 237.472C120.53 237.4 120.494 237.294 120.449 237.158C120.359 236.888 120.231 236.5 120.08 236.032C119.778 235.097 119.384 233.845 119.012 232.57C118.78 231.686 118.549 230.806 118.363 230.022L118.364 230.022L118.361 230.012C118.177 229.299 118.039 228.667 117.947 228.213C117.901 227.986 117.866 227.804 117.843 227.68C117.832 227.617 117.823 227.569 117.817 227.537L117.811 227.501L117.81 227.492L117.809 227.49L117.809 227.49Z" fill="black" stroke="black"/>
<path d="M155.551 234.801L155.052 234.783L155.052 234.783L155.052 234.784L155.052 234.788L155.051 234.802L155.049 234.858L155.041 235.078C155.034 235.273 155.023 235.56 155.01 235.932C154.982 236.676 154.941 237.76 154.889 239.116C154.784 241.827 154.633 245.629 154.446 249.99L154.446 249.992C154.258 254.656 154.026 259.925 153.745 265.196L153.745 265.198C153.372 272.8 152.953 280.392 152.626 286.083C152.463 288.928 152.323 291.299 152.224 292.957C152.174 293.787 152.135 294.438 152.108 294.883L152.077 295.39L152.069 295.519L152.067 295.552L152.066 295.558C152.066 295.559 152.066 295.56 152.066 295.56C152.035 295.982 151.723 296.241 151.387 296.216C150.99 296.187 150.702 295.852 150.728 295.49L150.729 295.483L150.729 295.476L150.23 295.454C150.729 295.476 150.729 295.475 150.729 295.475L150.729 295.475L150.729 295.473L150.73 295.465L150.731 295.432L150.737 295.302L150.759 294.795C150.778 294.35 150.807 293.699 150.844 292.869C150.917 291.21 151.024 288.84 151.155 285.994C151.417 280.304 151.779 272.713 152.176 265.111C152.504 259.838 152.829 254.567 153.109 249.902L153.109 249.901C153.366 245.562 153.599 241.772 153.768 239.067C153.853 237.714 153.922 236.632 153.969 235.889L154.024 235.036L154.038 234.815L154.042 234.759L154.042 234.746C154.07 234.444 154.31 234.251 154.576 234.273L154.597 234.275H154.618C154.879 234.275 155.076 234.486 155.053 234.758L155.052 234.771L155.052 234.783L155.551 234.801Z" fill="black" stroke="black"/>
<path d="M310.821 224.072L311.18 224.42L311.188 224.412L311.195 224.403C311.39 224.184 311.727 224.166 311.935 224.352L311.937 224.353C312.139 224.533 312.142 224.869 311.985 225.047L311.979 225.055L311.972 225.063L312.361 225.377L311.972 225.063L311.972 225.063L311.972 225.063L311.972 225.064L311.969 225.067L311.957 225.082L311.909 225.14C311.868 225.192 311.806 225.267 311.725 225.365C311.565 225.562 311.331 225.847 311.037 226.202C310.449 226.911 309.622 227.901 308.667 229.018L308.665 229.02C307.641 230.23 306.478 231.58 305.312 232.932C303.587 234.841 301.851 236.727 300.546 238.137C299.893 238.842 299.348 239.428 298.966 239.837C298.775 240.042 298.625 240.202 298.523 240.312L298.406 240.436L298.376 240.468L298.369 240.476L298.367 240.478L298.366 240.479L298.366 240.479L298.731 240.821L298.366 240.479L298.355 240.491L298.344 240.504C298.115 240.784 297.7 240.829 297.385 240.543L297.383 240.541C297.118 240.304 297.096 239.873 297.327 239.618L297.327 239.618L297.336 239.608L296.956 239.282L297.336 239.608L297.336 239.608L297.336 239.607L297.338 239.605L297.345 239.597L297.374 239.563L297.486 239.433C297.585 239.318 297.729 239.15 297.914 238.937C298.282 238.51 298.81 237.901 299.446 237.173C300.717 235.716 302.419 233.782 304.143 231.872L304.145 231.87C304.88 231.048 305.646 230.231 306.385 229.444C306.816 228.983 307.238 228.534 307.639 228.099C308.663 227.028 309.548 226.108 310.177 225.456C310.492 225.13 310.743 224.871 310.915 224.693L311.112 224.49L311.163 224.438L311.176 224.424L311.179 224.421L311.18 224.42L311.18 224.42L311.18 224.42L310.821 224.072Z" fill="black" stroke="black"/>
<path d="M326.542 103.032L326.542 103.032L326.542 103.032L326.543 103.03L326.545 103.024L326.553 102.996C326.561 102.971 326.572 102.934 326.586 102.885C326.615 102.786 326.656 102.64 326.705 102.456C326.801 102.086 326.927 101.562 327.041 100.947L327.044 100.928L327.049 100.909C327.237 100.21 327.416 99.4911 327.504 98.7827L327.506 98.7716L327.507 98.7605C327.692 97.6745 327.843 96.574 327.947 95.7436C327.999 95.3288 328.04 94.9822 328.067 94.7395C328.081 94.6182 328.091 94.5229 328.098 94.458L328.106 94.3842L328.108 94.3656L328.109 94.361L328.109 94.3599L328.109 94.3596L328.109 94.3596L328.109 94.3596L328.11 94.3493L328.111 94.3391C328.17 93.9396 327.916 93.6062 327.557 93.5553L327.555 93.5551C327.183 93.5009 326.852 93.7265 326.762 94.1431C326.762 94.1432 326.762 94.1433 326.762 94.1434L326.762 94.1441L326.761 94.1487L326.757 94.167L326.742 94.2393C326.728 94.3029 326.709 94.3964 326.685 94.5155C326.636 94.7538 326.568 95.0946 326.489 95.5036C326.333 96.3203 326.136 97.4061 325.975 98.4898C325.961 98.6083 325.948 98.7253 325.934 98.8407C325.856 99.5034 325.783 100.117 325.746 100.695L325.745 100.707L325.744 100.718C325.674 101.341 325.628 101.895 325.599 102.293C325.584 102.492 325.574 102.652 325.568 102.762C325.564 102.816 325.562 102.859 325.561 102.887L325.559 102.919L325.559 102.927L325.558 102.929L325.558 102.929L325.558 102.929L326.542 103.032ZM326.542 103.032L326.542 103.032L326.542 103.032L326.525 103.086L326.521 103.142C326.502 103.378 326.241 103.577 325.989 103.531L325.966 103.527L325.942 103.525C325.702 103.504 325.506 103.243 325.551 102.994L325.557 102.962L325.558 102.929L326.542 103.032Z" fill="black" stroke="black"/>
<path d="M323.893 107.617L323.576 107.23L323.557 107.246L323.539 107.263C323.366 107.436 323.045 107.439 322.864 107.236L322.854 107.226L322.844 107.216C322.67 107.042 322.67 106.722 322.87 106.545L322.891 106.527L322.909 106.506L322.909 106.506L322.91 106.506L322.91 106.505L322.912 106.503L322.919 106.495L322.949 106.462C322.975 106.434 323.014 106.391 323.065 106.335C323.166 106.224 323.314 106.063 323.5 105.863C323.871 105.463 324.392 104.907 324.995 104.282C325.232 104.045 325.465 103.808 325.699 103.569C326.172 103.086 326.651 102.597 327.177 102.101L327.177 102.101L327.18 102.099C328.294 101.031 329.433 99.9977 330.293 99.2307C330.724 98.8474 331.084 98.531 331.337 98.3105C331.463 98.2003 331.562 98.1141 331.63 98.0556L331.707 97.9889L331.727 97.972L331.732 97.9678L331.733 97.9667L331.733 97.9665L331.733 97.9664L331.733 97.9665L331.741 97.9592C332.028 97.7017 332.456 97.7293 332.671 97.9674L332.679 97.9769L332.688 97.9858C332.936 98.2328 332.94 98.6606 332.641 98.9597L332.641 98.9597L332.637 98.9636L332.994 99.3134L332.637 98.9636L332.637 98.9637L332.637 98.964L332.636 98.9651L332.631 98.9697L332.613 98.9882L332.542 99.0608C332.479 99.1245 332.387 99.2179 332.269 99.3366C332.034 99.574 331.696 99.9126 331.289 100.317C330.474 101.125 329.381 102.194 328.265 103.239L328.263 103.24C327.877 103.605 327.477 103.948 327.08 104.286C327.054 104.308 327.028 104.331 327.002 104.353C326.639 104.663 326.277 104.972 325.943 105.282C325.271 105.837 324.681 106.323 324.258 106.67C324.045 106.845 323.874 106.985 323.757 107.081L323.622 107.192L323.588 107.22L323.579 107.228L323.577 107.229L323.576 107.23L323.576 107.23L323.576 107.23L323.893 107.617ZM327.329 104.731C327.749 104.373 328.184 104.002 328.606 103.604L326.273 105.658C326.601 105.352 326.959 105.047 327.329 104.731Z" fill="black" stroke="black"/>
<path d="M243.747 134.043L243.747 134.043C245.431 137.79 247.189 139.649 248.579 140.566C249.245 141.006 249.821 141.226 250.252 141.333C240.44 159.926 210.455 163.067 197.996 142.075C198.02 142.067 198.044 142.058 198.068 142.048C198.514 141.877 199.119 141.575 199.794 141.05C201.148 139.996 202.753 138.067 203.923 134.557L203.923 134.555C205.347 130.239 206.166 122.101 206.632 115.104C206.866 111.592 207.012 108.347 207.1 105.98C207.144 104.796 207.173 103.832 207.192 103.163C207.198 102.944 207.202 102.757 207.206 102.603L241.526 102.105C241.518 102.251 241.509 102.425 241.499 102.625C241.465 103.303 241.421 104.279 241.379 105.476C241.296 107.87 241.223 111.147 241.264 114.679C241.306 118.211 241.461 122.005 241.835 125.43C242.208 128.842 242.803 131.938 243.747 134.043Z" fill="#FAFAFA" stroke="black"/>
<path d="M240.859 110.948L242.767 130.905C221.434 130.711 209.765 124.415 205.108 113.522L240.859 110.948Z" fill="black" stroke="black"/>
<path d="M232.561 24.5514L232.561 24.5515C247.012 26.4149 259.91 31.6104 264.327 42.6248L264.328 42.6271C266.568 48.1327 266.707 55.1472 266.049 62.4204C265.619 67.1738 264.857 71.9828 264.137 76.5201C263.754 78.9316 263.384 81.2663 263.082 83.4752L263.082 83.4761C261.363 96.2265 257.2 107.02 249.928 114.179C242.675 121.319 232.263 124.906 217.888 123.125C205.112 121.535 196.365 115.057 191.091 106.321C185.808 97.5693 183.997 86.5223 185.178 75.8071L185.178 75.8071C185.489 72.979 185.719 70.0457 185.95 67.096C185.989 66.6042 186.027 66.112 186.066 65.6197C186.339 62.1703 186.633 58.715 187.08 55.3703C187.976 48.6712 189.482 42.4767 192.616 37.7202L192.617 37.7186C199.842 26.6607 214.77 22.2311 232.561 24.5514Z" fill="#FAFAFA" stroke="black"/>
<path d="M184.493 64.2583L184.488 64.2578C179.968 63.7801 175.819 67.5699 175.283 72.768L184.493 64.2583ZM184.493 64.2583C189.02 64.6921 192.379 69.201 191.841 74.4396C191.302 79.6812 187.159 83.4319 182.631 82.9971M184.493 64.2583L182.631 82.9971M182.631 82.9971C178.102 82.5172 174.745 78.0042 175.283 72.7682L182.631 82.9971Z" fill="#FAFAFA" stroke="black"/>
<path d="M265.673 72.4202L265.676 72.4206C270.657 72.9049 274.304 77.4963 273.816 82.6991C273.281 87.8954 268.755 91.6444 263.77 91.1147L263.766 91.1143C258.778 90.6295 255.09 86.0366 255.624 80.8403C256.158 75.685 260.642 71.8929 265.673 72.4202Z" fill="#FAFAFA" stroke="black"/>
<path d="M249.637 140.66C249.73 140.55 249.81 140.452 249.879 140.369L254.6 143.168C254.54 143.274 254.468 143.4 254.384 143.544C254.085 144.053 253.63 144.784 253.005 145.666C251.756 147.431 249.833 149.797 247.144 152.191C241.771 156.974 233.336 161.873 221.077 162.311L221.077 162.311C212.876 162.608 206 157.996 201.137 153.233C198.711 150.858 196.804 148.463 195.503 146.66C194.852 145.759 194.355 145.008 194.02 144.483C193.927 144.338 193.848 144.21 193.78 144.102L199.135 141.146C199.159 141.189 199.184 141.234 199.211 141.281C199.424 141.656 199.746 142.189 200.185 142.827C201.062 144.103 202.41 145.803 204.297 147.511C208.076 150.931 214.013 154.375 222.628 154.494L222.629 154.494C230.834 154.589 237.722 150.953 242.538 147.324C244.948 145.508 246.849 143.686 248.149 142.318C248.798 141.634 249.298 141.062 249.637 140.66Z" fill="black" stroke="black"/>
<path d="M270.662 25.4155L270.726 25.6216L270.919 25.7169C275.556 28.0001 278.13 32.1668 279.209 37.1971C280.29 42.238 279.861 48.1139 278.504 53.7101C277.147 59.3042 274.873 64.577 272.307 68.4042C271.024 70.3186 269.679 71.8536 268.355 72.8879C267.128 73.8465 265.958 74.3459 264.893 74.3684C263.71 72.3022 263.004 69.6256 262.627 66.7231C262.236 63.7151 262.202 60.5021 262.333 57.548C262.463 54.5955 262.757 51.9122 263.019 49.9667C263.15 48.9943 263.273 48.207 263.363 47.6636C263.407 47.3919 263.444 47.1812 263.469 47.0389C263.482 46.9677 263.492 46.9137 263.499 46.8776L263.506 46.8371L263.508 46.8272L263.508 46.8249L263.509 46.8244L262.627 46.4191C261.823 47.4263 260.51 48.3132 258.791 49.0547C257.078 49.7936 254.996 50.3732 252.695 50.7863C248.094 51.6126 242.668 51.7637 237.675 51.2259C232.668 50.6866 228.165 49.4617 225.364 47.5879C223.968 46.6544 223.035 45.5874 222.637 44.4038C222.244 43.2343 222.348 41.8748 223.174 40.2899L223.949 38.8021L222.486 39.6227C215.275 43.666 205.363 48.774 190.736 46.4225L190.08 46.317L190.16 46.9768L190.16 46.977L190.16 46.977L190.161 46.9783L190.161 46.9844L190.164 47.0109C190.167 47.0348 190.171 47.0712 190.176 47.1193C190.186 47.2155 190.2 47.3589 190.215 47.5448C190.246 47.9165 190.283 48.4577 190.305 49.1304C190.351 50.4766 190.341 52.3452 190.119 54.4338C189.686 58.5168 188.453 63.3606 185.33 66.8186C180.683 64.1392 179.342 59.0505 179.213 54.4491C179.147 52.1058 179.398 49.9265 179.667 48.3307C179.801 47.5337 179.939 46.8845 180.044 46.4358C180.096 46.2115 180.139 46.0375 180.17 45.9204C180.185 45.8619 180.197 45.8175 180.205 45.7882L180.214 45.7557L180.216 45.7482L180.216 45.7466L180.216 45.7465L180.216 45.7463L180.378 45.1754L179.788 45.113C175.387 44.6481 172.514 42.7637 170.839 40.3055C169.155 37.8344 168.646 34.7303 169.089 31.7805C169.533 28.828 170.921 26.0808 172.964 24.3244C174.989 22.5821 177.672 21.7981 180.8 22.7591L182.49 23.2784L181.322 21.9509L181.322 21.9508L181.322 21.9506L181.32 21.9488L181.313 21.9407L181.284 21.9069C181.258 21.8766 181.219 21.831 181.168 21.771C181.067 21.6509 180.92 21.4732 180.737 21.2448C180.372 20.7879 179.866 20.1292 179.305 19.3252C178.182 17.713 176.852 15.5345 175.995 13.2366C175.134 10.9287 174.776 8.57491 175.491 6.56547C176.194 4.58942 177.981 2.82249 181.691 1.76731C182.159 1.6352 182.782 1.64648 183.565 1.80395C184.341 1.96019 185.232 2.25121 186.213 2.63572C187.635 3.19316 189.202 3.92814 190.841 4.69689C191.471 4.9925 192.112 5.2931 192.76 5.59052C195.072 6.65259 197.455 7.66825 199.633 8.20262C201.796 8.73333 203.867 8.81826 205.475 7.87718L205.476 7.87695C217.226 0.987808 231.544 -1.12487 243.916 1.74424C256.278 4.61103 266.664 12.4378 270.662 25.4155Z" fill="black" stroke="black"/>
<path d="M201.288 72.2599L201.288 72.2599V72.2511C201.288 69.9491 203.082 68.1354 205.266 68.1328C207.395 68.1749 209.157 70.0242 209.159 72.339C209.114 74.655 207.309 76.4564 205.185 76.417L205.185 76.4169H205.176C203.048 76.4169 201.247 74.5657 201.288 72.2599Z" fill="black" stroke="black"/>
<path d="M199.195 83.2955L199.195 83.2955C201.631 83.3173 203.795 83.9943 205.33 85.0498C206.866 86.1065 207.731 87.5066 207.711 88.9933L207.711 88.9933V88.9999C207.711 90.4594 206.819 91.838 205.257 92.8692C203.699 93.898 201.524 94.541 199.112 94.5192V94.5192H199.107C196.674 94.5192 194.512 93.8429 192.979 92.7823C191.443 91.7202 190.577 90.3083 190.598 88.8193L190.598 88.8193V88.8123C190.598 87.3542 191.49 85.9756 193.052 84.9443C194.61 83.9155 196.785 83.2726 199.195 83.2955Z" fill="black" stroke="black"/>
<path d="M240.411 89.2882L240.411 89.2877C240.43 87.7995 241.327 86.4191 242.887 85.3894C244.444 84.361 246.62 83.7172 249.058 83.7168C251.466 83.7389 253.63 84.4259 255.171 85.4877C256.717 86.5526 257.59 87.9535 257.569 89.4141L257.569 89.4146C257.549 90.9042 256.65 92.2967 255.097 93.3319C253.545 94.3657 251.382 95.0085 248.972 94.9855L248.972 94.9855C246.536 94.9638 244.36 94.2763 242.813 93.2142C241.261 92.1494 240.39 90.7487 240.411 89.2882Z" fill="black" stroke="black"/>
<path d="M237.608 73.4264L237.608 73.4264V73.4171C237.608 71.115 239.402 69.3014 241.584 69.2988C243.713 69.3409 245.475 71.1925 245.477 73.505C245.432 75.8217 243.627 77.6246 241.506 77.583L241.506 77.5829H241.496C239.366 77.5829 237.565 75.7315 237.608 73.4264Z" fill="black" stroke="black"/>
<path d="M210.045 60.1966L210.03 60.188L210.014 60.1805C208.982 59.6911 207.912 59.4005 206.905 59.208L206.905 59.2079L206.9 59.207C205.829 59.0139 204.765 59.0139 203.75 59.0139H203.729C202.405 59.0139 201.112 59.1074 199.809 59.3953C198.892 59.5413 198.028 59.7814 197.176 60.0653L197.148 60.0746L197.121 60.0871C196.581 60.3409 195.951 60.0801 195.739 59.5941L195.74 59.594L195.734 59.5819C195.479 59.0393 195.741 58.4104 196.227 58.1985L196.252 58.1877L196.275 58.1744C197.871 57.2632 199.553 56.5818 201.321 56.1734L201.322 56.1731C202.078 55.9967 202.881 55.906 203.637 55.906H203.65L203.664 55.9053C204.45 55.8632 205.246 55.9491 206.018 56.0851C207.814 56.4445 209.524 57.1646 211.147 58.291L211.157 58.2982L211.168 58.3049C211.682 58.6242 211.846 59.3013 211.562 59.8168C211.239 60.3259 210.559 60.4864 210.045 60.1966Z" fill="black" stroke="black"/>
<path d="M235.707 55.1492L235.733 55.1351L235.758 55.1181C237.376 53.9949 239.083 53.3215 240.833 53.0059C241.632 52.873 242.438 52.8286 243.254 52.8281C244.023 52.8723 244.826 52.9643 245.576 53.1387C247.299 53.5938 248.984 54.3201 250.585 55.2341L250.597 55.241L250.609 55.2471C251.135 55.5101 251.371 56.114 251.129 56.6356C250.862 57.1611 250.217 57.3861 249.746 57.1518L249.722 57.1398L249.697 57.1304C248.975 56.8633 248.275 56.6857 247.588 56.5116C247.404 56.4648 247.22 56.4182 247.037 56.3702L247.028 56.3678L247.019 56.3657C245.713 56.0758 244.419 55.9793 243.146 55.9339L243.137 55.9335H243.128H243.112C242.096 55.9335 241.041 55.9335 239.981 56.0782L239.971 56.0797L239.96 56.0815C238.92 56.2688 237.841 56.5132 236.798 57.0075L236.782 57.015L236.767 57.0237C236.275 57.301 235.587 57.1276 235.25 56.5989C234.977 56.1007 235.162 55.438 235.707 55.1492Z" fill="black" stroke="black"/>
<path d="M228.517 98.9854C230.151 99.2656 231.506 99.7309 232.484 100.384L228.517 98.9854ZM228.517 98.9854C226.557 98.7052 224.269 98.7977 221.981 99.2656L228.517 98.9854ZM232.792 99.9895L232.777 99.9781L232.762 99.9679C231.703 99.2617 230.274 98.7792 228.601 98.4925L228.601 98.4924L228.588 98.4904C226.563 98.2009 224.216 98.2981 221.881 98.7757L221.88 98.7758C218.394 99.4926 214.9 101.173 212.611 104.528C212.384 104.833 211.995 104.889 211.723 104.692L211.71 104.683L211.697 104.675C211.443 104.513 211.328 104.129 211.53 103.773C213.915 100.135 217.704 98.0563 221.565 97.2818C223.66 96.8745 225.75 96.8294 227.603 97.1009L227.603 97.101L227.612 97.1021C230.079 97.4201 232.078 98.1903 233.335 99.2304L233.354 99.2465L233.375 99.2606C233.536 99.3683 233.606 99.6841 233.444 99.8911L233.443 99.8926C233.278 100.106 232.982 100.138 232.792 99.9895Z" fill="black" stroke="black"/>
<path d="M219.659 89.5543L219.659 89.5543L219.658 89.5484C219.285 88.3929 219.48 86.7029 220.04 84.3629C220.236 83.5948 220.469 82.7591 220.72 81.8555C221.89 77.6472 223.47 71.9655 223.743 64.7721C223.773 64.4883 223.993 64.3341 224.177 64.3512L224.2 64.3533H224.223C224.472 64.3533 224.631 64.5476 224.614 64.7427L224.613 64.754L224.612 64.7654C224.309 71.9602 222.768 77.6234 221.6 81.9182C221.339 82.8751 221.097 83.7641 220.892 84.5869L220.891 84.5893C220.657 85.547 220.463 86.4129 220.372 87.1807C220.28 87.9472 220.285 88.6559 220.478 89.2874L220.478 89.2874L220.482 89.3001C220.723 90.0173 221.21 90.4832 221.913 90.8084L221.913 90.8085L221.924 90.8132C222.772 91.1819 223.977 91.3199 225.443 91.275C225.663 91.2783 225.871 91.4588 225.871 91.7531C225.871 91.9896 225.674 92.1863 225.437 92.1863C223.493 92.1863 222.16 91.8992 221.262 91.4324C220.385 90.9762 219.901 90.3378 219.659 89.5543Z" fill="black" stroke="black"/>
</svg>
