<svg width="402" height="333" viewBox="0 0 402 333" fill="none" xmlns="http://www.w3.org/2000/svg">
<g clip-path="url(#clip0_101_992)">
<path d="M119.952 -0.326172C119.952 -0.326172 116.78 -0.26068 109.623 4.7003C102.462 9.66362 97.7891 12.6061 97.7891 21.569V293.155C97.7891 298.514 98.5859 304.368 106.241 307.842C113.898 311.315 119.741 312.386 123.901 311.682C128.059 310.98 119.952 -0.326172 119.952 -0.326172Z" fill="#373737"/>
<path d="M204.302 13.6498L226.79 17.0834C232.572 17.9652 236.842 22.9285 236.842 28.7666V282.927C236.842 288.702 232.659 293.633 226.952 294.585L122.622 311.989C115.401 313.196 108.824 307.639 108.824 300.332V11.4698C108.824 4.07867 115.544 -1.49746 122.826 -0.152551L153.55 5.52649L204.302 13.6498Z" fill="#484B6A"/>
<path d="M128.837 302.726C128.837 302.726 124.339 304.599 119.054 301.421C113.771 298.242 114.069 290.949 114.069 288.346V25.6643C114.069 25.6643 112.395 15.4734 116.227 12.2409C120.057 9.00608 121.716 7.14191 128.11 8.16639C134.502 9.18852 154.62 12.4093 154.62 12.4093C154.62 12.4093 155.413 12.5824 155.757 13.3309C156.102 14.0793 158.802 23.6294 164.511 25.6386C170.223 27.6478 185.462 28.7939 188.232 29.1634C191.005 29.5353 195.863 30.5668 198.945 27.3203C202.027 24.0761 202.993 20.3478 204.355 20.3712C205.719 20.3922 223.784 22.7827 226.845 24.4223C229.904 26.0619 232.142 27.9963 233.087 34.0495C234.031 40.1005 233.087 272.939 233.087 272.939C233.087 272.939 234.113 280.517 230.811 283.38C227.509 286.241 226.292 287.125 221.047 287.965C215.799 288.804 128.837 302.726 128.837 302.726Z" fill="white"/>
<path d="M125.062 303.781C122.351 303.781 119.709 302.825 117.614 301.042C115.05 298.86 113.578 295.679 113.578 292.316V18.8349C113.578 15.4714 115.05 12.2904 117.614 10.1081C120.18 7.92586 123.56 6.98091 126.888 7.51186L155.358 12.0705C155.641 12.115 155.834 12.3816 155.787 12.6623C155.742 12.9453 155.477 13.1371 155.194 13.0903L126.724 8.534C123.696 8.04749 120.621 8.90823 118.287 10.894C115.952 12.8798 114.614 15.7731 114.614 18.8349V292.316C114.614 295.375 115.952 298.268 118.287 300.254C120.621 302.24 123.696 303.101 126.724 302.616L223.798 287.076C228.895 286.26 232.596 281.928 232.596 276.775V34.3727C232.596 29.2199 228.895 24.8882 223.798 24.0718L203.496 20.823C203.213 20.7786 203.02 20.5119 203.065 20.2312C203.112 19.9482 203.377 19.7564 203.66 19.8032L223.962 23.0521C229.566 23.9502 233.632 28.71 233.632 34.3727V276.775C233.632 282.438 229.566 287.2 223.962 288.098L126.888 303.636C126.279 303.734 125.67 303.781 125.062 303.781Z" fill="#373737"/>
<path d="M192.425 30.2182C191.94 30.2182 191.452 30.1878 190.962 30.12L167.047 26.9132C163.306 26.4103 160.132 24.069 158.555 20.6494L154.946 12.8209C154.826 12.5612 154.941 12.2548 155.201 12.1355C155.459 12.0162 155.768 12.1285 155.888 12.3881L159.495 20.2167C160.925 23.3135 163.798 25.435 167.185 25.8887L191.1 29.0978C195.296 29.6592 199.39 27.5003 201.286 23.7228L203.114 20.0834C203.243 19.8284 203.555 19.7255 203.811 19.8518C204.066 19.9805 204.169 20.2916 204.04 20.5465L202.212 24.186C200.34 27.9166 196.524 30.2182 192.425 30.2182Z" fill="#373737"/>
<path d="M277.141 71.1682L253.313 69.0748L253.188 69.0631L229.486 66.9814L229.362 66.9697L205.659 64.888L205.535 64.8763L181.833 62.7946L181.709 62.7829L157.88 60.6895H157.87L116.93 30.0723L116.972 30.0769L141.881 32.9796L142.01 32.9937L166.788 35.8823L166.917 35.8963L191.695 38.7826L191.824 38.799L216.602 41.6853L216.734 41.6993L241.638 44.602L277.141 71.1682Z" fill="#373737"/>
<path d="M181.461 62.4184L181.336 62.4091L157.507 60.3157L116.6 29.7031L141.507 32.6058L141.638 32.6198L181.461 62.4184Z" fill="#9394A5"/>
<path d="M205.284 64.5158L205.16 64.5041L181.46 62.4201L181.336 62.4107L141.506 32.6074L141.637 32.6215L166.415 35.5101L166.544 35.5241L205.284 64.5158Z" fill="white"/>
<path d="M229.114 66.6089L228.989 66.5972L205.285 64.5155L205.161 64.5038L166.416 35.5098L166.545 35.5238L191.323 38.4101L191.452 38.4265L229.114 66.6089Z" fill="#9394A5"/>
<path d="M252.939 68.7023L252.815 68.6906L229.113 66.6089L228.989 66.5972L191.322 38.4102L191.451 38.4265L216.229 41.3128L216.358 41.3269L252.939 68.7023Z" fill="white"/>
<path d="M276.766 70.7954L252.94 68.702L252.815 68.6903L216.229 41.3125L216.358 41.3265L241.265 44.2292L276.766 70.7954Z" fill="#9394A5"/>
<path d="M181.5 64.4366C181.12 70.1063 177.853 74.8591 172.957 76.0567C166.587 77.6168 159.869 72.5763 157.952 64.7922C157.584 63.2952 157.42 61.8076 157.441 60.3691L157.87 60.6896H157.88L181.467 62.7619C181.474 62.5584 181.481 62.3549 181.498 62.1538C181.512 62.3573 181.521 62.5631 181.528 62.7666C181.547 63.3303 181.537 63.8893 181.5 64.4366Z" fill="#9394A5"/>
<path d="M205.521 67.1036C205.139 72.7663 201.872 77.5144 196.976 78.7166C190.605 80.2767 183.888 75.2339 181.973 67.4521C181.725 66.4393 181.568 65.4289 181.5 64.4371C181.463 63.8734 181.451 63.3144 181.467 62.7624C181.474 62.5589 181.481 62.3554 181.498 62.1543C181.512 62.3578 181.521 62.5636 181.528 62.7671L181.709 62.7835L181.833 62.7952L205.514 64.8769C205.516 64.8558 205.516 64.8324 205.516 64.8114C205.519 64.8348 205.521 64.8582 205.523 64.8769C205.57 65.63 205.57 66.3738 205.521 67.1036Z" fill="white"/>
<path d="M229.54 69.7668C229.158 75.4272 225.89 80.173 220.997 81.3705C214.626 82.9353 207.907 77.8901 205.992 70.1083C205.743 69.1002 205.589 68.0945 205.521 67.1027C205.467 66.3496 205.465 65.6058 205.514 64.876C205.516 64.855 205.516 64.8316 205.516 64.8105C205.518 64.8339 205.521 64.8573 205.523 64.876H205.535L205.659 64.8877L229.361 66.9694L229.486 66.9811L229.5 66.9835C229.516 67.1402 229.528 67.2969 229.537 67.4536C229.591 68.2372 229.591 69.009 229.54 69.7668Z" fill="#9394A5"/>
<path d="M245.017 84.0297C238.646 85.5898 231.929 80.5493 230.014 72.7652C229.766 71.7594 229.609 70.7537 229.541 69.7666C229.487 68.9854 229.487 68.2112 229.538 67.4534C229.55 67.2966 229.562 67.1423 229.576 66.9902L253.189 69.0626L253.313 69.0743L253.456 69.086C254.368 76.1357 250.848 82.5983 245.017 84.0297Z" fill="white"/>
<path d="M181.497 62.1543C181.511 62.3578 181.521 62.5636 181.528 62.7671L181.467 62.7624C181.474 62.5589 181.481 62.3554 181.497 62.1543Z" fill="#373737"/>
<path d="M205.523 64.8742H205.514C205.516 64.8538 205.516 64.831 205.516 64.8105C205.518 64.8333 205.52 64.856 205.523 64.8742Z" fill="#373737"/>
<path d="M276.769 71.3125C276.752 71.3125 276.738 71.3125 276.722 71.3102L157.249 60.869L157.13 60.7801L116.29 30.1184C116.06 29.9453 116.013 29.6225 116.187 29.3933C116.358 29.1664 116.684 29.1197 116.911 29.2904L157.634 59.8656L276.813 70.281C277.097 70.3044 277.308 70.5547 277.284 70.8401C277.259 71.109 277.034 71.3125 276.769 71.3125Z" fill="#373737"/>
<path d="M145.02 165.55C142.698 165.55 140.506 164.677 138.809 163.068C136.993 161.347 135.992 159.024 135.992 156.526V94.7839C135.992 92.2858 136.993 89.9609 138.809 88.2417C140.623 86.5202 143 85.6455 145.501 85.7718L206.827 88.9153C211.637 89.1633 215.405 93.1208 215.405 97.9298V153.38C215.405 158.187 211.637 162.147 206.827 162.394L145.501 165.538C145.339 165.545 145.18 165.55 145.02 165.55ZM145.023 86.7939C142.965 86.7939 141.027 87.5634 139.522 88.9902C137.914 90.5152 137.028 92.5712 137.028 94.7839V156.526C137.028 158.736 137.914 160.795 139.522 162.32C141.13 163.842 143.232 164.616 145.447 164.504L206.773 161.361C211.034 161.143 214.37 157.637 214.37 153.38V97.9274C214.37 93.6705 211.034 90.1667 206.773 89.9468L145.447 86.8032C145.306 86.7962 145.163 86.7916 145.023 86.7916V86.7939Z" fill="#373737"/>
<path d="M145.037 266.164C142.862 266.164 140.743 265.38 139.086 263.935C137.12 262.22 135.992 259.743 135.992 257.14V195.91C135.992 191.202 139.679 187.249 144.383 186.907L205.709 182.477C208.245 182.295 210.662 183.144 212.523 184.87C214.381 186.596 215.405 188.942 215.405 191.478V248.869C215.405 253.367 212.04 257.21 207.575 257.814L146.246 266.082C145.843 266.136 145.438 266.164 145.037 266.164ZM206.382 183.486C206.185 183.486 205.986 183.493 205.784 183.507L144.458 187.939C140.293 188.241 137.028 191.742 137.028 195.91V257.14C137.028 259.444 138.027 261.638 139.768 263.156C141.507 264.674 143.818 265.366 146.108 265.058L207.434 256.789C211.388 256.256 214.37 252.85 214.37 248.869V191.478C214.37 189.232 213.463 187.155 211.817 185.626C210.317 184.234 208.407 183.486 206.382 183.486Z" fill="#373737"/>
<path d="M194.77 79.5798C192.626 79.5798 190.066 78.8664 187.179 76.7589C180.781 72.0857 180.933 62.8022 180.942 62.4093C180.949 62.1239 181.186 61.8994 181.472 61.9064C181.758 61.9134 181.983 62.1497 181.978 62.435C181.976 62.5262 181.835 71.5758 187.791 75.9239C193.568 80.1434 197.855 78.319 199.894 76.8572C202.521 74.9743 204.052 72.0319 205.01 67.0194L205.357 64.622C205.397 64.339 205.659 64.1425 205.943 64.1846C206.227 64.2243 206.423 64.4886 206.381 64.7693L206.03 67.2019C205.017 72.5043 203.363 75.6432 200.498 77.6969C199.27 78.5787 197.311 79.5798 194.77 79.5821V79.5798Z" fill="#373737"/>
<path d="M242.328 85.0042C239.621 85.0042 237.036 83.8534 234.64 81.5846C228.361 75.6319 229.029 67.2958 229.06 66.9426C229.086 66.6572 229.339 66.4491 229.622 66.4748C229.906 66.4982 230.117 66.7508 230.091 67.0338C230.084 67.1157 229.446 75.2343 235.355 80.8338C237.621 82.9833 240.05 84.0452 242.569 83.9657C246.272 83.8605 248.961 81.4186 249.945 80.373C253.514 76.5815 253.561 69.2138 253.561 69.1412C253.561 68.8559 253.793 68.6243 254.079 68.6243C254.365 68.6243 254.597 68.8559 254.597 69.1412C254.597 69.4593 254.553 76.9885 250.7 81.0817C249.626 82.2208 246.689 84.8849 242.6 84.9995C242.508 85.0019 242.417 85.0042 242.328 85.0042Z" fill="#373737"/>
<path d="M248.475 285.769L245.344 286.704C245.344 286.704 246.563 289.941 244.05 292.657C241.54 295.375 238.981 299.604 237.687 300.596C236.396 301.587 233.546 304.373 234.399 306.181C235.252 307.989 236.836 308.754 241.636 307.503C246.439 306.251 252.057 301.697 253.578 300.909C255.099 300.121 261.333 297.553 260.954 296.427C260.576 295.302 255.779 283.453 255.779 283.453L248.475 285.769Z" fill="white"/>
<path d="M284.427 230.591C284.427 230.591 252.801 221.288 238.931 225.159C225.058 229.028 231.77 241.086 235.349 258.053C238.931 275.022 238.483 288.864 238.483 288.864C238.483 288.864 252.775 284.504 254.228 283.868C255.684 283.232 263.315 282.612 263.09 279.04C262.867 275.466 260.974 253.812 260.974 253.812C260.974 253.812 278.917 257.83 284.427 252.025C289.938 246.22 284.427 230.591 284.427 230.591Z" fill="#373737"/>
<path d="M238.205 308.608C236.899 308.608 235.809 308.295 235.013 307.647C234.211 306.999 233.81 306.403 233.747 305.769C233.651 304.772 234.363 303.916 235.444 302.62C235.988 301.968 236.604 301.226 237.265 300.298C237.534 299.921 237.785 299.568 238.02 299.236C240.169 296.207 241.149 294.825 243.684 292.294C246.166 289.817 244.927 287.04 244.873 286.923L244.645 286.43L245.152 286.226C245.36 286.142 245.7 286.058 246.218 285.932C247.141 285.707 248.534 285.363 250.449 284.727C253.364 283.759 255.441 282.776 255.462 282.767L255.952 282.533L256.163 283.034C256.362 283.509 261.054 294.698 261.457 296.305C261.769 297.549 260.22 298.275 257.651 299.474C255.609 300.426 252.811 301.734 249.916 303.769C245.442 306.917 241.238 308.608 238.205 308.608ZM246.009 287.05C246.328 288.163 246.706 290.741 244.418 293.026C241.943 295.493 240.977 296.852 238.866 299.832C238.629 300.164 238.378 300.52 238.109 300.897C237.427 301.858 236.768 302.646 236.241 303.28C235.359 304.337 234.722 305.102 234.778 305.668C234.811 306.003 235.102 306.388 235.664 306.845C237.912 308.664 243.399 307.09 249.321 302.924C252.291 300.836 255.134 299.507 257.213 298.537C258.781 297.804 260.557 296.974 260.452 296.555C260.156 295.379 257.14 288.049 255.413 283.925C254.62 284.276 252.94 284.987 250.777 285.707C248.822 286.357 247.348 286.72 246.466 286.935C246.298 286.977 246.143 287.015 246.009 287.047V287.05Z" fill="#373737"/>
<path d="M258.654 251.577C245.991 259.113 241.631 292.435 260.974 302.034C280.317 311.635 337.514 313.198 355.113 289.382C372.713 265.569 364.362 219.341 353.623 197.355C342.884 175.371 319.022 172.48 310.669 177.2C302.318 181.92 286.21 205.733 280.84 227.465C275.471 249.196 265.699 247.386 258.654 251.577Z" fill="#484B6A"/>
<path d="M292.87 186.98C292.87 186.98 287.601 190.554 283.823 195.415C280.045 200.278 279.248 201.269 279.248 201.269C279.248 201.269 261.054 202.406 257.276 204.368C253.497 206.331 259.263 214.162 260.557 214.611C261.848 215.062 280.919 216.749 284.955 212.779C288.994 208.813 295.059 202.362 298.141 195.714C301.223 189.065 292.87 186.98 292.87 186.98Z" fill="#9394A5"/>
<path d="M287.997 265.788C287.716 265.788 287.486 265.563 287.482 265.28C287.475 264.995 287.704 264.761 287.99 264.756C288.053 264.754 294.522 264.616 302.257 262.424C309.358 260.41 319.017 256.198 324.703 247.574C330.405 238.922 331.586 228.135 331.572 220.608C331.556 212.421 330.164 206.209 330.15 206.148C330.086 205.87 330.26 205.592 330.539 205.528C330.818 205.465 331.096 205.641 331.16 205.919C331.174 205.982 332.589 212.286 332.608 220.582C332.625 228.256 331.418 239.268 325.568 248.142C319.703 257.04 309.794 261.365 302.514 263.425C294.653 265.65 288.072 265.788 288.007 265.79H288L287.997 265.788Z" fill="#373737"/>
<path d="M296.451 184.749C296.451 184.749 285.513 200.179 282.133 212.779C278.751 225.381 279.564 235.563 279.564 235.563C279.564 235.563 304.19 245.153 314.547 241.754C319.989 239.967 316.931 237.214 317.728 235.802C322.6 227.168 329.186 197.274 328.975 194.657C328.764 192.042 325.584 181.621 322.699 182.615C319.816 183.607 320.313 186.292 314.198 187.331C308.083 188.369 296.451 184.749 296.451 184.749Z" fill="#9394A5"/>
<path d="M279.945 235.625C279.69 235.625 279.467 235.435 279.432 235.176C279.425 235.124 278.733 229.894 279.226 224.246C279.706 218.721 281.511 213.007 283.477 207.15C284.562 203.922 286.435 200.241 288.748 196.788C288.8 196.713 288.833 196.664 288.844 196.643C288.98 196.391 289.29 196.306 289.543 196.44C289.794 196.575 289.883 196.898 289.747 197.148C289.737 197.167 289.69 197.242 289.611 197.361C287.344 200.741 285.516 204.334 284.459 207.48C282.514 213.273 280.728 218.922 280.257 224.337C279.776 229.866 280.451 234.986 280.458 235.038C280.496 235.321 280.297 235.58 280.013 235.62C279.99 235.622 279.969 235.625 279.945 235.625Z" fill="#373737"/>
<path d="M313.95 203.65C314.583 201.047 321.035 187.28 325.585 190.851C330.134 194.423 329.834 197.326 331.847 202.832C333.86 208.34 327.474 235.107 315.441 237.984C303.41 240.861 289.092 236.794 284.52 233.32C279.945 229.847 275.571 225.16 275.571 225.16C275.571 225.16 278.728 218.713 280.388 217.113C282.045 215.514 282.631 215.062 282.631 215.062C282.631 215.062 292.697 217.048 298.962 219.132C305.224 221.214 305.747 221.438 305.747 221.438C305.747 221.438 312.799 208.391 313.95 203.65Z" fill="#9394A5"/>
<path d="M276.068 225.16C276.068 225.16 276.973 221.612 278.66 219.385C280.348 217.156 282.631 215.063 282.631 215.063C282.631 215.063 277.875 209.971 275.852 209.241C273.83 208.514 267.764 210.301 267.467 210.598C267.169 210.895 268.163 218.882 268.261 219.032C268.362 219.182 272.935 222.952 272.935 222.952L276.068 225.16Z" fill="white"/>
<path d="M303.906 183.508C304.305 184.004 306.791 187.913 311.413 187.782C316.038 187.651 320.734 184.673 321.109 182.514C321.482 180.358 327.97 171.624 328.342 171.601C328.715 171.575 320.959 153.193 315.367 151.408C309.773 149.621 305.795 150.215 303.906 153.045C302.017 155.873 299.259 164.729 300.452 172.915C301.645 181.102 303.906 183.508 303.906 183.508Z" fill="white"/>
<path d="M276.401 226.087L270.139 221.098C269.916 220.92 269.878 220.595 270.056 220.373C270.237 220.148 270.563 220.113 270.785 220.291L275.778 224.267C276.066 223.346 276.694 221.683 277.934 219.58C279.342 217.192 281.03 215.665 281.848 215.007C280.163 213.316 276.659 209.986 275.372 209.604C273.985 209.193 270.052 210.147 268.655 210.549C268.378 210.626 268.092 210.47 268.013 210.196C267.933 209.922 268.092 209.635 268.367 209.555C268.91 209.399 273.739 208.042 275.667 208.615C277.582 209.181 282.453 214.14 283.001 214.703L283.43 215.145L282.921 215.492C282.898 215.506 280.603 217.094 278.824 220.106C277.034 223.138 276.579 225.245 276.574 225.266L276.401 226.087Z" fill="#373737"/>
<path d="M321.109 177.201H318.578C318.578 177.201 314.765 180.574 311.58 180.726C308.395 180.878 306.543 181.177 306.543 181.177L308.132 185.009C308.132 185.009 318.759 181.028 320.064 179.912C321.37 178.794 321.109 177.201 321.109 177.201Z" fill="#484B6A"/>
<path d="M268.51 213.296C268.254 213.296 268.032 213.108 267.997 212.846C267.959 212.563 268.161 212.304 268.444 212.266C269.907 212.075 273.762 211.562 274.041 211.516C274.322 211.466 274.59 211.656 274.639 211.937C274.688 212.217 274.498 212.486 274.217 212.533C273.863 212.596 268.794 213.263 268.578 213.291C268.557 213.296 268.533 213.296 268.51 213.296Z" fill="#373737"/>
<path d="M269.058 216.226C268.81 216.226 268.589 216.046 268.547 215.794C268.5 215.513 268.69 215.246 268.974 215.2L272.85 214.554C273.134 214.507 273.399 214.697 273.446 214.98C273.492 215.26 273.303 215.527 273.021 215.574L269.142 216.219C269.114 216.224 269.086 216.226 269.058 216.226Z" fill="#373737"/>
<path d="M269.604 219.005C269.374 219.005 269.163 218.85 269.102 218.619C269.032 218.34 269.196 218.06 269.475 217.987L271.188 217.54C271.465 217.468 271.748 217.634 271.821 217.91C271.894 218.186 271.727 218.469 271.451 218.542L269.735 218.988C269.69 219 269.648 219.005 269.604 219.005Z" fill="#373737"/>
<path d="M247.634 190.195L265.486 195.166C266.299 195.393 266.906 196.071 267.042 196.904L272.4 229.883C272.651 231.432 271.221 232.723 269.705 232.32L251.827 227.586C250.997 227.366 250.376 226.681 250.24 225.837L244.91 192.621C244.659 191.063 246.11 189.77 247.634 190.195Z" fill="#373737"/>
<path d="M311.266 152.748C311.266 152.748 306.89 151.955 303.808 163.961C300.726 175.967 304.603 179.838 306.096 180.236C307.586 180.631 309.476 184.104 308.878 186.981C308.283 189.861 306.562 190.951 302.651 191.348C298.736 191.746 298.439 197.402 292.474 195.318C286.507 193.234 291.677 188.471 288.893 185.99C286.108 183.51 281.634 176.365 288.893 173.09C296.151 169.816 298.439 169.617 296.252 165.152C294.063 160.687 294.86 149.375 303.511 148.384C312.159 147.389 311.564 150.765 311.266 146.894C310.966 143.025 312.956 138.459 319.617 139.849C326.28 141.238 331.549 152.252 332.245 155.328C332.941 158.404 333.736 160.263 338.311 161.865C342.883 163.465 342.089 174.578 339.206 176.861C336.321 179.143 336.396 180.432 337.291 183.485C338.186 186.535 336.621 187.353 334.905 188.991C333.19 190.628 335.501 193.334 334.233 195.776C332.967 198.22 329.908 197.105 329.908 197.105C329.908 197.105 326.552 191.447 322.676 189.363C318.797 187.281 316.261 183.559 318.722 180.36C321.183 177.158 320.587 176.638 322.451 176.414C324.316 176.192 328.045 172.173 325.509 170.311C322.973 168.452 321.63 172.992 319.842 172.396C318.051 171.801 321.855 166.665 320.512 165.325C319.169 163.987 312.607 164.062 311.266 159.075C309.923 154.088 311.266 152.748 311.266 152.748Z" fill="#373737"/>
<path d="M308.911 181.564C306.849 181.564 305.124 181.111 305.016 181.08C304.739 181.008 304.578 180.722 304.65 180.449C304.725 180.173 305.009 180.009 305.285 180.084C305.323 180.093 309.049 181.071 311.892 180.093C314.824 179.085 318.546 176.606 318.584 176.58L318.762 176.461L318.973 176.503C319.758 176.657 322.008 176.917 322.96 176.283C323.199 176.124 323.52 176.187 323.679 176.426C323.836 176.662 323.773 176.985 323.534 177.141C322.226 178.011 319.765 177.686 318.985 177.555C318.192 178.072 314.953 180.135 312.23 181.071C311.152 181.44 309.987 181.564 308.911 181.564Z" fill="#373737"/>
<path d="M311.269 188.305C308.848 188.305 307.674 187.294 307.59 187.217C307.377 187.025 307.36 186.698 307.55 186.487C307.742 186.277 308.068 186.258 308.279 186.445C308.333 186.492 311.698 189.24 319.287 184.317C319.527 184.16 319.848 184.228 320.002 184.467C320.159 184.708 320.091 185.026 319.852 185.182C316.091 187.622 313.259 188.305 311.272 188.305H311.269Z" fill="#373737"/>
<path d="M307.238 161.848C307.008 161.848 306.799 161.694 306.738 161.462C306.738 161.46 306.551 160.817 306.026 160.693C305.52 160.574 305.21 160.948 305.208 160.95C305.032 161.175 304.709 161.217 304.481 161.041C304.256 160.866 304.214 160.541 304.39 160.316C304.652 159.979 305.342 159.47 306.265 159.687C307.399 159.954 307.727 161.149 307.739 161.198C307.812 161.474 307.648 161.757 307.371 161.83C307.327 161.841 307.282 161.848 307.238 161.848Z" fill="#373737"/>
<path d="M310.668 162.38C310.542 162.38 310.415 162.335 310.314 162.242C310.106 162.048 310.094 161.72 310.291 161.512C311.041 160.707 312.975 159.547 314.92 160.909C315.152 161.072 315.208 161.395 315.044 161.629C314.88 161.863 314.557 161.919 314.325 161.755C312.623 160.562 311.111 162.148 311.048 162.216C310.945 162.326 310.807 162.38 310.668 162.38Z" fill="#373737"/>
<path d="M305.723 163.656C305.857 163.689 305.979 163.756 306.084 163.859C306.189 163.96 306.274 164.086 306.337 164.238C306.398 164.393 306.433 164.559 306.443 164.739C306.45 164.921 306.431 165.101 306.384 165.284C306.337 165.466 306.267 165.632 306.173 165.789C306.079 165.943 305.967 166.072 305.84 166.177C305.711 166.28 305.578 166.353 305.437 166.39C305.294 166.427 305.156 166.43 305.022 166.395C304.889 166.362 304.767 166.294 304.661 166.194C304.556 166.091 304.471 165.964 304.411 165.812C304.347 165.66 304.312 165.492 304.305 165.312C304.296 165.132 304.314 164.949 304.361 164.767C304.408 164.587 304.479 164.418 304.572 164.264C304.666 164.107 304.779 163.979 304.905 163.873C305.034 163.77 305.168 163.7 305.311 163.66C305.451 163.623 305.589 163.621 305.723 163.656Z" fill="#373737"/>
<path d="M198.114 293.949C198.114 293.949 191.062 299.018 188.969 301.27C186.878 303.525 183.419 304.875 181.382 305.707C179.345 306.54 172.848 308.126 169.923 310.427C166.998 312.729 164.903 313.447 166.694 317.119C168.484 320.789 170.798 321.888 176.13 323.201C181.459 324.51 185.259 321.456 186.878 319.65C188.498 317.842 189.977 315.58 193.398 313.992C196.82 312.406 205.073 306.353 205.073 306.353C205.073 306.353 201.843 301.888 200.399 299.06C198.958 296.232 198.114 293.949 198.114 293.949Z" fill="white"/>
<path d="M312.248 164.55C312.382 164.583 312.504 164.651 312.609 164.751C312.715 164.854 312.799 164.981 312.863 165.133C312.923 165.285 312.959 165.453 312.968 165.633C312.975 165.816 312.956 165.996 312.909 166.178C312.863 166.358 312.792 166.527 312.698 166.681C312.605 166.838 312.495 166.966 312.366 167.072C312.239 167.175 312.103 167.247 311.963 167.285C311.82 167.322 311.681 167.324 311.548 167.289C311.414 167.257 311.295 167.189 311.187 167.086C311.081 166.985 310.997 166.859 310.936 166.707C310.873 166.552 310.838 166.386 310.83 166.206C310.821 166.024 310.84 165.844 310.887 165.661C310.934 165.481 311.004 165.313 311.098 165.156C311.191 165.002 311.304 164.873 311.43 164.768C311.559 164.665 311.693 164.592 311.836 164.555C311.977 164.518 312.115 164.515 312.248 164.55Z" fill="#373737"/>
<path d="M306.593 172.118C306.583 172.118 306.574 172.118 306.567 172.116C305.878 172.083 305.587 171.699 305.473 171.475C304.887 170.31 306.347 167.98 306.808 167.293C306.968 167.056 307.289 166.993 307.528 167.152C307.765 167.311 307.828 167.632 307.669 167.87C306.898 169.016 306.187 170.591 306.398 171.012C306.426 171.063 306.532 171.079 306.619 171.084C306.905 171.098 307.125 171.341 307.111 171.627C307.097 171.903 306.867 172.118 306.593 172.118Z" fill="#373737"/>
<path d="M307.934 175.888C307.692 175.888 307.476 175.717 307.427 175.471C307.371 175.193 307.551 174.919 307.833 174.863C308.325 174.762 309.717 174.325 310.23 173.509C310.38 173.266 310.701 173.193 310.943 173.345C311.187 173.495 311.259 173.815 311.107 174.056C310.254 175.42 308.126 175.859 308.037 175.876C308.001 175.883 307.969 175.888 307.934 175.888Z" fill="#373737"/>
<path d="M246.843 203.748L247.267 207.313C247.267 207.313 250.199 209.794 252.316 211.006C254.432 212.22 255.288 212.416 255.035 213.289C254.784 214.161 254.348 214.33 254.814 215.148C255.281 215.967 255.21 217.342 254.559 217.417C253.907 217.494 254.749 218.39 254.559 218.776C254.369 219.164 253.851 219.569 254.034 220.123C254.217 220.68 253.938 222.331 250.806 222.219C247.673 222.107 246.089 220.851 245.121 219.843C244.15 218.832 242.976 214.173 242.688 212.987C242.397 211.801 242.641 210.945 242.184 209.68C241.727 208.414 243.974 206.16 244.668 205.547C245.36 204.936 246.843 203.748 246.843 203.748Z" fill="white"/>
<path d="M252.122 222.633C249.891 222.633 246.731 221.795 246.04 221.505C244.866 221.012 244.5 219.835 244.036 218.345C243.919 217.966 243.797 217.574 243.652 217.155C243.441 216.549 243.202 216.03 242.969 215.527C242.44 214.383 241.983 213.394 242.234 212.082C242.332 211.553 242.175 211.111 241.992 210.603C241.692 209.771 241.319 208.737 242.318 207.331C243.752 205.315 246.431 203.406 246.544 203.327C246.776 203.161 247.099 203.215 247.266 203.448C247.43 203.68 247.376 204.003 247.144 204.169C247.116 204.188 244.495 206.059 243.164 207.93C242.477 208.896 242.681 209.464 242.965 210.253C243.171 210.823 243.403 211.466 243.251 212.273C243.063 213.26 243.417 214.03 243.909 215.094C244.141 215.595 244.402 216.161 244.631 216.816C244.781 217.251 244.905 217.651 245.027 218.039C245.477 219.489 245.744 220.259 246.441 220.553C247.896 221.164 252.67 222.008 253.42 221.393C253.601 221.243 253.697 221.082 253.711 220.902C253.741 220.483 253.366 220.044 253.364 220.041C253.172 219.828 253.191 219.501 253.404 219.311C253.617 219.12 253.945 219.138 254.135 219.351C254.203 219.428 254.808 220.128 254.742 220.981C254.707 221.445 254.477 221.861 254.079 222.191C253.687 222.511 252.973 222.633 252.122 222.633Z" fill="#373737"/>
<path d="M252.544 220.358C251.878 220.358 251.002 220.276 249.839 220.07C247.992 219.745 246.298 219.261 246.225 219.24C245.951 219.162 245.791 218.875 245.871 218.601C245.948 218.327 246.237 218.168 246.511 218.248C249.991 219.242 253.404 219.628 253.812 219.074C254.002 218.814 254.074 218.589 254.027 218.405C253.952 218.115 253.601 217.899 253.472 217.839C253.214 217.719 253.097 217.415 253.214 217.156C253.334 216.896 253.636 216.781 253.896 216.896C253.99 216.938 254.81 217.322 255.028 218.138C255.12 218.484 255.129 219.031 254.646 219.684C254.414 220.002 253.938 220.355 252.544 220.355V220.358Z" fill="#373737"/>
<path d="M253.679 217.933C251.689 217.933 248.22 216.654 245.316 215.487C245 215.36 244.7 215.239 244.632 215.22C244.36 215.138 244.203 214.85 244.282 214.577C244.364 214.305 244.648 214.149 244.922 214.228C245.028 214.259 245.227 214.338 245.703 214.528C247.36 215.194 252.404 217.217 254.124 216.864C254.457 216.794 254.668 216.682 254.705 216.555C254.799 216.23 254.272 215.484 253.868 215.094C253.664 214.895 253.66 214.567 253.859 214.364C254.058 214.16 254.384 214.153 254.59 214.352C254.829 214.584 256.006 215.788 255.699 216.843C255.593 217.208 255.27 217.683 254.335 217.875C254.14 217.914 253.92 217.935 253.679 217.935V217.933Z" fill="#373737"/>
<path d="M253.736 215.213C252.173 215.213 249.292 214.107 244.431 211.7C244.059 211.513 243.705 211.337 243.611 211.3C243.355 211.225 243.198 210.968 243.25 210.703C243.306 210.423 243.58 210.243 243.859 210.299C243.977 210.322 244.087 210.374 244.891 210.774C246.077 211.361 248.284 212.455 250.305 213.246C253.691 214.572 254.172 214.104 254.174 214.1C254.589 213.644 254.528 213.354 254.507 213.258C254.42 212.848 253.895 212.17 251.884 211.277C249.55 210.243 246.721 207.805 246.602 207.703C246.386 207.515 246.363 207.19 246.548 206.975C246.735 206.76 247.063 206.737 247.279 206.921C247.307 206.947 250.113 209.361 252.304 210.334C254.294 211.216 255.316 212.076 255.522 213.045C255.648 213.644 255.452 214.231 254.943 214.792C254.69 215.07 254.298 215.215 253.736 215.215V215.213ZM243.618 211.302C243.634 211.307 243.648 211.309 243.658 211.312C243.644 211.309 243.632 211.307 243.618 211.302Z" fill="#373737"/>
<path d="M177.966 323.837C175.111 323.837 172.083 322.995 169.376 321.058C166.559 319.045 165.244 316.982 165.464 314.928C165.708 312.694 167.815 310.662 171.56 309.05C173.4 308.26 175.151 307.593 176.843 306.947C181.12 305.317 184.816 303.907 188.248 301.184C193.062 297.36 197.742 293.582 197.789 293.545L198.464 293L198.624 293.851C198.631 293.889 198.952 295.451 200.581 298.574C202.247 301.774 205.456 305.995 205.486 306.037L205.777 306.419L205.418 306.737C205.31 306.833 202.732 309.09 197.283 312.299C196.802 312.582 196.355 312.844 195.938 313.09C191.564 315.648 190.39 316.336 187.273 319.982C185.243 322.354 181.756 323.837 177.966 323.837ZM197.827 294.843C196.397 295.994 192.687 298.978 188.892 301.991C185.337 304.814 181.57 306.25 177.211 307.913C175.531 308.554 173.791 309.218 171.97 310C168.588 311.455 166.695 313.197 166.495 315.04C166.317 316.673 167.522 318.462 169.978 320.219C175.816 324.394 183.227 323.121 186.485 319.311C189.715 315.534 191.037 314.762 195.413 312.198C195.83 311.953 196.277 311.691 196.758 311.41C200.972 308.926 203.48 306.989 204.366 306.269C203.52 305.13 201.084 301.785 199.659 299.051C198.609 297.035 198.082 295.641 197.827 294.843Z" fill="#373737"/>
<path d="M309.998 223.966C309.927 223.966 309.855 223.952 309.787 223.921C309.73 223.896 304.202 221.442 296.734 218.979C289.288 216.521 282.625 215.585 282.559 215.576C282.276 215.536 282.077 215.277 282.116 214.994C282.156 214.71 282.416 214.514 282.7 214.551C282.768 214.561 289.52 215.508 297.06 217.997C304.579 220.478 310.152 222.953 310.209 222.976C310.469 223.093 310.586 223.4 310.471 223.659C310.384 223.851 310.195 223.966 309.998 223.966Z" fill="#373737"/>
<path d="M305.746 221.955C305.674 221.955 305.599 221.939 305.528 221.906C305.268 221.785 305.156 221.478 305.278 221.219L313.282 204.149C313.403 203.891 313.711 203.779 313.971 203.901C314.228 204.022 314.341 204.329 314.219 204.588L306.215 221.658C306.128 221.845 305.941 221.955 305.746 221.955Z" fill="#373737"/>
<path d="M314.547 241.754C312.633 242.554 287.105 234.56 269.058 235.107C251.011 235.652 246.387 235.802 239.229 243.392C232.069 250.982 195.827 289.383 195.827 289.383C195.827 289.383 195.942 292.456 201.752 301.588C207.56 310.717 216.708 312.055 216.708 312.055C216.708 312.055 248.55 265.42 251.458 264.527C254.367 263.633 290.433 272.437 304.23 260.607C315.342 251.082 314.547 241.754 314.547 241.754Z" fill="#373737"/>
<path d="M195.828 289.899C195.701 289.899 195.572 289.853 195.474 289.759C195.265 289.565 195.256 289.237 195.45 289.029L234.349 247.809C234.809 247.218 241.437 238.743 246.005 237.487C254.642 235.113 264.938 234.204 276.612 234.786C292.486 235.576 303.94 239.291 304.055 239.328C304.327 239.417 304.474 239.709 304.385 239.981C304.294 240.252 304.003 240.399 303.731 240.311C303.619 240.273 292.285 236.601 276.56 235.817C264.996 235.242 254.81 236.138 246.282 238.484C241.978 239.667 235.224 248.373 235.156 248.46L235.121 248.499L196.205 289.738C196.102 289.846 195.966 289.899 195.828 289.899Z" fill="white"/>
<path d="M238.9 280.868C238.787 280.868 238.675 280.83 238.579 280.755C238.356 280.577 238.316 280.252 238.495 280.03L251.23 263.982L251.514 264.015C251.683 264.034 268.422 265.875 272.453 266.071C272.739 266.085 272.959 266.328 272.945 266.614C272.931 266.899 272.692 267.117 272.404 267.105C268.633 266.92 253.923 265.318 251.685 265.072L239.308 280.671C239.205 280.8 239.052 280.868 238.9 280.868Z" fill="white"/>
<path d="M277.141 71.1681L265.828 70.1741L254.079 69.1426C253.758 71.2453 253.842 73.5118 254.407 75.797C256.319 83.5788 263.037 88.6216 269.409 87.0592C275.482 85.5716 279.042 78.6248 277.709 71.2406L277.141 71.1681Z" fill="#9394A5"/>
<path d="M149.562 131.889C149.562 131.889 152.246 117.025 157.59 107.901C163.505 97.801 171.659 94.723 171.659 94.723C171.659 94.723 176.408 94.6504 180.957 94.7253C185.506 94.8001 187.571 95.4925 189.01 96.5123C192.118 98.7133 195.214 100.811 200.047 109.51C204.662 117.818 206.909 130.795 206.909 130.795C206.909 130.795 204.863 131.466 201.687 131.936C199.85 132.207 197.612 132.432 197.612 132.432C197.612 132.432 195.828 125.628 195.052 124.049C194.321 122.569 192.216 115.142 192.216 115.142C192.216 115.142 191.82 119.916 191.471 121.715C191.148 123.387 189.608 128.938 189.608 128.938C189.608 128.938 191.994 131.639 194.18 139.082C195.064 142.087 197.745 151.102 197.745 151.102C197.745 151.102 194.38 152.903 181.159 153.42C171.847 153.782 161.656 152.105 161.656 152.105C161.656 152.105 163.081 141.729 164.054 138.387C165.627 132.965 168.577 127.202 168.577 127.202C168.577 127.202 166.691 123.228 166.191 121.418C165.723 119.724 164.776 115.788 164.776 115.788C164.776 115.788 163.655 117.823 162.066 123.38C160.475 128.938 159.481 133.204 159.481 133.204L149.562 131.889Z" fill="#484B6A"/>
<path d="M147.35 131.639L160.365 133.316L159.031 139.65L146.281 138.012L147.35 131.639Z" fill="white"/>
<path d="M159.358 140.11L145.8 138.368L147.004 131.178L160.863 132.965L159.358 140.11ZM146.758 137.657L158.704 139.191L159.867 133.669L147.691 132.099L146.758 137.657Z" fill="#373737"/>
<path d="M198.95 131.822L196.766 132.281L197.736 137.939C197.736 137.939 208.899 135.934 208.848 135.607C208.794 135.277 207.945 129.928 207.945 129.928L198.95 131.822Z" fill="white"/>
<path d="M197.398 138.43L196.289 131.96L208.284 129.432L209.316 135.929L197.398 138.43ZM197.241 132.603L198.07 137.445L208.376 135.281L207.602 130.421L197.241 132.603Z" fill="#373737"/>
<path d="M178.643 124.82C178.643 124.82 175.486 123.947 171.982 111.221C168.478 98.4946 171.658 94.7218 171.658 94.7218L174.541 94.6914C174.541 94.6914 175.289 103.928 176.854 110.625C178.42 117.323 180.211 124.541 180.211 124.541L178.643 124.82Z" fill="white"/>
<path d="M180.211 124.541C180.211 124.541 181.65 116.158 182.595 107.225C183.541 98.295 182.595 94.7818 182.595 94.7818C182.595 94.7818 185.114 94.4731 185.62 95.1444C186.127 95.8156 188.332 101.717 186.741 109.754C185.149 117.793 182.297 124.58 182.297 124.58L180.211 124.541Z" fill="white"/>
<path d="M178.236 128.039C178.236 128.039 177.303 142.178 177.078 146.271C176.855 150.365 175.451 153.314 176.032 153.433C177.228 153.677 181.158 153.417 181.158 153.417C181.158 153.417 180.284 135.407 180.211 133.173C180.136 130.942 180.204 130.287 179.815 129.927C179.426 129.564 178.236 128.039 178.236 128.039Z" fill="white"/>
<path d="M181.158 130.134C181.158 130.134 182.025 138.342 183.094 143.909C184.163 149.473 185.164 153.206 185.164 153.206L189.743 152.792C189.743 152.792 185.506 140.12 184.536 136.536C183.565 132.953 182.595 129.035 182.595 129.035L181.158 130.134Z" fill="white"/>
<path d="M171.981 129.022C170.84 129.095 168.278 129.174 167.533 128.162C166.785 127.146 166.973 125.1 168.538 125.175C170.104 125.25 176.263 126.59 177.494 125.893C178.724 125.198 178.082 124.648 179.687 124.583C181.293 124.517 181.588 124.101 182.296 124.583C183.006 125.062 182.099 125.766 184.063 125.247C186.025 124.728 190.462 124.244 190.909 125.062C191.357 125.881 191.512 128.045 189.44 128.258C187.368 128.47 183.074 128.461 183.602 129.231C184.129 130 182.148 125.324 182.148 125.324C182.148 125.324 189.273 141.101 188.188 142.443C187.103 143.786 184.982 144.642 184.459 142.443C183.937 140.245 181.949 129.703 181.949 129.703L179.465 129.928C179.465 129.928 179.437 131.24 179.448 132.479C179.46 133.719 180.159 143.033 178.642 144.207C177.126 145.379 175.462 143.699 175.523 143.098C175.586 142.497 177.524 131.34 177.674 130.346C177.822 129.354 178.122 128.562 177.027 128.611C175.933 128.66 173.249 128.94 171.981 129.022Z" fill="white"/>
<path d="M180.919 130.551C180.75 130.551 180.567 130.532 180.37 130.497C178.863 130.226 178.551 129.568 178.343 128.862C178.315 128.768 178.289 128.682 178.258 128.607C178.219 128.506 178.176 128.401 178.132 128.296C177.708 127.267 177.225 126.1 177.747 125.19C178.066 124.638 178.683 124.306 179.632 124.172C181.312 123.941 182.426 124.154 183.03 124.827C183.518 125.367 183.633 126.172 183.37 127.213C182.925 128.991 182.536 130.551 180.919 130.551ZM180.82 124.909C180.501 124.909 180.14 124.937 179.744 124.993C179.076 125.084 178.645 125.29 178.467 125.601C178.146 126.158 178.563 127.168 178.898 127.98C178.943 128.088 178.987 128.195 179.029 128.298C179.074 128.41 179.107 128.52 179.137 128.628C179.273 129.084 179.388 129.479 180.518 129.683C181.683 129.893 181.985 129.337 182.566 127.012C182.758 126.254 182.707 125.704 182.414 125.379C182.135 125.068 181.591 124.909 180.822 124.909H180.82Z" fill="#373737"/>
<path d="M171.283 129.446C169.685 129.446 168.297 129.306 167.707 128.89C167.203 128.539 166.91 128.078 166.828 127.524C166.657 126.335 167.58 125.157 167.62 125.107L167.761 124.93L167.988 124.953C167.988 124.953 170.906 125.262 172.795 125.458C174.63 125.65 177.895 125.458 177.928 125.458C178.153 125.442 178.352 125.617 178.366 125.847C178.378 126.073 178.204 126.27 177.977 126.282C177.839 126.291 174.609 126.478 172.708 126.282C171.147 126.12 168.881 125.879 168.143 125.802C167.936 126.116 167.559 126.792 167.648 127.409C167.697 127.732 167.871 127.994 168.182 128.214C169.27 128.976 175.141 128.513 178.586 128.043C178.814 128.01 179.022 128.169 179.053 128.396C179.086 128.623 178.926 128.831 178.699 128.862C178.082 128.946 174.304 129.444 171.283 129.444V129.446Z" fill="#373737"/>
<path d="M185.468 128.903C184.061 128.903 182.611 128.882 182.59 128.882C182.36 128.88 182.177 128.693 182.182 128.464C182.184 128.237 182.369 128.057 182.594 128.057H182.601C182.634 128.057 185.885 128.101 187.357 128.057C189.904 127.977 190.732 127.444 190.732 127.198C190.739 126.162 190.315 125.306 190.097 124.936L183.143 125.774C182.915 125.802 182.709 125.641 182.683 125.414C182.655 125.187 182.817 124.981 183.044 124.953L190.497 124.055L190.64 124.251C190.678 124.303 191.568 125.533 191.561 127.201C191.554 128.485 189.286 128.824 187.383 128.882C186.881 128.899 186.18 128.903 185.468 128.903Z" fill="#373737"/>
<path d="M178.259 144.943C178.237 144.943 178.216 144.941 178.198 144.941C177.994 144.922 177.792 144.91 177.595 144.901C176.705 144.85 175.866 144.803 175.406 144.171C175.05 143.682 175.017 142.96 175.298 141.893C175.995 139.266 177.511 128.594 177.527 128.486C177.558 128.259 177.769 128.102 177.994 128.135C178.221 128.166 178.378 128.376 178.348 128.601C178.284 129.043 176.808 139.432 176.1 142.104C175.891 142.889 175.884 143.42 176.077 143.685C176.304 143.998 176.925 144.033 177.642 144.075C177.83 144.085 178.022 144.096 178.219 144.113C178.38 143.944 178.931 142.915 179.034 136.701C179.093 133.194 178.973 129.772 178.973 129.737C178.964 129.508 179.145 129.319 179.372 129.309C179.595 129.302 179.794 129.48 179.801 129.709C179.88 131.978 180.206 143.371 178.77 144.728C178.587 144.901 178.402 144.943 178.261 144.943H178.259Z" fill="#373737"/>
<path d="M186.436 144.32C185.611 144.32 184.91 143.853 184.598 143.067C184.216 142.105 183.489 138.281 182.85 134.908C182.418 132.635 181.931 130.062 181.783 129.704C181.675 129.529 181.708 129.297 181.872 129.164C182.05 129.019 182.311 129.045 182.456 129.222C182.634 129.44 182.803 130.216 183.665 134.754C184.265 137.926 185.015 141.874 185.367 142.76C185.688 143.567 186.45 143.511 186.675 143.471C187.2 143.385 187.746 142.997 187.776 142.421C187.825 141.399 184.982 133.416 183.178 128.626C183.096 128.411 183.204 128.172 183.419 128.093C183.632 128.013 183.872 128.121 183.954 128.334C184.436 129.62 188.679 140.931 188.604 142.463C188.557 143.371 187.821 144.122 186.811 144.288C186.684 144.309 186.557 144.32 186.436 144.32ZM181.814 129.744C181.814 129.744 181.814 129.744 181.814 129.746C181.814 129.746 181.814 129.746 181.814 129.744Z" fill="#373737"/>
<path d="M147.085 180.514L138.521 181.091C137.433 181.164 136.51 180.303 136.51 179.215V170.702C136.51 169.703 137.293 168.88 138.291 168.826L146.855 168.36C147.933 168.302 148.84 169.158 148.84 170.236V178.64C148.84 179.627 148.074 180.448 147.085 180.514Z" fill="#373737"/>
<path d="M199.948 167.887L152.021 170.981V168.078L199.948 164.986V167.887Z" fill="#373737"/>
<path d="M179.763 173.674L152.021 175.681V172.778L179.763 170.771V173.674Z" fill="#373737"/>
<path d="M307.299 239.546C306.42 239.546 305.504 239.509 304.552 239.429C294.031 238.545 286.742 234.807 282.481 231.825C277.845 228.583 275.731 225.58 275.642 225.454C275.48 225.217 275.539 224.897 275.773 224.733C276.008 224.572 276.331 224.63 276.493 224.864C276.514 224.895 278.616 227.87 283.119 231.009C287.269 233.904 294.376 237.537 304.639 238.4C312.957 239.099 319.384 236.688 323.745 231.24C327.012 227.159 327.837 222.799 327.844 222.757C327.896 222.476 328.166 222.289 328.447 222.341C328.728 222.392 328.916 222.659 328.864 222.939C328.829 223.126 327.997 227.566 324.582 231.849C321.706 235.462 316.43 239.546 307.299 239.546Z" fill="#373737"/>
<path d="M157.964 210.978L196.111 207.842L203.928 234.625C203.928 234.625 201.411 238.249 194.848 239.622C188.731 240.903 182.951 240.216 182.951 240.216L178.449 227.251L175.7 241.846C175.7 241.846 169.266 243.109 163.526 242.695C156.568 242.194 151.709 239.622 151.709 239.622L157.962 210.978H157.964Z" fill="#373737"/>
<path d="M157.446 211.54V206.434L196.36 203.355L196.66 208.316L157.446 211.54ZM158.482 207.39V210.417L195.565 207.369L195.389 204.469L158.482 207.39Z" fill="#373737"/>
<path d="M129.793 268.825C130.004 269.398 129.793 319.391 129.793 319.391L72.1508 332.681L29.8555 320.923V269.356L29.9961 268.904L81.657 258.793C81.657 258.793 129.582 268.252 129.793 268.825Z" fill="#9394A5"/>
<mask id="mask0_101_992" style="mask-type:luminance" maskUnits="userSpaceOnUse" x="71" y="267" width="60" height="67">
<path d="M71.4004 267.701H130.8V333.415H71.4004V267.701Z" fill="white"/>
</mask>
<g mask="url(#mask0_101_992)">
<path d="M71.6328 333.333V279.619L95.0539 274.938C95.3352 274.882 95.607 275.062 95.6633 275.343C95.7195 275.624 95.5391 275.895 95.2578 275.951L72.6688 280.465V332.033L129.275 318.981V269.159L109.798 273.21C109.517 273.268 109.243 273.088 109.184 272.81C109.126 272.529 109.306 272.256 109.588 272.199L130.311 267.889V319.802L71.6328 333.333Z" fill="#373737"/>
</g>
<path d="M91.0527 274.402C91.2777 274.872 95.2832 274.914 95.2832 275.758V299.478L98.7355 294.332L100.025 298.039L100.971 293.848L103.571 298.432L105.019 293.071L106.067 296.662L107.396 292.496L109.693 296.985V273.829C109.693 273.829 109.974 272.767 109.1 272.575C108.225 272.383 99.4598 270.252 99.4598 270.935V273.588L91.0527 274.402Z" fill="white"/>
<path d="M51.9688 269.729L61.1938 277.287L99.4602 273.589V243.902L82.0602 240.303L51.9688 242.153V269.729Z" fill="#9394A5"/>
<path d="M61.0291 277.82L51.4502 269.973V256.823C51.4502 256.538 51.6822 256.306 51.9682 256.306C52.2541 256.306 52.4861 256.538 52.4861 256.823V269.484L61.3572 276.751L98.9439 273.119V244.576L82.0197 240.822L52.0033 242.869C51.7174 242.887 51.4713 242.672 51.4525 242.387C51.4314 242.102 51.6471 241.856 51.933 241.837L82.0971 239.781L99.9775 243.746V274.057L61.0291 277.82Z" fill="#373737"/>
<path d="M85.9848 245.694C85.7083 245.694 85.4786 245.475 85.4692 245.196C85.4575 244.911 85.6801 244.67 85.9661 244.661L99.4403 244.174C99.7262 244.165 99.9676 244.387 99.977 244.672C99.9887 244.958 99.7637 245.196 99.4778 245.206L86.0036 245.692C85.9989 245.692 85.9918 245.694 85.9848 245.694Z" fill="#373737"/>
<path d="M61.1928 277.803C60.9068 277.803 60.6748 277.571 60.6748 277.286V246.496L75.6748 245.385C75.9607 245.361 76.2092 245.576 76.2303 245.862C76.2514 246.145 76.0381 246.393 75.7521 246.414L61.7107 247.457V277.288C61.7107 277.574 61.4787 277.803 61.1928 277.803Z" fill="#373737"/>
<path d="M60.461 247.519C60.3837 247.519 60.304 247.5 60.229 247.462L51.004 242.841C50.7485 242.712 50.6454 242.401 50.7743 242.146C50.9032 241.891 51.2149 241.788 51.4704 241.917L60.6931 246.539C60.9485 246.667 61.054 246.978 60.9251 247.233C60.8337 247.413 60.6509 247.519 60.461 247.519Z" fill="#373737"/>
<path d="M64.7207 241.143C64.7207 241.143 67.8824 242.638 67.9926 242.774C68.1004 242.909 75.7152 245.639 75.7152 246.242V261.226L77.8293 258.875L79.3176 260.873L80.7309 258.272L82.8449 262.25L84.2957 258.15L85.9855 259.792V244.823C85.9855 244.823 73.7301 240.577 73.5402 240.514C73.3504 240.449 64.7207 241.143 64.7207 241.143Z" fill="white"/>
<path d="M282.518 131.379H262.059C259.437 131.379 257.309 133.5 257.309 136.12V147.277C257.309 149.897 259.437 152.018 262.059 152.018H282.518C282.623 152.018 282.727 152.013 282.83 152.006L287.269 156.436V136.12C287.269 133.5 285.141 131.379 282.518 131.379Z" fill="#373737"/>
<path d="M266.744 141.536C266.744 141.756 266.702 141.966 266.618 142.168C266.533 142.371 266.414 142.549 266.259 142.706C266.102 142.86 265.924 142.979 265.72 143.063C265.519 143.148 265.308 143.19 265.087 143.19C264.867 143.19 264.656 143.148 264.454 143.063C264.251 142.979 264.072 142.86 263.918 142.706C263.761 142.549 263.641 142.371 263.557 142.168C263.475 141.966 263.433 141.756 263.433 141.536C263.433 141.316 263.475 141.106 263.557 140.905C263.641 140.701 263.761 140.523 263.918 140.367C264.072 140.212 264.251 140.093 264.454 140.009C264.656 139.925 264.867 139.885 265.087 139.885C265.308 139.885 265.519 139.925 265.72 140.009C265.924 140.093 266.102 140.212 266.259 140.367C266.414 140.523 266.533 140.701 266.618 140.905C266.702 141.106 266.744 141.316 266.744 141.536Z" fill="white"/>
<path d="M273.509 141.536C273.509 141.756 273.467 141.966 273.382 142.168C273.298 142.371 273.179 142.549 273.024 142.706C272.869 142.86 272.689 142.979 272.487 143.063C272.283 143.148 272.072 143.19 271.854 143.19C271.634 143.19 271.423 143.148 271.219 143.063C271.018 142.979 270.837 142.86 270.682 142.706C270.528 142.549 270.408 142.371 270.324 142.168C270.239 141.966 270.197 141.756 270.197 141.536C270.197 141.316 270.239 141.106 270.324 140.905C270.408 140.701 270.528 140.523 270.682 140.367C270.837 140.212 271.018 140.093 271.219 140.009C271.423 139.925 271.634 139.885 271.854 139.885C272.072 139.885 272.283 139.925 272.487 140.009C272.689 140.093 272.869 140.212 273.024 140.367C273.179 140.523 273.298 140.701 273.382 140.905C273.467 141.106 273.509 141.316 273.509 141.536Z" fill="white"/>
<path d="M280.275 141.536C280.275 141.756 280.232 141.966 280.148 142.168C280.064 142.371 279.944 142.549 279.789 142.706C279.632 142.86 279.454 142.979 279.253 143.063C279.049 143.148 278.838 143.19 278.618 143.19C278.397 143.19 278.186 143.148 277.985 143.063C277.781 142.979 277.603 142.86 277.448 142.706C277.291 142.549 277.171 142.371 277.087 142.168C277.005 141.966 276.963 141.756 276.963 141.536C276.963 141.316 277.005 141.106 277.087 140.905C277.171 140.701 277.291 140.523 277.448 140.367C277.603 140.212 277.781 140.093 277.985 140.009C278.186 139.925 278.397 139.885 278.618 139.885C278.838 139.885 279.049 139.925 279.253 140.009C279.454 140.093 279.632 140.212 279.789 140.367C279.944 140.523 280.064 140.701 280.148 140.905C280.232 141.106 280.275 141.316 280.275 141.536Z" fill="white"/>
<path d="M141.875 78.1203L54.3191 73.557C50.9465 73.3815 48.1152 76.0644 48.1152 79.4348V108.024C48.1152 111.329 50.841 113.986 54.1504 113.909L141.706 111.853C142.053 111.844 142.39 111.806 142.721 111.741L142.676 111.83L147.464 119.408V83.9958C147.464 80.8663 145.008 78.2817 141.875 78.1203Z" fill="#373737"/>
<path d="M80.782 107.422L58.1695 107.798C56.5289 107.826 55.1836 106.507 55.1836 104.87V82.4882C55.1836 80.8159 56.5805 79.4826 58.2539 79.5598L80.8688 80.5937C82.4367 80.6662 83.6695 81.9549 83.6695 83.5221V104.493C83.6695 106.093 82.3852 107.396 80.782 107.422Z" fill="white"/>
<path d="M135.6 87.4115L87.6748 85.9076V82.5254L135.6 84.5088V87.4115Z" fill="white"/>
<path d="M127.221 92.4913L87.6748 91.806V88.4238L127.221 89.5886V92.4913Z" fill="white"/>
<path d="M321.457 174.476C321.171 174.476 320.939 174.244 320.939 173.959C320.939 172.2 324.118 171.26 324.291 171.26C324.577 171.26 324.809 171.491 324.809 171.777C324.809 172.032 324.624 172.242 324.38 172.287C323.75 172.446 321.975 173.253 321.975 173.959C321.975 174.244 321.743 174.476 321.457 174.476Z" fill="#373737"/>
<path d="M191.809 23.6531L175.346 21.2838C174.43 21.1528 173.75 20.3692 173.75 19.4477C173.75 18.3156 174.755 17.4478 175.876 17.6092L192.341 19.9763C193.255 20.1072 193.934 20.8908 193.934 21.8147C193.934 22.9444 192.931 23.8145 191.809 23.6531Z" fill="#373737"/>
<path d="M169.62 17.3411C169.671 17.5001 169.709 17.6638 169.732 17.8322C169.755 17.9983 169.763 18.1644 169.755 18.3305C169.748 18.4965 169.727 18.6602 169.69 18.8193C169.655 18.9784 169.603 19.1327 169.538 19.2801C169.472 19.4274 169.392 19.5631 169.301 19.6917C169.209 19.8204 169.109 19.9373 168.994 20.0426C168.879 20.1478 168.757 20.2391 168.626 20.3162C168.492 20.3958 168.354 20.4566 168.209 20.5057C168.063 20.5525 167.916 20.5829 167.763 20.5993C167.611 20.6133 167.456 20.611 167.304 20.5946C167.149 20.5759 166.997 20.5431 166.847 20.494C166.697 20.4426 166.552 20.3794 166.413 20.2975C166.273 20.218 166.141 20.1245 166.017 20.0169C165.893 19.9116 165.778 19.7923 165.675 19.6613C165.57 19.5327 165.478 19.3924 165.398 19.245C165.319 19.0976 165.253 18.9433 165.199 18.7819C165.148 18.6205 165.11 18.4568 165.087 18.2907C165.063 18.1246 165.056 17.9586 165.061 17.7925C165.068 17.6264 165.091 17.4627 165.129 17.3036C165.164 17.1423 165.216 16.9902 165.281 16.8429C165.347 16.6955 165.424 16.5575 165.516 16.4312C165.607 16.3026 165.71 16.1856 165.825 16.0804C165.938 15.9751 166.062 15.8839 166.193 15.8067C166.327 15.7272 166.465 15.6664 166.61 15.6172C166.753 15.5705 166.903 15.54 167.055 15.5237C167.208 15.5096 167.363 15.5096 167.515 15.5284C167.67 15.5471 167.822 15.5798 167.972 15.6289C168.122 15.6804 168.265 15.7435 168.405 15.8231C168.546 15.9049 168.677 15.9985 168.802 16.1037C168.926 16.2113 169.041 16.3306 169.144 16.4616C169.249 16.5903 169.341 16.7306 169.42 16.8779C169.5 17.0253 169.566 17.1797 169.62 17.3411Z" fill="#373737"/>
<path d="M118.636 177.033C118.636 177.989 118.6 178.944 118.53 179.898C118.46 180.85 118.357 181.795 118.216 182.735C118.078 183.673 117.904 184.599 117.698 185.516C117.492 186.433 117.253 187.333 116.981 188.218C116.707 189.102 116.404 189.965 116.067 190.809C115.732 191.654 115.366 192.475 114.97 193.27C114.576 194.065 114.152 194.835 113.7 195.574C113.247 196.313 112.771 197.022 112.268 197.697C111.764 198.376 111.236 199.017 110.686 199.625C110.135 200.233 109.565 200.801 108.972 201.332C108.379 201.866 107.77 202.357 107.142 202.808C106.514 203.26 105.871 203.669 105.213 204.034C104.557 204.401 103.886 204.721 103.204 205C102.525 205.278 101.833 205.51 101.135 205.697C100.436 205.884 99.7332 206.024 99.0254 206.118C98.3152 206.211 97.6051 206.258 96.8949 206.258C96.1824 206.258 95.4723 206.211 94.7621 206.118C94.0543 206.024 93.3512 205.884 92.6527 205.697C91.9543 205.51 91.2652 205.278 90.5832 205C89.9012 204.721 89.2309 204.401 88.5746 204.034C87.916 203.669 87.2738 203.26 86.6457 202.808C86.0176 202.357 85.4082 201.866 84.8152 201.332C84.2223 200.801 83.6527 200.233 83.102 199.625C82.5512 199.017 82.0238 198.376 81.5199 197.697C81.0184 197.022 80.5402 196.313 80.0879 195.574C79.6355 194.835 79.2137 194.065 78.8176 193.27C78.4215 192.475 78.0559 191.654 77.7207 190.809C77.3855 189.965 77.0809 189.102 76.809 188.218C76.5348 187.333 76.2957 186.433 76.0895 185.516C75.8832 184.599 75.7098 183.673 75.5715 182.735C75.4309 181.795 75.3277 180.85 75.2574 179.898C75.1871 178.944 75.1543 177.989 75.1543 177.033C75.1543 176.076 75.1871 175.119 75.2574 174.167C75.3277 173.215 75.4309 172.268 75.5715 171.33C75.7098 170.392 75.8832 169.464 76.0895 168.549C76.2957 167.632 76.5348 166.732 76.809 165.848C77.0809 164.963 77.3855 164.098 77.7207 163.256C78.0559 162.412 78.4215 161.591 78.8176 160.795C79.2137 159.998 79.6355 159.231 80.0879 158.491C80.5402 157.75 81.0184 157.044 81.5199 156.365C82.0238 155.689 82.5512 155.046 83.102 154.44C83.6527 153.832 84.2223 153.264 84.8152 152.731C85.4082 152.2 86.0176 151.708 86.6457 151.257C87.2738 150.806 87.916 150.396 88.5746 150.031C89.2309 149.664 89.9012 149.341 90.5832 149.063C91.2652 148.787 91.9543 148.553 92.6527 148.366C93.3512 148.181 94.0543 148.041 94.7621 147.947C95.4723 147.851 96.1824 147.805 96.8949 147.805C97.6051 147.805 98.3152 147.851 99.0254 147.947C99.7332 148.041 100.436 148.181 101.135 148.366C101.833 148.553 102.525 148.787 103.204 149.063C103.886 149.341 104.557 149.664 105.213 150.031C105.871 150.396 106.514 150.806 107.142 151.257C107.77 151.708 108.379 152.2 108.972 152.731C109.565 153.264 110.135 153.832 110.686 154.44C111.236 155.046 111.764 155.689 112.268 156.365C112.771 157.044 113.247 157.75 113.7 158.491C114.152 159.231 114.576 159.998 114.97 160.795C115.366 161.591 115.732 162.412 116.067 163.256C116.404 164.098 116.707 164.963 116.981 165.848C117.253 166.732 117.492 167.632 117.698 168.549C117.904 169.464 118.078 170.392 118.216 171.33C118.357 172.268 118.46 173.215 118.53 174.167C118.6 175.119 118.636 176.076 118.636 177.033Z" fill="#373737"/>
<path d="M99.2928 187.168C98.3061 188.964 95.9178 189.408 94.3499 188.087L87.1991 182.066C86.0202 181.075 85.8702 179.313 86.8663 178.134C87.8624 176.958 89.6272 176.808 90.8061 177.802L94.5749 180.974C95.1913 181.493 96.1311 181.32 96.5178 180.614L104.187 166.662C104.93 165.31 106.629 164.816 107.983 165.558C109.338 166.299 109.833 167.995 109.09 169.347L99.2928 187.168Z" fill="white"/>
<mask id="mask1_101_992" style="mask-type:luminance" maskUnits="userSpaceOnUse" x="29" y="268" width="45" height="13">
<path d="M29.2852 268.301H73.2V280.875H29.2852V268.301Z" fill="white"/>
</mask>
<g mask="url(#mask1_101_992)">
<path d="M72.1501 280.559C72.1079 280.559 72.0658 280.554 72.0236 280.542L29.7259 269.86C29.4494 269.79 29.2806 269.507 29.3509 269.231C29.4212 268.955 29.7048 268.789 29.9814 268.857L72.2767 279.539C72.5533 279.609 72.722 279.892 72.6517 280.168C72.5931 280.402 72.3822 280.559 72.1501 280.559Z" fill="#373737"/>
</g>
</g>
<defs>
<clipPath id="clip0_101_992">
<rect width="402" height="333" fill="white"/>
</clipPath>
</defs>
</svg>
